<?xml version="1.0" encoding="UTF-8"?>
<svg viewBox="0 0 105 19" xmlns="http://www.w3.org/2000/svg">
<path d="m104.46 5.472c-0.56-1.0907-1.769-1.918-3.083-1.918-1.154 0-2.1703 0.50759-2.1703 1.8237 0 1.1082 1.2793 1.8599 2.6103 2.7814 1.453 0.97711 2.959 2.179 2.959 4.2662 0 2.7252-2.469 4.3973-5.3238 4.3973-1.1735 0-2.3988-0.2442-3.7824-0.8079l0.227-3.6275c0.6661 1.4479 1.91 2.5935 3.7474 2.5935 1.4188 0 2.4688-0.7323 2.4688-2.011 0-1.0901-0.858-1.7662-1.908-2.4424-2.2073-1.4279-3.6072-2.5754-3.6072-4.642 0-3.1017 2.4163-4.135 4.9202-4.135 1.453 0 2.365 0.28219 3.292 0.28219l-0.35 3.4395zm-12.24 3.2504c-0.3164 0.56439-0.7174 1.3336-0.964 1.8986-0.2095 1.0708-0.3148 2.4999-0.3148 4.0776 0 0.6581 0.1053 1.5409 0.3852 1.8419h-3.6597c0.6471-0.6575 0.9106-4.697 0.8762-5.9757-0.4904-1.8224-1.1571-3.5706-2.1724-5.6946-0.6464-1.3336-1.4005-2.5941-1.8735-2.8377 0.8227-0.07433 1.8735-0.13112 2.382-0.13112 0.9099 0 1.156 0.13112 1.7169 1.4472 0.8739 2.124 1.5221 3.7199 1.9078 4.9049 0.9285-1.5602 1.5761-2.631 2.4168-4.097 0.21-0.35713 0.3852-0.80792 0.3852-1.2406 0-0.33899-0.053-0.71425-0.1926-0.88344h3.6253c-0.7005 0.16919-3.8534 5.488-4.5184 6.6899zm-12.732-3.2872-2.1707 5.0541h3.5368l-1.3661-5.0541zm4.256 11.236c-1.1566 0-1.2434-0.0369-2.1719-3.457l-0.3323-1.2593c-0.5597 0.2816-1.5592 0.4133-3.1522 0.4133h-1.611l-0.2805 0.6387c-0.4026 0.9596-0.9454 2.0853-0.9454 2.8763 0 0.1879 0.0174 0.394 0.0878 0.6575h-9.5621c0.5434-0.6575 0.7186-2.7809 0.981-6.6343l0.0523-0.92031c0.1403-2.1989 0.2467-3.8903 0.2281-5.0734-0.0174-0.97711-0.1053-1.5977-0.3502-1.8793h3.6956c-0.5259 0.43266-0.7191 2.7621-0.9635 6.6156l-0.0704 0.92029c-0.0878 1.4285-0.2624 2.8939-0.2624 4.3223 0 0.6569 0.245 0.8074 0.8762 0.8074 2.2406 0 2.802-0.0562 3.8167-0.7892 0.6302-1.2406 1.3492-2.8008 2.0486-4.4166l0.9472-2.1609c0.8925-2.0297 1.7675-4.0976 1.7675-4.4915 0-0.2828-0.0698-0.54506-0.174-0.80852h2.9417s1.1904 4.7363 1.4534 5.7502l0.5771 2.2932c0.9979 3.8528 1.6291 5.7315 2.4698 6.4645-0.7016 0.0942-1.6994 0.1311-2.0671 0.1311zm-23.833 0.1511c-3.4851 0-5.4993-3.0818-5.4993-6.5395 0-4.8106 2.4338-8.5329 7.0749-8.5329 1.4533 0 2.1369 0.28219 3.3093 0.28219l-0.3497 3.7024c-0.6656-1.2968-1.7518-2.1802-3.2046-2.1802-2.8893 0-4.0628 3.3458-4.0628 6.221 0 3.1192 1.6291 4.8288 3.7998 4.8288 1.1735 0 2.2063-0.3384 3.9406-1.6346-0.7005 2.4062-2.3295 3.8529-5.0082 3.8529zm-12.083-13.023c-0.3328 0-0.7365-1e-5 -1.0507 0.03745-0.1053 0.61999-0.1932 1.6914-0.3159 3.4196l-0.0704 1.0158c0.1762 0.03807 0.4031 0.05741 0.6137 0.05741 1.6803 0 2.837-1.0913 2.837-2.744 0-1.1288-0.7355-1.7862-2.0137-1.7862zm4.8849 13.362c-0.9978 0-1.2433-0.1698-1.5755-0.6587l-3.783-5.6379c-0.2979-0.432-0.5253-0.7891-0.9978-0.7891h-0.0878l-0.0693 1.0901c-0.0884 1.4847-0.1408 2.6697-0.1408 3.5525 0.0175 0.9771 0.1228 1.5777 0.3683 1.8225h-3.6602c0.5248-0.5076 0.7169-2.199 1.0153-6.6343l0.0529-0.92029c0.1402-2.1796 0.2456-3.8716 0.2275-5.0547-0.018-1.0339-0.1222-1.6732-0.3857-1.8986h4.9908c1.6285 0 3.8702 0.30153 3.8702 3.1386 0 2.3295-1.4539 3.6081-3.257 4.2087 0.1751 0.1698 0.4899 0.60186 0.6831 0.86535l2.749 3.909c1.7164 2.4243 1.856 2.5367 2.4698 2.8751-0.7709 0.0937-1.8036 0.1318-2.4698 0.1318zm-17.055-11.726-2.1904 5.0541h3.5548l-1.3644-5.0541zm4.2543 11.236c-1.1549 0-1.2428-0.0369-2.1708-3.457l-0.3328-1.2593c-0.5614 0.2816-1.5592 0.4133-3.1528 0.4133h-1.611l-0.2799 0.6387c-0.2804 0.6774-0.9635 2.0684-0.946 2.8763 0 0.1879 0.0175 0.3759 0.0878 0.6575h-3.2395c0.928-0.9959 2.1015-3.3072 3.73-7.047l0.946-2.1609c0.8576-1.9542 1.7687-4.1719 1.7687-4.4915 0-0.2828-0.0692-0.54506-0.1751-0.80852h2.9428s0.7692 3.1386 1.4528 5.7502l0.5777 2.2932c0.9984 3.8528 1.6285 5.7315 2.4692 6.4645-0.7528 0.0936-1.6988 0.1305-2.0671 0.1305zm-16.672-12.891c-0.263 0-0.6127-1e-5 -0.9455 0.03806-0.1402 1.0146-0.228 1.9917-0.2973 3.0625 0 0-0.0529 0.9203-0.0529 0.88283h0.3502c1.7164 0 3.293-0.63871 3.293-2.3289 0-0.97831-0.7534-1.6545-2.3475-1.6545zm-0.437 5.7502h-0.9629l-0.1402 2.1422c-0.0698 0.9402-0.1053 1.7288-0.1228 2.6684 0 0.1324 0.3852 0.4139 1.2952 0.4139 1.8914 0 3.1353-1.0145 3.1353-2.6878 0-1.8605-1.419-2.5367-3.2046-2.5367zm0.21 7.0096h-4.7283c0.5957-0.5644 0.7534-2.7628 1.0158-6.6343l0.0524-0.90157c0.1407-2.1989 0.2455-3.8903 0.228-5.0735-0.0174-1.0152-0.1227-1.6732-0.3857-1.8986h5.2887c1.2608 0 3.7829 0.07553 3.7829 2.8938 0 1.8793-1.6291 3.0443-3.1173 3.4588 2.1015 0.22539 3.6776 1.3149 3.6776 3.645-6e-4 2.518-2.2068 4.5103-5.8141 4.5103z" fill="#00AEEF"/>
<path d="m7.6417 0.0012171c-0.46851 0-0.56536 0.087628-0.7174 0.26951-0.05969-0.00423-0.12219-0.00544-0.18751-0.00544-0.36039 0-0.82326 0.056794-1.218 0.3402-0.38123 0.27011-0.56254 0.74808-0.35926 1.098 0 0 0.13627-0.2145 0.5845-0.2145 0.06307 0 0.13289 0.00723 0.20722 0.01388 0.61941 0.07856 1.0778 0.42843 1.022 1.3524-0.04955 0.92333-0.37221 1.953-1.6921 1.9651 0 0-0.17006 0-0.35138-0.01813-0.61435-0.0719-0.80749-0.48584-0.80749-0.48584s0.53101-0.1547 0.53551-0.87801c-0.0045-0.49187-0.40375-0.94205-0.9798-1.1239-0.18864-0.05922-0.39586-0.08822-0.61153-0.08822-0.6791 0-1.4416 0.30515-1.9557 1.0254-1.1656 1.6515-1.2602 4.0589-0.97586 6.2977 0.28606 2.2437 1.6122 4.3218 1.651 4.3786 0.02816 0.0398 0.0535 0.0616 0.08221 0.0616 0.01464 0 0.02985-0.0073 0.04562-0.0212 0.57267-0.5964 1.1189-1.4115 1.3526-1.9566 0.25002 0.2139 0.11938 0.6689-0.01802 1.1548-0.13064 0.4967-0.44823 1.1559-0.5631 1.3686-0.11093 0.2079-0.25959 0.4496-0.05969 0.5759 0.02027 0.0133 0.04617 0.0205 0.07714 0.0205 0.25678 0 0.86099-0.4803 1.535-1.4448 0.75456-1.0852 1.1375-2.0484 1.1375-2.0484 0.05519 0.0133 0.14754 0.1136 0.13233 0.3867-0.01013 0.2774-0.27592 1.3095-0.79341 2.2702-0.52312 0.9602-1.0063 1.5609-1.1037 1.6975-0.06026 0.0791-0.00901 0.1287 0.02984 0.1607 0.03829 0.0278 0.96347 0.9547 2.3076 1.7379 1.5925 0.9106 2.2986 1.0744 2.2986 1.0744s0.70444-0.1596 2.2969-1.0696c1.3435-0.7844 2.2727-1.7155 2.307-1.747 0.0389-0.0284 0.0884-0.0731 0.0299-0.1601-0.0918-0.1305-0.5767-0.7342-1.0987-1.6943-0.5158-0.9542-0.7917-1.993-0.7956-2.2667-0.0107-0.2761 0.076-0.3674 0.1289-0.3903 0 0 0.3869 0.9692 1.1414 2.0484 0.6774 0.9657 1.276 1.4448 1.5339 1.4448 0.0327 0 0.0586-0.0072 0.08-0.0205 0.1937-0.1263 0.0495-0.3716-0.0642-0.5771-0.1059-0.2115-0.428-0.8665-0.5648-1.3674-0.1312-0.4913-0.2675-0.9457-0.0129-1.1548 0.2342 0.5451 0.7765 1.3644 1.3508 1.9524 0.0152 0.0169 0.0327 0.0254 0.0496 0.0254 0.0253 0 0.0524-0.0212 0.076-0.058 0.0422-0.0605 1.3706-2.1349 1.6544-4.3822 0.2849-2.2437 0.1909-4.6456-0.9758-6.2977-0.5108-0.7221-1.2789-1.0291-1.9625-1.0291-0.2134 0-0.4172 0.02962-0.6036 0.08703-0.5806 0.18732-0.9781 0.64174-0.9747 1.1288 0 0.72331 0.5338 0.87799 0.5338 0.87799s-0.1785 0.40366-0.8148 0.48584c-0.1189 0.01572-0.2343 0.02296-0.3447 0.02296-0.4786 0-0.8818-0.16315-1.2534-0.72633-0.36039-0.54203-0.34857-1.6581-0.3694-2.0303-0.01633-0.37767-0.09179-1.2249-0.46175-1.5705-0.36883-0.35471-0.81819-0.47377-1.3785-0.49733-0.04111 0.0012085-0.07771 0.0012171-0.11206 0.0012171z" fill="#00AFE9"/>
</svg>
