<?xml version="1.0" encoding="UTF-8"?>
<svg fill="none" viewBox="0 0 160 175" xmlns="http://www.w3.org/2000/svg">
<path d="m55.99 148.33h-5.3335c-4.4106 0-8 3.59-8 8.001 0 4.41 3.5894 8 8 8h5.3335c4.4134 0 8-3.59 8-8 0-4.411-3.5894-8.001-8-8.001zm0 10.667h-5.3335c-1.4693 0-2.6665-1.195-2.6665-2.666 0-1.472 1.1972-2.667 2.6665-2.667h5.3335c1.4694 0 2.6665 1.195 2.6665 2.667 0 1.471-1.1971 2.666-2.6665 2.666z" fill="#333D47"/>
<path d="m82.656 148.33h-5.3334c-4.4107 0-8 3.59-8 8.001 0 4.41 3.5893 8 8 8h5.3334c4.4134 0 8-3.59 8-8 0-4.411-3.5894-8.001-8-8.001zm0 10.667h-5.3334c-1.4694 0-2.6666-1.195-2.6666-2.666 0-1.472 1.1972-2.667 2.6666-2.667h5.3334c1.4719 0 2.6666 1.195 2.6666 2.667 3e-4 1.471-1.1944 2.666-2.6666 2.666z" fill="#333D47"/>
<path d="m55.99 127h-5.3335c-4.4106 0-8 3.589-8 8s3.5894 8 8 8h5.3335c4.4134 0 8-3.589 8-8s-3.5894-8-8-8zm0 10.667h-5.3335c-1.4693 0-2.6665-1.195-2.6665-2.667s1.1972-2.667 2.6665-2.667h5.3335c1.4694 0 2.6665 1.195 2.6665 2.667s-1.1971 2.667-2.6665 2.667z" fill="#333D47"/>
<path d="m82.656 127h-5.3334c-4.4107 0-8 3.589-8 8s3.5893 8 8 8h5.3334c4.4134 0 8-3.589 8-8s-3.5894-8-8-8zm0 10.667h-5.3334c-1.4694 0-2.6666-1.195-2.6666-2.667s1.1972-2.667 2.6666-2.667h5.3334c1.4719 0 2.6666 1.195 2.6666 2.667s-1.1944 2.667-2.6666 2.667z" fill="#333D47"/>
<path d="m55.99 105.67h-5.3335c-4.4106 0-8 3.589-8 8 0 4.41 3.5894 8 8 8h5.3335c4.4134 0 8-3.59 8-8 0-4.411-3.5894-8-8-8zm0 10.667h-5.3335c-1.4693 0-2.6665-1.195-2.6665-2.667s1.1972-2.667 2.6665-2.667h5.3335c1.4694 0 2.6665 1.195 2.6665 2.667s-1.1971 2.667-2.6665 2.667z" fill="#333D47"/>
<path d="m82.656 105.67h-5.3334c-4.4107 0-8 3.589-8 8 0 4.41 3.5893 8 8 8h5.3334c4.4134 0 8-3.59 8-8 0-4.411-3.5894-8-8-8zm0 10.667h-5.3334c-1.4694 0-2.6666-1.195-2.6666-2.667s1.1972-2.667 2.6666-2.667h5.3334c1.4719 0 2.6666 1.195 2.6666 2.667s-1.1944 2.667-2.6666 2.667z" fill="#333D47"/>
<path d="m109.32 148.33h-5.334c-4.4104 0-7.9998 3.59-7.9998 8.001 0 4.41 3.5894 8 7.9998 8h5.334c4.413 0 8-3.59 8-8 0-4.411-3.59-8.001-8-8.001zm0 10.667h-5.334c-1.472 0-2.666-1.195-2.666-2.666 0-1.472 1.194-2.667 2.666-2.667h5.334c1.472 0 2.666 1.195 2.666 2.667 0 1.471-1.194 2.666-2.666 2.666z" fill="#333D47"/>
<path d="m109.32 127h-5.334c-4.4104 0-7.9998 3.589-7.9998 8s3.5894 8 7.9998 8h5.334c4.413 0 8-3.589 8-8s-3.59-8-8-8zm0 10.667h-5.334c-1.472 0-2.666-1.195-2.666-2.667s1.194-2.667 2.666-2.667h5.334c1.472 0 2.666 1.195 2.666 2.667s-1.194 2.667-2.666 2.667z" fill="#333D47"/>
<path d="m109.32 105.67h-5.334c-4.4104 0-7.9998 3.589-7.9998 8 0 4.41 3.5894 8 7.9998 8h5.334c4.413 0 8-3.59 8-8 0-4.411-3.59-8-8-8zm0 10.667h-5.334c-1.472 0-2.666-1.195-2.666-2.667s1.194-2.667 2.666-2.667h5.334c1.472 0 2.666 1.195 2.666 2.667s-1.194 2.667-2.666 2.667z" fill="#333D47"/>
<path d="m127.99 76.339c0.01 4.4188-0.446 8.8535-1.336 13.083-0.859 3.4481-1.36 6.9972-1.491 10.555l-2.133 61.968c-0.152 4.334-3.664 7.723-8 7.723h-70.062c-4.3306 0-7.8425-3.389-7.9947-7.717l-2.1334-61.979c-0.1335-3.5546-0.6347-7.104-1.4935-10.555-0.904-3.5919-1.36-7.2935-1.36-11.003v-50.08c0-4.4106 3.5894-8 8-8h79.998c3.648 0.0028 6.829 2.4694 7.744 6l5.163-1.3334c-1.517-5.8828-6.824-9.9947-12.901-10h-80c-7.3518 0-13.333 5.9812-13.333 13.333v50.08c0 4.1494 0.5119 8.2907 1.52 12.299 0.7681 3.0881 1.2159 6.2694 1.3334 9.4478l2.1335 61.974c0.2531 7.215 6.1062 12.866 13.325 12.866h0.0053 70.054 5e-3c7.221 0 13.075-5.651 13.325-12.872l2.134-61.963c0.12-3.1838 0.568-6.365 1.36-9.5516 0.986-4.6881 1.483-9.4959 1.472-14.288l-5.333 0.0134z" fill="#333D47"/>
<path d="m111.99 76.333v5.3335c0 1.4693-1.195 2.6665-2.667 2.6665h-58.667c-1.4694 0-2.6666-1.1972-2.6666-2.6665v-42.667c0-1.4694 1.1972-2.6666 2.6666-2.6666h24v-5.3334h-24c-4.4107 0-8.0001 3.5894-8.0001 8v42.666c0 4.4107 3.5894 8.0001 8.0001 8.0001h58.667c4.413 0 8-3.5894 8-8.0001v-5.3334h-5.333v3e-4z" fill="#333D47"/>
<path d="m55.989 95h-10.666v5.333h10.666v-5.333z" fill="#333D47"/>
<path d="m74.657 95h-10.667v5.333h10.667v-5.333z" fill="#333D47"/>
<path d="m95.989 95h-10.666v5.333h10.666v-5.333z" fill="#333D47"/>
<path d="M114.657 95H103.99V100.333H114.657V95Z" fill="#333D47"/>
<path d="m149.32 23h-66.667c-5.8828 0-10.667 4.7841-10.667 10.667v34.666c0 5.8828 4.7841 10.667 10.667 10.667h66.666c5.883 0 10.667-4.7841 10.667-10.667v-34.666c0-5.8825-4.784-10.667-10.666-10.667zm5.333 45.333c0 2.9413-2.392 5.3335-5.334 5.3335h-66.666c-2.9413 0-5.3334-2.3919-5.3334-5.3335v-34.667c0-2.9413 2.3918-5.3335 5.3334-5.3335h66.666c2.942 0 5.334 2.3919 5.334 5.3335v34.667z" fill="#333D47"/>
<path d="m127.99 36.333h-45.334v5.3334h45.334v-5.3334z" fill="#333D47"/>
<path d="m141.31 52.334c-1.587 0.0081-3.123 0.4747-4.446 1.3494l2.944 4.4481c0.454-0.3013 0.982-0.4613 1.515-0.4641 1.472 0 2.667 1.1972 2.667 2.6666s-1.195 2.6666-2.667 2.6666c-0.507 0-1-0.1441-1.429-0.4135l-2.849 4.5066c1.28 0.8106 2.76 1.24 4.278 1.24 4.413 0 8-3.5894 8-8s-3.589-7.9997-8.013-7.9997z" fill="#333D47"/>
<path d="m133.32 52.334c-4.41 0-8 3.5894-8 8s3.59 8 8 8c4.414 0 8-3.5894 8-8s-3.589-8-8-8zm0 10.667c-1.472 0-2.666-1.1972-2.666-2.6666s1.194-2.6666 2.666-2.6666 2.667 1.1972 2.667 2.6666-1.195 2.6666-2.667 2.6666z" fill="#333D47"/>
<path d="m87.99 52.334h-5.3335v5.3334h5.3335v-5.3334z" fill="#333D47"/>
<path d="m98.656 52.334h-5.3334v5.3334h5.3334v-5.3334z" fill="#333D47"/>
<path d="m109.32 52.334h-5.334v5.3334h5.334v-5.3334z" fill="#333D47"/>
<path d="m119.99 52.334h-5.334v5.3334h5.334v-5.3334z" fill="#333D47"/>
<path d="M119.99 63H82.6562V68.3334H119.99V63Z" fill="#333D47"/>
<path d="m19.905 45.765-3.7735-3.7681c-7.264 7.2718-7.264 19.106 0 26.381l3.7735-3.7681c-5.1894-5.1969-5.1894-13.65 0-18.845z" fill="#333D47"/>
<path d="m12.354 38.219-3.7706-3.7707c-11.432 11.435-11.432 30.04 0 41.477l3.7706-3.7706c-9.3519-9.3575-9.3519-24.581 0-33.936z" fill="#333D47"/>
<g clip-path="url(#a)">
<path d="m139 0c-3.164 0-6.258 0.93838-8.889 2.6965-2.631 1.7581-4.682 4.257-5.893 7.1806-1.211 2.9236-1.528 6.1406-0.911 9.2443 0.618 3.1037 2.142 5.9547 4.379 8.1923 2.238 2.2376 5.089 3.7615 8.193 4.3789 3.103 0.6173 6.32 0.3005 9.244-0.9105s5.422-3.2618 7.181-5.893c1.758-2.6312 2.696-5.7246 2.696-8.8891-0.012-4.2397-1.702-8.3021-4.7-11.3s-7.06-4.6876-11.3-4.7zm7.414 22-1.414 1.414-6-6-6 6-1.414-1.414 6-6-6-6 1.414-1.414 6 6 6-6 1.414 1.414-6 6 6 6z" fill="#FC5C02"/>
</g>
<defs>
<clipPath id="a">
<rect transform="translate(123)" width="32" height="32" fill="#fff"/>
</clipPath>
</defs>
</svg>
