<?xml version="1.0" encoding="UTF-8"?>
<svg viewBox="0 0 160 161" xmlns="http://www.w3.org/2000/svg">
<path d="m155 85.5c5e-3 -5.2069-0.958-10.369-2.842-15.224-3.091-8.0265-4.658-16.926-4.658-26.452v-2.4c0.011-9.1221-3.402-17.916-9.565-24.641-6.254-6.8309-14.685-10.828-23.743-11.256-4.734-0.22809-9.465 0.50749-13.906 2.1622-4.4416 1.6547-8.5007 4.194-11.932 7.4639-3.4308 3.27-6.1619 7.2026-8.0277 11.56-1.8658 4.3568-2.8275 9.0471-2.8268 13.787v2.45c0 10.182-1.5578 19.356-4.6284 27.265-2.6169 6.7472-3.4684 14.051-2.4741 21.219 0.4211 3.0702 1.193 6.082 2.3006 8.9765-0.1296 0.857-0.1958 1.723-0.1981 2.59v26.464l-13.232-13.232c-0.2321-0.232-0.5078-0.416-0.8111-0.542-0.3033-0.125-0.6284-0.19-0.9567-0.19h-20v-15h15c0.663 0 1.2989-0.263 1.7678-0.7322 0.4688-0.4688 0.7322-1.1047 0.7322-1.7677v-20c0-0.6631-0.2634-1.299-0.7322-1.7678-0.4689-0.4689-1.1048-0.7322-1.7678-0.7322h-45c-0.66304 0-1.2989 0.2633-1.7678 0.7322-0.46884 0.4688-0.73223 1.1047-0.73223 1.7678v20c0 0.663 0.26339 1.2989 0.73223 1.7677 0.46884 0.4692 1.1047 0.7322 1.7678 0.7322h15v15h-15c-0.66304 0-1.2989 0.263-1.7678 0.732s-0.73223 1.105-0.73223 1.768v35c0 0.663 0.26339 1.299 0.73223 1.768s1.1047 0.732 1.7678 0.732h72.5c0.3283 0 0.6534-0.065 0.9567-0.19 0.3033-0.126 0.5789-0.31 0.8111-0.542 0.2321-0.232 0.4163-0.508 0.5419-0.811 0.1256-0.304 0.1903-0.629 0.1903-0.957v-12.5c0-0.328-0.0646-0.653-0.1903-0.957-0.1256-0.303-0.3097-0.579-0.5419-0.811l-4.2678-4.268v-31.464c0.0027-0.799 0.0798-1.595 0.2303-2.38 0.5516-2.8492 2.0779-5.4176 4.3168-7.2642s5.0507-2.8563 7.9529-2.8557v16.375c-4.0018 3.731-6.4738 8.816-6.9358 14.268s1.119 10.881 4.4358 15.232v19.125h5v-20c0-0.585-0.205-1.151-0.5794-1.6-2.7884-3.355-4.1851-7.65-3.9024-12.003 0.2826-4.353 2.223-8.431 5.4218-11.397h38.12c3.199 2.966 5.139 7.044 5.422 11.397 0.282 4.353-1.114 8.648-3.903 12.003-0.374 0.449-0.579 1.015-0.579 1.6v20h5v-19.125c3.317-4.351 4.898-9.78 4.436-15.232s-2.934-10.537-6.936-14.268v-16.375c2.896 0.0041 5.701 1.0117 7.938 2.8513s3.767 4.3975 4.331 7.2386c0.152 0.794 0.229 1.601 0.231 2.41v52.5h5v-52.5c-2e-3 -0.874-0.068-1.747-0.198-2.612 1.795-4.7578 2.709-9.8026 2.698-14.888zm-145-5h40v15h-40v-15zm17.5 20h5v15h-5v-15zm-17.5 50v-30h6.4644l21.036 21.035v8.965h-27.5zm67.5 0h-35v-10c0-0.328-0.0646-0.653-0.1903-0.957-0.1256-0.303-0.3097-0.579-0.5419-0.811l-18.232-18.232h32.929l21.035 21.035v8.965zm18.114-60 4.2859 15h-4.9v-15h0.6141zm2.2662-42.115c0.245 0.5063 0.6009 0.951 1.0412 1.3011 0.4403 0.35 0.9538 0.5964 1.5025 0.7209 0.548 0.1245 1.118 0.1239 1.666-0.0018 0.549-0.1257 1.062-0.3732 1.501-0.7242 0.44-0.351 0.795-0.7965 1.039-1.3034 0.243-0.5069 0.37-1.0622 0.37-1.6247s-0.127-1.1178-0.371-1.6247c-0.244-0.5068-0.598-0.9523-1.038-1.3032 6.192-5.459 11.436-11.907 15.518-19.081l0.434 1.7359c2.004 7.977 6.552 15.084 12.957 20.244v6.2769c0 5.3043-2.107 10.391-5.858 14.142s-8.838 5.8579-14.142 5.8579-10.391-2.1072-14.142-5.8579c-3.7508-3.7507-5.8579-8.8378-5.8579-14.142v-1.0657c1.8497-1.1053 3.6409-2.2943 5.3803-3.5493zm11.418 44.615-5.725 7.1559-3.352-11.731 2.462-3.6931 6.615 8.2685zm13.019-8.2685 2.462 3.6931-3.352 11.731-5.725-7.1559 6.615-8.2685zm-9.817-6.7315c2.544 0.0016 5.073-0.3866 7.5-1.151v2.7738l-7.5 9.375-7.5-9.375v-2.7738c2.427 0.7644 4.956 1.1526 7.5 1.151zm0 19.002 6.798 8.4978h-13.596l6.798-8.4978zm17.5 8.4978h-4.9l4.286-15h0.614v15zm5-20h-6.162l-3.838-5.7569v-5.1066c3.798-2.1936 6.952-5.3475 9.146-9.1452 2.194-3.7976 3.351-8.1055 3.354-12.491v-7.5c0-0.3882-0.09-0.7709-0.264-1.1181-0.174-0.3471-0.426-0.6491-0.736-0.8819-6.004-4.5127-10.277-10.949-12.106-18.233l-1.969-7.8731c-0.122-0.4866-0.387-0.9253-0.761-1.2592s-0.84-0.5475-1.337-0.6131c-0.498-0.0656-1.003 0.0199-1.451 0.2454-0.448 0.2254-0.818 0.5804-1.062 1.0188l-2.711 4.8809c-6.181 11.127-15.292 20.348-26.344 26.663-0.3826 0.2187-0.7006 0.5347-0.9218 0.9159s-0.3376 0.814-0.3376 1.2548v2.5c0.0033 4.3858 1.16 8.6937 3.354 12.491 2.194 3.7977 5.3481 6.9516 9.146 9.1452v5.1066l-3.8378 5.7569h-6.1622c-2.7999 0.0014-5.5587 0.674-8.0451 1.9615s-4.6279 3.1523-6.2449 5.4381c-0.1421-0.7118-0.2615-1.4252-0.3581-2.14-0.9027-6.3262-0.1519-12.778 2.1793-18.728 3.2969-8.4944 4.9688-18.278 4.9688-29.081v-2.45c-7e-4 -4.0632 0.8237-8.0842 2.4234-11.819 1.5996-3.735 3.9411-7.1063 6.8825-9.9094 2.9415-2.803 6.4215-4.9796 10.229-6.3976 3.808-1.418 7.864-2.048 11.922-1.8517 3.85 0.1916 7.624 1.1416 11.106 2.7956 3.482 1.6539 6.603 3.9791 9.184 6.8423 5.318 5.8038 8.263 13.393 8.253 21.265v2.4c0 10.142 1.68 19.646 4.994 28.254 1.661 4.2795 2.511 8.8308 2.506 13.421 2e-3 2.4796-0.242 4.9534-0.728 7.385-1.618-2.2796-3.758-4.1393-6.24-5.424-2.483-1.2846-5.237-1.957-8.032-1.961z" fill="#333D47"/>
<path d="m123.75 50.5c0.742 0 1.467-0.2199 2.083-0.632 0.617-0.412 1.098-0.9977 1.382-1.6829 0.283-0.6853 0.358-1.4393 0.213-2.1667s-0.502-1.3956-1.026-1.92c-0.525-0.5245-1.193-0.8816-1.92-1.0263-0.728-0.1447-1.482-0.0705-2.167 0.2134-0.685 0.2838-1.271 0.7644-1.683 1.3811s-0.632 1.3417-0.632 2.0834c1e-3 0.9942 0.397 1.9474 1.1 2.6505 0.703 0.703 1.656 1.0984 2.65 1.0995z" fill="#333D47"/>
<path d="m120.85 61.444-1.692-4.7053c-2.323 0.836-4.775 1.2627-7.244 1.2612h-4.41v5h4.41c3.046 0.0018 6.069-0.5246 8.936-1.5559z" fill="#333D47"/>
<path d="m40 85.5h5v5h-5v-5z" fill="#333D47"/>
<path d="m30 85.5h5v5h-5v-5z" fill="#333D47"/>
<path d="m20 85.5h5v5h-5v-5z" fill="#333D47"/>
<path d="m50 125.5h5v5h-5v-5z" fill="#333D47"/>
<path d="m40 125.5h5v5h-5v-5z" fill="#333D47"/>
<path d="m57.5 135.5h5v5h-5v-5z" fill="#333D47"/>
<path d="m47.5 135.5h5v5h-5v-5z" fill="#333D47"/>
</svg>
