<svg width="326" height="86" viewBox="0 0 326 86" fill="none" xmlns="http://www.w3.org/2000/svg">
<path d="M6 86L11.7735 76H0.226497L6 86ZM162 0V30.1463H164V0H162ZM147 45.1463H22V47.1463H147V45.1463ZM5 62.1463V77H7V62.1463H5ZM22 45.1463C12.6112 45.1463 5 52.7575 5 62.1463H7C7 53.8621 13.7157 47.1463 22 47.1463V45.1463ZM162 30.1463C162 38.4306 155.284 45.1463 147 45.1463V47.1463C156.389 47.1463 164 39.5352 164 30.1463H162Z" fill="currentColor"/>
<path d="M320 86L314.226 76H325.774L320 86ZM164 0V30.1463H162V0H164ZM179 45.1463H304V47.1463H179V45.1463ZM321 62.1463V77H319V62.1463H321ZM304 45.1463C313.389 45.1463 321 52.7575 321 62.1463H319C319 53.8621 312.284 47.1463 304 47.1463V45.1463ZM164 30.1463C164 38.4306 170.716 45.1463 179 45.1463V47.1463C169.611 47.1463 162 39.5352 162 30.1463H164Z" fill="currentColor"/>
</svg>
