<?xml version="1.0" encoding="UTF-8"?>
<svg width="60" height="60" fill="none" viewBox="0 0 60 54" xmlns="http://www.w3.org/2000/svg">
<path d="m44.856 0.52442c25.597 5.4029 11.747 45.434-1.6075 51.819-16.694 8.1044-52.43-16.086-41.054-35.979 6.0591-10.437 30.419-18.542 42.661-15.84zm-6.4301 9.3323h-4.4516c-6.6774 0-12.118 5.2801-12.118 11.911v19.647h0.2473c2.7205-0.1228 4.9463-2.3331 4.9463-5.1573v-14.49c0-3.6838 3.0914-6.7537 6.9247-6.7537h4.4516v-5.1573zm-4.9462 14.367c-2.7205 0-4.8226 1.9647-4.8226 1.9647s2.2258 1.8419 4.9462 1.8419c2.7205 0 4.8226-1.9647 4.8226-1.9647s-2.2258-1.8419-4.9462-1.8419z" clip-rule="evenodd" fill="#fff" fill-rule="evenodd"/>
</svg>
