<svg width="165" height="57" viewBox="0 0 165 57" fill="none" xmlns="http://www.w3.org/2000/svg">
<path fill-rule="evenodd" clip-rule="evenodd" d="M96.7564 8.72534C97.7901 8.72534 98.5655 9.49217 98.5655 10.5146C98.5655 11.5371 97.7901 12.3039 96.7564 12.3039H93.2673C87.9691 12.3039 83.7047 16.5215 83.7047 21.7615V25.2122H96.8856C97.9194 25.2122 98.6947 25.979 98.6947 27.0015C98.6947 28.0239 97.9194 28.7908 96.8856 28.7908H83.7047V43.4883C83.7047 44.383 82.9294 45.1498 82.0248 45.2776H81.8956C80.8618 45.2776 80.0864 44.5108 80.0864 43.4883V21.7615C80.0864 14.6044 86.0307 8.72534 93.3965 8.72534H96.7564Z" fill="#333D47"/>
<path fill-rule="evenodd" clip-rule="evenodd" d="M106.707 23.8064C107.74 23.8064 108.516 24.5732 108.516 25.5956V43.744C108.516 44.6386 107.74 45.4054 106.836 45.5332H106.707C105.673 45.5332 104.897 44.7664 104.897 43.744V25.5956C104.768 24.5732 105.673 23.8064 106.707 23.8064ZM106.707 15.499C107.87 15.499 108.774 16.3937 108.774 17.5439C108.774 18.6942 107.87 19.5888 106.707 19.5888H106.577C105.414 19.5888 104.51 18.6942 104.51 17.5439C104.51 16.3937 105.414 15.499 106.577 15.499H106.707Z" fill="#333D47"/>
<path fill-rule="evenodd" clip-rule="evenodd" d="M117.044 23.8064C118.078 23.8064 118.854 24.5732 118.854 25.5956V43.744C118.854 44.6386 118.078 45.4054 117.174 45.5332H117.044C116.011 45.5332 115.235 44.7664 115.235 43.744V25.5956C115.106 24.5732 116.011 23.8064 117.044 23.8064ZM117.044 15.499C118.207 15.499 119.112 16.3937 119.112 17.5439C119.112 18.6942 118.207 19.5888 117.044 19.5888H116.915C115.752 19.5888 114.848 18.6942 114.848 17.5439C114.848 16.3937 115.752 15.499 116.915 15.499H117.044Z" fill="#333D47"/>
<path fill-rule="evenodd" clip-rule="evenodd" d="M141.08 45.5332C140.047 45.5332 139.271 44.7663 139.271 43.7439V33.1361C139.271 30.7078 137.333 28.7907 134.878 28.7907H128.675V43.6161C128.675 44.6385 127.9 45.4054 126.866 45.4054C125.832 45.4054 125.057 44.6385 125.057 43.6161V25.2122H135.007C139.53 25.2122 143.148 28.7907 143.148 33.1361V43.7439C142.89 44.7663 141.985 45.5332 141.08 45.5332Z" fill="#333D47"/>
<path fill-rule="evenodd" clip-rule="evenodd" d="M157.104 45.7889H154.52C149.997 45.7889 146.378 42.2104 146.378 37.865V27.385C146.378 26.3625 147.154 25.5957 148.188 25.5957C149.221 25.5957 149.997 26.3625 149.997 27.385V37.865C149.997 40.2933 151.935 42.2104 154.39 42.2104H156.975C159.43 42.2104 161.368 40.2933 161.368 37.865V27.385C161.368 26.3625 162.144 25.5957 163.178 25.5957C164.211 25.5957 164.987 26.3625 164.987 27.385V37.865C165.245 42.2104 161.627 45.7889 157.104 45.7889Z" fill="#333D47"/>
<path fill-rule="evenodd" clip-rule="evenodd" d="M46.8759 0.545826C73.6253 6.16925 59.1522 47.8337 45.196 54.4796C27.7507 62.9147 -9.59514 37.7371 2.29349 17.0327C8.62548 6.16925 34.0827 -2.26589 46.8759 0.545826ZM40.1562 10.259H35.5041C28.526 10.259 22.8402 15.7546 22.8402 22.6561V43.1049H23.0986C25.9415 42.9771 28.2676 40.6766 28.2676 37.7371V22.6561C28.2676 18.822 31.4982 15.6268 35.5041 15.6268H40.1562V10.259ZM34.9872 25.2122C32.1443 25.2122 29.9475 27.2571 29.9475 27.2571C29.9475 27.2571 32.2735 29.1742 35.1165 29.1742C37.9594 29.1742 40.1562 27.1293 40.1562 27.1293C40.1562 27.1293 37.8302 25.2122 34.9872 25.2122Z" fill="#333D47"/>
</svg>
