<svg width="24" height="24" viewBox="0 0 24 24" fill="none" xmlns="http://www.w3.org/2000/svg">
<path d="M23.287 3.04207L13.287 0.0420695C13.1377 -0.0026645 12.98 -0.0118765 12.8265 0.0151686C12.673 0.0422137 12.5279 0.104767 12.4029 0.197836C12.2779 0.290905 12.1763 0.411913 12.1064 0.551202C12.0364 0.69049 12 0.844202 12 1.00007V6.00007H14V2.34407L22 4.74407V22.0001H16V9.00007C16 8.73485 15.8946 8.4805 15.7071 8.29296C15.5196 8.10543 15.2652 8.00007 15 8.00007H5C4.73478 8.00007 4.48043 8.10543 4.29289 8.29296C4.10536 8.4805 4 8.73485 4 9.00007V22.0001H2V12.0001H1C0.734784 12.0001 0.48043 12.1054 0.292893 12.293C0.105357 12.4805 0 12.7349 0 13.0001L0 23.0001C0 23.2653 0.105357 23.5196 0.292893 23.7072C0.48043 23.8947 0.734784 24.0001 1 24.0001H23C23.2652 24.0001 23.5196 23.8947 23.7071 23.7072C23.8946 23.5196 24 23.2653 24 23.0001V4.00007C24 3.78494 23.9307 3.57553 23.8022 3.40295C23.6738 3.23037 23.4931 3.10381 23.287 3.04207ZM11.5 21.0001H8.5C8.36739 21.0001 8.24021 20.9474 8.14645 20.8536C8.05268 20.7599 8 20.6327 8 20.5001V19.5001C8 19.3675 8.05268 19.2403 8.14645 19.1465C8.24021 19.0527 8.36739 19.0001 8.5 19.0001H11.5C11.6326 19.0001 11.7598 19.0527 11.8536 19.1465C11.9473 19.2403 12 19.3675 12 19.5001V20.5001C12 20.6327 11.9473 20.7599 11.8536 20.8536C11.7598 20.9474 11.6326 21.0001 11.5 21.0001ZM11.5 17.0001H8.5C8.36739 17.0001 8.24021 16.9474 8.14645 16.8536C8.05268 16.7599 8 16.6327 8 16.5001V15.5001C8 15.3675 8.05268 15.2403 8.14645 15.1465C8.24021 15.0527 8.36739 15.0001 8.5 15.0001H11.5C11.6326 15.0001 11.7598 15.0527 11.8536 15.1465C11.9473 15.2403 12 15.3675 12 15.5001V16.5001C12 16.6327 11.9473 16.7599 11.8536 16.8536C11.7598 16.9474 11.6326 17.0001 11.5 17.0001ZM11.5 13.0001H8.5C8.36739 13.0001 8.24021 12.9474 8.14645 12.8536C8.05268 12.7599 8 12.6327 8 12.5001V11.5001C8 11.3675 8.05268 11.2403 8.14645 11.1465C8.24021 11.0527 8.36739 11.0001 8.5 11.0001H11.5C11.6326 11.0001 11.7598 11.0527 11.8536 11.1465C11.9473 11.2403 12 11.3675 12 11.5001V12.5001C12 12.6327 11.9473 12.7599 11.8536 12.8536C11.7598 12.9474 11.6326 13.0001 11.5 13.0001Z" fill="#333D47"/>
</svg>
