<?xml version="1.0" encoding="UTF-8"?>
<svg fill="none" viewBox="0 0 32 33" xmlns="http://www.w3.org/2000/svg">
<path d="m32 16.5c0-3.1645-0.9384-6.2579-2.6965-8.8891-1.7581-2.6312-4.2569-4.6819-7.1806-5.893-2.9236-1.211-6.1406-1.5279-9.2443-0.91049-3.1037 0.61737-5.9547 2.1412-8.1923 4.3789s-3.7615 5.0886-4.3789 8.1923c-0.61736 3.1037-0.30051 6.3207 0.91049 9.2443 1.211 2.9237 3.2618 5.4225 5.893 7.1806 2.6312 1.7581 5.7246 2.6965 8.8891 2.6965 4.2397-0.0124 8.3021-1.7021 11.3-4.7s4.6876-7.0603 4.7-11.3zm-15.458 5.89c-0.1634-0.0842-0.3005-0.2118-0.3961-0.3688s-0.1461-0.3374-0.1459-0.5212v-4h-8c-0.26522 0-0.51957-0.1053-0.70711-0.2929-0.18754-0.1875-0.29289-0.4419-0.29289-0.7071s0.10535-0.5196 0.29289-0.7071 0.44189-0.2929 0.70711-0.2929h8v-4c2e-4 -0.1836 0.0509-0.3637 0.1466-0.5204 0.0958-0.1567 0.2328-0.284 0.3961-0.368s0.3466-0.1214 0.5297-0.1081c0.1832 0.0133 0.3591 0.0768 0.5086 0.1835l7 5c0.1228 0.097 0.222 0.2205 0.2902 0.3613s0.1037 0.2952 0.1037 0.4517-0.0355 0.3109-0.1037 0.4517-0.1674 0.2643-0.2902 0.3613l-7 5c-0.1494 0.1071-0.3254 0.1709-0.5087 0.1845s-0.3668-0.0236-0.5303-0.1075z" fill="#333D47"/>
</svg>
