<?xml version="1.0" encoding="UTF-8"?>
<svg viewBox="0 0 141 34" xmlns="http://www.w3.org/2000/svg">
<path d="m30.147 23.705c1.151-1.5836 2.0664-3.3287 2.7171-5.18h2.195c-0.9839 2.5104-2.3046 4.8723-3.9251 7.0195v3.4944h-1.9474v-3.4636c-1.6115-2.1525-2.9304-4.5133-3.9213-7.0195h2.1912c0.6226 1.8488 1.5306 3.5867 2.6905 5.1492z" fill="#006C32"/>
<path d="m50.253 22.832c-0.9565-0.3117-1.5243-0.4695-1.8521-0.7197-0.1429-0.0691-0.2628-0.1786-0.3454-0.3152-0.0825-0.1367-0.124-0.2945-0.1195-0.4544 8e-4 -0.196 0.0602-0.3872 0.1703-0.5485 0.1102-0.1614 0.266-0.2854 0.4471-0.3559 0.4098-0.1784 0.8534-0.2638 1.2994-0.2502 0.7693 0.0195 1.5301 0.1664 2.2522 0.4349l0.6517-1.5394c-0.9086-0.4309-1.9001-0.6543-2.9039-0.6542-0.9268-0.0358-1.8425 0.2138-2.6256 0.7158-0.3773 0.2361-0.687 0.5677-0.8982 0.9619-0.2113 0.3943-0.3168 0.8375-0.306 1.2856 0 1.8087 1.5243 2.4937 2.9953 2.994 0.5813 0.1641 1.1495 0.3725 1.6996 0.6235 0.1965 0.0917 0.3639 0.2367 0.4837 0.4187 0.1197 0.1821 0.1871 0.3942 0.1946 0.6126-9e-4 0.2077-0.0591 0.4111-0.1682 0.5872-0.109 0.176-0.2646 0.3179-0.4491 0.4096-0.4815 0.2297-1.0115 0.3367-1.5434 0.3117-1.1118-0.0042-2.1937-0.3639-3.0906-1.0275l-0.6783 1.5894c1.1369 0.7836 2.4839 1.1972 3.8604 1.1853 2.2864 0 4.0165-1.2161 4.0165-3.1827 0-1.7163-1.3909-2.5553-3.0905-3.0787" fill="#006C32"/>
<path d="m39.567 27.199h-1.4214v-6.8463h1.2347c2.1607 0 3.5516 1.1853 3.5516 3.3404 0 2.0589-1.2652 3.4943-3.3649 3.4943v0.0116zm-0.2172-8.6859h-3.1211v10.525h3.3078c3.0486 0 5.3351-2.1859 5.3351-5.3339s-2.1645-5.1799-5.5295-5.1799" fill="#006C32"/>
<path d="m62.947 27.446h-1.6654v-3.0556h1.7302c1.4824 0 2.2521 0.3848 2.2521 1.4662 0 1.4047-1.3261 1.5894-2.3169 1.5894zm-1.6654-7.312h1.4824c1.3872 0 2.0388 0.3425 2.0388 1.2469s-0.6516 1.4355-1.9054 1.4355h-1.6348l0.019-2.6824zm3.5822 3.3982c1.1128-0.3849 1.7911-1.1545 1.7911-2.3706 0-1.8396-1.6082-2.59-3.182-2.59h-4.0471v10.468h3.7689c1.9473 0 3.9213-0.812 3.9213-2.994 0-1.4663-0.8955-2.3398-2.2522-2.5284" fill="#006C32"/>
<path d="m87.534 18.525h-1.8216v7.5814h-0.0304l-4.3863-7.5814h-2.3779v10.514h1.791v-7.8315h0.0305l4.4777 7.8315h2.317v-10.514z" fill="#006C32"/>
<path d="m93.554 23.578 4.8206-5.053h-2.4389l-4.3252 4.7105h-0.061v-4.7105h-1.8254v10.514h1.8254v-5.0838h0.061l4.5996 5.0838h2.5647l-5.2208-5.4609z" fill="#006C32"/>
<path d="m8.0293 29.039h5.8382l0.6173-1.8742h-4.5692v-8.6397h-1.8864v10.514z" fill="#006C32"/>
<path d="M0 29.039H5.83816L6.486 27.1648H1.91684V18.5251H0V29.039Z" fill="#006C32"/>
<path d="m20.076 27.353c-2.0997 0-3.304-1.5394-3.304-3.5559 0-2.0166 1.2043-3.556 3.304-3.556 2.0998 0 3.3383 1.6241 3.3383 3.5868 0 1.9626-1.2385 3.5251-3.3383 3.5251zm0.0305-8.9244c-3.1782 0-5.2818 2.3744-5.2818 5.3877s2.0388 5.3339 5.2513 5.3339 5.2818-2.4014 5.2818-5.3647c0-2.9632-2.1112-5.3569-5.2513-5.3569z" fill="#006C32"/>
<path d="m72.676 26.792c0.7295 0.0174 1.4578-0.0668 2.1646-0.2502l0.9565 2.4976h2.1607l-4.4777-10.483h-1.5739l-4.512 10.483h2.1646l0.9412-2.4976c0.7055 0.1832 1.4326 0.2674 2.1608 0.2502h0.0152zm-0.0152-1.5894c-0.5391 0.0103-1.0774-0.0426-1.6044-0.1578l1.6044-4.1486 1.6081 4.1486c-0.5282 0.1153-1.0678 0.1683-1.6081 0.1578z" fill="#006C32"/>
<path d="m139.55 17.682c0.709 0.5311 1.452 0.9082 1.452 1.7472 0 0.2501-0.308 0.5003-0.987 0.5003-0.251 0.0182-0.504-0.02-0.739-0.1118s-0.447-0.235-0.621-0.4193c-0.217-0.2809 0.091-0.685-0.092-0.9659-0.183-0.281-0.465-0.1232-0.682-0.2502s-0.278-0.2501-0.461-0.6234c-0.187-0.4349-0.834-1.1546-1.608-1.9242-0.648-0.6581-1.326-1.0006-1.635-0.9698-0.164 0.0255-0.33 0.0358-0.495 0.0308-0.557 0-1.018 0.531-1.822 0.8735-0.382 0.1954-0.786 0.3427-1.204 0.4388l-0.126 0.1539 0.713-0.0308c0.678 0 1.543-0.0924 2.222-0.0924 0.678 0 1.021 0.6235 1.299 1.2777 0.626 1.6575 1.379 3.2633 2.252 4.8028 0.465 0.7697 0.835 1.2161 0.835 2.1551 0 0.2809-0.031 0.685-0.4 0.685-0.526 0-1.852-0.5618-1.852-1.1545 0-0.4695 0.381-0.6542 0.381-1.1237 0-0.281-0.435-0.2502-0.526-0.4965-0.339-1.4046-0.74-2.8093-1.525-3.6521-0.4-0.4349-0.464-0.6234-0.865-0.6234-0.211 0.0074-0.42 0.0503-0.617 0.127-1.082 0.3848-2.534 1.6509-4.356 2.182-0.678 0.2194-0.804-0.1886-1.524-0.0616h0.061c-0.587 0.1232-1.018 0.4657-1.822 0.685-1.464 0.3607-2.982 0.4455-4.477 0.2502-1.008-0.1804-2.027-0.2948-3.049-0.3425-0.461 1.3084-1.421 3.0556-2.873 3.7406-0.762 0.3464-0.987 0.812-0.762 1.6856 0.278 1.093 1.234 1.8703 1.73 2.8094 0.461 0.7696 1.204 2.055 1.974 2.4629 0.769 0.408 1.269 0.9968 1.269 1.5394 0 0.2501-0.096 0.3848-0.34 0.3848h-1.577c-0.081 0.0023-0.161-0.0204-0.229-0.0651s-0.121-0.1092-0.152-0.185c-0.218-0.3849-0.061-0.7697-0.381-1.1545-0.218-0.2502-0.381-0.1886-0.652-0.408-0.461-0.4656-0.122-0.7158-0.461-1.3084-0.699-1.0787-1.452-2.1204-2.256-3.1211-0.461-0.5926-1.048-0.9043-1.048-1.6817 0-0.9698 0.956-1.1238 0.926-2.0935-0.713 0.5391-1.557 0.8741-2.443 0.9697-0.259 0.1137-0.491 0.2831-0.678 0.4965-0.349 0.3477-0.563 0.8108-0.602 1.3046-0.122 1.3084-0.381 2.6208-0.217 3.9292 0.217 0.8428 0.381 1.1237 1.051 1.5932 0.252 0.1285 0.472 0.3129 0.643 0.5396s0.289 0.4896 0.344 0.7689c0 0.1578-0.061 0.3848-0.278 0.3848h-1.696c-0.075-0.0055-0.148-0.0276-0.214-0.0648-0.066-0.0373-0.123-0.0887-0.167-0.1507-0.183-0.3463-0.061-0.5618-0.152-0.9698-0.156-0.7696-1.052-0.7466-1.052-1.5393 0.071-0.351 0.123-0.7056 0.156-1.0622 0.061-1.0891 0.381-2.8978 0.061-5.0529-0.156-1.2469 1.143-1.3085 1.822-2.4014 0.404-0.6235 0.278-0.3849 0.526-0.8082 0.177-0.3345 0.231-0.7219 0.152-1.0929 0-0.3849-0.381-1.1238-0.122-2.6939 0.123-0.7327 0.432-1.4207 0.896-1.9973 0-0.0308 0-0.1232-0.153-0.1232-0.682 0.0616-0.682-0.127-1.112-0.127-0.177 9e-3 -0.347 0.066-0.494 0.1649s-0.265 0.2361-0.341 0.397c-0.087-0.0443-0.161-0.1111-0.214-0.1936-0.052-0.0825-0.083-0.1777-0.087-0.2759-5e-3 -0.1283 0.017-0.2561 0.065-0.375 0.048-0.1188 0.121-0.2259 0.213-0.3139 0.092-0.0923 0-0.1539-0.126-0.1539-0.522 0-1.017 0.6542-1.143 1.0891-0.312-0.0616-0.343-0.4657-0.465-0.4657s-0.248 0.2194-0.248 0.4349c0 1.5394 2.474 1.8742 2.474 3.8984 0 2.3398-2.782 1.8434-2.782 2.6939 0.011 0.0938 0.049 0.1823 0.11 0.2547 0.06 0.0724 0.139 0.1256 0.229 0.1532-0.057 0.1043-0.143 0.1894-0.247 0.2448s-0.223 0.0787-0.34 0.0669c-0.143 0.0032-0.285-0.0229-0.417-0.0768-0.133-0.0538-0.253-0.1343-0.354-0.2364-0.101-0.1022-0.18-0.224-0.233-0.358s-0.078-0.2775-0.074-0.4217c0-1.2777 1.695-1.3085 1.695-2.2744 0-0.4695-0.278-0.5927-0.556-0.812-1.604-1.1545-2.53-2.309-2.53-4.2102 0-2.0588 1.421-3.6213 3.243-3.6213 2.667 0 2.747 3.1211 5.156 3.3712 0.888-0.631 1.943-0.9794 3.029-1.0006 1.574 0 2.253 0.4079 3.922 0.4079 1.13-0.0408 2.22-0.4333 3.121-1.1237 0.41-0.2418 0.802-0.5131 1.173-0.812 1.048-0.9044 2.039-2.6939 2.039-3.96v0.06158c0-0.40409-0.095-0.65423-0.278-0.65423-0.556 0-1.082 0.53108-1.639 1.0929-0.381 0.38484 0.187 0.55802-0.617 0.99674-0.278 0.15393-0.617-0.12315-0.926-0.12315-0.648 0-0.926-0.76968-0.926-1.4354 0-0.34251 0.248-0.43872 0.4-0.75044 0.339-0.65423 0.309-0.90437 0.617-1.5394 0.187-0.43487 0.526-0.7158 0.496-1.0275 0-0.127-0.092-0.18857-0.092-0.31172 0-0.65808 0.862-1.093 0.862-1.7472 0-0.38484-0.4-0.53108-0.492-0.81202-0.091-0.28093-0.03-0.38484-0.03-0.38484 0.03-0.06542 0.061-0.06542 0.122-0.06542 0.339 0 0.464 0.38484 0.762 0.56187 0.03-0.43487-0.126-0.52723-0.126-0.8428 0-0.15394-0.031-0.43487 0.156-0.43487s0.183 0.28093 0.381 0.43487c0.248 0.18857 0.465 0.15778 0.713 0.34635 0.339 0.21552 0.522 0.59266 0.648 0.59266 0.339 0.06157 0.43-0.38484 0.247-0.59266 0.381-0.03078 0.763 0.28094 1.266 0.28094 0.43-0.0474 0.861 0.07536 1.204 0.34251 0.495 0.43486 0.587 0.76967 1.143 0.76967 0.104-0.01084 0.204-0.04786 0.291-0.10768 0.086-0.05982 0.157-0.14054 0.204-0.23482 0.382 0.28093 0.401 1.0006 0 1.624 0.153 0.49644 0.866 0.56187 1.205 0.80816 0.339 0.2463 0.278 0.38484 0.522 0.5003 0.072 0.05315 0.158 0.08181 0.247 0.08181 0.09 0 0.176-0.02866 0.248-0.08181 0.156 0.68501-0.4 1.2777-1.113 1.3739 0.031 0.87359 0.93 1.4008 1.33 1.6202-0.102 0.20365-0.25 0.37976-0.433 0.51364-0.183 0.13389-0.395 0.22167-0.618 0.25604 0.125 0.53108 0.682 1.3084 0.404 1.9973-0.067-0.0363-0.142-0.0547-0.218-0.0533-0.076 0.0013-0.15 0.0223-0.215 0.061-0.066 0.0386-0.12 0.0936-0.159 0.1596-0.038 0.0661-0.059 0.141-0.06 0.2175 0 0.4349 0.556 0.6543-0.031 0.966-0.243 0.1578-0.308 0.5311 0.157 0.9044 0.626-0.1307 1.266-0.1824 1.905-0.154 0.434 0 0.991-0.127 1.391-0.127 0.713 0 1.143 0.281 1.669 0.8736 1.326 1.4047 2.531 2.9325 3.891 3.96" fill="#231F20"/>
<path d="m104.18 13.849c0.278 0 0.8-1.5932 1.882-1.5932 0.309 0 0.381 0.127 0.381 0.2501 0 0.2194-0.381 0.3849-0.381 0.6851-1e-3 0.0171 1e-3 0.0344 6e-3 0.0506 6e-3 0.0163 0.015 0.031 0.027 0.0432s0.027 0.0215 0.043 0.0272 0.033 0.0078 0.05 6e-3c0.244 0 0.461-0.5927 1.524-0.5927 0.257-9e-4 0.513 0.0301 0.763 0.0924 0.125 0.0307 0.381 0.1577 0.247-0.1886-0.179-0.441-0.488-0.8153-0.886-1.0716s-0.864-0.3821-1.335-0.36c-0.609 0.0319-1.188 0.2761-1.638 0.6908-0.451 0.4148-0.744 0.9745-0.832 1.5836 0.031 0.2193 0.031 0.3848 0.156 0.3848" fill="#6D6E70"/>
<path d="m123.95 3.9282c-0.309-0.12315-0.382-0.28093-0.248-0.68501 0.061-0.40793 0.091-0.59265-0.092-0.62344s-0.381 0.06157-0.586 0.28093c-0.227 0.25602-0.424 0.53752-0.587 0.83895-0.096 0.34636 0.308 0.28094 0.03 0.8428-0.332 0.55917-0.621 1.1433-0.865 1.7472-0.102 0.36164-0.27 0.70092-0.495 1.0006-0.153 0.18472 0.186 0.21551 0.556 0.09236s0.435 0.3425 0.278 0.68501c-0.122 0.25015-0.03 0.34251 0.309 0.06158 0.339-0.28094-0.152-0.43487-0.061-1.2161 0.089-0.637 0.321-1.2451 0.678-1.778 0.381-0.59265 0.682-1.0275 1.3-0.80816 0.247 0.12315 0.122-0.28093-0.217-0.43872z" fill="#6D6E70"/>
<path d="m137.19 24.359c0.122 0 0.156-0.1578 0.156-0.3117-0.012-0.4018-0.179-0.783-0.465-1.0621-0.061 0.5002-0.309 0.8428-0.309 1.0621 0 0.1539 0.465 0.3117 0.618 0.3117z" fill="#6D6E70"/>
<path d="m140.16 19.526c0.187 0 0.465-0.0654 0.465-0.2193-0.054-0.2037-0.156-0.3916-0.295-0.5487-0.14-0.1571-0.314-0.2789-0.509-0.3557 0.248 0.5003 0 1.1237 0.339 1.1237z" fill="#6D6E70"/>
<path d="m127.07 12.941c2.687 1.2508 2.531 3.5252 2.748 2.9633 0.153-0.4163 0.188-0.8677 0.101-1.303-0.088-0.4353-0.295-0.8371-0.597-1.16-0.739-0.8736-1.017-0.6542-0.739-1.37 1.174-2.8709 1.905-7.208-1.608-8.7051-0.4-0.15394-0.739-0.15394-0.739-0.09237 0 0.06158 0.381 0.18858 0.834 0.5003 2.348 1.5586 1.605 5.8303-0.526 7.8892-0.682 0.7196-0.339 0.8736 0.526 1.2776z" fill="#6D6E70"/>
<path d="m117.86 32.906c0.187 0 0.095-0.281 0.031-0.408-0.177-0.2744-0.436-0.4847-0.74-0.6003 0.061 0.2809 0.092 1.0006 0.381 1.0006h0.34" fill="#6D6E70"/>
<path d="m109.75 32.907c0.182 0 0.061-0.2809-0.035-0.4079-0.189-0.271-0.454-0.4776-0.762-0.5927 0.061 0.2809 0.122 1.0006 0.4 1.0006h0.397z" fill="#6D6E70"/>
<path d="m119.6 16.593c1.483-0.1578 1.731-0.5003 1.978-1.624 0.154-0.5419 0.441-1.0358 0.835-1.4355 0.237-0.2371 0.454-0.4946 0.648-0.7696 0.061-0.1578 0.122-0.2502 0-0.2194-0.157 0.127-0.679 0.4695-0.896 0.6235-0.98 0.6322-2.102 1.0053-3.262 1.0852-1.36 0-2.534-0.3848-3.769-0.3848-3.708 0-5.095 2.9286-4.912 4.645 0.03 0.2809 0.061 0.2809 0.156 0.2809 0.248 0 0.492-0.9967 1.422-1.9011 0.64-0.6697 1.411-1.1983 2.264-1.5526 0.852-0.3543 1.768-0.5267 2.69-0.5063 1.524 0 2.164 0.4964 2.164 0.685 0 0.3849-0.648 0.3849-0.587 0.7697-0.03 0.1539 0.309 0.4349 1.296 0.3117" fill="#6D6E70"/>
</svg>
