<?xml version="1.0" encoding="UTF-8"?>
<svg viewBox="0 0 119 24" xmlns="http://www.w3.org/2000/svg">
<path d="M0 19.5514V0H119V19.5514H0Z" clip-rule="evenodd" fill="#2F5693" fill-rule="evenodd"/>
<path d="M0 23.3416V18.7524H119V23.3416H0Z" clip-rule="evenodd" fill="#C82636" fill-rule="evenodd"/>
<path d="m116.9 11.571c0-3.6904-1.996-5.2863-3.891-5.2863-1.496 0-4.189 1.0978-4.189 5.486 0 5.1865 3.79 5.3868 4.189 5.3868 1.696 0 2.893-0.9973 3.591-1.7949l0.099-0.1005-0.399-0.7977-0.199 0.0993s-0.998 0.7989-1.895 0.7989c-1.896 0-2.294-1.297-2.294-3.5912h4.988v-0.2004zm-4.988-1.1964c0-2.2943 0.398-2.793 1.197-2.793 0.897 0 0.996 1.0972 0.996 2.793h-2.193zm-3.89 5.5852c-0.4 0-0.698-0.3988-0.698-0.7976v-13.266h-4.49v0.89812h0.598c0.3 0 0.898 0.29895 0.898 0.69839v3.6904c-0.398-0.39882-1.097-0.89812-2.195-0.89812-1.496 0-3.8892 1.4966-3.8892 5.5859 0 4.1891 2.3942 5.2869 3.5912 5.2869 1.196 0 1.994-0.4993 2.393-0.9973v0.6984h3.99v-0.8981h-0.198v-7e-4zm-3.791-6.7823v5.0872c0 0.2996-0.897 1.1977-1.397 1.1977-1.196 0-1.396-1.8954-1.396-3.5912 0-3.3915 0.699-3.8902 1.497-3.8902 0.698-6.4e-4 1.296 1.0966 1.296 1.1964zm-6.683 6.7823c-0.1997 0-0.6984-0.2996-0.6984-0.6984v-8.6778h-3.0919v8.6778c0 0.3988-0.3988 0.6984-0.7976 0.6984h-0.1997v0.8982h4.988v-0.8982h-0.2004zm-7.7803-9.3762v0.89749h0.1997c0.1985 0 0.498 0 0.5985 0.19909 0.0567 0.05198 0.0921 0.12315 0.0993 0.19972v0.19973c-0.1998 0.49867-0.9974 2.8929-1.3962 4.0893-0.2996-1.1964-0.8981-3.7903-0.9973-4.0893v-0.19973c0-0.09986-1e-4 -0.09986 0.0992-0.19972 0.0992-0.19909 0.2996-0.19909 0.5985-0.19909h0.1985v-0.89749h-4.8876v0.89749h0.1998c0.1984 0 0.5985 0 0.6984 0.29959 0 0 0.3988 1.1971 0.3988 1.3962 0 0.09986-0.8981 2.3936-1.1977 3.092-0.2996-0.9968-1.1965-3.3909-1.3962-3.9894-0.0992-0.09986-0.0992-0.29959-0.0992-0.39881 0-0.09923 0-0.19972 0.0992-0.19972 0.1005-0.19909 0.1997-0.19909 0.4993-0.19909h0.1985v-0.89813h-4.588v0.79827l0.0993 0.09922c0.1005 0 0.2996 0.09986 0.3988 0.29959 0.1997 0.29958 2.0958 5.6858 3.3915 9.1765l0.1005 0.1005h0.9961s1.7962-4.8888 2.0958-5.7863c0.2996 0.8975 1.795 5.7863 1.795 5.7863h0.9973l3.0919-8.6791c0.1985-0.6984 0.3988-0.99735 0.7976-0.99735h0.1005v-0.79763h-3.1898zm-10.573 9.3762c-0.5973 0-0.6984-0.2996-0.6984-0.5972v-5.8855c0-1.5959-0.9974-3.1924-2.793-3.1924-1.1964 0-2.0945 0.39881-2.6931 1.1971v-0.89749h-4.0899v0.89749h0.4993s0.4981 0.09986 0.4981 0.59853v7.0819c0 0.498-0.3988 0.7976-0.8981 0.7976h-0.0993v0.8982h5.0873v-0.8982h-0.1998c-0.498 0-0.7976-0.2996-0.7976-0.7976v-5.8849c0-0.29958 0.6984-1.1971 1.3962-1.1971 0.6977 0 0.9973 0.49868 0.9973 1.2963v5.986c0 0.1984-0.498 0.5972-0.7976 0.5972h-0.0992v0.8982h4.8875v-0.8982h-0.1997zm-15.461-9.6751c-2.1938 0-4.5886 2.0946-4.5886 5.3862 0 4.2889 2.992 5.4866 4.5886 5.4866 1.8948 0 4.5879-1.6957 4.5879-5.1864 0-3.1924-1.9941-5.6864-4.5879-5.6864zm1.2969 5.6864c0 3.7903-0.8981 3.7903-1.2969 3.7903-0.5986 0-1.3962 0-1.3962-3.8908 0-3.8902 0.6984-4.289 1.3962-4.289 0.5985 0 1.2969 0.49867 1.2969 4.3895zm-6.6831 3.9887c-0.1998 0-0.6984-0.2996-0.6984-0.6984v-8.6778h-3.0926v8.6778c0 0.3988-0.3988 0.6984-0.7976 0.6984h-0.1991v0.8982h4.9874v-0.8982h-0.1997zm-5.3869-8.0792v-1.2969h-1.7956v-3.5912h-0.7982l-0.0999 0.09986c-0.5985 0.99735-1.7956 2.793-3.0925 3.7903l-0.0993 0.09987v0.89748h0.9974v6.8829c0 1.496 1.0972 2.2942 2.2943 2.2942 0.8981 0 1.5959-0.1997 2.2943-1.0984v-0.8969l-0.299 0.0992c-0.1991 0.1998-0.5985 0.0993-0.8981 0-0.1991-0.1997-0.299-0.3988-0.299-0.5985v-6.6831c0.2996 0.00127 1.7956 0.00127 1.7956 0.00127zm-6.7829 7.482c0 0.0992-0.0999 0.0992-0.1991 0-0.1998 0-0.299-0.1005-0.299-0.2996v-5.8855c0-1.6957-1.6957-2.793-4.1897-2.793-2.0946 0-3.1918 0.69839-3.6905 1.1971l-0.0999 0.09923v3.0926h0.8975v-0.1991c0.5986-2.6931 2.0946-2.8928 2.6931-2.8928 0.5986 0 1.3962 0.49931 1.3962 1.0978v1.496c-3.5912 0.9974-5.287 2.494-5.287 4.4894 0 1.496 0.9974 2.3941 2.494 2.3941 0.9974 0 1.9947-0.3988 2.8922-1.0985 0.1997 0.5986 0.8981 1.0985 1.6958 1.0985 0.7976 0 1.4966-0.3988 1.9953-1.0985l0.0999-0.0992v-0.9973l-0.3988 0.3988zm-4.6878-0.1012c-0.3989 0-0.8975-0.2996-0.8975-1.2969 0-0.8969 0.8975-1.8948 1.9947-2.2936v2.7935c-0.299 0.4981-0.8975 0.797-1.0972 0.797zm-9.3763-13.366v0.99735h0.6984c0.299 0 0.8982 0.39881 0.8982 0.99734v6.5839c-0.5986-0.8981-6.1845-8.5786-6.1845-8.5786h-4.3888v0.89812h0.2989c0.0999 0.09986 0.9974 1.1971 1.0972 1.2969v10.973c0 0.7976-0.9973 0.8969-1.2969 0.8969h-0.1997v0.8981h4.9873v-0.9974h-0.4986c-0.4987 0-1.0972-0.498-1.0972-0.7976v-8.7783c0.5985 0.79826 8.1791 10.972 8.1791 10.972h0.9974v-13.367c0-0.69839 0.3988-0.99734 1.0972-0.99734h0.1991v-0.99735h-4.7871zm23.94-0.19973c-0.8981 0-1.6958 0.79762-1.6958 1.7956 0 0.99798 0.7977 1.6957 1.6958 1.6957 0.9973 0 1.7956-0.69839 1.7956-1.6957s-0.7983-1.7956-1.7956-1.7956zm39.201 0c-0.9973 0-1.6957 0.79762-1.6957 1.7956 0 0.99798 0.6984 1.6957 1.6957 1.6957 0.9974 0 1.7963-0.69839 1.7963-1.6957s-0.7989-1.7956-1.7963-1.7956zm-78.003 5.486v-5.287h-6.1844v2.2943h-2.0946v0.89812h-0.49867c-3.4914 0-6.3842 2.8922-6.3842 6.3835 0 2.0946 1.1971 3.9901 3.0919 5.1865l0.29895 0.1997v4.2884h11.77v-2.3942h3.5912v-7.9781c6e-4 0-3.1911-3.0926-3.5906-3.5912z" clip-rule="evenodd" fill="#fff" fill-rule="evenodd"/>
<path d="m16.259 15.96v-1.8942h-0.8975v1.8942h0.8975z" clip-rule="evenodd" fill="#2F5693" fill-rule="evenodd"/>
<path d="m16.258 7.5814v-4.7877h-4.1891v2.2943h-2.0946v1.1964c-0.49868-0.19909-0.99799-0.19909-1.4967-0.19909-0.70815-0.00295-1.4099 0.13436-2.0647 0.404-0.65481 0.26963-1.2498 0.66627-1.7505 1.167-0.50075 0.50074-0.89738 1.0957-1.167 1.7505-0.26963 0.65485-0.40694 1.3566-0.404 2.0646 0 1.8955 1.0972 3.4907 2.5932 4.3889l3.3915-5.3862h4.7876c-0.2989-1.6958-1.3968-3.0919-2.9927-3.8902v-0.49867h2.0946v-2.2943h2.2943v7.6804h3.5912v5.3869h-3.5912v2.2942h-3.0919v-2.7942l3.0919-4.8875h-5.5859l-3.1924 4.988v3.6911h9.7756v-2.2943h3.5913v-6.6838l-3.5906-3.5905zm-8.7777 11.571v-2.7942h3.6904v2.7942h-3.6904z" clip-rule="evenodd" fill="#2F5693" fill-rule="evenodd"/>
</svg>
