<?xml version="1.0" encoding="UTF-8"?>
<svg fill="none" viewBox="0 0 780 343" xmlns="http://www.w3.org/2000/svg">
<path d="m369 165v112" stroke="#333D47" stroke-dasharray="3 3"/>
<path d="m507 165v112" stroke="#333D47" stroke-dasharray="3 3"/>
<path d="m600 165v112" stroke="#333D47" stroke-dasharray="3 3"/>
<path d="m696 165v112" stroke="#333D47" stroke-dasharray="3 3"/>
<path d="m169 238v39" stroke="#333D47" stroke-dasharray="3 3"/>
<path d="m0 128 10 5.774v-11.548l-10 5.774zm780 0-10-5.773v11.547l10-5.774zm-771 1h762v-2h-762v2z" fill="#333D47"/>
<circle cx="169" cy="128" r="120" fill="#CBF4F0"/>
<path d="m134.5 104.22c0 0.912-0.288 1.668-0.864 2.268-0.576 0.576-1.548 0.864-2.916 0.864h-16.2l-2.376 13.536c2.688-0.576 5.172-0.864 7.452-0.864 2.688 0 5.052 0.396 7.092 1.188 2.064 0.792 3.792 1.884 5.184 3.276s2.436 3.036 3.132 4.932c0.72 1.896 1.08 3.96 1.08 6.192 0 2.736-0.48 5.208-1.44 7.416s-2.28 4.104-3.96 5.688c-1.656 1.56-3.612 2.76-5.868 3.6s-4.692 1.26-7.308 1.26c-1.512 0-2.964-0.156-4.356-0.468-1.392-0.288-2.688-0.684-3.888-1.188s-2.316-1.08-3.348-1.728-1.944-1.332-2.736-2.052l1.944-2.736c0.432-0.624 1.008-0.936 1.728-0.936 0.456 0 0.984 0.192 1.584 0.576 0.624 0.36 1.368 0.768 2.232 1.224s1.872 0.876 3.024 1.26c1.176 0.36 2.568 0.54 4.176 0.54 1.8 0 3.42-0.288 4.86-0.864s2.664-1.392 3.672-2.448c1.032-1.08 1.824-2.364 2.376-3.852s0.828-3.156 0.828-5.004c0-1.608-0.24-3.06-0.72-4.356-0.456-1.296-1.164-2.4-2.124-3.312-0.936-0.912-2.112-1.62-3.528-2.124s-3.072-0.756-4.968-0.756c-1.296 0-2.64 0.108-4.032 0.324s-2.832 0.564-4.32 1.044l-4.032-1.188 4.176-24.12h24.444v2.808zm27.833-3.384c2.184 0 4.224 0.324 6.12 0.972s3.528 1.596 4.896 2.844c1.392 1.224 2.484 2.724 3.276 4.5s1.188 3.792 1.188 6.048c0 1.92-0.288 3.696-0.864 5.328s-1.356 3.204-2.34 4.716c-0.984 1.488-2.124 2.94-3.42 4.356-1.272 1.392-2.628 2.82-4.068 4.284l-13.572 13.896c0.96-0.264 1.932-0.468 2.916-0.612 0.984-0.168 1.932-0.252 2.844-0.252h17.28c0.696 0 1.248 0.204 1.656 0.612s0.612 0.936 0.612 1.584v3.888h-34.416v-2.196c0-0.456 0.084-0.924 0.252-1.404 0.192-0.48 0.492-0.924 0.9-1.332l16.524-16.596c1.368-1.392 2.616-2.724 3.744-3.996 1.128-1.296 2.088-2.592 2.88-3.888 0.816-1.296 1.44-2.604 1.872-3.924 0.432-1.344 0.648-2.772 0.648-4.284s-0.24-2.832-0.72-3.96c-0.48-1.152-1.14-2.1-1.98-2.844s-1.824-1.296-2.952-1.656c-1.128-0.384-2.34-0.576-3.636-0.576s-2.496 0.192-3.6 0.576-2.088 0.924-2.952 1.62c-0.84 0.672-1.56 1.476-2.16 2.412-0.576 0.936-0.984 1.968-1.224 3.096-0.192 0.696-0.48 1.2-0.864 1.512s-0.888 0.468-1.512 0.468h-0.396c-0.12-0.024-0.264-0.048-0.432-0.072l-3.348-0.576c0.336-2.352 0.984-4.428 1.944-6.228 0.96-1.824 2.172-3.348 3.636-4.572 1.488-1.224 3.18-2.148 5.076-2.772 1.92-0.648 3.984-0.972 6.192-0.972zm45.222 13.032c0 2.016-0.312 3.828-0.936 5.436-0.624 1.584-1.464 2.928-2.52 4.032-1.032 1.08-2.244 1.908-3.636 2.484s-2.844 0.864-4.356 0.864c-1.632 0-3.144-0.288-4.536-0.864-1.368-0.576-2.568-1.404-3.6-2.484-1.032-1.104-1.836-2.448-2.412-4.032-0.576-1.608-0.864-3.42-0.864-5.436 0-2.064 0.288-3.9 0.864-5.508s1.38-2.964 2.412-4.068 2.232-1.944 3.6-2.52c1.392-0.576 2.904-0.864 4.536-0.864 1.608 0 3.108 0.288 4.5 0.864 1.416 0.576 2.628 1.416 3.636 2.52 1.032 1.104 1.836 2.46 2.412 4.068 0.6 1.608 0.9 3.444 0.9 5.508zm-5.004 0c0-1.584-0.168-2.928-0.504-4.032s-0.804-2.004-1.404-2.7c-0.576-0.72-1.26-1.236-2.052-1.548-0.768-0.312-1.596-0.468-2.484-0.468s-1.728 0.156-2.52 0.468c-0.768 0.312-1.44 0.828-2.016 1.548-0.576 0.696-1.032 1.596-1.368 2.7-0.312 1.104-0.468 2.448-0.468 4.032 0 1.56 0.156 2.892 0.468 3.996 0.336 1.08 0.792 1.968 1.368 2.664 0.576 0.672 1.248 1.164 2.016 1.476 0.792 0.288 1.632 0.432 2.52 0.432s1.716-0.144 2.484-0.432c0.792-0.312 1.476-0.804 2.052-1.476 0.6-0.696 1.068-1.584 1.404-2.664 0.336-1.104 0.504-2.436 0.504-3.996zm23.04-11.16c0.312-0.408 0.636-0.72 0.972-0.936 0.36-0.24 0.828-0.36 1.404-0.36h4.608l-37.692 50.544c-0.24 0.312-0.528 0.564-0.864 0.756s-0.732 0.288-1.188 0.288h-4.752l37.512-50.292zm10.476 38.124c0 2.016-0.312 3.816-0.936 5.4s-1.464 2.928-2.52 4.032c-1.032 1.08-2.244 1.908-3.636 2.484-1.368 0.576-2.808 0.864-4.32 0.864-1.632 0-3.144-0.288-4.536-0.864-1.368-0.576-2.568-1.404-3.6-2.484-1.032-1.104-1.836-2.448-2.412-4.032s-0.864-3.384-0.864-5.4c0-2.064 0.288-3.9 0.864-5.508 0.576-1.632 1.38-3 2.412-4.104s2.232-1.944 3.6-2.52c1.392-0.576 2.904-0.864 4.536-0.864 1.608 0 3.108 0.288 4.5 0.864s2.604 1.416 3.636 2.52 1.836 2.472 2.412 4.104c0.576 1.608 0.864 3.444 0.864 5.508zm-4.968 0c0-1.584-0.168-2.928-0.504-4.032-0.336-1.128-0.804-2.04-1.404-2.736-0.576-0.696-1.26-1.2-2.052-1.512-0.768-0.312-1.596-0.468-2.484-0.468s-1.728 0.156-2.52 0.468c-0.768 0.312-1.44 0.816-2.016 1.512s-1.032 1.608-1.368 2.736c-0.312 1.104-0.468 2.448-0.468 4.032 0 1.56 0.156 2.88 0.468 3.96 0.336 1.08 0.792 1.968 1.368 2.664 0.576 0.672 1.248 1.164 2.016 1.476 0.792 0.288 1.632 0.432 2.52 0.432s1.716-0.144 2.484-0.432c0.792-0.312 1.476-0.804 2.052-1.476 0.6-0.696 1.068-1.584 1.404-2.664s0.504-2.4 0.504-3.96z" fill="#333D47"/>
<circle cx="369" cy="128" r="37" fill="#FCDE02"/>
<path d="m360.05 137.19c-0.856 0-1.64-0.112-2.352-0.336-0.712-0.232-1.324-0.56-1.836-0.984s-0.908-0.936-1.188-1.536c-0.28-0.608-0.42-1.288-0.42-2.04 0-1.104 0.288-2.012 0.864-2.724 0.576-0.72 1.4-1.232 2.472-1.536-0.904-0.336-1.588-0.836-2.052-1.5-0.456-0.672-0.684-1.472-0.684-2.4 0-0.632 0.124-1.224 0.372-1.776s0.6-1.032 1.056-1.44 1-0.728 1.632-0.96c0.64-0.232 1.352-0.348 2.136-0.348 0.776 0 1.484 0.116 2.124 0.348s1.188 0.552 1.644 0.96 0.808 0.888 1.056 1.44 0.372 1.144 0.372 1.776c0 0.928-0.232 1.728-0.696 2.4-0.464 0.664-1.144 1.164-2.04 1.5 1.072 0.304 1.896 0.816 2.472 1.536 0.576 0.712 0.864 1.62 0.864 2.724 0 0.752-0.144 1.432-0.432 2.04-0.28 0.6-0.676 1.112-1.188 1.536-0.504 0.424-1.112 0.752-1.824 0.984-0.712 0.224-1.496 0.336-2.352 0.336zm0-1.704c0.56 0 1.06-0.076 1.5-0.228 0.448-0.16 0.824-0.38 1.128-0.66 0.312-0.288 0.548-0.628 0.708-1.02 0.168-0.4 0.252-0.84 0.252-1.32 0-0.592-0.1-1.096-0.3-1.512-0.192-0.424-0.456-0.768-0.792-1.032-0.328-0.264-0.708-0.456-1.14-0.576-0.432-0.128-0.884-0.192-1.356-0.192s-0.924 0.064-1.356 0.192c-0.432 0.12-0.816 0.312-1.152 0.576-0.328 0.264-0.592 0.608-0.792 1.032-0.192 0.416-0.288 0.92-0.288 1.512 0 0.48 0.08 0.92 0.24 1.32 0.168 0.392 0.404 0.732 0.708 1.02 0.312 0.28 0.688 0.5 1.128 0.66 0.448 0.152 0.952 0.228 1.512 0.228zm0-8.256c0.56 0 1.036-0.084 1.428-0.252 0.4-0.176 0.724-0.404 0.972-0.684 0.248-0.288 0.428-0.616 0.54-0.984s0.168-0.748 0.168-1.14c0-0.4-0.068-0.776-0.204-1.128-0.128-0.352-0.324-0.66-0.588-0.924-0.256-0.264-0.58-0.472-0.972-0.624-0.384-0.152-0.832-0.228-1.344-0.228s-0.964 0.076-1.356 0.228c-0.384 0.152-0.708 0.36-0.972 0.624-0.256 0.264-0.452 0.572-0.588 0.924-0.128 0.352-0.192 0.728-0.192 1.128 0 0.392 0.056 0.772 0.168 1.14s0.292 0.696 0.54 0.984c0.248 0.28 0.568 0.508 0.96 0.684 0.4 0.168 0.88 0.252 1.44 0.252zm15.458-3.276c0 0.672-0.104 1.276-0.312 1.812-0.208 0.528-0.488 0.976-0.84 1.344-0.344 0.36-0.748 0.636-1.212 0.828s-0.948 0.288-1.452 0.288c-0.544 0-1.048-0.096-1.512-0.288-0.456-0.192-0.856-0.468-1.2-0.828-0.344-0.368-0.612-0.816-0.804-1.344-0.192-0.536-0.288-1.14-0.288-1.812 0-0.688 0.096-1.3 0.288-1.836s0.46-0.988 0.804-1.356 0.744-0.648 1.2-0.84c0.464-0.192 0.968-0.288 1.512-0.288 0.536 0 1.036 0.096 1.5 0.288 0.472 0.192 0.876 0.472 1.212 0.84 0.344 0.368 0.612 0.82 0.804 1.356 0.2 0.536 0.3 1.148 0.3 1.836zm-1.668 0c0-0.528-0.056-0.976-0.168-1.344s-0.268-0.668-0.468-0.9c-0.192-0.24-0.42-0.412-0.684-0.516-0.256-0.104-0.532-0.156-0.828-0.156s-0.576 0.052-0.84 0.156c-0.256 0.104-0.48 0.276-0.672 0.516-0.192 0.232-0.344 0.532-0.456 0.9-0.104 0.368-0.156 0.816-0.156 1.344 0 0.52 0.052 0.964 0.156 1.332 0.112 0.36 0.264 0.656 0.456 0.888 0.192 0.224 0.416 0.388 0.672 0.492 0.264 0.096 0.544 0.144 0.84 0.144s0.572-0.048 0.828-0.144c0.264-0.104 0.492-0.268 0.684-0.492 0.2-0.232 0.356-0.528 0.468-0.888 0.112-0.368 0.168-0.812 0.168-1.332zm7.68-3.72c0.104-0.136 0.212-0.24 0.324-0.312 0.12-0.08 0.276-0.12 0.468-0.12h1.536l-12.564 16.848c-0.08 0.104-0.176 0.188-0.288 0.252s-0.244 0.096-0.396 0.096h-1.584l12.504-16.764zm3.492 12.708c0 0.672-0.104 1.272-0.312 1.8s-0.488 0.976-0.84 1.344c-0.344 0.36-0.748 0.636-1.212 0.828-0.456 0.192-0.936 0.288-1.44 0.288-0.544 0-1.048-0.096-1.512-0.288-0.456-0.192-0.856-0.468-1.2-0.828-0.344-0.368-0.612-0.816-0.804-1.344s-0.288-1.128-0.288-1.8c0-0.688 0.096-1.3 0.288-1.836 0.192-0.544 0.46-1 0.804-1.368s0.744-0.648 1.2-0.84c0.464-0.192 0.968-0.288 1.512-0.288 0.536 0 1.036 0.096 1.5 0.288s0.868 0.472 1.212 0.84 0.612 0.824 0.804 1.368c0.192 0.536 0.288 1.148 0.288 1.836zm-1.656 0c0-0.528-0.056-0.976-0.168-1.344-0.112-0.376-0.268-0.68-0.468-0.912-0.192-0.232-0.42-0.4-0.684-0.504-0.256-0.104-0.532-0.156-0.828-0.156s-0.576 0.052-0.84 0.156c-0.256 0.104-0.48 0.272-0.672 0.504s-0.344 0.536-0.456 0.912c-0.104 0.368-0.156 0.816-0.156 1.344 0 0.52 0.052 0.96 0.156 1.32 0.112 0.36 0.264 0.656 0.456 0.888 0.192 0.224 0.416 0.388 0.672 0.492 0.264 0.096 0.544 0.144 0.84 0.144s0.572-0.048 0.828-0.144c0.264-0.104 0.492-0.268 0.684-0.492 0.2-0.232 0.356-0.528 0.468-0.888s0.168-0.8 0.168-1.32z" fill="#333D47"/>
<circle cx="507" cy="128" r="41" fill="#F79714"/>
<path d="m487.59 135.37h3.696v-11.724c0-0.352 0.012-0.708 0.036-1.068l-3.072 2.628c-0.08 0.064-0.16 0.112-0.24 0.144-0.08 0.024-0.156 0.036-0.228 0.036-0.12 0-0.228-0.024-0.324-0.072-0.096-0.056-0.168-0.12-0.216-0.192l-0.672-0.924 5.112-4.428h1.74v15.6h3.384v1.632h-9.216v-1.632zm23.677-6.96c0 1.504-0.164 2.808-0.492 3.912-0.32 1.096-0.76 2.004-1.32 2.724s-1.224 1.256-1.992 1.608c-0.76 0.352-1.576 0.528-2.448 0.528-0.88 0-1.7-0.176-2.46-0.528-0.752-0.352-1.408-0.888-1.968-1.608s-1-1.628-1.32-2.724c-0.32-1.104-0.48-2.408-0.48-3.912s0.16-2.808 0.48-3.912 0.76-2.016 1.32-2.736c0.56-0.728 1.216-1.268 1.968-1.62 0.76-0.352 1.58-0.528 2.46-0.528 0.872 0 1.688 0.176 2.448 0.528 0.768 0.352 1.432 0.892 1.992 1.62 0.56 0.72 1 1.632 1.32 2.736 0.328 1.104 0.492 2.408 0.492 3.912zm-2.22 0c0-1.312-0.112-2.412-0.336-3.3-0.216-0.896-0.512-1.616-0.888-2.16-0.368-0.544-0.796-0.932-1.284-1.164-0.488-0.24-0.996-0.36-1.524-0.36s-1.036 0.12-1.524 0.36c-0.488 0.232-0.916 0.62-1.284 1.164s-0.664 1.264-0.888 2.16c-0.216 0.888-0.324 1.988-0.324 3.3s0.108 2.412 0.324 3.3c0.224 0.888 0.52 1.604 0.888 2.148s0.796 0.936 1.284 1.176c0.488 0.232 0.996 0.348 1.524 0.348s1.036-0.116 1.524-0.348c0.488-0.24 0.916-0.632 1.284-1.176 0.376-0.544 0.672-1.26 0.888-2.148 0.224-0.888 0.336-1.988 0.336-3.3zm11.426-4.452c0 0.672-0.104 1.276-0.312 1.812-0.208 0.528-0.488 0.976-0.84 1.344-0.344 0.36-0.748 0.636-1.212 0.828s-0.948 0.288-1.452 0.288c-0.544 0-1.048-0.096-1.512-0.288-0.456-0.192-0.856-0.468-1.2-0.828-0.344-0.368-0.612-0.816-0.804-1.344-0.192-0.536-0.288-1.14-0.288-1.812 0-0.688 0.096-1.3 0.288-1.836s0.46-0.988 0.804-1.356 0.744-0.648 1.2-0.84c0.464-0.192 0.968-0.288 1.512-0.288 0.536 0 1.036 0.096 1.5 0.288 0.472 0.192 0.876 0.472 1.212 0.84 0.344 0.368 0.612 0.82 0.804 1.356 0.2 0.536 0.3 1.148 0.3 1.836zm-1.668 0c0-0.528-0.056-0.976-0.168-1.344s-0.268-0.668-0.468-0.9c-0.192-0.24-0.42-0.412-0.684-0.516-0.256-0.104-0.532-0.156-0.828-0.156s-0.576 0.052-0.84 0.156c-0.256 0.104-0.48 0.276-0.672 0.516-0.192 0.232-0.344 0.532-0.456 0.9-0.104 0.368-0.156 0.816-0.156 1.344 0 0.52 0.052 0.964 0.156 1.332 0.112 0.36 0.264 0.656 0.456 0.888 0.192 0.224 0.416 0.388 0.672 0.492 0.264 0.096 0.544 0.144 0.84 0.144s0.572-0.048 0.828-0.144c0.264-0.104 0.492-0.268 0.684-0.492 0.2-0.232 0.356-0.528 0.468-0.888 0.112-0.368 0.168-0.812 0.168-1.332zm7.68-3.72c0.104-0.136 0.212-0.24 0.324-0.312 0.12-0.08 0.276-0.12 0.468-0.12h1.536l-12.564 16.848c-0.08 0.104-0.176 0.188-0.288 0.252s-0.244 0.096-0.396 0.096h-1.584l12.504-16.764zm3.492 12.708c0 0.672-0.104 1.272-0.312 1.8s-0.488 0.976-0.84 1.344c-0.344 0.36-0.748 0.636-1.212 0.828-0.456 0.192-0.936 0.288-1.44 0.288-0.544 0-1.048-0.096-1.512-0.288-0.456-0.192-0.856-0.468-1.2-0.828-0.344-0.368-0.612-0.816-0.804-1.344s-0.288-1.128-0.288-1.8c0-0.688 0.096-1.3 0.288-1.836 0.192-0.544 0.46-1 0.804-1.368s0.744-0.648 1.2-0.84c0.464-0.192 0.968-0.288 1.512-0.288 0.536 0 1.036 0.096 1.5 0.288s0.868 0.472 1.212 0.84 0.612 0.824 0.804 1.368c0.192 0.536 0.288 1.148 0.288 1.836zm-1.656 0c0-0.528-0.056-0.976-0.168-1.344-0.112-0.376-0.268-0.68-0.468-0.912-0.192-0.232-0.42-0.4-0.684-0.504-0.256-0.104-0.532-0.156-0.828-0.156s-0.576 0.052-0.84 0.156c-0.256 0.104-0.48 0.272-0.672 0.504s-0.344 0.536-0.456 0.912c-0.104 0.368-0.156 0.816-0.156 1.344 0 0.52 0.052 0.96 0.156 1.32 0.112 0.36 0.264 0.656 0.456 0.888 0.192 0.224 0.416 0.388 0.672 0.492 0.264 0.096 0.544 0.144 0.84 0.144s0.572-0.048 0.828-0.144c0.264-0.104 0.492-0.268 0.684-0.492 0.2-0.232 0.356-0.528 0.468-0.888s0.168-0.8 0.168-1.32z" fill="#333D47"/>
<circle cx="600" cy="128" r="44" fill="#F79714"/>
<path d="m580.59 135.37h3.696v-11.724c0-0.352 0.012-0.708 0.036-1.068l-3.072 2.628c-0.08 0.064-0.16 0.112-0.24 0.144-0.08 0.024-0.156 0.036-0.228 0.036-0.12 0-0.228-0.024-0.324-0.072-0.096-0.056-0.168-0.12-0.216-0.192l-0.672-0.924 5.112-4.428h1.74v15.6h3.384v1.632h-9.216v-1.632zm22.213-14.628c0 0.304-0.096 0.556-0.288 0.756-0.192 0.192-0.516 0.288-0.972 0.288h-5.4l-0.792 4.512c0.896-0.192 1.724-0.288 2.484-0.288 0.896 0 1.684 0.132 2.364 0.396 0.688 0.264 1.264 0.628 1.728 1.092s0.812 1.012 1.044 1.644c0.24 0.632 0.36 1.32 0.36 2.064 0 0.912-0.16 1.736-0.48 2.472s-0.76 1.368-1.32 1.896c-0.552 0.52-1.204 0.92-1.956 1.2s-1.564 0.42-2.436 0.42c-0.504 0-0.988-0.052-1.452-0.156-0.464-0.096-0.896-0.228-1.296-0.396s-0.772-0.36-1.116-0.576-0.648-0.444-0.912-0.684l0.648-0.912c0.144-0.208 0.336-0.312 0.576-0.312 0.152 0 0.328 0.064 0.528 0.192 0.208 0.12 0.456 0.256 0.744 0.408s0.624 0.292 1.008 0.42c0.392 0.12 0.856 0.18 1.392 0.18 0.6 0 1.14-0.096 1.62-0.288s0.888-0.464 1.224-0.816c0.344-0.36 0.608-0.788 0.792-1.284s0.276-1.052 0.276-1.668c0-0.536-0.08-1.02-0.24-1.452-0.152-0.432-0.388-0.8-0.708-1.104-0.312-0.304-0.704-0.54-1.176-0.708s-1.024-0.252-1.656-0.252c-0.432 0-0.88 0.036-1.344 0.108s-0.944 0.188-1.44 0.348l-1.344-0.396 1.392-8.04h8.148v0.936zm10.67 3.216c0 0.672-0.104 1.276-0.312 1.812-0.208 0.528-0.488 0.976-0.84 1.344-0.344 0.36-0.748 0.636-1.212 0.828s-0.948 0.288-1.452 0.288c-0.544 0-1.048-0.096-1.512-0.288-0.456-0.192-0.856-0.468-1.2-0.828-0.344-0.368-0.612-0.816-0.804-1.344-0.192-0.536-0.288-1.14-0.288-1.812 0-0.688 0.096-1.3 0.288-1.836s0.46-0.988 0.804-1.356 0.744-0.648 1.2-0.84c0.464-0.192 0.968-0.288 1.512-0.288 0.536 0 1.036 0.096 1.5 0.288 0.472 0.192 0.876 0.472 1.212 0.84 0.344 0.368 0.612 0.82 0.804 1.356 0.2 0.536 0.3 1.148 0.3 1.836zm-1.668 0c0-0.528-0.056-0.976-0.168-1.344s-0.268-0.668-0.468-0.9c-0.192-0.24-0.42-0.412-0.684-0.516-0.256-0.104-0.532-0.156-0.828-0.156s-0.576 0.052-0.84 0.156c-0.256 0.104-0.48 0.276-0.672 0.516-0.192 0.232-0.344 0.532-0.456 0.9-0.104 0.368-0.156 0.816-0.156 1.344 0 0.52 0.052 0.964 0.156 1.332 0.112 0.36 0.264 0.656 0.456 0.888 0.192 0.224 0.416 0.388 0.672 0.492 0.264 0.096 0.544 0.144 0.84 0.144s0.572-0.048 0.828-0.144c0.264-0.104 0.492-0.268 0.684-0.492 0.2-0.232 0.356-0.528 0.468-0.888 0.112-0.368 0.168-0.812 0.168-1.332zm7.68-3.72c0.104-0.136 0.212-0.24 0.324-0.312 0.12-0.08 0.276-0.12 0.468-0.12h1.536l-12.564 16.848c-0.08 0.104-0.176 0.188-0.288 0.252s-0.244 0.096-0.396 0.096h-1.584l12.504-16.764zm3.492 12.708c0 0.672-0.104 1.272-0.312 1.8s-0.488 0.976-0.84 1.344c-0.344 0.36-0.748 0.636-1.212 0.828-0.456 0.192-0.936 0.288-1.44 0.288-0.544 0-1.048-0.096-1.512-0.288-0.456-0.192-0.856-0.468-1.2-0.828-0.344-0.368-0.612-0.816-0.804-1.344s-0.288-1.128-0.288-1.8c0-0.688 0.096-1.3 0.288-1.836 0.192-0.544 0.46-1 0.804-1.368s0.744-0.648 1.2-0.84c0.464-0.192 0.968-0.288 1.512-0.288 0.536 0 1.036 0.096 1.5 0.288s0.868 0.472 1.212 0.84 0.612 0.824 0.804 1.368c0.192 0.536 0.288 1.148 0.288 1.836zm-1.656 0c0-0.528-0.056-0.976-0.168-1.344-0.112-0.376-0.268-0.68-0.468-0.912-0.192-0.232-0.42-0.4-0.684-0.504-0.256-0.104-0.532-0.156-0.828-0.156s-0.576 0.052-0.84 0.156c-0.256 0.104-0.48 0.272-0.672 0.504s-0.344 0.536-0.456 0.912c-0.104 0.368-0.156 0.816-0.156 1.344 0 0.52 0.052 0.96 0.156 1.32 0.112 0.36 0.264 0.656 0.456 0.888 0.192 0.224 0.416 0.388 0.672 0.492 0.264 0.096 0.544 0.144 0.84 0.144s0.572-0.048 0.828-0.144c0.264-0.104 0.492-0.268 0.684-0.492 0.2-0.232 0.356-0.528 0.468-0.888s0.168-0.8 0.168-1.32z" fill="#333D47"/>
<circle cx="696" cy="128" r="44" fill="#C4C4C4"/>
<path d="m676.59 135.37h3.696v-11.724c0-0.352 0.012-0.708 0.036-1.068l-3.072 2.628c-0.08 0.064-0.16 0.112-0.24 0.144-0.08 0.024-0.156 0.036-0.228 0.036-0.12 0-0.228-0.024-0.324-0.072-0.096-0.056-0.168-0.12-0.216-0.192l-0.672-0.924 5.112-4.428h1.74v15.6h3.384v1.632h-9.216v-1.632zm22.213-14.628c0 0.304-0.096 0.556-0.288 0.756-0.192 0.192-0.516 0.288-0.972 0.288h-5.4l-0.792 4.512c0.896-0.192 1.724-0.288 2.484-0.288 0.896 0 1.684 0.132 2.364 0.396 0.688 0.264 1.264 0.628 1.728 1.092s0.812 1.012 1.044 1.644c0.24 0.632 0.36 1.32 0.36 2.064 0 0.912-0.16 1.736-0.48 2.472s-0.76 1.368-1.32 1.896c-0.552 0.52-1.204 0.92-1.956 1.2s-1.564 0.42-2.436 0.42c-0.504 0-0.988-0.052-1.452-0.156-0.464-0.096-0.896-0.228-1.296-0.396s-0.772-0.36-1.116-0.576-0.648-0.444-0.912-0.684l0.648-0.912c0.144-0.208 0.336-0.312 0.576-0.312 0.152 0 0.328 0.064 0.528 0.192 0.208 0.12 0.456 0.256 0.744 0.408s0.624 0.292 1.008 0.42c0.392 0.12 0.856 0.18 1.392 0.18 0.6 0 1.14-0.096 1.62-0.288s0.888-0.464 1.224-0.816c0.344-0.36 0.608-0.788 0.792-1.284s0.276-1.052 0.276-1.668c0-0.536-0.08-1.02-0.24-1.452-0.152-0.432-0.388-0.8-0.708-1.104-0.312-0.304-0.704-0.54-1.176-0.708s-1.024-0.252-1.656-0.252c-0.432 0-0.88 0.036-1.344 0.108s-0.944 0.188-1.44 0.348l-1.344-0.396 1.392-8.04h8.148v0.936zm10.67 3.216c0 0.672-0.104 1.276-0.312 1.812-0.208 0.528-0.488 0.976-0.84 1.344-0.344 0.36-0.748 0.636-1.212 0.828s-0.948 0.288-1.452 0.288c-0.544 0-1.048-0.096-1.512-0.288-0.456-0.192-0.856-0.468-1.2-0.828-0.344-0.368-0.612-0.816-0.804-1.344-0.192-0.536-0.288-1.14-0.288-1.812 0-0.688 0.096-1.3 0.288-1.836s0.46-0.988 0.804-1.356 0.744-0.648 1.2-0.84c0.464-0.192 0.968-0.288 1.512-0.288 0.536 0 1.036 0.096 1.5 0.288 0.472 0.192 0.876 0.472 1.212 0.84 0.344 0.368 0.612 0.82 0.804 1.356 0.2 0.536 0.3 1.148 0.3 1.836zm-1.668 0c0-0.528-0.056-0.976-0.168-1.344s-0.268-0.668-0.468-0.9c-0.192-0.24-0.42-0.412-0.684-0.516-0.256-0.104-0.532-0.156-0.828-0.156s-0.576 0.052-0.84 0.156c-0.256 0.104-0.48 0.276-0.672 0.516-0.192 0.232-0.344 0.532-0.456 0.9-0.104 0.368-0.156 0.816-0.156 1.344 0 0.52 0.052 0.964 0.156 1.332 0.112 0.36 0.264 0.656 0.456 0.888 0.192 0.224 0.416 0.388 0.672 0.492 0.264 0.096 0.544 0.144 0.84 0.144s0.572-0.048 0.828-0.144c0.264-0.104 0.492-0.268 0.684-0.492 0.2-0.232 0.356-0.528 0.468-0.888 0.112-0.368 0.168-0.812 0.168-1.332zm7.68-3.72c0.104-0.136 0.212-0.24 0.324-0.312 0.12-0.08 0.276-0.12 0.468-0.12h1.536l-12.564 16.848c-0.08 0.104-0.176 0.188-0.288 0.252s-0.244 0.096-0.396 0.096h-1.584l12.504-16.764zm3.492 12.708c0 0.672-0.104 1.272-0.312 1.8s-0.488 0.976-0.84 1.344c-0.344 0.36-0.748 0.636-1.212 0.828-0.456 0.192-0.936 0.288-1.44 0.288-0.544 0-1.048-0.096-1.512-0.288-0.456-0.192-0.856-0.468-1.2-0.828-0.344-0.368-0.612-0.816-0.804-1.344s-0.288-1.128-0.288-1.8c0-0.688 0.096-1.3 0.288-1.836 0.192-0.544 0.46-1 0.804-1.368s0.744-0.648 1.2-0.84c0.464-0.192 0.968-0.288 1.512-0.288 0.536 0 1.036 0.096 1.5 0.288s0.868 0.472 1.212 0.84 0.612 0.824 0.804 1.368c0.192 0.536 0.288 1.148 0.288 1.836zm-1.656 0c0-0.528-0.056-0.976-0.168-1.344-0.112-0.376-0.268-0.68-0.468-0.912-0.192-0.232-0.42-0.4-0.684-0.504-0.256-0.104-0.532-0.156-0.828-0.156s-0.576 0.052-0.84 0.156c-0.256 0.104-0.48 0.272-0.672 0.504s-0.344 0.536-0.456 0.912c-0.104 0.368-0.156 0.816-0.156 1.344 0 0.52 0.052 0.96 0.156 1.32 0.112 0.36 0.264 0.656 0.456 0.888 0.192 0.224 0.416 0.388 0.672 0.492 0.264 0.096 0.544 0.144 0.84 0.144s0.572-0.048 0.828-0.144c0.264-0.104 0.492-0.268 0.684-0.492 0.2-0.232 0.356-0.528 0.468-0.888s0.168-0.8 0.168-1.32z" fill="#333D47"/>
<path d="m310.11 7.986h2.034c0.21 0 0.384 0.051 0.522 0.153 0.144 0.096 0.24 0.228 0.288 0.396l2.214 7.785c0.054 0.192 0.102 0.402 0.144 0.63 0.048 0.222 0.093 0.459 0.135 0.711 0.048-0.252 0.099-0.489 0.153-0.711 0.06-0.228 0.123-0.438 0.189-0.63l2.556-7.785c0.048-0.138 0.141-0.264 0.279-0.378 0.144-0.114 0.318-0.171 0.522-0.171h0.711c0.21 0 0.384 0.051 0.522 0.153 0.138 0.096 0.234 0.228 0.288 0.396l2.538 7.785c0.132 0.384 0.246 0.81 0.342 1.278 0.042-0.234 0.084-0.459 0.126-0.675 0.048-0.216 0.096-0.417 0.144-0.603l2.214-7.785c0.042-0.15 0.135-0.279 0.279-0.387s0.318-0.162 0.522-0.162h1.899l-4.041 13.014h-2.187l-2.844-8.892c-0.036-0.114-0.075-0.237-0.117-0.369-0.036-0.132-0.072-0.273-0.108-0.423-0.036 0.15-0.075 0.291-0.117 0.423-0.036 0.132-0.072 0.255-0.108 0.369l-2.871 8.892h-2.187l-4.041-13.014zm23.497 3.636c0.69 0 1.314 0.111 1.872 0.333 0.564 0.222 1.044 0.537 1.44 0.945s0.702 0.906 0.918 1.494 0.324 1.245 0.324 1.971c0 0.732-0.108 1.392-0.324 1.98s-0.522 1.089-0.918 1.503-0.876 0.732-1.44 0.954c-0.558 0.222-1.182 0.333-1.872 0.333s-1.317-0.111-1.881-0.333-1.047-0.54-1.449-0.954c-0.396-0.414-0.705-0.915-0.927-1.503-0.216-0.588-0.324-1.248-0.324-1.98 0-0.726 0.108-1.383 0.324-1.971 0.222-0.588 0.531-1.086 0.927-1.494 0.402-0.408 0.885-0.723 1.449-0.945s1.191-0.333 1.881-0.333zm0 7.803c0.768 0 1.335-0.258 1.701-0.774 0.372-0.516 0.558-1.272 0.558-2.268s-0.186-1.755-0.558-2.277c-0.366-0.522-0.933-0.783-1.701-0.783-0.78 0-1.356 0.264-1.728 0.792-0.372 0.522-0.558 1.278-0.558 2.268s0.186 1.746 0.558 2.268c0.372 0.516 0.948 0.774 1.728 0.774zm8.322-7.659v5.868c0 0.564 0.129 1.002 0.387 1.314 0.264 0.306 0.657 0.459 1.179 0.459 0.384 0 0.744-0.084 1.08-0.252 0.336-0.174 0.654-0.411 0.954-0.711v-6.678h2.223v9.234h-1.359c-0.288 0-0.477-0.135-0.567-0.405l-0.153-0.738c-0.192 0.192-0.39 0.369-0.594 0.531-0.204 0.156-0.423 0.291-0.657 0.405-0.228 0.108-0.477 0.192-0.747 0.252-0.264 0.066-0.549 0.099-0.855 0.099-0.504 0-0.951-0.084-1.341-0.252-0.384-0.174-0.708-0.417-0.972-0.729s-0.465-0.681-0.603-1.107c-0.132-0.432-0.198-0.906-0.198-1.422v-5.868h2.223zm10.564-4.14v13.374h-2.223v-13.374h2.223zm9.017 13.374c-0.288 0-0.477-0.135-0.567-0.405l-0.18-0.891c-0.192 0.216-0.393 0.411-0.603 0.585s-0.438 0.324-0.684 0.45c-0.24 0.126-0.501 0.222-0.783 0.288-0.276 0.072-0.576 0.108-0.9 0.108-0.504 0-0.966-0.105-1.386-0.315s-0.783-0.513-1.089-0.909c-0.3-0.402-0.534-0.897-0.702-1.485-0.162-0.588-0.243-1.26-0.243-2.016 0-0.684 0.093-1.32 0.279-1.908s0.453-1.098 0.801-1.53 0.765-0.768 1.251-1.008c0.486-0.246 1.032-0.369 1.638-0.369 0.516 0 0.957 0.084 1.323 0.252 0.366 0.162 0.693 0.381 0.981 0.657v-4.878h2.223v13.374h-1.359zm-2.961-1.629c0.462 0 0.855-0.096 1.179-0.288s0.63-0.465 0.918-0.819v-4.14c-0.252-0.306-0.528-0.522-0.828-0.648-0.294-0.126-0.612-0.189-0.954-0.189-0.336 0-0.642 0.063-0.918 0.189-0.27 0.126-0.501 0.318-0.693 0.576-0.186 0.252-0.33 0.576-0.432 0.972-0.102 0.39-0.153 0.852-0.153 1.386 0 0.54 0.042 0.999 0.126 1.377 0.09 0.372 0.216 0.678 0.378 0.918 0.162 0.234 0.36 0.405 0.594 0.513 0.234 0.102 0.495 0.153 0.783 0.153zm13.485 4.167c-0.066 0.156-0.153 0.273-0.261 0.351-0.102 0.084-0.261 0.126-0.477 0.126h-1.656l1.728-3.699-3.735-8.55h1.944c0.18 0 0.318 0.042 0.414 0.126s0.168 0.18 0.216 0.288l1.971 4.788c0.066 0.156 0.123 0.318 0.171 0.486s0.09 0.336 0.126 0.504c0.048-0.174 0.099-0.342 0.153-0.504 0.06-0.162 0.123-0.327 0.189-0.495l1.854-4.779c0.048-0.12 0.126-0.219 0.234-0.297 0.114-0.078 0.24-0.117 0.378-0.117h1.782l-5.031 11.772zm9.965-11.916c0.69 0 1.314 0.111 1.872 0.333 0.564 0.222 1.044 0.537 1.44 0.945s0.702 0.906 0.918 1.494 0.324 1.245 0.324 1.971c0 0.732-0.108 1.392-0.324 1.98s-0.522 1.089-0.918 1.503-0.876 0.732-1.44 0.954c-0.558 0.222-1.182 0.333-1.872 0.333s-1.317-0.111-1.881-0.333-1.047-0.54-1.449-0.954c-0.396-0.414-0.705-0.915-0.927-1.503-0.216-0.588-0.324-1.248-0.324-1.98 0-0.726 0.108-1.383 0.324-1.971 0.222-0.588 0.531-1.086 0.927-1.494 0.402-0.408 0.885-0.723 1.449-0.945s1.191-0.333 1.881-0.333zm0 7.803c0.768 0 1.335-0.258 1.701-0.774 0.372-0.516 0.558-1.272 0.558-2.268s-0.186-1.755-0.558-2.277c-0.366-0.522-0.933-0.783-1.701-0.783-0.78 0-1.356 0.264-1.728 0.792-0.372 0.522-0.558 1.278-0.558 2.268s0.186 1.746 0.558 2.268c0.372 0.516 0.948 0.774 1.728 0.774zm8.323-7.659v5.868c0 0.564 0.129 1.002 0.387 1.314 0.264 0.306 0.657 0.459 1.179 0.459 0.384 0 0.744-0.084 1.08-0.252 0.336-0.174 0.654-0.411 0.954-0.711v-6.678h2.223v9.234h-1.359c-0.288 0-0.477-0.135-0.567-0.405l-0.153-0.738c-0.192 0.192-0.39 0.369-0.594 0.531-0.204 0.156-0.423 0.291-0.657 0.405-0.228 0.108-0.477 0.192-0.747 0.252-0.264 0.066-0.549 0.099-0.855 0.099-0.504 0-0.951-0.084-1.341-0.252-0.384-0.174-0.708-0.417-0.972-0.729s-0.465-0.681-0.603-1.107c-0.132-0.432-0.198-0.906-0.198-1.422v-5.868h2.223zm18.913 9.234h-0.999c-0.21 0-0.375-0.03-0.495-0.09-0.12-0.066-0.21-0.195-0.27-0.387l-0.198-0.657c-0.234 0.21-0.465 0.396-0.693 0.558-0.222 0.156-0.453 0.288-0.693 0.396s-0.495 0.189-0.765 0.243-0.57 0.081-0.9 0.081c-0.39 0-0.75-0.051-1.08-0.153-0.33-0.108-0.615-0.267-0.855-0.477-0.234-0.21-0.417-0.471-0.549-0.783s-0.198-0.675-0.198-1.089c0-0.348 0.09-0.69 0.27-1.026 0.186-0.342 0.492-0.648 0.918-0.918 0.426-0.276 0.993-0.504 1.701-0.684s1.587-0.282 2.637-0.306v-0.54c0-0.618-0.132-1.074-0.396-1.368-0.258-0.3-0.636-0.45-1.134-0.45-0.36 0-0.66 0.042-0.9 0.126s-0.45 0.18-0.63 0.288c-0.174 0.102-0.336 0.195-0.486 0.279s-0.315 0.126-0.495 0.126c-0.15 0-0.279-0.039-0.387-0.117s-0.195-0.174-0.261-0.288l-0.405-0.711c1.062-0.972 2.343-1.458 3.843-1.458 0.54 0 1.02 0.09 1.44 0.27 0.426 0.174 0.786 0.42 1.08 0.738 0.294 0.312 0.516 0.687 0.666 1.125 0.156 0.438 0.234 0.918 0.234 1.44v5.832zm-4.32-1.386c0.228 0 0.438-0.021 0.63-0.063s0.372-0.105 0.54-0.189c0.174-0.084 0.339-0.186 0.495-0.306 0.162-0.126 0.324-0.273 0.486-0.441v-1.557c-0.648 0.03-1.191 0.087-1.629 0.171-0.432 0.078-0.78 0.18-1.044 0.306s-0.453 0.273-0.567 0.441c-0.108 0.168-0.162 0.351-0.162 0.549 0 0.39 0.114 0.669 0.342 0.837 0.234 0.168 0.537 0.252 0.909 0.252zm13.003 1.386c-0.288 0-0.477-0.135-0.567-0.405l-0.18-0.891c-0.192 0.216-0.393 0.411-0.603 0.585s-0.438 0.324-0.684 0.45c-0.24 0.126-0.501 0.222-0.783 0.288-0.276 0.072-0.576 0.108-0.9 0.108-0.504 0-0.966-0.105-1.386-0.315s-0.783-0.513-1.089-0.909c-0.3-0.402-0.534-0.897-0.702-1.485-0.162-0.588-0.243-1.26-0.243-2.016 0-0.684 0.093-1.32 0.279-1.908s0.453-1.098 0.801-1.53 0.765-0.768 1.251-1.008c0.486-0.246 1.032-0.369 1.638-0.369 0.516 0 0.957 0.084 1.323 0.252 0.366 0.162 0.693 0.381 0.981 0.657v-4.878h2.223v13.374h-1.359zm-2.961-1.629c0.462 0 0.855-0.096 1.179-0.288s0.63-0.465 0.918-0.819v-4.14c-0.252-0.306-0.528-0.522-0.828-0.648-0.294-0.126-0.612-0.189-0.954-0.189-0.336 0-0.642 0.063-0.918 0.189-0.27 0.126-0.501 0.318-0.693 0.576-0.186 0.252-0.33 0.576-0.432 0.972-0.102 0.39-0.153 0.852-0.153 1.386 0 0.54 0.042 0.999 0.126 1.377 0.09 0.372 0.216 0.678 0.378 0.918 0.162 0.234 0.36 0.405 0.594 0.513 0.234 0.102 0.495 0.153 0.783 0.153zm13.227 1.629c-0.288 0-0.477-0.135-0.567-0.405l-0.18-0.891c-0.192 0.216-0.393 0.411-0.603 0.585s-0.438 0.324-0.684 0.45c-0.24 0.126-0.501 0.222-0.783 0.288-0.276 0.072-0.576 0.108-0.9 0.108-0.504 0-0.966-0.105-1.386-0.315s-0.783-0.513-1.089-0.909c-0.3-0.402-0.534-0.897-0.702-1.485-0.162-0.588-0.243-1.26-0.243-2.016 0-0.684 0.093-1.32 0.279-1.908s0.453-1.098 0.801-1.53 0.765-0.768 1.251-1.008c0.486-0.246 1.032-0.369 1.638-0.369 0.516 0 0.957 0.084 1.323 0.252 0.366 0.162 0.693 0.381 0.981 0.657v-4.878h2.223v13.374h-1.359zm-2.961-1.629c0.462 0 0.855-0.096 1.179-0.288s0.63-0.465 0.918-0.819v-4.14c-0.252-0.306-0.528-0.522-0.828-0.648-0.294-0.126-0.612-0.189-0.954-0.189-0.336 0-0.642 0.063-0.918 0.189-0.27 0.126-0.501 0.318-0.693 0.576-0.186 0.252-0.33 0.576-0.432 0.972-0.102 0.39-0.153 0.852-0.153 1.386 0 0.54 0.042 0.999 0.126 1.377 0.09 0.372 0.216 0.678 0.378 0.918 0.162 0.234 0.36 0.405 0.594 0.513 0.234 0.102 0.495 0.153 0.783 0.153zm17.445 1.629h-0.999c-0.21 0-0.375-0.03-0.495-0.09-0.12-0.066-0.21-0.195-0.27-0.387l-0.198-0.657c-0.234 0.21-0.465 0.396-0.693 0.558-0.222 0.156-0.453 0.288-0.693 0.396s-0.495 0.189-0.765 0.243-0.57 0.081-0.9 0.081c-0.39 0-0.75-0.051-1.08-0.153-0.33-0.108-0.615-0.267-0.855-0.477-0.234-0.21-0.417-0.471-0.549-0.783s-0.198-0.675-0.198-1.089c0-0.348 0.09-0.69 0.27-1.026 0.186-0.342 0.492-0.648 0.918-0.918 0.426-0.276 0.993-0.504 1.701-0.684s1.587-0.282 2.637-0.306v-0.54c0-0.618-0.132-1.074-0.396-1.368-0.258-0.3-0.636-0.45-1.134-0.45-0.36 0-0.66 0.042-0.9 0.126s-0.45 0.18-0.63 0.288c-0.174 0.102-0.336 0.195-0.486 0.279s-0.315 0.126-0.495 0.126c-0.15 0-0.279-0.039-0.387-0.117s-0.195-0.174-0.261-0.288l-0.405-0.711c1.062-0.972 2.343-1.458 3.843-1.458 0.54 0 1.02 0.09 1.44 0.27 0.426 0.174 0.786 0.42 1.08 0.738 0.294 0.312 0.516 0.687 0.666 1.125 0.156 0.438 0.234 0.918 0.234 1.44v5.832zm-4.32-1.386c0.228 0 0.438-0.021 0.63-0.063s0.372-0.105 0.54-0.189c0.174-0.084 0.339-0.186 0.495-0.306 0.162-0.126 0.324-0.273 0.486-0.441v-1.557c-0.648 0.03-1.191 0.087-1.629 0.171-0.432 0.078-0.78 0.18-1.044 0.306s-0.453 0.273-0.567 0.441c-0.108 0.168-0.162 0.351-0.162 0.549 0 0.39 0.114 0.669 0.342 0.837 0.234 0.168 0.537 0.252 0.909 0.252zm9.987 4.401v-12.249h1.359c0.144 0 0.267 0.033 0.369 0.099s0.168 0.168 0.198 0.306l0.18 0.855c0.372-0.426 0.798-0.771 1.278-1.035 0.486-0.264 1.053-0.396 1.701-0.396 0.504 0 0.963 0.105 1.377 0.315 0.42 0.21 0.78 0.516 1.08 0.918 0.306 0.396 0.54 0.888 0.702 1.476 0.168 0.582 0.252 1.251 0.252 2.007 0 0.69-0.093 1.329-0.279 1.917s-0.453 1.098-0.801 1.53c-0.342 0.432-0.759 0.771-1.251 1.017-0.486 0.24-1.032 0.36-1.638 0.36-0.522 0-0.966-0.078-1.332-0.234-0.36-0.162-0.684-0.384-0.972-0.666v3.78h-2.223zm4.32-10.665c-0.462 0-0.858 0.099-1.188 0.297-0.324 0.192-0.627 0.465-0.909 0.819v4.14c0.252 0.312 0.525 0.531 0.819 0.657 0.3 0.12 0.621 0.18 0.963 0.18 0.336 0 0.639-0.063 0.909-0.189 0.276-0.126 0.507-0.318 0.693-0.576 0.192-0.258 0.339-0.582 0.441-0.972 0.102-0.396 0.153-0.861 0.153-1.395 0-0.54-0.045-0.996-0.135-1.368-0.084-0.378-0.207-0.684-0.369-0.918s-0.36-0.405-0.594-0.513c-0.228-0.108-0.489-0.162-0.783-0.162zm8.224-5.724v13.374h-2.223v-13.374h2.223zm4.554 4.14v5.868c0 0.564 0.129 1.002 0.387 1.314 0.264 0.306 0.657 0.459 1.179 0.459 0.384 0 0.744-0.084 1.08-0.252 0.336-0.174 0.654-0.411 0.954-0.711v-6.678h2.223v9.234h-1.359c-0.288 0-0.477-0.135-0.567-0.405l-0.153-0.738c-0.192 0.192-0.39 0.369-0.594 0.531-0.204 0.156-0.423 0.291-0.657 0.405-0.228 0.108-0.477 0.192-0.747 0.252-0.264 0.066-0.549 0.099-0.855 0.099-0.504 0-0.951-0.084-1.341-0.252-0.384-0.174-0.708-0.417-0.972-0.729s-0.465-0.681-0.603-1.107c-0.132-0.432-0.198-0.906-0.198-1.422v-5.868h2.223zm11.391-0.162c0.396 0 0.768 0.042 1.116 0.126 0.348 0.078 0.666 0.195 0.954 0.351h2.655v0.828c0 0.138-0.036 0.246-0.108 0.324s-0.195 0.132-0.369 0.162l-0.828 0.153c0.06 0.156 0.105 0.321 0.135 0.495 0.036 0.174 0.054 0.357 0.054 0.549 0 0.456-0.093 0.87-0.279 1.242-0.18 0.366-0.432 0.678-0.756 0.936-0.318 0.258-0.699 0.459-1.143 0.603-0.438 0.138-0.915 0.207-1.431 0.207-0.348 0-0.687-0.033-1.017-0.099-0.288 0.174-0.432 0.369-0.432 0.585 0 0.186 0.084 0.324 0.252 0.414 0.174 0.084 0.399 0.144 0.675 0.18 0.282 0.036 0.6 0.06 0.954 0.072 0.354 6e-3 0.717 0.024 1.089 0.054s0.735 0.084 1.089 0.162c0.354 0.072 0.669 0.189 0.945 0.351 0.282 0.162 0.507 0.384 0.675 0.666 0.174 0.276 0.261 0.633 0.261 1.071 0 0.408-0.102 0.804-0.306 1.188-0.198 0.384-0.489 0.726-0.873 1.026-0.378 0.3-0.843 0.54-1.395 0.72-0.552 0.186-1.182 0.279-1.89 0.279-0.702 0-1.311-0.069-1.827-0.207-0.516-0.132-0.945-0.312-1.287-0.54-0.336-0.222-0.588-0.48-0.756-0.774s-0.252-0.6-0.252-0.918c0-0.432 0.132-0.795 0.396-1.089s0.63-0.528 1.098-0.702c-0.228-0.126-0.411-0.294-0.549-0.504s-0.207-0.483-0.207-0.819c0-0.138 0.024-0.279 0.072-0.423 0.048-0.15 0.12-0.297 0.216-0.441 0.102-0.144 0.228-0.279 0.378-0.405 0.15-0.132 0.327-0.249 0.531-0.351-0.468-0.252-0.837-0.588-1.107-1.008-0.264-0.42-0.396-0.912-0.396-1.476 0-0.456 0.09-0.867 0.27-1.233 0.186-0.372 0.441-0.687 0.765-0.945 0.33-0.264 0.717-0.465 1.161-0.603 0.45-0.138 0.939-0.207 1.467-0.207zm2.439 9.81c0-0.18-0.054-0.327-0.162-0.441s-0.255-0.201-0.441-0.261c-0.186-0.066-0.405-0.114-0.657-0.144-0.246-0.03-0.51-0.051-0.792-0.063-0.276-0.018-0.564-0.033-0.864-0.045-0.294-0.018-0.579-0.045-0.855-0.081-0.252 0.138-0.456 0.303-0.612 0.495-0.15 0.186-0.225 0.402-0.225 0.648 0 0.162 0.039 0.312 0.117 0.45 0.084 0.144 0.213 0.267 0.387 0.369 0.18 0.102 0.411 0.18 0.693 0.234 0.282 0.06 0.627 0.09 1.035 0.09 0.414 0 0.771-0.033 1.071-0.099 0.3-0.06 0.546-0.147 0.738-0.261 0.198-0.108 0.342-0.24 0.432-0.396 0.09-0.15 0.135-0.315 0.135-0.495zm-2.439-5.256c0.276 0 0.516-0.036 0.72-0.108 0.204-0.078 0.372-0.183 0.504-0.315 0.138-0.132 0.24-0.291 0.306-0.477 0.072-0.186 0.108-0.39 0.108-0.612 0-0.456-0.138-0.816-0.414-1.08-0.27-0.27-0.678-0.405-1.224-0.405s-0.957 0.135-1.233 0.405c-0.27 0.264-0.405 0.624-0.405 1.08 0 0.216 0.033 0.417 0.099 0.603 0.072 0.186 0.174 0.348 0.306 0.486 0.138 0.132 0.309 0.237 0.513 0.315 0.21 0.072 0.45 0.108 0.72 0.108zm8.489-4.392v9.234h-2.223v-9.234h2.223zm0.333-2.691c0 0.192-0.039 0.372-0.117 0.54s-0.183 0.315-0.315 0.441c-0.126 0.126-0.276 0.228-0.45 0.306-0.174 0.072-0.36 0.108-0.558 0.108-0.192 0-0.375-0.036-0.549-0.108-0.168-0.078-0.315-0.18-0.441-0.306s-0.228-0.273-0.306-0.441c-0.072-0.168-0.108-0.348-0.108-0.54 0-0.198 0.036-0.384 0.108-0.558 0.078-0.174 0.18-0.324 0.306-0.45s0.273-0.225 0.441-0.297c0.174-0.078 0.357-0.117 0.549-0.117 0.198 0 0.384 0.039 0.558 0.117 0.174 0.072 0.324 0.171 0.45 0.297 0.132 0.126 0.237 0.276 0.315 0.45s0.117 0.36 0.117 0.558zm2.187 11.925v-9.234h1.359c0.288 0 0.477 0.135 0.567 0.405l0.153 0.729c0.186-0.192 0.381-0.366 0.585-0.522 0.21-0.156 0.429-0.291 0.657-0.405 0.234-0.114 0.483-0.201 0.747-0.261s0.552-0.09 0.864-0.09c0.504 0 0.951 0.087 1.341 0.261 0.39 0.168 0.714 0.408 0.972 0.72 0.264 0.306 0.462 0.675 0.594 1.107 0.138 0.426 0.207 0.897 0.207 1.413v5.877h-2.223v-5.877c0-0.564-0.132-0.999-0.396-1.305-0.258-0.312-0.648-0.468-1.17-0.468-0.384 0-0.744 0.087-1.08 0.261s-0.654 0.411-0.954 0.711v6.678h-2.223zm17.653-9.378c0.69 0 1.314 0.111 1.872 0.333 0.564 0.222 1.044 0.537 1.44 0.945s0.702 0.906 0.918 1.494 0.324 1.245 0.324 1.971c0 0.732-0.108 1.392-0.324 1.98s-0.522 1.089-0.918 1.503-0.876 0.732-1.44 0.954c-0.558 0.222-1.182 0.333-1.872 0.333s-1.317-0.111-1.881-0.333-1.047-0.54-1.449-0.954c-0.396-0.414-0.705-0.915-0.927-1.503-0.216-0.588-0.324-1.248-0.324-1.98 0-0.726 0.108-1.383 0.324-1.971 0.222-0.588 0.531-1.086 0.927-1.494 0.402-0.408 0.885-0.723 1.449-0.945s1.191-0.333 1.881-0.333zm0 7.803c0.768 0 1.335-0.258 1.701-0.774 0.372-0.516 0.558-1.272 0.558-2.268s-0.186-1.755-0.558-2.277c-0.366-0.522-0.933-0.783-1.701-0.783-0.78 0-1.356 0.264-1.728 0.792-0.372 0.522-0.558 1.278-0.558 2.268s0.186 1.746 0.558 2.268c0.372 0.516 0.948 0.774 1.728 0.774zm10.615 1.575h-2.016l-3.672-9.234h1.845c0.162 0 0.297 0.039 0.405 0.117 0.114 0.078 0.192 0.177 0.234 0.297l1.782 4.932c0.102 0.288 0.186 0.57 0.252 0.846 0.072 0.276 0.135 0.552 0.189 0.828 0.054-0.276 0.114-0.552 0.18-0.828 0.072-0.276 0.162-0.558 0.27-0.846l1.827-4.932c0.042-0.12 0.117-0.219 0.225-0.297s0.237-0.117 0.387-0.117h1.755l-3.663 9.234zm8.489-9.378c0.582 0 1.116 0.093 1.602 0.279 0.492 0.186 0.915 0.459 1.269 0.819 0.354 0.354 0.63 0.792 0.828 1.314 0.198 0.516 0.297 1.107 0.297 1.773 0 0.168-9e-3 0.309-0.027 0.423-0.012 0.108-0.039 0.195-0.081 0.261-0.036 0.06-0.087 0.105-0.153 0.135-0.066 0.024-0.15 0.036-0.252 0.036h-5.706c0.066 0.948 0.321 1.644 0.765 2.088s1.032 0.666 1.764 0.666c0.36 0 0.669-0.042 0.927-0.126 0.264-0.084 0.492-0.177 0.684-0.279 0.198-0.102 0.369-0.195 0.513-0.279 0.15-0.084 0.294-0.126 0.432-0.126 0.09 0 0.168 0.018 0.234 0.054s0.123 0.087 0.171 0.153l0.648 0.81c-0.246 0.288-0.522 0.531-0.828 0.729-0.306 0.192-0.627 0.348-0.963 0.468-0.33 0.114-0.669 0.195-1.017 0.243-0.342 0.048-0.675 0.072-0.999 0.072-0.642 0-1.239-0.105-1.791-0.315-0.552-0.216-1.032-0.531-1.44-0.945-0.408-0.42-0.729-0.936-0.963-1.548-0.234-0.618-0.351-1.332-0.351-2.142 0-0.63 0.102-1.221 0.306-1.773 0.204-0.558 0.495-1.041 0.873-1.449 0.384-0.414 0.849-0.741 1.395-0.981 0.552-0.24 1.173-0.36 1.863-0.36zm0.045 1.593c-0.648 0-1.155 0.183-1.521 0.549s-0.6 0.885-0.702 1.557h4.176c0-0.288-0.039-0.558-0.117-0.81-0.078-0.258-0.198-0.483-0.36-0.675s-0.366-0.342-0.612-0.45c-0.246-0.114-0.534-0.171-0.864-0.171zm5.754 7.785v-9.234h1.305c0.228 0 0.387 0.042 0.477 0.126s0.15 0.228 0.18 0.432l0.135 1.116c0.33-0.57 0.717-1.02 1.161-1.35s0.942-0.495 1.494-0.495c0.456 0 0.834 0.105 1.134 0.315l-0.288 1.665c-0.018 0.108-0.057 0.186-0.117 0.234-0.06 0.042-0.141 0.063-0.243 0.063-0.09 0-0.213-0.021-0.369-0.063s-0.363-0.063-0.621-0.063c-0.462 0-0.858 0.129-1.188 0.387-0.33 0.252-0.609 0.624-0.837 1.116v5.751h-2.223zm13.846 0c-0.288 0-0.477-0.135-0.567-0.405l-0.18-0.891c-0.192 0.216-0.393 0.411-0.603 0.585s-0.438 0.324-0.684 0.45c-0.24 0.126-0.501 0.222-0.783 0.288-0.276 0.072-0.576 0.108-0.9 0.108-0.504 0-0.966-0.105-1.386-0.315s-0.783-0.513-1.089-0.909c-0.3-0.402-0.534-0.897-0.702-1.485-0.162-0.588-0.243-1.26-0.243-2.016 0-0.684 0.093-1.32 0.279-1.908s0.453-1.098 0.801-1.53 0.765-0.768 1.251-1.008c0.486-0.246 1.032-0.369 1.638-0.369 0.516 0 0.957 0.084 1.323 0.252 0.366 0.162 0.693 0.381 0.981 0.657v-4.878h2.223v13.374h-1.359zm-2.961-1.629c0.462 0 0.855-0.096 1.179-0.288s0.63-0.465 0.918-0.819v-4.14c-0.252-0.306-0.528-0.522-0.828-0.648-0.294-0.126-0.612-0.189-0.954-0.189-0.336 0-0.642 0.063-0.918 0.189-0.27 0.126-0.501 0.318-0.693 0.576-0.186 0.252-0.33 0.576-0.432 0.972-0.102 0.39-0.153 0.852-0.153 1.386 0 0.54 0.042 0.999 0.126 1.377 0.09 0.372 0.216 0.678 0.378 0.918 0.162 0.234 0.36 0.405 0.594 0.513 0.234 0.102 0.495 0.153 0.783 0.153zm6.728 1.629v-9.234h1.306c0.228 0 0.387 0.042 0.477 0.126s0.15 0.228 0.18 0.432l0.135 1.116c0.33-0.57 0.717-1.02 1.161-1.35s0.942-0.495 1.494-0.495c0.456 0 0.834 0.105 1.134 0.315l-0.288 1.665c-0.018 0.108-0.057 0.186-0.117 0.234-0.06 0.042-0.141 0.063-0.243 0.063-0.09 0-0.213-0.021-0.369-0.063s-0.363-0.063-0.621-0.063c-0.462 0-0.858 0.129-1.188 0.387-0.33 0.252-0.609 0.624-0.837 1.116v5.751h-2.224zm14.32 0h-0.999c-0.21 0-0.375-0.03-0.495-0.09-0.12-0.066-0.21-0.195-0.27-0.387l-0.198-0.657c-0.234 0.21-0.465 0.396-0.693 0.558-0.222 0.156-0.453 0.288-0.693 0.396s-0.495 0.189-0.765 0.243-0.57 0.081-0.9 0.081c-0.39 0-0.75-0.051-1.08-0.153-0.33-0.108-0.615-0.267-0.855-0.477-0.234-0.21-0.417-0.471-0.549-0.783s-0.198-0.675-0.198-1.089c0-0.348 0.09-0.69 0.27-1.026 0.186-0.342 0.492-0.648 0.918-0.918 0.426-0.276 0.993-0.504 1.701-0.684s1.587-0.282 2.637-0.306v-0.54c0-0.618-0.132-1.074-0.396-1.368-0.258-0.3-0.636-0.45-1.134-0.45-0.36 0-0.66 0.042-0.9 0.126s-0.45 0.18-0.63 0.288c-0.174 0.102-0.336 0.195-0.486 0.279s-0.315 0.126-0.495 0.126c-0.15 0-0.279-0.039-0.387-0.117s-0.195-0.174-0.261-0.288l-0.405-0.711c1.062-0.972 2.343-1.458 3.843-1.458 0.54 0 1.02 0.09 1.44 0.27 0.426 0.174 0.786 0.42 1.08 0.738 0.294 0.312 0.516 0.687 0.666 1.125 0.156 0.438 0.234 0.918 0.234 1.44v5.832zm-4.32-1.386c0.228 0 0.438-0.021 0.63-0.063s0.372-0.105 0.54-0.189c0.174-0.084 0.339-0.186 0.495-0.306 0.162-0.126 0.324-0.273 0.486-0.441v-1.557c-0.648 0.03-1.191 0.087-1.629 0.171-0.432 0.078-0.78 0.18-1.044 0.306s-0.453 0.273-0.567 0.441c-0.108 0.168-0.162 0.351-0.162 0.549 0 0.39 0.114 0.669 0.342 0.837 0.234 0.168 0.537 0.252 0.909 0.252zm6.902 1.386v-7.56l-0.801-0.126c-0.174-0.03-0.315-0.09-0.423-0.18-0.102-0.09-0.153-0.216-0.153-0.378v-0.909h1.377v-0.684c0-0.528 0.078-1.002 0.234-1.422 0.162-0.42 0.39-0.777 0.684-1.071 0.3-0.294 0.663-0.519 1.089-0.675s0.906-0.234 1.44-0.234c0.426 0 0.822 0.057 1.188 0.171l-0.045 1.116c-0.012 0.174-0.093 0.282-0.243 0.324s-0.324 0.063-0.522 0.063c-0.264 0-0.501 0.03-0.711 0.09-0.204 0.054-0.378 0.153-0.522 0.297-0.144 0.138-0.255 0.324-0.333 0.558-0.072 0.228-0.108 0.513-0.108 0.855v0.612h2.403v1.584h-2.331v7.569h-2.223zm8.948 0.144c-0.798 0-1.413-0.225-1.845-0.675-0.432-0.456-0.648-1.083-0.648-1.881v-5.157h-0.936c-0.12 0-0.225-0.039-0.315-0.117-0.084-0.078-0.126-0.195-0.126-0.351v-0.882l1.485-0.243 0.468-2.52c0.024-0.12 0.078-0.213 0.162-0.279 0.09-0.066 0.201-0.099 0.333-0.099h1.152v2.907h2.43v1.584h-2.43v5.004c0 0.288 0.072 0.513 0.216 0.675s0.336 0.243 0.576 0.243c0.138 0 0.252-0.015 0.342-0.045 0.096-0.036 0.177-0.072 0.243-0.108 0.072-0.036 0.135-0.069 0.189-0.099 0.054-0.036 0.108-0.054 0.162-0.054 0.066 0 0.12 0.018 0.162 0.054 0.042 0.03 0.087 0.078 0.135 0.144l0.666 1.08c-0.324 0.27-0.696 0.474-1.116 0.612s-0.855 0.207-1.305 0.207zm10.441 0c-0.798 0-1.413-0.225-1.845-0.675-0.432-0.456-0.648-1.083-0.648-1.881v-5.157h-0.936c-0.12 0-0.225-0.039-0.315-0.117-0.084-0.078-0.126-0.195-0.126-0.351v-0.882l1.485-0.243 0.468-2.52c0.024-0.12 0.078-0.213 0.162-0.279 0.09-0.066 0.201-0.099 0.333-0.099h1.152v2.907h2.43v1.584h-2.43v5.004c0 0.288 0.072 0.513 0.216 0.675s0.336 0.243 0.576 0.243c0.138 0 0.252-0.015 0.342-0.045 0.096-0.036 0.177-0.072 0.243-0.108 0.072-0.036 0.135-0.069 0.189-0.099 0.054-0.036 0.108-0.054 0.162-0.054 0.066 0 0.12 0.018 0.162 0.054 0.042 0.03 0.087 0.078 0.135 0.144l0.666 1.08c-0.324 0.27-0.696 0.474-1.116 0.612s-0.855 0.207-1.305 0.207zm7.87-9.522c0.69 0 1.314 0.111 1.872 0.333 0.564 0.222 1.044 0.537 1.44 0.945s0.702 0.906 0.918 1.494 0.324 1.245 0.324 1.971c0 0.732-0.108 1.392-0.324 1.98s-0.522 1.089-0.918 1.503-0.876 0.732-1.44 0.954c-0.558 0.222-1.182 0.333-1.872 0.333s-1.317-0.111-1.881-0.333-1.047-0.54-1.449-0.954c-0.396-0.414-0.705-0.915-0.927-1.503-0.216-0.588-0.324-1.248-0.324-1.98 0-0.726 0.108-1.383 0.324-1.971 0.222-0.588 0.531-1.086 0.927-1.494 0.402-0.408 0.885-0.723 1.449-0.945s1.191-0.333 1.881-0.333zm0 7.803c0.768 0 1.335-0.258 1.701-0.774 0.372-0.516 0.558-1.272 0.558-2.268s-0.186-1.755-0.558-2.277c-0.366-0.522-0.933-0.783-1.701-0.783-0.78 0-1.356 0.264-1.728 0.792-0.372 0.522-0.558 1.278-0.558 2.268s0.186 1.746 0.558 2.268c0.372 0.516 0.948 0.774 1.728 0.774zm13.045 4.113c-0.066 0.156-0.153 0.273-0.261 0.351-0.102 0.084-0.261 0.126-0.477 0.126h-1.656l1.728-3.699-3.735-8.55h1.944c0.18 0 0.318 0.042 0.414 0.126s0.168 0.18 0.216 0.288l1.971 4.788c0.066 0.156 0.123 0.318 0.171 0.486s0.09 0.336 0.126 0.504c0.048-0.174 0.099-0.342 0.153-0.504 0.06-0.162 0.123-0.327 0.189-0.495l1.854-4.779c0.048-0.12 0.126-0.219 0.234-0.297 0.114-0.078 0.24-0.117 0.378-0.117h1.782l-5.031 11.772zm9.965-11.916c0.69 0 1.314 0.111 1.872 0.333 0.564 0.222 1.044 0.537 1.44 0.945s0.702 0.906 0.918 1.494 0.324 1.245 0.324 1.971c0 0.732-0.108 1.392-0.324 1.98s-0.522 1.089-0.918 1.503-0.876 0.732-1.44 0.954c-0.558 0.222-1.182 0.333-1.872 0.333s-1.317-0.111-1.881-0.333-1.047-0.54-1.449-0.954c-0.396-0.414-0.705-0.915-0.927-1.503-0.216-0.588-0.324-1.248-0.324-1.98 0-0.726 0.108-1.383 0.324-1.971 0.222-0.588 0.531-1.086 0.927-1.494 0.402-0.408 0.885-0.723 1.449-0.945s1.191-0.333 1.881-0.333zm0 7.803c0.768 0 1.335-0.258 1.701-0.774 0.372-0.516 0.558-1.272 0.558-2.268s-0.186-1.755-0.558-2.277c-0.366-0.522-0.933-0.783-1.701-0.783-0.78 0-1.356 0.264-1.728 0.792-0.372 0.522-0.558 1.278-0.558 2.268s0.186 1.746 0.558 2.268c0.372 0.516 0.948 0.774 1.728 0.774zm8.322-7.659v5.868c0 0.564 0.129 1.002 0.387 1.314 0.264 0.306 0.657 0.459 1.179 0.459 0.384 0 0.744-0.084 1.08-0.252 0.336-0.174 0.654-0.411 0.954-0.711v-6.678h2.223v9.234h-1.359c-0.288 0-0.477-0.135-0.567-0.405l-0.153-0.738c-0.192 0.192-0.39 0.369-0.594 0.531-0.204 0.156-0.423 0.291-0.657 0.405-0.228 0.108-0.477 0.192-0.747 0.252-0.264 0.066-0.549 0.099-0.855 0.099-0.504 0-0.951-0.084-1.341-0.252-0.384-0.174-0.708-0.417-0.972-0.729s-0.465-0.681-0.603-1.107c-0.132-0.432-0.198-0.906-0.198-1.422v-5.868h2.223zm8.197 9.234v-9.234h1.305c0.228 0 0.387 0.042 0.477 0.126s0.15 0.228 0.18 0.432l0.135 1.116c0.33-0.57 0.717-1.02 1.161-1.35s0.942-0.495 1.494-0.495c0.456 0 0.834 0.105 1.134 0.315l-0.288 1.665c-0.018 0.108-0.057 0.186-0.117 0.234-0.06 0.042-0.141 0.063-0.243 0.063-0.09 0-0.213-0.021-0.369-0.063s-0.363-0.063-0.621-0.063c-0.462 0-0.858 0.129-1.188 0.387-0.33 0.252-0.609 0.624-0.837 1.116v5.751h-2.223zm10.855 0v-13.374h2.223v5.274c0.366-0.39 0.78-0.699 1.242-0.927 0.462-0.234 1.002-0.351 1.62-0.351 0.504 0 0.963 0.105 1.377 0.315 0.42 0.204 0.78 0.504 1.08 0.9 0.306 0.396 0.54 0.885 0.702 1.467 0.168 0.582 0.252 1.251 0.252 2.007 0 0.69-0.093 1.329-0.279 1.917s-0.453 1.098-0.801 1.53c-0.342 0.432-0.759 0.771-1.251 1.017-0.486 0.24-1.032 0.36-1.638 0.36-0.282 0-0.54-0.03-0.774-0.09-0.234-0.054-0.447-0.132-0.639-0.234s-0.372-0.225-0.54-0.369c-0.162-0.15-0.318-0.315-0.468-0.495l-0.099 0.621c-0.036 0.156-0.099 0.267-0.189 0.333-0.084 0.066-0.201 0.099-0.351 0.099h-1.467zm4.32-7.65c-0.462 0-0.858 0.099-1.188 0.297-0.324 0.192-0.627 0.465-0.909 0.819v4.14c0.252 0.312 0.525 0.531 0.819 0.657 0.3 0.12 0.624 0.18 0.972 0.18 0.336 0 0.639-0.063 0.909-0.189s0.498-0.318 0.684-0.576c0.192-0.258 0.339-0.582 0.441-0.972 0.102-0.396 0.153-0.861 0.153-1.395 0-0.54-0.045-0.996-0.135-1.368-0.084-0.378-0.207-0.684-0.369-0.918s-0.36-0.405-0.594-0.513c-0.228-0.108-0.489-0.162-0.783-0.162zm13.155 7.65h-0.999c-0.21 0-0.375-0.03-0.495-0.09-0.12-0.066-0.21-0.195-0.27-0.387l-0.198-0.657c-0.234 0.21-0.465 0.396-0.693 0.558-0.222 0.156-0.453 0.288-0.693 0.396s-0.495 0.189-0.765 0.243-0.57 0.081-0.9 0.081c-0.39 0-0.75-0.051-1.08-0.153-0.33-0.108-0.615-0.267-0.855-0.477-0.234-0.21-0.417-0.471-0.549-0.783s-0.198-0.675-0.198-1.089c0-0.348 0.09-0.69 0.27-1.026 0.186-0.342 0.492-0.648 0.918-0.918 0.426-0.276 0.993-0.504 1.701-0.684s1.587-0.282 2.637-0.306v-0.54c0-0.618-0.132-1.074-0.396-1.368-0.258-0.3-0.636-0.45-1.134-0.45-0.36 0-0.66 0.042-0.9 0.126s-0.45 0.18-0.63 0.288c-0.174 0.102-0.336 0.195-0.486 0.279s-0.315 0.126-0.495 0.126c-0.15 0-0.279-0.039-0.387-0.117s-0.195-0.174-0.261-0.288l-0.405-0.711c1.062-0.972 2.343-1.458 3.843-1.458 0.54 0 1.02 0.09 1.44 0.27 0.426 0.174 0.786 0.42 1.08 0.738 0.294 0.312 0.516 0.687 0.666 1.125 0.156 0.438 0.234 0.918 0.234 1.44v5.832zm-4.32-1.386c0.228 0 0.438-0.021 0.63-0.063s0.372-0.105 0.54-0.189c0.174-0.084 0.339-0.186 0.495-0.306 0.162-0.126 0.324-0.273 0.486-0.441v-1.557c-0.648 0.03-1.191 0.087-1.629 0.171-0.432 0.078-0.78 0.18-1.044 0.306s-0.453 0.273-0.567 0.441c-0.108 0.168-0.162 0.351-0.162 0.549 0 0.39 0.114 0.669 0.342 0.837 0.234 0.168 0.537 0.252 0.909 0.252zm6.506 1.386v-9.234h1.359c0.288 0 0.477 0.135 0.567 0.405l0.153 0.729c0.186-0.192 0.381-0.366 0.585-0.522 0.21-0.156 0.429-0.291 0.657-0.405 0.234-0.114 0.483-0.201 0.747-0.261s0.552-0.09 0.864-0.09c0.504 0 0.951 0.087 1.341 0.261 0.39 0.168 0.714 0.408 0.972 0.72 0.264 0.306 0.462 0.675 0.594 1.107 0.138 0.426 0.207 0.897 0.207 1.413v5.877h-2.223v-5.877c0-0.564-0.132-0.999-0.396-1.305-0.258-0.312-0.648-0.468-1.17-0.468-0.384 0-0.744 0.087-1.08 0.261s-0.654 0.411-0.954 0.711v6.678h-2.223zm12.48-13.374v7.659h0.414c0.15 0 0.267-0.021 0.351-0.063s0.174-0.12 0.27-0.234l2.295-2.835c0.102-0.12 0.21-0.213 0.324-0.279 0.114-0.072 0.264-0.108 0.45-0.108h2.034l-2.871 3.429c-0.102 0.126-0.207 0.243-0.315 0.351-0.108 0.102-0.225 0.192-0.351 0.27 0.126 0.09 0.237 0.195 0.333 0.315s0.192 0.249 0.288 0.387l3.078 4.482h-2.007c-0.174 0-0.321-0.03-0.441-0.09s-0.228-0.162-0.324-0.306l-2.349-3.501c-0.09-0.138-0.18-0.228-0.27-0.27s-0.225-0.063-0.405-0.063h-0.504v4.23h-2.223v-13.374h2.223zm18.398 13.374h-0.999c-0.21 0-0.375-0.03-0.495-0.09-0.12-0.066-0.21-0.195-0.27-0.387l-0.198-0.657c-0.234 0.21-0.465 0.396-0.693 0.558-0.222 0.156-0.453 0.288-0.693 0.396s-0.495 0.189-0.765 0.243-0.57 0.081-0.9 0.081c-0.39 0-0.75-0.051-1.08-0.153-0.33-0.108-0.615-0.267-0.855-0.477-0.234-0.21-0.417-0.471-0.549-0.783s-0.198-0.675-0.198-1.089c0-0.348 0.09-0.69 0.27-1.026 0.186-0.342 0.492-0.648 0.918-0.918 0.426-0.276 0.993-0.504 1.701-0.684s1.587-0.282 2.637-0.306v-0.54c0-0.618-0.132-1.074-0.396-1.368-0.258-0.3-0.636-0.45-1.134-0.45-0.36 0-0.66 0.042-0.9 0.126s-0.45 0.18-0.63 0.288c-0.174 0.102-0.336 0.195-0.486 0.279s-0.315 0.126-0.495 0.126c-0.15 0-0.279-0.039-0.387-0.117s-0.195-0.174-0.261-0.288l-0.405-0.711c1.062-0.972 2.343-1.458 3.843-1.458 0.54 0 1.02 0.09 1.44 0.27 0.426 0.174 0.786 0.42 1.08 0.738 0.294 0.312 0.516 0.687 0.666 1.125 0.156 0.438 0.234 0.918 0.234 1.44v5.832zm-4.32-1.386c0.228 0 0.438-0.021 0.63-0.063s0.372-0.105 0.54-0.189c0.174-0.084 0.339-0.186 0.495-0.306 0.162-0.126 0.324-0.273 0.486-0.441v-1.557c-0.648 0.03-1.191 0.087-1.629 0.171-0.432 0.078-0.78 0.18-1.044 0.306s-0.453 0.273-0.567 0.441c-0.108 0.168-0.162 0.351-0.162 0.549 0 0.39 0.114 0.669 0.342 0.837 0.234 0.168 0.537 0.252 0.909 0.252zm12.995-5.895c-0.066 0.084-0.132 0.15-0.198 0.198-0.06 0.048-0.15 0.072-0.27 0.072-0.114 0-0.225-0.033-0.333-0.099-0.108-0.072-0.237-0.15-0.387-0.234-0.15-0.09-0.33-0.168-0.54-0.234-0.204-0.072-0.459-0.108-0.765-0.108-0.39 0-0.732 0.072-1.026 0.216-0.294 0.138-0.54 0.339-0.738 0.603-0.192 0.264-0.336 0.585-0.432 0.963-0.096 0.372-0.144 0.795-0.144 1.269 0 0.492 0.051 0.93 0.153 1.314 0.108 0.384 0.261 0.708 0.459 0.972 0.198 0.258 0.438 0.456 0.72 0.594 0.282 0.132 0.6 0.198 0.954 0.198s0.639-0.042 0.855-0.126c0.222-0.09 0.408-0.186 0.558-0.288 0.15-0.108 0.279-0.204 0.387-0.288 0.114-0.09 0.24-0.135 0.378-0.135 0.18 0 0.315 0.069 0.405 0.207l0.639 0.81c-0.246 0.288-0.513 0.531-0.801 0.729-0.288 0.192-0.588 0.348-0.9 0.468-0.306 0.114-0.624 0.195-0.954 0.243s-0.657 0.072-0.981 0.072c-0.57 0-1.107-0.105-1.611-0.315-0.504-0.216-0.945-0.528-1.323-0.936-0.372-0.408-0.669-0.906-0.891-1.494-0.216-0.594-0.324-1.269-0.324-2.025 0-0.678 0.096-1.305 0.288-1.881 0.198-0.582 0.486-1.083 0.864-1.503 0.378-0.426 0.846-0.759 1.404-0.999s1.2-0.36 1.926-0.36c0.69 0 1.293 0.111 1.809 0.333 0.522 0.222 0.99 0.54 1.404 0.954l-0.585 0.81zm8.578 0c-0.066 0.084-0.132 0.15-0.198 0.198-0.06 0.048-0.15 0.072-0.27 0.072-0.114 0-0.225-0.033-0.333-0.099-0.108-0.072-0.237-0.15-0.387-0.234-0.15-0.09-0.33-0.168-0.54-0.234-0.204-0.072-0.459-0.108-0.765-0.108-0.39 0-0.732 0.072-1.026 0.216-0.294 0.138-0.54 0.339-0.738 0.603-0.192 0.264-0.336 0.585-0.432 0.963-0.096 0.372-0.144 0.795-0.144 1.269 0 0.492 0.051 0.93 0.153 1.314 0.108 0.384 0.261 0.708 0.459 0.972 0.198 0.258 0.438 0.456 0.72 0.594 0.282 0.132 0.6 0.198 0.954 0.198s0.639-0.042 0.855-0.126c0.222-0.09 0.408-0.186 0.558-0.288 0.15-0.108 0.279-0.204 0.387-0.288 0.114-0.09 0.24-0.135 0.378-0.135 0.18 0 0.315 0.069 0.405 0.207l0.639 0.81c-0.246 0.288-0.513 0.531-0.801 0.729-0.288 0.192-0.588 0.348-0.9 0.468-0.306 0.114-0.624 0.195-0.954 0.243s-0.657 0.072-0.981 0.072c-0.57 0-1.107-0.105-1.611-0.315-0.504-0.216-0.945-0.528-1.323-0.936-0.372-0.408-0.669-0.906-0.891-1.494-0.216-0.594-0.324-1.269-0.324-2.025 0-0.678 0.096-1.305 0.288-1.881 0.198-0.582 0.486-1.083 0.864-1.503 0.378-0.426 0.846-0.759 1.404-0.999s1.2-0.36 1.926-0.36c0.69 0 1.293 0.111 1.809 0.333 0.522 0.222 0.99 0.54 1.404 0.954l-0.585 0.81zm6.031-2.097c0.69 0 1.314 0.111 1.872 0.333 0.564 0.222 1.044 0.537 1.44 0.945s0.702 0.906 0.918 1.494 0.324 1.245 0.324 1.971c0 0.732-0.108 1.392-0.324 1.98s-0.522 1.089-0.918 1.503-0.876 0.732-1.44 0.954c-0.558 0.222-1.182 0.333-1.872 0.333s-1.317-0.111-1.881-0.333-1.047-0.54-1.449-0.954c-0.396-0.414-0.705-0.915-0.927-1.503-0.216-0.588-0.324-1.248-0.324-1.98 0-0.726 0.108-1.383 0.324-1.971 0.222-0.588 0.531-1.086 0.927-1.494 0.402-0.408 0.885-0.723 1.449-0.945s1.191-0.333 1.881-0.333zm0 7.803c0.768 0 1.335-0.258 1.701-0.774 0.372-0.516 0.558-1.272 0.558-2.268s-0.186-1.755-0.558-2.277c-0.366-0.522-0.933-0.783-1.701-0.783-0.78 0-1.356 0.264-1.728 0.792-0.372 0.522-0.558 1.278-0.558 2.268s0.186 1.746 0.558 2.268c0.372 0.516 0.948 0.774 1.728 0.774zm8.323-7.659v5.868c0 0.564 0.129 1.002 0.387 1.314 0.264 0.306 0.657 0.459 1.179 0.459 0.384 0 0.744-0.084 1.08-0.252 0.336-0.174 0.654-0.411 0.954-0.711v-6.678h2.223v9.234h-1.359c-0.288 0-0.477-0.135-0.567-0.405l-0.153-0.738c-0.192 0.192-0.39 0.369-0.594 0.531-0.204 0.156-0.423 0.291-0.657 0.405-0.228 0.108-0.477 0.192-0.747 0.252-0.264 0.066-0.549 0.099-0.855 0.099-0.504 0-0.951-0.084-1.341-0.252-0.384-0.174-0.708-0.417-0.972-0.729s-0.465-0.681-0.603-1.107c-0.132-0.432-0.198-0.906-0.198-1.422v-5.868h2.223zm8.196 9.234v-9.234h1.359c0.288 0 0.477 0.135 0.567 0.405l0.153 0.729c0.186-0.192 0.381-0.366 0.585-0.522 0.21-0.156 0.429-0.291 0.657-0.405 0.234-0.114 0.483-0.201 0.747-0.261s0.552-0.09 0.864-0.09c0.504 0 0.951 0.087 1.341 0.261 0.39 0.168 0.714 0.408 0.972 0.72 0.264 0.306 0.462 0.675 0.594 1.107 0.138 0.426 0.207 0.897 0.207 1.413v5.877h-2.223v-5.877c0-0.564-0.132-0.999-0.396-1.305-0.258-0.312-0.648-0.468-1.17-0.468-0.384 0-0.744 0.087-1.08 0.261s-0.654 0.411-0.954 0.711v6.678h-2.223zm13.264 0.144c-0.798 0-1.413-0.225-1.845-0.675-0.432-0.456-0.648-1.083-0.648-1.881v-5.157h-0.936c-0.12 0-0.225-0.039-0.315-0.117-0.084-0.078-0.126-0.195-0.126-0.351v-0.882l1.485-0.243 0.468-2.52c0.024-0.12 0.078-0.213 0.162-0.279 0.09-0.066 0.201-0.099 0.333-0.099h1.152v2.907h2.43v1.584h-2.43v5.004c0 0.288 0.072 0.513 0.216 0.675s0.336 0.243 0.576 0.243c0.138 0 0.252-0.015 0.342-0.045 0.096-0.036 0.177-0.072 0.243-0.108 0.072-0.036 0.135-0.069 0.189-0.099 0.054-0.036 0.108-0.054 0.162-0.054 0.066 0 0.12 0.018 0.162 0.054 0.042 0.03 0.087 0.078 0.135 0.144l0.666 1.08c-0.324 0.27-0.696 0.474-1.116 0.612s-0.855 0.207-1.305 0.207zm3.073-11.979c0.204-0.18 0.426-0.351 0.666-0.513 0.246-0.162 0.51-0.303 0.792-0.423s0.588-0.213 0.918-0.279c0.33-0.072 0.687-0.108 1.071-0.108 0.522 0 0.996 0.072 1.422 0.216 0.432 0.144 0.801 0.351 1.107 0.621 0.306 0.264 0.543 0.585 0.711 0.963s0.252 0.801 0.252 1.269c0 0.456-0.066 0.852-0.198 1.188-0.132 0.33-0.3 0.618-0.504 0.864-0.198 0.246-0.414 0.459-0.648 0.639s-0.456 0.351-0.666 0.513c-0.21 0.156-0.393 0.312-0.549 0.468-0.15 0.15-0.24 0.321-0.27 0.513l-0.207 1.314h-1.521l-0.153-1.467c-6e-3 -0.03-9e-3 -0.054-9e-3 -0.072v-0.081c0-0.264 0.066-0.492 0.198-0.684 0.132-0.198 0.297-0.381 0.495-0.549 0.198-0.174 0.411-0.342 0.639-0.504s0.441-0.336 0.639-0.522c0.198-0.192 0.363-0.408 0.495-0.648s0.198-0.522 0.198-0.846c0-0.216-0.042-0.408-0.126-0.576-0.078-0.174-0.189-0.321-0.333-0.441-0.144-0.126-0.318-0.222-0.522-0.288-0.198-0.066-0.414-0.099-0.648-0.099-0.342 0-0.633 0.039-0.873 0.117-0.234 0.072-0.435 0.156-0.603 0.252-0.162 0.09-0.3 0.174-0.414 0.252-0.114 0.072-0.216 0.108-0.306 0.108-0.216 0-0.372-0.09-0.468-0.27l-0.585-0.927zm1.701 10.611c0-0.186 0.033-0.363 0.099-0.531 0.072-0.168 0.168-0.312 0.288-0.432 0.126-0.12 0.273-0.216 0.441-0.288s0.348-0.108 0.54-0.108c0.186 0 0.363 0.036 0.531 0.108s0.312 0.168 0.432 0.288 0.216 0.264 0.288 0.432 0.108 0.345 0.108 0.531c0 0.192-0.036 0.372-0.108 0.54-0.072 0.162-0.168 0.303-0.288 0.423s-0.264 0.213-0.432 0.279c-0.168 0.072-0.345 0.108-0.531 0.108-0.192 0-0.372-0.036-0.54-0.108-0.168-0.066-0.315-0.159-0.441-0.279-0.12-0.12-0.216-0.261-0.288-0.423-0.066-0.168-0.099-0.348-0.099-0.54zm8.602-6.309v-1.647c0-0.12 6e-3 -0.237 0.018-0.351 0.018-0.114 0.045-0.222 0.081-0.324-0.066 0.084-0.144 0.159-0.234 0.225s-0.186 0.132-0.288 0.198l-1.422 0.828-0.531-0.9 1.431-0.828c0.108-0.066 0.213-0.12 0.315-0.162 0.108-0.042 0.219-0.072 0.333-0.09-0.114-0.012-0.225-0.042-0.333-0.09-0.102-0.048-0.207-0.105-0.315-0.171l-1.431-0.837 0.522-0.9 1.431 0.846c0.102 0.066 0.198 0.135 0.288 0.207 0.096 0.066 0.177 0.141 0.243 0.225-0.042-0.102-0.072-0.21-0.09-0.324-0.012-0.114-0.018-0.231-0.018-0.351v-1.665h1.062v1.647c0 0.126-9e-3 0.249-0.027 0.369-0.012 0.114-0.039 0.222-0.081 0.324 0.066-0.084 0.144-0.159 0.234-0.225 0.09-0.072 0.189-0.141 0.297-0.207l1.422-0.828 0.531 0.9-1.431 0.819c-0.108 0.066-0.216 0.123-0.324 0.171-0.102 0.042-0.21 0.072-0.324 0.09 0.204 0.036 0.42 0.12 0.648 0.252l1.431 0.837-0.522 0.9-1.431-0.837c-0.108-0.066-0.207-0.132-0.297-0.198s-0.171-0.141-0.243-0.225c0.078 0.192 0.117 0.414 0.117 0.666v1.656h-1.062z" fill="#333D47"/>
<path d="m151.52 301.54h1.24c0.139 0 0.251 0.035 0.336 0.104s0.149 0.157 0.192 0.264l3.24 8.088c0.075 0.181 0.141 0.379 0.2 0.592 0.064 0.213 0.125 0.435 0.184 0.664 0.048-0.229 0.099-0.451 0.152-0.664 0.059-0.213 0.125-0.411 0.2-0.592l3.224-8.088c0.037-0.091 0.101-0.173 0.192-0.248 0.091-0.08 0.203-0.12 0.336-0.12h1.248l-4.672 11.464h-1.4l-4.672-11.464zm14.265 3.232c0.485 0 0.933 0.083 1.344 0.248 0.411 0.16 0.765 0.395 1.064 0.704 0.299 0.304 0.531 0.683 0.696 1.136 0.171 0.448 0.256 0.96 0.256 1.536 0 0.224-0.024 0.373-0.072 0.448s-0.139 0.112-0.272 0.112h-5.392c0.011 0.512 0.08 0.957 0.208 1.336s0.304 0.696 0.528 0.952c0.224 0.251 0.491 0.44 0.8 0.568 0.309 0.123 0.656 0.184 1.04 0.184 0.357 0 0.664-0.04 0.92-0.12 0.261-0.085 0.485-0.176 0.672-0.272s0.341-0.184 0.464-0.264c0.128-0.085 0.237-0.128 0.328-0.128 0.117 0 0.208 0.045 0.272 0.136l0.4 0.52c-0.176 0.213-0.387 0.4-0.632 0.56-0.245 0.155-0.509 0.283-0.792 0.384-0.277 0.101-0.565 0.176-0.864 0.224-0.299 0.053-0.595 0.08-0.888 0.08-0.56 0-1.077-0.093-1.552-0.28-0.469-0.192-0.877-0.469-1.224-0.832-0.341-0.368-0.608-0.821-0.8-1.36s-0.288-1.157-0.288-1.856c0-0.565 0.085-1.093 0.256-1.584 0.176-0.491 0.427-0.915 0.752-1.272 0.325-0.363 0.723-0.645 1.192-0.848 0.469-0.208 0.997-0.312 1.584-0.312zm0.032 1.048c-0.688 0-1.229 0.2-1.624 0.6-0.395 0.395-0.64 0.944-0.736 1.648h4.408c0-0.331-0.045-0.632-0.136-0.904-0.091-0.277-0.224-0.515-0.4-0.712-0.176-0.203-0.392-0.357-0.648-0.464-0.251-0.112-0.539-0.168-0.864-0.168zm5.151 7.184v-8.104h0.816c0.154 0 0.261 0.029 0.32 0.088 0.058 0.059 0.098 0.16 0.12 0.304l0.096 1.264c0.277-0.565 0.618-1.005 1.024-1.32 0.41-0.32 0.89-0.48 1.44-0.48 0.224 0 0.426 0.027 0.608 0.08 0.181 0.048 0.349 0.117 0.504 0.208l-0.184 1.064c-0.038 0.133-0.12 0.2-0.248 0.2-0.075 0-0.19-0.024-0.344-0.072-0.155-0.053-0.371-0.08-0.648-0.08-0.496 0-0.912 0.144-1.248 0.432-0.331 0.288-0.608 0.707-0.832 1.256v5.16h-1.424zm8.829 2.392c-0.048 0.107-0.11 0.192-0.184 0.256-0.07 0.064-0.179 0.096-0.328 0.096h-1.056l1.48-3.216-3.344-7.632h1.232c0.122 0 0.218 0.032 0.288 0.096 0.069 0.059 0.12 0.125 0.152 0.2l2.168 5.104c0.048 0.117 0.088 0.235 0.12 0.352 0.037 0.117 0.069 0.237 0.096 0.36 0.037-0.123 0.074-0.243 0.112-0.36 0.037-0.117 0.08-0.237 0.128-0.36l2.104-5.096c0.032-0.085 0.085-0.155 0.16-0.208 0.08-0.059 0.165-0.088 0.256-0.088h1.136l-4.52 10.496zm-25.933 9.824v11.784h-1.424v-11.784h1.424zm4.094 3.68v8.104h-1.424v-8.104h1.424zm0.32-2.544c0 0.139-0.029 0.269-0.088 0.392-0.053 0.117-0.128 0.224-0.224 0.32-0.091 0.091-0.197 0.163-0.32 0.216s-0.253 0.08-0.392 0.08-0.269-0.027-0.392-0.08c-0.117-0.053-0.224-0.125-0.32-0.216-0.091-0.096-0.163-0.203-0.216-0.32-0.053-0.123-0.08-0.253-0.08-0.392s0.027-0.269 0.08-0.392c0.053-0.128 0.125-0.237 0.216-0.328 0.096-0.096 0.203-0.171 0.32-0.224 0.123-0.053 0.253-0.08 0.392-0.08s0.269 0.027 0.392 0.08 0.229 0.128 0.32 0.224c0.096 0.091 0.171 0.2 0.224 0.328 0.059 0.123 0.088 0.253 0.088 0.392zm3.67-1.136v6.936h0.368c0.106 0 0.194-0.013 0.264-0.04 0.069-0.032 0.146-0.093 0.232-0.184l2.56-2.744c0.08-0.085 0.16-0.155 0.24-0.208s0.186-0.08 0.32-0.08h1.296l-2.984 3.176c-0.075 0.091-0.15 0.171-0.224 0.24-0.07 0.069-0.15 0.131-0.24 0.184 0.096 0.064 0.181 0.139 0.256 0.224 0.08 0.08 0.154 0.173 0.224 0.28l3.168 4h-1.28c-0.118 0-0.219-0.021-0.304-0.064-0.08-0.048-0.158-0.12-0.232-0.216l-2.664-3.32c-0.08-0.112-0.16-0.184-0.24-0.216-0.08-0.037-0.2-0.056-0.36-0.056h-0.4v3.872h-1.432v-11.784h1.432zm9.634 3.552c0.485 0 0.933 0.083 1.344 0.248 0.411 0.16 0.765 0.395 1.064 0.704 0.299 0.304 0.531 0.683 0.696 1.136 0.171 0.448 0.256 0.96 0.256 1.536 0 0.224-0.024 0.373-0.072 0.448s-0.139 0.112-0.272 0.112h-5.392c0.011 0.512 0.08 0.957 0.208 1.336s0.304 0.696 0.528 0.952c0.224 0.251 0.491 0.44 0.8 0.568 0.309 0.123 0.656 0.184 1.04 0.184 0.357 0 0.664-0.04 0.92-0.12 0.261-0.085 0.485-0.176 0.672-0.272s0.341-0.184 0.464-0.264c0.128-0.085 0.237-0.128 0.328-0.128 0.117 0 0.208 0.045 0.272 0.136l0.4 0.52c-0.176 0.213-0.387 0.4-0.632 0.56-0.245 0.155-0.509 0.283-0.792 0.384-0.277 0.101-0.565 0.176-0.864 0.224-0.299 0.053-0.595 0.08-0.888 0.08-0.56 0-1.077-0.093-1.552-0.28-0.469-0.192-0.877-0.469-1.224-0.832-0.341-0.368-0.608-0.821-0.8-1.36s-0.288-1.157-0.288-1.856c0-0.565 0.085-1.093 0.256-1.584 0.176-0.491 0.427-0.915 0.752-1.272 0.325-0.363 0.723-0.645 1.192-0.848 0.469-0.208 0.997-0.312 1.584-0.312zm0.032 1.048c-0.688 0-1.229 0.2-1.624 0.6-0.395 0.395-0.64 0.944-0.736 1.648h4.408c0-0.331-0.045-0.632-0.136-0.904-0.091-0.277-0.224-0.515-0.4-0.712-0.176-0.203-0.392-0.357-0.648-0.464-0.251-0.112-0.539-0.168-0.864-0.168zm6.735-4.6v11.784h-1.424v-11.784h1.424zm4.885 14.176c-0.048 0.107-0.109 0.192-0.184 0.256-0.069 0.064-0.178 0.096-0.328 0.096h-1.056l1.48-3.216-3.344-7.632h1.232c0.123 0 0.219 0.032 0.288 0.096 0.07 0.059 0.12 0.125 0.152 0.2l2.168 5.104c0.048 0.117 0.088 0.235 0.12 0.352 0.038 0.117 0.07 0.237 0.096 0.36 0.038-0.123 0.075-0.243 0.112-0.36 0.038-0.117 0.08-0.237 0.128-0.36l2.104-5.096c0.032-0.085 0.086-0.155 0.16-0.208 0.08-0.059 0.166-0.088 0.256-0.088h1.136l-4.52 10.496z" fill="#333D47"/>
<path d="m337.66 303.33c-0.048 0.08-0.099 0.141-0.152 0.184-0.054 0.037-0.123 0.056-0.208 0.056-0.091 0-0.198-0.045-0.32-0.136-0.118-0.091-0.27-0.189-0.456-0.296-0.182-0.112-0.403-0.213-0.664-0.304-0.256-0.091-0.568-0.136-0.936-0.136-0.347 0-0.654 0.048-0.92 0.144-0.267 0.091-0.491 0.216-0.672 0.376-0.176 0.16-0.31 0.349-0.4 0.568-0.091 0.213-0.136 0.445-0.136 0.696 0 0.32 0.077 0.587 0.232 0.8 0.16 0.208 0.368 0.387 0.624 0.536 0.261 0.149 0.554 0.28 0.88 0.392 0.33 0.107 0.666 0.219 1.008 0.336 0.346 0.117 0.682 0.251 1.008 0.4 0.33 0.144 0.624 0.328 0.88 0.552 0.261 0.224 0.469 0.499 0.624 0.824 0.16 0.325 0.24 0.725 0.24 1.2 0 0.501-0.086 0.973-0.256 1.416-0.171 0.437-0.422 0.819-0.752 1.144-0.326 0.325-0.728 0.581-1.208 0.768-0.475 0.187-1.016 0.28-1.624 0.28-0.742 0-1.419-0.133-2.032-0.4-0.608-0.272-1.128-0.637-1.56-1.096l0.448-0.736c0.042-0.059 0.093-0.107 0.152-0.144 0.064-0.043 0.133-0.064 0.208-0.064 0.112 0 0.24 0.061 0.384 0.184 0.144 0.117 0.322 0.248 0.536 0.392 0.218 0.144 0.48 0.277 0.784 0.4 0.309 0.117 0.685 0.176 1.128 0.176 0.368 0 0.696-0.051 0.984-0.152s0.53-0.243 0.728-0.424c0.202-0.187 0.357-0.408 0.464-0.664 0.106-0.256 0.16-0.541 0.16-0.856 0-0.347-0.08-0.629-0.24-0.848-0.155-0.224-0.36-0.411-0.616-0.56s-0.55-0.275-0.88-0.376c-0.326-0.107-0.662-0.213-1.008-0.32-0.342-0.112-0.678-0.24-1.008-0.384-0.326-0.144-0.616-0.331-0.872-0.56s-0.464-0.515-0.624-0.856c-0.155-0.347-0.232-0.773-0.232-1.28 0-0.405 0.077-0.797 0.232-1.176 0.16-0.379 0.389-0.715 0.688-1.008 0.298-0.293 0.666-0.528 1.104-0.704 0.442-0.176 0.949-0.264 1.52-0.264 0.64 0 1.224 0.101 1.752 0.304s0.989 0.496 1.384 0.88l-0.376 0.736zm5.668 1.44c0.592 0 1.125 0.099 1.6 0.296 0.48 0.197 0.885 0.477 1.216 0.84 0.336 0.363 0.592 0.803 0.768 1.32 0.181 0.512 0.272 1.085 0.272 1.72 0 0.64-0.091 1.216-0.272 1.728-0.176 0.512-0.432 0.949-0.768 1.312-0.331 0.363-0.736 0.643-1.216 0.84-0.475 0.192-1.008 0.288-1.6 0.288s-1.128-0.096-1.608-0.288c-0.475-0.197-0.88-0.477-1.216-0.84s-0.595-0.8-0.776-1.312-0.272-1.088-0.272-1.728c0-0.635 0.091-1.208 0.272-1.72 0.181-0.517 0.44-0.957 0.776-1.32s0.741-0.643 1.216-0.84c0.48-0.197 1.016-0.296 1.608-0.296zm0 7.232c0.8 0 1.397-0.267 1.792-0.8 0.395-0.539 0.592-1.288 0.592-2.248 0-0.965-0.197-1.717-0.592-2.256s-0.992-0.808-1.792-0.808c-0.405 0-0.757 0.069-1.056 0.208s-0.549 0.339-0.752 0.6c-0.197 0.261-0.347 0.584-0.448 0.968-0.096 0.379-0.144 0.808-0.144 1.288s0.048 0.909 0.144 1.288c0.101 0.379 0.251 0.699 0.448 0.96 0.203 0.256 0.453 0.453 0.752 0.592s0.651 0.208 1.056 0.208zm5.611 1v-8.104h0.848c0.202 0 0.33 0.099 0.384 0.296l0.104 0.832c0.298-0.368 0.632-0.669 1-0.904 0.373-0.235 0.805-0.352 1.296-0.352 0.549 0 0.992 0.152 1.328 0.456 0.341 0.304 0.586 0.715 0.736 1.232 0.112-0.293 0.258-0.547 0.44-0.76 0.186-0.213 0.394-0.389 0.624-0.528 0.229-0.139 0.472-0.24 0.728-0.304 0.261-0.064 0.525-0.096 0.792-0.096 0.426 0 0.805 0.069 1.136 0.208 0.336 0.133 0.618 0.331 0.848 0.592 0.234 0.261 0.413 0.584 0.536 0.968 0.122 0.379 0.184 0.813 0.184 1.304v5.16h-1.424v-5.16c0-0.635-0.139-1.115-0.416-1.44-0.278-0.331-0.68-0.496-1.208-0.496-0.235 0-0.459 0.043-0.672 0.128-0.208 0.08-0.392 0.2-0.552 0.36s-0.288 0.363-0.384 0.608c-0.091 0.24-0.136 0.52-0.136 0.84v5.16h-1.424v-5.16c0-0.651-0.131-1.136-0.392-1.456-0.262-0.32-0.643-0.48-1.144-0.48-0.352 0-0.68 0.096-0.984 0.288-0.299 0.187-0.574 0.443-0.824 0.768v6.04h-1.424zm16.348-8.232c0.486 0 0.934 0.083 1.344 0.248 0.411 0.16 0.766 0.395 1.064 0.704 0.299 0.304 0.531 0.683 0.696 1.136 0.171 0.448 0.256 0.96 0.256 1.536 0 0.224-0.024 0.373-0.072 0.448s-0.138 0.112-0.272 0.112h-5.392c0.011 0.512 0.08 0.957 0.208 1.336s0.304 0.696 0.528 0.952c0.224 0.251 0.491 0.44 0.8 0.568 0.31 0.123 0.656 0.184 1.04 0.184 0.358 0 0.664-0.04 0.92-0.12 0.262-0.085 0.486-0.176 0.672-0.272 0.187-0.096 0.342-0.184 0.464-0.264 0.128-0.085 0.238-0.128 0.328-0.128 0.118 0 0.208 0.045 0.272 0.136l0.4 0.52c-0.176 0.213-0.386 0.4-0.632 0.56-0.245 0.155-0.509 0.283-0.792 0.384-0.277 0.101-0.565 0.176-0.864 0.224-0.298 0.053-0.594 0.08-0.888 0.08-0.56 0-1.077-0.093-1.552-0.28-0.469-0.192-0.877-0.469-1.224-0.832-0.341-0.368-0.608-0.821-0.8-1.36s-0.288-1.157-0.288-1.856c0-0.565 0.086-1.093 0.256-1.584 0.176-0.491 0.427-0.915 0.752-1.272 0.326-0.363 0.723-0.645 1.192-0.848 0.47-0.208 0.998-0.312 1.584-0.312zm0.032 1.048c-0.688 0-1.229 0.2-1.624 0.6-0.394 0.395-0.64 0.944-0.736 1.648h4.408c0-0.331-0.045-0.632-0.136-0.904-0.09-0.277-0.224-0.515-0.4-0.712-0.176-0.203-0.392-0.357-0.648-0.464-0.25-0.112-0.538-0.168-0.864-0.168zm4.095-0.92h1.12c0.117 0 0.213 0.029 0.288 0.088s0.125 0.128 0.152 0.208l1.552 5.216c0.043 0.192 0.083 0.379 0.12 0.56 0.037 0.176 0.069 0.355 0.096 0.536 0.043-0.181 0.091-0.36 0.144-0.536 0.053-0.181 0.109-0.368 0.168-0.56l1.712-5.248c0.027-0.08 0.072-0.147 0.136-0.2 0.069-0.053 0.155-0.08 0.256-0.08h0.616c0.107 0 0.195 0.027 0.264 0.08s0.117 0.12 0.144 0.2l1.672 5.248c0.059 0.187 0.109 0.371 0.152 0.552 0.048 0.181 0.093 0.36 0.136 0.536 0.027-0.176 0.061-0.36 0.104-0.552s0.088-0.371 0.136-0.536l1.584-5.216c0.027-0.085 0.077-0.155 0.152-0.208 0.075-0.059 0.163-0.088 0.264-0.088h1.072l-2.624 8.104h-1.128c-0.139 0-0.235-0.091-0.288-0.272l-1.792-5.496c-0.043-0.123-0.077-0.245-0.104-0.368-0.027-0.128-0.053-0.253-0.08-0.376-0.027 0.123-0.053 0.248-0.08 0.376s-0.061 0.253-0.104 0.376l-1.816 5.488c-0.059 0.181-0.168 0.272-0.328 0.272h-1.072l-2.624-8.104zm13.306 8.104v-11.784h1.424v4.768c0.347-0.368 0.731-0.661 1.152-0.88 0.421-0.224 0.907-0.336 1.456-0.336 0.443 0 0.832 0.075 1.168 0.224 0.341 0.144 0.624 0.352 0.848 0.624 0.229 0.267 0.403 0.589 0.52 0.968s0.176 0.797 0.176 1.256v5.16h-1.424v-5.16c0-0.613-0.141-1.088-0.424-1.424-0.277-0.341-0.704-0.512-1.28-0.512-0.421 0-0.816 0.101-1.184 0.304-0.363 0.203-0.699 0.477-1.008 0.824v5.968h-1.424zm14.843 0h-0.632c-0.139 0-0.251-0.021-0.336-0.064-0.086-0.043-0.142-0.133-0.168-0.272l-0.16-0.752c-0.214 0.192-0.422 0.365-0.624 0.52-0.203 0.149-0.416 0.277-0.64 0.384-0.224 0.101-0.464 0.179-0.72 0.232-0.251 0.053-0.531 0.08-0.84 0.08-0.315 0-0.611-0.043-0.889-0.128-0.271-0.091-0.509-0.224-0.711-0.4-0.203-0.176-0.366-0.397-0.488-0.664-0.118-0.272-0.176-0.592-0.176-0.96 0-0.32 0.088-0.627 0.264-0.92 0.176-0.299 0.458-0.563 0.848-0.792 0.394-0.229 0.909-0.416 1.544-0.56 0.634-0.149 1.41-0.235 2.328-0.256v-0.632c0-0.629-0.136-1.104-0.408-1.424-0.267-0.325-0.664-0.488-1.192-0.488-0.347 0-0.64 0.045-0.88 0.136-0.235 0.085-0.44 0.184-0.616 0.296-0.171 0.107-0.32 0.205-0.448 0.296-0.123 0.085-0.246 0.128-0.368 0.128-0.096 0-0.182-0.024-0.256-0.072-0.07-0.053-0.126-0.117-0.168-0.192l-0.256-0.456c0.448-0.432 0.93-0.755 1.448-0.968 0.517-0.213 1.09-0.32 1.72-0.32 0.453 0 0.856 0.075 1.208 0.224s0.648 0.357 0.888 0.624 0.421 0.589 0.544 0.968c0.122 0.379 0.184 0.795 0.184 1.248v5.184zm-3.696-0.872c0.25 0 0.48-0.024 0.687-0.072 0.209-0.053 0.403-0.125 0.585-0.216 0.186-0.096 0.362-0.211 0.528-0.344 0.17-0.133 0.336-0.285 0.496-0.456v-1.688c-0.656 0.021-1.214 0.075-1.672 0.16-0.459 0.08-0.832 0.187-1.12 0.32s-0.499 0.291-0.632 0.472c-0.128 0.181-0.192 0.384-0.192 0.608 0 0.213 0.034 0.397 0.104 0.552 0.069 0.155 0.162 0.283 0.28 0.384 0.117 0.096 0.256 0.168 0.416 0.216 0.16 0.043 0.333 0.064 0.52 0.064zm8.309 1c-0.64 0-1.133-0.179-1.48-0.536-0.341-0.357-0.512-0.872-0.512-1.544v-4.96h-0.976c-0.085 0-0.157-0.024-0.216-0.072-0.059-0.053-0.088-0.133-0.088-0.24v-0.568l1.328-0.168 0.328-2.504c0.011-0.08 0.045-0.144 0.104-0.192 0.059-0.053 0.133-0.08 0.224-0.08h0.72v2.792h2.32v1.032h-2.32v4.864c0 0.341 0.083 0.595 0.248 0.76s0.379 0.248 0.64 0.248c0.149 0 0.277-0.019 0.384-0.056 0.112-0.043 0.208-0.088 0.288-0.136s0.147-0.091 0.2-0.128c0.059-0.043 0.109-0.064 0.152-0.064 0.075 0 0.141 0.045 0.2 0.136l0.416 0.68c-0.245 0.229-0.541 0.411-0.888 0.544-0.347 0.128-0.704 0.192-1.072 0.192zm-48.802 12.088v11.784h-1.424v-11.784h1.424zm4.094 3.68v8.104h-1.424v-8.104h1.424zm0.32-2.544c0 0.139-0.029 0.269-0.088 0.392-0.053 0.117-0.128 0.224-0.224 0.32-0.091 0.091-0.197 0.163-0.32 0.216s-0.253 0.08-0.392 0.08-0.269-0.027-0.392-0.08c-0.117-0.053-0.224-0.125-0.32-0.216-0.091-0.096-0.163-0.203-0.216-0.32-0.053-0.123-0.08-0.253-0.08-0.392s0.027-0.269 0.08-0.392c0.053-0.128 0.125-0.237 0.216-0.328 0.096-0.096 0.203-0.171 0.32-0.224 0.123-0.053 0.253-0.08 0.392-0.08s0.269 0.027 0.392 0.08 0.229 0.128 0.32 0.224c0.096 0.091 0.171 0.2 0.224 0.328 0.059 0.123 0.088 0.253 0.088 0.392zm3.67-1.136v6.936h0.368c0.106 0 0.194-0.013 0.264-0.04 0.069-0.032 0.146-0.093 0.232-0.184l2.56-2.744c0.08-0.085 0.16-0.155 0.24-0.208s0.186-0.08 0.32-0.08h1.296l-2.984 3.176c-0.075 0.091-0.15 0.171-0.224 0.24-0.07 0.069-0.15 0.131-0.24 0.184 0.096 0.064 0.181 0.139 0.256 0.224 0.08 0.08 0.154 0.173 0.224 0.28l3.168 4h-1.28c-0.118 0-0.219-0.021-0.304-0.064-0.08-0.048-0.158-0.12-0.232-0.216l-2.664-3.32c-0.08-0.112-0.16-0.184-0.24-0.216-0.08-0.037-0.2-0.056-0.36-0.056h-0.4v3.872h-1.432v-11.784h1.432zm9.634 3.552c0.485 0 0.933 0.083 1.344 0.248 0.411 0.16 0.765 0.395 1.064 0.704 0.299 0.304 0.531 0.683 0.696 1.136 0.171 0.448 0.256 0.96 0.256 1.536 0 0.224-0.024 0.373-0.072 0.448s-0.139 0.112-0.272 0.112h-5.392c0.011 0.512 0.08 0.957 0.208 1.336s0.304 0.696 0.528 0.952c0.224 0.251 0.491 0.44 0.8 0.568 0.309 0.123 0.656 0.184 1.04 0.184 0.357 0 0.664-0.04 0.92-0.12 0.261-0.085 0.485-0.176 0.672-0.272s0.341-0.184 0.464-0.264c0.128-0.085 0.237-0.128 0.328-0.128 0.117 0 0.208 0.045 0.272 0.136l0.4 0.52c-0.176 0.213-0.387 0.4-0.632 0.56-0.245 0.155-0.509 0.283-0.792 0.384-0.277 0.101-0.565 0.176-0.864 0.224-0.299 0.053-0.595 0.08-0.888 0.08-0.56 0-1.077-0.093-1.552-0.28-0.469-0.192-0.877-0.469-1.224-0.832-0.341-0.368-0.608-0.821-0.8-1.36s-0.288-1.157-0.288-1.856c0-0.565 0.085-1.093 0.256-1.584 0.176-0.491 0.427-0.915 0.752-1.272 0.325-0.363 0.723-0.645 1.192-0.848 0.469-0.208 0.997-0.312 1.584-0.312zm0.032 1.048c-0.688 0-1.229 0.2-1.624 0.6-0.395 0.395-0.64 0.944-0.736 1.648h4.408c0-0.331-0.045-0.632-0.136-0.904-0.091-0.277-0.224-0.515-0.4-0.712-0.176-0.203-0.392-0.357-0.648-0.464-0.251-0.112-0.539-0.168-0.864-0.168zm6.735-4.6v11.784h-1.424v-11.784h1.424zm4.885 14.176c-0.048 0.107-0.109 0.192-0.184 0.256-0.069 0.064-0.178 0.096-0.328 0.096h-1.056l1.48-3.216-3.344-7.632h1.232c0.123 0 0.219 0.032 0.288 0.096 0.07 0.059 0.12 0.125 0.152 0.2l2.168 5.104c0.048 0.117 0.088 0.235 0.12 0.352 0.038 0.117 0.07 0.237 0.096 0.36 0.038-0.123 0.075-0.243 0.112-0.36 0.038-0.117 0.08-0.237 0.128-0.36l2.104-5.096c0.032-0.085 0.086-0.155 0.16-0.208 0.08-0.059 0.166-0.088 0.256-0.088h1.136l-4.52 10.496z" fill="#333D47"/>
<path d="m475.66 303.33c-0.048 0.08-0.099 0.141-0.152 0.184-0.054 0.037-0.123 0.056-0.208 0.056-0.091 0-0.198-0.045-0.32-0.136-0.118-0.091-0.27-0.189-0.456-0.296-0.182-0.112-0.403-0.213-0.664-0.304-0.256-0.091-0.568-0.136-0.936-0.136-0.347 0-0.654 0.048-0.92 0.144-0.267 0.091-0.491 0.216-0.672 0.376-0.176 0.16-0.31 0.349-0.4 0.568-0.091 0.213-0.136 0.445-0.136 0.696 0 0.32 0.077 0.587 0.232 0.8 0.16 0.208 0.368 0.387 0.624 0.536 0.261 0.149 0.554 0.28 0.88 0.392 0.33 0.107 0.666 0.219 1.008 0.336 0.346 0.117 0.682 0.251 1.008 0.4 0.33 0.144 0.624 0.328 0.88 0.552 0.261 0.224 0.469 0.499 0.624 0.824 0.16 0.325 0.24 0.725 0.24 1.2 0 0.501-0.086 0.973-0.256 1.416-0.171 0.437-0.422 0.819-0.752 1.144-0.326 0.325-0.728 0.581-1.208 0.768-0.475 0.187-1.016 0.28-1.624 0.28-0.742 0-1.419-0.133-2.032-0.4-0.608-0.272-1.128-0.637-1.56-1.096l0.448-0.736c0.042-0.059 0.093-0.107 0.152-0.144 0.064-0.043 0.133-0.064 0.208-0.064 0.112 0 0.24 0.061 0.384 0.184 0.144 0.117 0.322 0.248 0.536 0.392 0.218 0.144 0.48 0.277 0.784 0.4 0.309 0.117 0.685 0.176 1.128 0.176 0.368 0 0.696-0.051 0.984-0.152s0.53-0.243 0.728-0.424c0.202-0.187 0.357-0.408 0.464-0.664 0.106-0.256 0.16-0.541 0.16-0.856 0-0.347-0.08-0.629-0.24-0.848-0.155-0.224-0.36-0.411-0.616-0.56s-0.55-0.275-0.88-0.376c-0.326-0.107-0.662-0.213-1.008-0.32-0.342-0.112-0.678-0.24-1.008-0.384-0.326-0.144-0.616-0.331-0.872-0.56s-0.464-0.515-0.624-0.856c-0.155-0.347-0.232-0.773-0.232-1.28 0-0.405 0.077-0.797 0.232-1.176 0.16-0.379 0.389-0.715 0.688-1.008 0.298-0.293 0.666-0.528 1.104-0.704 0.442-0.176 0.949-0.264 1.52-0.264 0.64 0 1.224 0.101 1.752 0.304s0.989 0.496 1.384 0.88l-0.376 0.736zm5.668 1.44c0.592 0 1.125 0.099 1.6 0.296 0.48 0.197 0.885 0.477 1.216 0.84 0.336 0.363 0.592 0.803 0.768 1.32 0.181 0.512 0.272 1.085 0.272 1.72 0 0.64-0.091 1.216-0.272 1.728-0.176 0.512-0.432 0.949-0.768 1.312-0.331 0.363-0.736 0.643-1.216 0.84-0.475 0.192-1.008 0.288-1.6 0.288s-1.128-0.096-1.608-0.288c-0.475-0.197-0.88-0.477-1.216-0.84s-0.595-0.8-0.776-1.312-0.272-1.088-0.272-1.728c0-0.635 0.091-1.208 0.272-1.72 0.181-0.517 0.44-0.957 0.776-1.32s0.741-0.643 1.216-0.84c0.48-0.197 1.016-0.296 1.608-0.296zm0 7.232c0.8 0 1.397-0.267 1.792-0.8 0.395-0.539 0.592-1.288 0.592-2.248 0-0.965-0.197-1.717-0.592-2.256s-0.992-0.808-1.792-0.808c-0.405 0-0.757 0.069-1.056 0.208s-0.549 0.339-0.752 0.6c-0.197 0.261-0.347 0.584-0.448 0.968-0.096 0.379-0.144 0.808-0.144 1.288s0.048 0.909 0.144 1.288c0.101 0.379 0.251 0.699 0.448 0.96 0.203 0.256 0.453 0.453 0.752 0.592s0.651 0.208 1.056 0.208zm5.611 1v-8.104h0.848c0.202 0 0.33 0.099 0.384 0.296l0.104 0.832c0.298-0.368 0.632-0.669 1-0.904 0.373-0.235 0.805-0.352 1.296-0.352 0.549 0 0.992 0.152 1.328 0.456 0.341 0.304 0.586 0.715 0.736 1.232 0.112-0.293 0.258-0.547 0.44-0.76 0.186-0.213 0.394-0.389 0.624-0.528 0.229-0.139 0.472-0.24 0.728-0.304 0.261-0.064 0.525-0.096 0.792-0.096 0.426 0 0.805 0.069 1.136 0.208 0.336 0.133 0.618 0.331 0.848 0.592 0.234 0.261 0.413 0.584 0.536 0.968 0.122 0.379 0.184 0.813 0.184 1.304v5.16h-1.424v-5.16c0-0.635-0.139-1.115-0.416-1.44-0.278-0.331-0.68-0.496-1.208-0.496-0.235 0-0.459 0.043-0.672 0.128-0.208 0.08-0.392 0.2-0.552 0.36s-0.288 0.363-0.384 0.608c-0.091 0.24-0.136 0.52-0.136 0.84v5.16h-1.424v-5.16c0-0.651-0.131-1.136-0.392-1.456-0.262-0.32-0.643-0.48-1.144-0.48-0.352 0-0.68 0.096-0.984 0.288-0.299 0.187-0.574 0.443-0.824 0.768v6.04h-1.424zm16.348-8.232c0.486 0 0.934 0.083 1.344 0.248 0.411 0.16 0.766 0.395 1.064 0.704 0.299 0.304 0.531 0.683 0.696 1.136 0.171 0.448 0.256 0.96 0.256 1.536 0 0.224-0.024 0.373-0.072 0.448s-0.138 0.112-0.272 0.112h-5.392c0.011 0.512 0.08 0.957 0.208 1.336s0.304 0.696 0.528 0.952c0.224 0.251 0.491 0.44 0.8 0.568 0.31 0.123 0.656 0.184 1.04 0.184 0.358 0 0.664-0.04 0.92-0.12 0.262-0.085 0.486-0.176 0.672-0.272 0.187-0.096 0.342-0.184 0.464-0.264 0.128-0.085 0.238-0.128 0.328-0.128 0.118 0 0.208 0.045 0.272 0.136l0.4 0.52c-0.176 0.213-0.386 0.4-0.632 0.56-0.245 0.155-0.509 0.283-0.792 0.384-0.277 0.101-0.565 0.176-0.864 0.224-0.298 0.053-0.594 0.08-0.888 0.08-0.56 0-1.077-0.093-1.552-0.28-0.469-0.192-0.877-0.469-1.224-0.832-0.341-0.368-0.608-0.821-0.8-1.36s-0.288-1.157-0.288-1.856c0-0.565 0.086-1.093 0.256-1.584 0.176-0.491 0.427-0.915 0.752-1.272 0.326-0.363 0.723-0.645 1.192-0.848 0.47-0.208 0.998-0.312 1.584-0.312zm0.032 1.048c-0.688 0-1.229 0.2-1.624 0.6-0.394 0.395-0.64 0.944-0.736 1.648h4.408c0-0.331-0.045-0.632-0.136-0.904-0.09-0.277-0.224-0.515-0.4-0.712-0.176-0.203-0.392-0.357-0.648-0.464-0.25-0.112-0.538-0.168-0.864-0.168zm4.095-0.92h1.12c0.117 0 0.213 0.029 0.288 0.088s0.125 0.128 0.152 0.208l1.552 5.216c0.043 0.192 0.083 0.379 0.12 0.56 0.037 0.176 0.069 0.355 0.096 0.536 0.043-0.181 0.091-0.36 0.144-0.536 0.053-0.181 0.109-0.368 0.168-0.56l1.712-5.248c0.027-0.08 0.072-0.147 0.136-0.2 0.069-0.053 0.155-0.08 0.256-0.08h0.616c0.107 0 0.195 0.027 0.264 0.08s0.117 0.12 0.144 0.2l1.672 5.248c0.059 0.187 0.109 0.371 0.152 0.552 0.048 0.181 0.093 0.36 0.136 0.536 0.027-0.176 0.061-0.36 0.104-0.552s0.088-0.371 0.136-0.536l1.584-5.216c0.027-0.085 0.077-0.155 0.152-0.208 0.075-0.059 0.163-0.088 0.264-0.088h1.072l-2.624 8.104h-1.128c-0.139 0-0.235-0.091-0.288-0.272l-1.792-5.496c-0.043-0.123-0.077-0.245-0.104-0.368-0.027-0.128-0.053-0.253-0.08-0.376-0.027 0.123-0.053 0.248-0.08 0.376s-0.061 0.253-0.104 0.376l-1.816 5.488c-0.059 0.181-0.168 0.272-0.328 0.272h-1.072l-2.624-8.104zm13.306 8.104v-11.784h1.424v4.768c0.347-0.368 0.731-0.661 1.152-0.88 0.421-0.224 0.907-0.336 1.456-0.336 0.443 0 0.832 0.075 1.168 0.224 0.341 0.144 0.624 0.352 0.848 0.624 0.229 0.267 0.403 0.589 0.52 0.968s0.176 0.797 0.176 1.256v5.16h-1.424v-5.16c0-0.613-0.141-1.088-0.424-1.424-0.277-0.341-0.704-0.512-1.28-0.512-0.421 0-0.816 0.101-1.184 0.304-0.363 0.203-0.699 0.477-1.008 0.824v5.968h-1.424zm14.843 0h-0.632c-0.139 0-0.251-0.021-0.336-0.064-0.086-0.043-0.142-0.133-0.168-0.272l-0.16-0.752c-0.214 0.192-0.422 0.365-0.624 0.52-0.203 0.149-0.416 0.277-0.64 0.384-0.224 0.101-0.464 0.179-0.72 0.232-0.251 0.053-0.531 0.08-0.84 0.08-0.315 0-0.611-0.043-0.889-0.128-0.271-0.091-0.509-0.224-0.711-0.4-0.203-0.176-0.366-0.397-0.488-0.664-0.118-0.272-0.176-0.592-0.176-0.96 0-0.32 0.088-0.627 0.264-0.92 0.176-0.299 0.458-0.563 0.848-0.792 0.394-0.229 0.909-0.416 1.544-0.56 0.634-0.149 1.41-0.235 2.328-0.256v-0.632c0-0.629-0.136-1.104-0.408-1.424-0.267-0.325-0.664-0.488-1.192-0.488-0.347 0-0.64 0.045-0.88 0.136-0.235 0.085-0.44 0.184-0.616 0.296-0.171 0.107-0.32 0.205-0.448 0.296-0.123 0.085-0.246 0.128-0.368 0.128-0.096 0-0.182-0.024-0.256-0.072-0.07-0.053-0.126-0.117-0.168-0.192l-0.256-0.456c0.448-0.432 0.93-0.755 1.448-0.968 0.517-0.213 1.09-0.32 1.72-0.32 0.453 0 0.856 0.075 1.208 0.224s0.648 0.357 0.888 0.624 0.421 0.589 0.544 0.968c0.122 0.379 0.184 0.795 0.184 1.248v5.184zm-3.696-0.872c0.25 0 0.48-0.024 0.687-0.072 0.209-0.053 0.403-0.125 0.585-0.216 0.186-0.096 0.362-0.211 0.528-0.344 0.17-0.133 0.336-0.285 0.496-0.456v-1.688c-0.656 0.021-1.214 0.075-1.672 0.16-0.459 0.08-0.832 0.187-1.12 0.32s-0.499 0.291-0.632 0.472c-0.128 0.181-0.192 0.384-0.192 0.608 0 0.213 0.034 0.397 0.104 0.552 0.069 0.155 0.162 0.283 0.28 0.384 0.117 0.096 0.256 0.168 0.416 0.216 0.16 0.043 0.333 0.064 0.52 0.064zm8.309 1c-0.64 0-1.133-0.179-1.48-0.536-0.341-0.357-0.512-0.872-0.512-1.544v-4.96h-0.976c-0.085 0-0.157-0.024-0.216-0.072-0.059-0.053-0.088-0.133-0.088-0.24v-0.568l1.328-0.168 0.328-2.504c0.011-0.08 0.045-0.144 0.104-0.192 0.059-0.053 0.133-0.08 0.224-0.08h0.72v2.792h2.32v1.032h-2.32v4.864c0 0.341 0.083 0.595 0.248 0.76s0.379 0.248 0.64 0.248c0.149 0 0.277-0.019 0.384-0.056 0.112-0.043 0.208-0.088 0.288-0.136s0.147-0.091 0.2-0.128c0.059-0.043 0.109-0.064 0.152-0.064 0.075 0 0.141 0.045 0.2 0.136l0.416 0.68c-0.245 0.229-0.541 0.411-0.888 0.544-0.347 0.128-0.704 0.192-1.072 0.192zm-58.044 15.768v5.168c0 0.613 0.141 1.088 0.424 1.424 0.282 0.336 0.709 0.504 1.28 0.504 0.416 0 0.808-0.099 1.176-0.296s0.706-0.472 1.016-0.824v-5.976h1.424v8.104h-0.848c-0.203 0-0.331-0.099-0.384-0.296l-0.112-0.872c-0.352 0.389-0.747 0.704-1.184 0.944-0.438 0.235-0.939 0.352-1.504 0.352-0.443 0-0.835-0.072-1.176-0.216-0.336-0.149-0.619-0.357-0.848-0.624-0.23-0.267-0.403-0.589-0.52-0.968-0.112-0.379-0.168-0.797-0.168-1.256v-5.168h1.424zm7.658 8.104v-8.104h0.848c0.203 0 0.331 0.099 0.384 0.296l0.112 0.88c0.352-0.389 0.744-0.704 1.176-0.944 0.438-0.24 0.942-0.36 1.512-0.36 0.443 0 0.832 0.075 1.168 0.224 0.342 0.144 0.624 0.352 0.848 0.624 0.23 0.267 0.403 0.589 0.52 0.968 0.118 0.379 0.176 0.797 0.176 1.256v5.16h-1.424v-5.16c0-0.613-0.141-1.088-0.424-1.424-0.277-0.341-0.704-0.512-1.28-0.512-0.421 0-0.816 0.101-1.184 0.304-0.362 0.203-0.698 0.477-1.008 0.824v5.968h-1.424zm10.475-11.784v11.784h-1.424v-11.784h1.424zm4.094 3.68v8.104h-1.424v-8.104h1.424zm0.32-2.544c0 0.139-0.03 0.269-0.088 0.392-0.054 0.117-0.128 0.224-0.224 0.32-0.091 0.091-0.198 0.163-0.32 0.216-0.123 0.053-0.254 0.08-0.392 0.08-0.139 0-0.27-0.027-0.392-0.08-0.118-0.053-0.224-0.125-0.32-0.216-0.091-0.096-0.163-0.203-0.216-0.32-0.054-0.123-0.08-0.253-0.08-0.392s0.026-0.269 0.08-0.392c0.053-0.128 0.125-0.237 0.216-0.328 0.096-0.096 0.202-0.171 0.32-0.224 0.122-0.053 0.253-0.08 0.392-0.08 0.138 0 0.269 0.027 0.392 0.08 0.122 0.053 0.229 0.128 0.32 0.224 0.096 0.091 0.17 0.2 0.224 0.328 0.058 0.123 0.088 0.253 0.088 0.392zm3.669-1.136v6.936h0.368c0.107 0 0.195-0.013 0.264-0.04 0.07-0.032 0.147-0.093 0.232-0.184l2.56-2.744c0.08-0.085 0.16-0.155 0.24-0.208s0.187-0.08 0.32-0.08h1.296l-2.984 3.176c-0.074 0.091-0.149 0.171-0.224 0.24-0.069 0.069-0.149 0.131-0.24 0.184 0.096 0.064 0.182 0.139 0.256 0.224 0.08 0.08 0.155 0.173 0.224 0.28l3.168 4h-1.28c-0.117 0-0.218-0.021-0.304-0.064-0.08-0.048-0.157-0.12-0.232-0.216l-2.664-3.32c-0.08-0.112-0.16-0.184-0.24-0.216-0.08-0.037-0.2-0.056-0.36-0.056h-0.4v3.872h-1.432v-11.784h1.432zm9.635 3.552c0.485 0 0.933 0.083 1.344 0.248 0.41 0.16 0.765 0.395 1.064 0.704 0.298 0.304 0.53 0.683 0.696 1.136 0.17 0.448 0.256 0.96 0.256 1.536 0 0.224-0.024 0.373-0.072 0.448s-0.139 0.112-0.272 0.112h-5.392c0.01 0.512 0.08 0.957 0.208 1.336s0.304 0.696 0.528 0.952c0.224 0.251 0.49 0.44 0.8 0.568 0.309 0.123 0.656 0.184 1.04 0.184 0.357 0 0.664-0.04 0.92-0.12 0.261-0.085 0.485-0.176 0.672-0.272 0.186-0.096 0.341-0.184 0.464-0.264 0.128-0.085 0.237-0.128 0.328-0.128 0.117 0 0.208 0.045 0.272 0.136l0.4 0.52c-0.176 0.213-0.387 0.4-0.632 0.56-0.246 0.155-0.51 0.283-0.792 0.384-0.278 0.101-0.566 0.176-0.864 0.224-0.299 0.053-0.595 0.08-0.888 0.08-0.56 0-1.078-0.093-1.552-0.28-0.47-0.192-0.878-0.469-1.224-0.832-0.342-0.368-0.608-0.821-0.8-1.36s-0.288-1.157-0.288-1.856c0-0.565 0.085-1.093 0.256-1.584 0.176-0.491 0.426-0.915 0.752-1.272 0.325-0.363 0.722-0.645 1.192-0.848 0.469-0.208 0.997-0.312 1.584-0.312zm0.032 1.048c-0.688 0-1.23 0.2-1.624 0.6-0.395 0.395-0.64 0.944-0.736 1.648h4.408c0-0.331-0.046-0.632-0.136-0.904-0.091-0.277-0.224-0.515-0.4-0.712-0.176-0.203-0.392-0.357-0.648-0.464-0.251-0.112-0.539-0.168-0.864-0.168zm6.734-4.6v11.784h-1.424v-11.784h1.424zm4.886 14.176c-0.048 0.107-0.109 0.192-0.184 0.256-0.069 0.064-0.179 0.096-0.328 0.096h-1.056l1.48-3.216-3.344-7.632h1.232c0.123 0 0.219 0.032 0.288 0.096 0.069 0.059 0.12 0.125 0.152 0.2l2.168 5.104c0.048 0.117 0.088 0.235 0.12 0.352 0.037 0.117 0.069 0.237 0.096 0.36 0.037-0.123 0.075-0.243 0.112-0.36s0.08-0.237 0.128-0.36l2.104-5.096c0.032-0.085 0.085-0.155 0.16-0.208 0.08-0.059 0.165-0.088 0.256-0.088h1.136l-4.52 10.496z" fill="#333D47"/>
<path d="m583.52 301.54h1.24c0.139 0 0.251 0.035 0.336 0.104s0.149 0.157 0.192 0.264l3.24 8.088c0.075 0.181 0.141 0.379 0.2 0.592 0.064 0.213 0.125 0.435 0.184 0.664 0.048-0.229 0.099-0.451 0.152-0.664 0.059-0.213 0.125-0.411 0.2-0.592l3.224-8.088c0.037-0.091 0.101-0.173 0.192-0.248 0.091-0.08 0.203-0.12 0.336-0.12h1.248l-4.672 11.464h-1.4l-4.672-11.464zm14.265 3.232c0.485 0 0.933 0.083 1.344 0.248 0.411 0.16 0.765 0.395 1.064 0.704 0.299 0.304 0.531 0.683 0.696 1.136 0.171 0.448 0.256 0.96 0.256 1.536 0 0.224-0.024 0.373-0.072 0.448s-0.139 0.112-0.272 0.112h-5.392c0.011 0.512 0.08 0.957 0.208 1.336s0.304 0.696 0.528 0.952c0.224 0.251 0.491 0.44 0.8 0.568 0.309 0.123 0.656 0.184 1.04 0.184 0.357 0 0.664-0.04 0.92-0.12 0.261-0.085 0.485-0.176 0.672-0.272s0.341-0.184 0.464-0.264c0.128-0.085 0.237-0.128 0.328-0.128 0.117 0 0.208 0.045 0.272 0.136l0.4 0.52c-0.176 0.213-0.387 0.4-0.632 0.56-0.245 0.155-0.509 0.283-0.792 0.384-0.277 0.101-0.565 0.176-0.864 0.224-0.299 0.053-0.595 0.08-0.888 0.08-0.56 0-1.077-0.093-1.552-0.28-0.469-0.192-0.877-0.469-1.224-0.832-0.341-0.368-0.608-0.821-0.8-1.36s-0.288-1.157-0.288-1.856c0-0.565 0.085-1.093 0.256-1.584 0.176-0.491 0.427-0.915 0.752-1.272 0.325-0.363 0.723-0.645 1.192-0.848 0.469-0.208 0.997-0.312 1.584-0.312zm0.032 1.048c-0.688 0-1.229 0.2-1.624 0.6-0.395 0.395-0.64 0.944-0.736 1.648h4.408c0-0.331-0.045-0.632-0.136-0.904-0.091-0.277-0.224-0.515-0.4-0.712-0.176-0.203-0.392-0.357-0.648-0.464-0.251-0.112-0.539-0.168-0.864-0.168zm5.151 7.184v-8.104h0.816c0.154 0 0.261 0.029 0.32 0.088 0.058 0.059 0.098 0.16 0.12 0.304l0.096 1.264c0.277-0.565 0.618-1.005 1.024-1.32 0.41-0.32 0.89-0.48 1.44-0.48 0.224 0 0.426 0.027 0.608 0.08 0.181 0.048 0.349 0.117 0.504 0.208l-0.184 1.064c-0.038 0.133-0.12 0.2-0.248 0.2-0.075 0-0.19-0.024-0.344-0.072-0.155-0.053-0.371-0.08-0.648-0.08-0.496 0-0.912 0.144-1.248 0.432-0.331 0.288-0.608 0.707-0.832 1.256v5.16h-1.424zm8.829 2.392c-0.048 0.107-0.11 0.192-0.184 0.256-0.07 0.064-0.179 0.096-0.328 0.096h-1.056l1.48-3.216-3.344-7.632h1.232c0.122 0 0.218 0.032 0.288 0.096 0.069 0.059 0.12 0.125 0.152 0.2l2.168 5.104c0.048 0.117 0.088 0.235 0.12 0.352 0.037 0.117 0.069 0.237 0.096 0.36 0.037-0.123 0.074-0.243 0.112-0.36 0.037-0.117 0.08-0.237 0.128-0.36l2.104-5.096c0.032-0.085 0.085-0.155 0.16-0.208 0.08-0.059 0.165-0.088 0.256-0.088h1.136l-4.52 10.496zm-35.175 13.504v5.168c0 0.613 0.141 1.088 0.424 1.424 0.282 0.336 0.709 0.504 1.28 0.504 0.416 0 0.808-0.099 1.176-0.296s0.706-0.472 1.016-0.824v-5.976h1.424v8.104h-0.848c-0.203 0-0.331-0.099-0.384-0.296l-0.112-0.872c-0.352 0.389-0.747 0.704-1.184 0.944-0.438 0.235-0.939 0.352-1.504 0.352-0.443 0-0.835-0.072-1.176-0.216-0.336-0.149-0.619-0.357-0.848-0.624-0.23-0.267-0.403-0.589-0.52-0.968-0.112-0.379-0.168-0.797-0.168-1.256v-5.168h1.424zm7.658 8.104v-8.104h0.848c0.203 0 0.331 0.099 0.384 0.296l0.112 0.88c0.352-0.389 0.744-0.704 1.176-0.944 0.438-0.24 0.942-0.36 1.512-0.36 0.443 0 0.832 0.075 1.168 0.224 0.342 0.144 0.624 0.352 0.848 0.624 0.23 0.267 0.403 0.589 0.52 0.968 0.118 0.379 0.176 0.797 0.176 1.256v5.16h-1.424v-5.16c0-0.613-0.141-1.088-0.424-1.424-0.277-0.341-0.704-0.512-1.28-0.512-0.421 0-0.816 0.101-1.184 0.304-0.362 0.203-0.698 0.477-1.008 0.824v5.968h-1.424zm10.475-11.784v11.784h-1.424v-11.784h1.424zm4.094 3.68v8.104h-1.424v-8.104h1.424zm0.32-2.544c0 0.139-0.03 0.269-0.088 0.392-0.054 0.117-0.128 0.224-0.224 0.32-0.091 0.091-0.198 0.163-0.32 0.216-0.123 0.053-0.254 0.08-0.392 0.08-0.139 0-0.27-0.027-0.392-0.08-0.118-0.053-0.224-0.125-0.32-0.216-0.091-0.096-0.163-0.203-0.216-0.32-0.054-0.123-0.08-0.253-0.08-0.392s0.026-0.269 0.08-0.392c0.053-0.128 0.125-0.237 0.216-0.328 0.096-0.096 0.202-0.171 0.32-0.224 0.122-0.053 0.253-0.08 0.392-0.08 0.138 0 0.269 0.027 0.392 0.08 0.122 0.053 0.229 0.128 0.32 0.224 0.096 0.091 0.17 0.2 0.224 0.328 0.058 0.123 0.088 0.253 0.088 0.392zm3.669-1.136v6.936h0.368c0.107 0 0.195-0.013 0.264-0.04 0.07-0.032 0.147-0.093 0.232-0.184l2.56-2.744c0.08-0.085 0.16-0.155 0.24-0.208s0.187-0.08 0.32-0.08h1.296l-2.984 3.176c-0.074 0.091-0.149 0.171-0.224 0.24-0.069 0.069-0.149 0.131-0.24 0.184 0.096 0.064 0.182 0.139 0.256 0.224 0.08 0.08 0.155 0.173 0.224 0.28l3.168 4h-1.28c-0.117 0-0.218-0.021-0.304-0.064-0.08-0.048-0.157-0.12-0.232-0.216l-2.664-3.32c-0.08-0.112-0.16-0.184-0.24-0.216-0.08-0.037-0.2-0.056-0.36-0.056h-0.4v3.872h-1.432v-11.784h1.432zm9.635 3.552c0.485 0 0.933 0.083 1.344 0.248 0.41 0.16 0.765 0.395 1.064 0.704 0.298 0.304 0.53 0.683 0.696 1.136 0.17 0.448 0.256 0.96 0.256 1.536 0 0.224-0.024 0.373-0.072 0.448s-0.139 0.112-0.272 0.112h-5.392c0.01 0.512 0.08 0.957 0.208 1.336s0.304 0.696 0.528 0.952c0.224 0.251 0.49 0.44 0.8 0.568 0.309 0.123 0.656 0.184 1.04 0.184 0.357 0 0.664-0.04 0.92-0.12 0.261-0.085 0.485-0.176 0.672-0.272 0.186-0.096 0.341-0.184 0.464-0.264 0.128-0.085 0.237-0.128 0.328-0.128 0.117 0 0.208 0.045 0.272 0.136l0.4 0.52c-0.176 0.213-0.387 0.4-0.632 0.56-0.246 0.155-0.51 0.283-0.792 0.384-0.278 0.101-0.566 0.176-0.864 0.224-0.299 0.053-0.595 0.08-0.888 0.08-0.56 0-1.078-0.093-1.552-0.28-0.47-0.192-0.878-0.469-1.224-0.832-0.342-0.368-0.608-0.821-0.8-1.36s-0.288-1.157-0.288-1.856c0-0.565 0.085-1.093 0.256-1.584 0.176-0.491 0.426-0.915 0.752-1.272 0.325-0.363 0.722-0.645 1.192-0.848 0.469-0.208 0.997-0.312 1.584-0.312zm0.032 1.048c-0.688 0-1.23 0.2-1.624 0.6-0.395 0.395-0.64 0.944-0.736 1.648h4.408c0-0.331-0.046-0.632-0.136-0.904-0.091-0.277-0.224-0.515-0.4-0.712-0.176-0.203-0.392-0.357-0.648-0.464-0.251-0.112-0.539-0.168-0.864-0.168zm6.734-4.6v11.784h-1.424v-11.784h1.424zm4.886 14.176c-0.048 0.107-0.109 0.192-0.184 0.256-0.069 0.064-0.179 0.096-0.328 0.096h-1.056l1.48-3.216-3.344-7.632h1.232c0.123 0 0.219 0.032 0.288 0.096 0.069 0.059 0.12 0.125 0.152 0.2l2.168 5.104c0.048 0.117 0.088 0.235 0.12 0.352 0.037 0.117 0.069 0.237 0.096 0.36 0.037-0.123 0.075-0.243 0.112-0.36s0.08-0.237 0.128-0.36l2.104-5.096c0.032-0.085 0.085-0.155 0.16-0.208 0.08-0.059 0.165-0.088 0.256-0.088h1.136l-4.52 10.496z" fill="#333D47"/>
<path d="m687.52 307.27c0 0.859-0.136 1.64-0.408 2.344s-0.656 1.307-1.152 1.808-1.09 0.891-1.784 1.168c-0.693 0.272-1.461 0.408-2.304 0.408h-4.288v-11.464h4.288c0.843 0 1.611 0.139 2.304 0.416 0.694 0.272 1.288 0.661 1.784 1.168 0.496 0.501 0.88 1.104 1.152 1.808s0.408 1.485 0.408 2.344zm-1.592 0c0-0.704-0.096-1.333-0.288-1.888s-0.464-1.024-0.816-1.408-0.778-0.677-1.28-0.88c-0.501-0.203-1.058-0.304-1.672-0.304h-2.728v8.952h2.728c0.614 0 1.171-0.101 1.672-0.304 0.502-0.203 0.928-0.493 1.28-0.872 0.352-0.384 0.624-0.853 0.816-1.408s0.288-1.184 0.288-1.888zm6.759-2.504c0.592 0 1.126 0.099 1.6 0.296 0.48 0.197 0.886 0.477 1.216 0.84 0.336 0.363 0.592 0.803 0.768 1.32 0.182 0.512 0.272 1.085 0.272 1.72 0 0.64-0.09 1.216-0.272 1.728-0.176 0.512-0.432 0.949-0.768 1.312-0.33 0.363-0.736 0.643-1.216 0.84-0.474 0.192-1.008 0.288-1.6 0.288s-1.128-0.096-1.608-0.288c-0.474-0.197-0.88-0.477-1.216-0.84s-0.594-0.8-0.776-1.312c-0.181-0.512-0.272-1.088-0.272-1.728 0-0.635 0.091-1.208 0.272-1.72 0.182-0.517 0.44-0.957 0.776-1.32s0.742-0.643 1.216-0.84c0.48-0.197 1.016-0.296 1.608-0.296zm0 7.232c0.8 0 1.398-0.267 1.792-0.8 0.395-0.539 0.592-1.288 0.592-2.248 0-0.965-0.197-1.717-0.592-2.256-0.394-0.539-0.992-0.808-1.792-0.808-0.405 0-0.757 0.069-1.056 0.208-0.298 0.139-0.549 0.339-0.752 0.6-0.197 0.261-0.346 0.584-0.448 0.968-0.096 0.379-0.144 0.808-0.144 1.288s0.048 0.909 0.144 1.288c0.102 0.379 0.251 0.699 0.448 0.96 0.203 0.256 0.454 0.453 0.752 0.592 0.299 0.139 0.651 0.208 1.056 0.208zm5.611 1v-8.104h0.848c0.202 0 0.33 0.099 0.384 0.296l0.112 0.88c0.352-0.389 0.744-0.704 1.176-0.944 0.437-0.24 0.941-0.36 1.512-0.36 0.442 0 0.832 0.075 1.168 0.224 0.341 0.144 0.624 0.352 0.848 0.624 0.229 0.267 0.402 0.589 0.52 0.968 0.117 0.379 0.176 0.797 0.176 1.256v5.16h-1.424v-5.16c0-0.613-0.142-1.088-0.424-1.424-0.278-0.341-0.704-0.512-1.28-0.512-0.422 0-0.816 0.101-1.184 0.304-0.363 0.203-0.699 0.477-1.008 0.824v5.968h-1.424zm9.312-12.064c0.155 0.256 0.267 0.512 0.336 0.768 0.07 0.256 0.104 0.512 0.104 0.768 0 0.485-0.12 0.949-0.36 1.392-0.234 0.437-0.562 0.84-0.984 1.208l-0.44-0.272c-0.042-0.027-0.072-0.056-0.088-0.088-0.01-0.032-0.016-0.064-0.016-0.096 0-0.075 0.027-0.139 0.08-0.192 0.086-0.101 0.168-0.211 0.248-0.328 0.08-0.123 0.152-0.248 0.216-0.376 0.064-0.133 0.115-0.272 0.152-0.416 0.038-0.144 0.056-0.296 0.056-0.456 0-0.171-0.026-0.347-0.08-0.528-0.048-0.181-0.133-0.373-0.256-0.576-0.037-0.059-0.056-0.117-0.056-0.176 0-0.128 0.072-0.221 0.216-0.28l0.872-0.352zm4.847 12.192c-0.64 0-1.133-0.179-1.48-0.536-0.341-0.357-0.512-0.872-0.512-1.544v-4.96h-0.976c-0.085 0-0.157-0.024-0.216-0.072-0.059-0.053-0.088-0.133-0.088-0.24v-0.568l1.328-0.168 0.328-2.504c0.011-0.08 0.045-0.144 0.104-0.192 0.059-0.053 0.133-0.08 0.224-0.08h0.72v2.792h2.32v1.032h-2.32v4.864c0 0.341 0.083 0.595 0.248 0.76s0.379 0.248 0.64 0.248c0.149 0 0.277-0.019 0.384-0.056 0.112-0.043 0.208-0.088 0.288-0.136s0.147-0.091 0.2-0.128c0.059-0.043 0.109-0.064 0.152-0.064 0.075 0 0.141 0.045 0.2 0.136l0.416 0.68c-0.245 0.229-0.541 0.411-0.888 0.544-0.347 0.128-0.704 0.192-1.072 0.192zm-33.523 12.088v6.936h0.368c0.107 0 0.195-0.013 0.264-0.04 0.069-0.032 0.147-0.093 0.232-0.184l2.56-2.744c0.08-0.085 0.16-0.155 0.24-0.208s0.187-0.08 0.32-0.08h1.296l-2.984 3.176c-0.075 0.091-0.149 0.171-0.224 0.24-0.069 0.069-0.149 0.131-0.24 0.184 0.096 0.064 0.181 0.139 0.256 0.224 0.08 0.08 0.155 0.173 0.224 0.28l3.168 4h-1.28c-0.117 0-0.219-0.021-0.304-0.064-0.08-0.048-0.157-0.12-0.232-0.216l-2.664-3.32c-0.08-0.112-0.16-0.184-0.24-0.216-0.08-0.037-0.2-0.056-0.36-0.056h-0.4v3.872h-1.432v-11.784h1.432zm6.911 11.784v-8.104h0.848c0.202 0 0.33 0.099 0.384 0.296l0.112 0.88c0.352-0.389 0.744-0.704 1.176-0.944 0.437-0.24 0.941-0.36 1.512-0.36 0.442 0 0.832 0.075 1.168 0.224 0.341 0.144 0.624 0.352 0.848 0.624 0.229 0.267 0.402 0.589 0.52 0.968 0.117 0.379 0.176 0.797 0.176 1.256v5.16h-1.424v-5.16c0-0.613-0.142-1.088-0.424-1.424-0.278-0.341-0.704-0.512-1.28-0.512-0.422 0-0.816 0.101-1.184 0.304-0.363 0.203-0.699 0.477-1.008 0.824v5.968h-1.424zm12.17-8.232c0.592 0 1.126 0.099 1.6 0.296 0.48 0.197 0.886 0.477 1.216 0.84 0.336 0.363 0.592 0.803 0.768 1.32 0.182 0.512 0.272 1.085 0.272 1.72 0 0.64-0.09 1.216-0.272 1.728-0.176 0.512-0.432 0.949-0.768 1.312-0.33 0.363-0.736 0.643-1.216 0.84-0.474 0.192-1.008 0.288-1.6 0.288s-1.128-0.096-1.608-0.288c-0.474-0.197-0.88-0.477-1.216-0.84s-0.594-0.8-0.776-1.312c-0.181-0.512-0.272-1.088-0.272-1.728 0-0.635 0.091-1.208 0.272-1.72 0.182-0.517 0.44-0.957 0.776-1.32s0.742-0.643 1.216-0.84c0.48-0.197 1.016-0.296 1.608-0.296zm0 7.232c0.8 0 1.398-0.267 1.792-0.8 0.395-0.539 0.592-1.288 0.592-2.248 0-0.965-0.197-1.717-0.592-2.256-0.394-0.539-0.992-0.808-1.792-0.808-0.405 0-0.757 0.069-1.056 0.208-0.298 0.139-0.549 0.339-0.752 0.6-0.197 0.261-0.346 0.584-0.448 0.968-0.096 0.379-0.144 0.808-0.144 1.288s0.048 0.909 0.144 1.288c0.102 0.379 0.251 0.699 0.448 0.96 0.203 0.256 0.454 0.453 0.752 0.592 0.299 0.139 0.651 0.208 1.056 0.208zm4.555-7.104h1.12c0.117 0 0.213 0.029 0.288 0.088s0.125 0.128 0.152 0.208l1.552 5.216c0.043 0.192 0.083 0.379 0.12 0.56 0.037 0.176 0.069 0.355 0.096 0.536 0.043-0.181 0.091-0.36 0.144-0.536 0.053-0.181 0.109-0.368 0.168-0.56l1.712-5.248c0.027-0.08 0.072-0.147 0.136-0.2 0.069-0.053 0.155-0.08 0.256-0.08h0.616c0.107 0 0.195 0.027 0.264 0.08s0.117 0.12 0.144 0.2l1.672 5.248c0.059 0.187 0.109 0.371 0.152 0.552 0.048 0.181 0.093 0.36 0.136 0.536 0.027-0.176 0.061-0.36 0.104-0.552s0.088-0.371 0.136-0.536l1.584-5.216c0.027-0.085 0.077-0.155 0.152-0.208 0.075-0.059 0.163-0.088 0.264-0.088h1.072l-2.624 8.104h-1.128c-0.139 0-0.235-0.091-0.288-0.272l-1.792-5.496c-0.043-0.123-0.077-0.245-0.104-0.368-0.027-0.128-0.053-0.253-0.08-0.376-0.027 0.123-0.053 0.248-0.08 0.376s-0.061 0.253-0.104 0.376l-1.816 5.488c-0.059 0.181-0.168 0.272-0.328 0.272h-1.072l-2.624-8.104z" fill="#333D47"/>
</svg>
