<?xml version="1.0" encoding="UTF-8"?>
<svg fill="none" viewBox="0 0 300 588" xmlns="http://www.w3.org/2000/svg">
<path d="m219 36-5.774 10h11.548l-5.774-10zm0 552 5.773-10h-11.547l5.774 10zm-1-543v534h2v-534h-2z" fill="#333D47"/>
<path d="m0.108 5.986h2.034c0.21 0 0.384 0.051 0.522 0.153 0.144 0.096 0.24 0.228 0.288 0.396l2.214 7.785c0.054 0.192 0.102 0.402 0.144 0.63 0.048 0.222 0.093 0.459 0.135 0.711 0.048-0.252 0.099-0.489 0.153-0.711 0.06-0.228 0.123-0.438 0.189-0.63l2.556-7.785c0.048-0.138 0.141-0.264 0.279-0.378 0.144-0.114 0.318-0.171 0.522-0.171h0.711c0.21 0 0.384 0.051 0.522 0.153 0.138 0.096 0.234 0.228 0.288 0.396l2.538 7.785c0.132 0.384 0.246 0.81 0.342 1.278 0.042-0.234 0.084-0.459 0.126-0.675 0.048-0.216 0.096-0.417 0.144-0.603l2.214-7.785c0.042-0.15 0.135-0.279 0.279-0.387s0.318-0.162 0.522-0.162h1.899l-4.041 13.014h-2.187l-2.844-8.892c-0.036-0.114-0.075-0.237-0.117-0.369-0.036-0.132-0.072-0.273-0.108-0.423-0.036 0.15-0.075 0.291-0.117 0.423-0.036 0.132-0.072 0.255-0.108 0.369l-2.871 8.892h-2.187l-4.041-13.014zm23.497 3.636c0.69 0 1.314 0.111 1.872 0.333 0.564 0.222 1.044 0.537 1.44 0.945s0.702 0.906 0.918 1.494 0.324 1.245 0.324 1.971c0 0.732-0.108 1.392-0.324 1.98s-0.522 1.089-0.918 1.503-0.876 0.732-1.44 0.954c-0.558 0.222-1.182 0.333-1.872 0.333s-1.317-0.111-1.881-0.333-1.047-0.54-1.449-0.954c-0.396-0.414-0.705-0.915-0.927-1.503-0.216-0.588-0.324-1.248-0.324-1.98 0-0.726 0.108-1.383 0.324-1.971 0.222-0.588 0.531-1.086 0.927-1.494 0.402-0.408 0.885-0.723 1.449-0.945s1.191-0.333 1.881-0.333zm0 7.803c0.768 0 1.335-0.258 1.701-0.774 0.372-0.516 0.558-1.272 0.558-2.268s-0.186-1.755-0.558-2.277c-0.366-0.522-0.933-0.783-1.701-0.783-0.78 0-1.356 0.264-1.728 0.792-0.372 0.522-0.558 1.278-0.558 2.268s0.186 1.746 0.558 2.268c0.372 0.516 0.948 0.774 1.728 0.774zm8.3225-7.659v5.868c0 0.564 0.129 1.002 0.387 1.314 0.264 0.306 0.657 0.459 1.179 0.459 0.384 0 0.744-0.084 1.08-0.252 0.336-0.174 0.654-0.411 0.954-0.711v-6.678h2.223v9.234h-1.359c-0.288 0-0.477-0.135-0.567-0.405l-0.153-0.738c-0.192 0.192-0.39 0.369-0.594 0.531-0.204 0.156-0.423 0.291-0.657 0.405-0.228 0.108-0.477 0.192-0.747 0.252-0.264 0.066-0.549 0.099-0.855 0.099-0.504 0-0.951-0.084-1.341-0.252-0.384-0.174-0.708-0.417-0.972-0.729s-0.465-0.681-0.603-1.107c-0.132-0.432-0.198-0.906-0.198-1.422v-5.868h2.223zm10.563-4.14v13.374h-2.223v-13.374h2.223zm9.0178 13.374c-0.288 0-0.477-0.135-0.567-0.405l-0.18-0.891c-0.192 0.216-0.393 0.411-0.603 0.585s-0.438 0.324-0.684 0.45c-0.24 0.126-0.501 0.222-0.783 0.288-0.276 0.072-0.576 0.108-0.9 0.108-0.504 0-0.966-0.105-1.386-0.315s-0.783-0.513-1.089-0.909c-0.3-0.402-0.534-0.897-0.702-1.485-0.162-0.588-0.243-1.26-0.243-2.016 0-0.684 0.093-1.32 0.279-1.908s0.453-1.098 0.801-1.53 0.765-0.768 1.251-1.008c0.486-0.246 1.032-0.369 1.638-0.369 0.516 0 0.957 0.084 1.323 0.252 0.366 0.162 0.693 0.381 0.981 0.657v-4.878h2.223v13.374h-1.359zm-2.961-1.629c0.462 0 0.855-0.096 1.179-0.288s0.63-0.465 0.918-0.819v-4.14c-0.252-0.306-0.528-0.522-0.828-0.648-0.294-0.126-0.612-0.189-0.954-0.189-0.336 0-0.642 0.063-0.918 0.189-0.27 0.126-0.501 0.318-0.693 0.576-0.186 0.252-0.33 0.576-0.432 0.972-0.102 0.39-0.153 0.852-0.153 1.386 0 0.54 0.042 0.999 0.126 1.377 0.09 0.372 0.216 0.678 0.378 0.918 0.162 0.234 0.36 0.405 0.594 0.513 0.234 0.102 0.495 0.153 0.783 0.153zm13.485 4.167c-0.066 0.156-0.153 0.273-0.261 0.351-0.102 0.084-0.261 0.126-0.477 0.126h-1.656l1.728-3.699-3.735-8.55h1.944c0.18 0 0.318 0.042 0.414 0.126s0.168 0.18 0.216 0.288l1.971 4.788c0.066 0.156 0.123 0.318 0.171 0.486s0.09 0.336 0.126 0.504c0.048-0.174 0.099-0.342 0.153-0.504 0.06-0.162 0.123-0.327 0.189-0.495l1.854-4.779c0.048-0.12 0.126-0.219 0.234-0.297 0.114-0.078 0.24-0.117 0.378-0.117h1.782l-5.031 11.772zm9.9648-11.916c0.69 0 1.314 0.111 1.872 0.333 0.564 0.222 1.044 0.537 1.44 0.945s0.702 0.906 0.918 1.494 0.324 1.245 0.324 1.971c0 0.732-0.108 1.392-0.324 1.98s-0.522 1.089-0.918 1.503-0.876 0.732-1.44 0.954c-0.558 0.222-1.182 0.333-1.872 0.333s-1.317-0.111-1.881-0.333-1.047-0.54-1.449-0.954c-0.396-0.414-0.705-0.915-0.927-1.503-0.216-0.588-0.324-1.248-0.324-1.98 0-0.726 0.108-1.383 0.324-1.971 0.222-0.588 0.531-1.086 0.927-1.494 0.402-0.408 0.885-0.723 1.449-0.945s1.191-0.333 1.881-0.333zm0 7.803c0.768 0 1.335-0.258 1.701-0.774 0.372-0.516 0.558-1.272 0.558-2.268s-0.186-1.755-0.558-2.277c-0.366-0.522-0.933-0.783-1.701-0.783-0.78 0-1.356 0.264-1.728 0.792-0.372 0.522-0.558 1.278-0.558 2.268s0.186 1.746 0.558 2.268c0.372 0.516 0.948 0.774 1.728 0.774zm8.3225-7.659v5.868c0 0.564 0.129 1.002 0.387 1.314 0.264 0.306 0.657 0.459 1.179 0.459 0.384 0 0.744-0.084 1.08-0.252 0.336-0.174 0.654-0.411 0.954-0.711v-6.678h2.223v9.234h-1.359c-0.288 0-0.477-0.135-0.567-0.405l-0.153-0.738c-0.192 0.192-0.39 0.369-0.594 0.531-0.204 0.156-0.423 0.291-0.657 0.405-0.228 0.108-0.477 0.192-0.747 0.252-0.264 0.066-0.549 0.099-0.855 0.099-0.504 0-0.951-0.084-1.341-0.252-0.384-0.174-0.708-0.417-0.972-0.729s-0.465-0.681-0.603-1.107c-0.132-0.432-0.198-0.906-0.198-1.422v-5.868h2.223zm18.913 9.234h-0.999c-0.21 0-0.375-0.03-0.495-0.09-0.12-0.066-0.21-0.195-0.27-0.387l-0.198-0.657c-0.234 0.21-0.465 0.396-0.693 0.558-0.222 0.156-0.453 0.288-0.693 0.396s-0.495 0.189-0.765 0.243-0.57 0.081-0.9 0.081c-0.39 0-0.75-0.051-1.08-0.153-0.33-0.108-0.615-0.267-0.855-0.477-0.234-0.21-0.417-0.471-0.549-0.783s-0.198-0.675-0.198-1.089c0-0.348 0.09-0.69 0.27-1.026 0.186-0.342 0.492-0.648 0.918-0.918 0.426-0.276 0.993-0.504 1.701-0.684s1.587-0.282 2.637-0.306v-0.54c0-0.618-0.132-1.074-0.396-1.368-0.258-0.3-0.636-0.45-1.134-0.45-0.36 0-0.66 0.042-0.9 0.126s-0.45 0.18-0.63 0.288c-0.174 0.102-0.336 0.195-0.486 0.279s-0.315 0.126-0.495 0.126c-0.15 0-0.279-0.039-0.387-0.117s-0.195-0.174-0.261-0.288l-0.405-0.711c1.062-0.972 2.343-1.458 3.843-1.458 0.54 0 1.02 0.09 1.44 0.27 0.426 0.174 0.786 0.42 1.08 0.738 0.294 0.312 0.516 0.687 0.666 1.125 0.156 0.438 0.234 0.918 0.234 1.44v5.832zm-4.32-1.386c0.228 0 0.438-0.021 0.63-0.063s0.372-0.105 0.54-0.189c0.174-0.084 0.339-0.186 0.495-0.306 0.162-0.126 0.324-0.273 0.486-0.441v-1.557c-0.648 0.03-1.191 0.087-1.629 0.171-0.432 0.078-0.78 0.18-1.044 0.306s-0.453 0.273-0.567 0.441c-0.108 0.168-0.162 0.351-0.162 0.549 0 0.39 0.114 0.669 0.342 0.837 0.234 0.168 0.537 0.252 0.909 0.252zm13.003 1.386c-0.288 0-0.477-0.135-0.567-0.405l-0.18-0.891c-0.192 0.216-0.393 0.411-0.603 0.585s-0.438 0.324-0.684 0.45c-0.24 0.126-0.501 0.222-0.783 0.288-0.276 0.072-0.576 0.108-0.9 0.108-0.504 0-0.966-0.105-1.386-0.315s-0.783-0.513-1.089-0.909c-0.3-0.402-0.534-0.897-0.702-1.485-0.162-0.588-0.243-1.26-0.243-2.016 0-0.684 0.093-1.32 0.279-1.908s0.453-1.098 0.801-1.53 0.765-0.768 1.251-1.008c0.486-0.246 1.032-0.369 1.638-0.369 0.516 0 0.957 0.084 1.323 0.252 0.366 0.162 0.693 0.381 0.981 0.657v-4.878h2.223v13.374h-1.359zm-2.961-1.629c0.462 0 0.855-0.096 1.179-0.288s0.63-0.465 0.918-0.819v-4.14c-0.252-0.306-0.528-0.522-0.828-0.648-0.294-0.126-0.612-0.189-0.954-0.189-0.336 0-0.642 0.063-0.918 0.189-0.27 0.126-0.501 0.318-0.693 0.576-0.186 0.252-0.33 0.576-0.432 0.972-0.102 0.39-0.153 0.852-0.153 1.386 0 0.54 0.042 0.999 0.126 1.377 0.09 0.372 0.216 0.678 0.378 0.918 0.162 0.234 0.36 0.405 0.594 0.513 0.234 0.102 0.495 0.153 0.783 0.153zm13.227 1.629c-0.288 0-0.477-0.135-0.567-0.405l-0.18-0.891c-0.192 0.216-0.393 0.411-0.603 0.585s-0.438 0.324-0.684 0.45c-0.24 0.126-0.501 0.222-0.783 0.288-0.276 0.072-0.576 0.108-0.9 0.108-0.504 0-0.966-0.105-1.386-0.315s-0.783-0.513-1.089-0.909c-0.3-0.402-0.534-0.897-0.702-1.485-0.162-0.588-0.243-1.26-0.243-2.016 0-0.684 0.093-1.32 0.279-1.908s0.453-1.098 0.801-1.53 0.765-0.768 1.251-1.008c0.486-0.246 1.032-0.369 1.638-0.369 0.516 0 0.957 0.084 1.323 0.252 0.366 0.162 0.693 0.381 0.981 0.657v-4.878h2.223v13.374h-1.359zm-2.961-1.629c0.462 0 0.855-0.096 1.179-0.288s0.63-0.465 0.918-0.819v-4.14c-0.252-0.306-0.528-0.522-0.828-0.648-0.294-0.126-0.612-0.189-0.954-0.189-0.336 0-0.642 0.063-0.918 0.189-0.27 0.126-0.501 0.318-0.693 0.576-0.186 0.252-0.33 0.576-0.432 0.972-0.102 0.39-0.153 0.852-0.153 1.386 0 0.54 0.042 0.999 0.126 1.377 0.09 0.372 0.216 0.678 0.378 0.918 0.162 0.234 0.36 0.405 0.594 0.513 0.234 0.102 0.495 0.153 0.783 0.153zm17.445 1.629h-0.999c-0.21 0-0.375-0.03-0.495-0.09-0.12-0.066-0.21-0.195-0.27-0.387l-0.198-0.657c-0.234 0.21-0.465 0.396-0.693 0.558-0.222 0.156-0.453 0.288-0.693 0.396s-0.495 0.189-0.765 0.243-0.57 0.081-0.9 0.081c-0.39 0-0.75-0.051-1.08-0.153-0.33-0.108-0.615-0.267-0.855-0.477-0.234-0.21-0.417-0.471-0.549-0.783s-0.198-0.675-0.198-1.089c0-0.348 0.09-0.69 0.27-1.026 0.186-0.342 0.492-0.648 0.918-0.918 0.426-0.276 0.993-0.504 1.701-0.684s1.587-0.282 2.637-0.306v-0.54c0-0.618-0.132-1.074-0.396-1.368-0.258-0.3-0.636-0.45-1.134-0.45-0.36 0-0.66 0.042-0.9 0.126s-0.45 0.18-0.63 0.288c-0.174 0.102-0.336 0.195-0.486 0.279s-0.315 0.126-0.495 0.126c-0.15 0-0.279-0.039-0.387-0.117s-0.195-0.174-0.261-0.288l-0.405-0.711c1.062-0.972 2.343-1.458 3.843-1.458 0.54 0 1.02 0.09 1.44 0.27 0.426 0.174 0.786 0.42 1.08 0.738 0.294 0.312 0.516 0.687 0.666 1.125 0.156 0.438 0.234 0.918 0.234 1.44v5.832zm-4.32-1.386c0.228 0 0.438-0.021 0.63-0.063s0.372-0.105 0.54-0.189c0.174-0.084 0.339-0.186 0.495-0.306 0.162-0.126 0.324-0.273 0.486-0.441v-1.557c-0.648 0.03-1.191 0.087-1.629 0.171-0.432 0.078-0.78 0.18-1.044 0.306s-0.453 0.273-0.567 0.441c-0.108 0.168-0.162 0.351-0.162 0.549 0 0.39 0.114 0.669 0.342 0.837 0.234 0.168 0.537 0.252 0.909 0.252zm-127.16 28.401v-12.249h1.359c0.144 0 0.267 0.033 0.369 0.099s0.168 0.168 0.198 0.306l0.18 0.855c0.372-0.426 0.798-0.771 1.278-1.035 0.486-0.264 1.053-0.396 1.701-0.396 0.504 0 0.963 0.105 1.377 0.315 0.42 0.21 0.78 0.516 1.08 0.918 0.306 0.396 0.54 0.888 0.702 1.476 0.168 0.582 0.252 1.251 0.252 2.007 0 0.69-0.093 1.329-0.279 1.917s-0.453 1.098-0.801 1.53c-0.342 0.432-0.759 0.771-1.251 1.017-0.486 0.24-1.032 0.36-1.638 0.36-0.522 0-0.966-0.078-1.332-0.234-0.36-0.162-0.684-0.384-0.972-0.666v3.78h-2.223zm4.32-10.665c-0.462 0-0.858 0.099-1.188 0.297-0.324 0.192-0.627 0.465-0.909 0.819v4.14c0.252 0.312 0.525 0.531 0.819 0.657 0.3 0.12 0.621 0.18 0.963 0.18 0.336 0 0.639-0.063 0.909-0.189 0.276-0.126 0.507-0.318 0.693-0.576 0.192-0.258 0.339-0.582 0.441-0.972 0.102-0.396 0.153-0.861 0.153-1.395 0-0.54-0.045-0.996-0.135-1.368-0.084-0.378-0.207-0.684-0.369-0.918s-0.36-0.405-0.594-0.513c-0.228-0.108-0.489-0.162-0.783-0.162zm8.2247-5.724v13.374h-2.223v-13.374h2.223zm4.5538 4.14v5.868c0 0.564 0.129 1.002 0.387 1.314 0.264 0.306 0.657 0.459 1.179 0.459 0.384 0 0.744-0.084 1.08-0.252 0.336-0.174 0.654-0.411 0.954-0.711v-6.678h2.223v9.234h-1.359c-0.288 0-0.477-0.135-0.567-0.405l-0.153-0.738c-0.192 0.192-0.39 0.369-0.594 0.531-0.204 0.156-0.423 0.291-0.657 0.405-0.228 0.108-0.477 0.192-0.747 0.252-0.264 0.066-0.549 0.099-0.855 0.099-0.504 0-0.951-0.084-1.341-0.252-0.384-0.174-0.708-0.417-0.972-0.729s-0.465-0.681-0.603-1.107c-0.132-0.432-0.198-0.906-0.198-1.422v-5.868h2.223zm11.391-0.162c0.396 0 0.768 0.042 1.116 0.126 0.348 0.078 0.666 0.195 0.954 0.351h2.655v0.828c0 0.138-0.036 0.246-0.108 0.324s-0.195 0.132-0.369 0.162l-0.828 0.153c0.06 0.156 0.105 0.321 0.135 0.495 0.036 0.174 0.054 0.357 0.054 0.549 0 0.456-0.093 0.87-0.279 1.242-0.18 0.366-0.432 0.678-0.756 0.936-0.318 0.258-0.699 0.459-1.143 0.603-0.438 0.138-0.915 0.207-1.431 0.207-0.348 0-0.687-0.033-1.017-0.099-0.288 0.174-0.432 0.369-0.432 0.585 0 0.186 0.084 0.324 0.252 0.414 0.174 0.084 0.399 0.144 0.675 0.18 0.282 0.036 0.6 0.06 0.954 0.072 0.354 6e-3 0.717 0.024 1.089 0.054s0.735 0.084 1.089 0.162c0.354 0.072 0.669 0.189 0.945 0.351 0.282 0.162 0.507 0.384 0.675 0.666 0.174 0.276 0.261 0.633 0.261 1.071 0 0.408-0.102 0.804-0.306 1.188-0.198 0.384-0.489 0.726-0.873 1.026-0.378 0.3-0.843 0.54-1.395 0.72-0.552 0.186-1.182 0.279-1.89 0.279-0.702 0-1.311-0.069-1.827-0.207-0.516-0.132-0.945-0.312-1.287-0.54-0.336-0.222-0.588-0.48-0.756-0.774s-0.252-0.6-0.252-0.918c0-0.432 0.132-0.795 0.396-1.089s0.63-0.528 1.098-0.702c-0.228-0.126-0.411-0.294-0.549-0.504s-0.207-0.483-0.207-0.819c0-0.138 0.024-0.279 0.072-0.423 0.048-0.15 0.12-0.297 0.216-0.441 0.102-0.144 0.228-0.279 0.378-0.405 0.15-0.132 0.327-0.249 0.531-0.351-0.468-0.252-0.837-0.588-1.107-1.008-0.264-0.42-0.396-0.912-0.396-1.476 0-0.456 0.09-0.867 0.27-1.233 0.186-0.372 0.441-0.687 0.765-0.945 0.33-0.264 0.717-0.465 1.161-0.603 0.45-0.138 0.939-0.207 1.467-0.207zm2.439 9.81c0-0.18-0.054-0.327-0.162-0.441s-0.255-0.201-0.441-0.261c-0.186-0.066-0.405-0.114-0.657-0.144-0.246-0.03-0.51-0.051-0.792-0.063-0.276-0.018-0.564-0.033-0.864-0.045-0.294-0.018-0.579-0.045-0.855-0.081-0.252 0.138-0.456 0.303-0.612 0.495-0.15 0.186-0.225 0.402-0.225 0.648 0 0.162 0.039 0.312 0.117 0.45 0.084 0.144 0.213 0.267 0.387 0.369 0.18 0.102 0.411 0.18 0.693 0.234 0.282 0.06 0.627 0.09 1.035 0.09 0.414 0 0.771-0.033 1.071-0.099 0.3-0.06 0.546-0.147 0.738-0.261 0.198-0.108 0.342-0.24 0.432-0.396 0.09-0.15 0.135-0.315 0.135-0.495zm-2.439-5.256c0.276 0 0.516-0.036 0.72-0.108 0.204-0.078 0.372-0.183 0.504-0.315 0.138-0.132 0.24-0.291 0.306-0.477 0.072-0.186 0.108-0.39 0.108-0.612 0-0.456-0.138-0.816-0.414-1.08-0.27-0.27-0.678-0.405-1.224-0.405s-0.957 0.135-1.233 0.405c-0.27 0.264-0.405 0.624-0.405 1.08 0 0.216 0.033 0.417 0.099 0.603 0.072 0.186 0.174 0.348 0.306 0.486 0.138 0.132 0.309 0.237 0.513 0.315 0.21 0.072 0.45 0.108 0.72 0.108zm8.4884-4.392v9.234h-2.223v-9.234h2.223zm0.333-2.691c0 0.192-0.039 0.372-0.117 0.54s-0.183 0.315-0.315 0.441c-0.126 0.126-0.276 0.228-0.45 0.306-0.174 0.072-0.36 0.108-0.558 0.108-0.192 0-0.375-0.036-0.549-0.108-0.168-0.078-0.315-0.18-0.441-0.306s-0.228-0.273-0.306-0.441c-0.072-0.168-0.108-0.348-0.108-0.54 0-0.198 0.036-0.384 0.108-0.558 0.078-0.174 0.18-0.324 0.306-0.45s0.273-0.225 0.441-0.297c0.174-0.078 0.357-0.117 0.549-0.117 0.198 0 0.384 0.039 0.558 0.117 0.174 0.072 0.324 0.171 0.45 0.297 0.132 0.126 0.237 0.276 0.315 0.45s0.117 0.36 0.117 0.558zm2.1867 11.925v-9.234h1.359c0.288 0 0.477 0.135 0.567 0.405l0.153 0.729c0.186-0.192 0.381-0.366 0.585-0.522 0.21-0.156 0.429-0.291 0.657-0.405 0.234-0.114 0.483-0.201 0.747-0.261s0.552-0.09 0.864-0.09c0.504 0 0.951 0.087 1.341 0.261 0.39 0.168 0.714 0.408 0.972 0.72 0.264 0.306 0.462 0.675 0.594 1.107 0.138 0.426 0.207 0.897 0.207 1.413v5.877h-2.223v-5.877c0-0.564-0.132-0.999-0.396-1.305-0.258-0.312-0.648-0.468-1.17-0.468-0.384 0-0.744 0.087-1.08 0.261s-0.654 0.411-0.954 0.711v6.678h-2.223zm17.653-9.378c0.69 0 1.314 0.111 1.872 0.333 0.564 0.222 1.044 0.537 1.44 0.945s0.702 0.906 0.918 1.494 0.324 1.245 0.324 1.971c0 0.732-0.108 1.392-0.324 1.98s-0.522 1.089-0.918 1.503-0.876 0.732-1.44 0.954c-0.558 0.222-1.182 0.333-1.872 0.333s-1.317-0.111-1.881-0.333-1.047-0.54-1.449-0.954c-0.396-0.414-0.705-0.915-0.927-1.503-0.216-0.588-0.324-1.248-0.324-1.98 0-0.726 0.108-1.383 0.324-1.971 0.222-0.588 0.531-1.086 0.927-1.494 0.402-0.408 0.885-0.723 1.449-0.945s1.191-0.333 1.881-0.333zm0 7.803c0.768 0 1.335-0.258 1.701-0.774 0.372-0.516 0.558-1.272 0.558-2.268s-0.186-1.755-0.558-2.277c-0.366-0.522-0.933-0.783-1.701-0.783-0.78 0-1.356 0.264-1.728 0.792-0.372 0.522-0.558 1.278-0.558 2.268s0.186 1.746 0.558 2.268c0.372 0.516 0.948 0.774 1.728 0.774zm10.616 1.575h-2.016l-3.672-9.234h1.845c0.162 0 0.297 0.039 0.405 0.117 0.114 0.078 0.192 0.177 0.234 0.297l1.782 4.932c0.102 0.288 0.186 0.57 0.252 0.846 0.072 0.276 0.135 0.552 0.189 0.828 0.054-0.276 0.114-0.552 0.18-0.828 0.072-0.276 0.162-0.558 0.27-0.846l1.827-4.932c0.042-0.12 0.117-0.219 0.225-0.297s0.237-0.117 0.387-0.117h1.755l-3.663 9.234zm8.4889-9.378c0.582 0 1.116 0.093 1.602 0.279 0.492 0.186 0.915 0.459 1.269 0.819 0.354 0.354 0.63 0.792 0.828 1.314 0.198 0.516 0.297 1.107 0.297 1.773 0 0.168-9e-3 0.309-0.027 0.423-0.012 0.108-0.039 0.195-0.081 0.261-0.036 0.06-0.087 0.105-0.153 0.135-0.066 0.024-0.15 0.036-0.252 0.036h-5.706c0.066 0.948 0.321 1.644 0.765 2.088s1.032 0.666 1.764 0.666c0.36 0 0.669-0.042 0.927-0.126 0.264-0.084 0.492-0.177 0.684-0.279 0.198-0.102 0.369-0.195 0.513-0.279 0.15-0.084 0.294-0.126 0.432-0.126 0.09 0 0.168 0.018 0.234 0.054s0.123 0.087 0.171 0.153l0.648 0.81c-0.246 0.288-0.522 0.531-0.828 0.729-0.306 0.192-0.627 0.348-0.963 0.468-0.33 0.114-0.669 0.195-1.017 0.243-0.342 0.048-0.675 0.072-0.999 0.072-0.642 0-1.239-0.105-1.791-0.315-0.552-0.216-1.032-0.531-1.44-0.945-0.408-0.42-0.729-0.936-0.963-1.548-0.234-0.618-0.351-1.332-0.351-2.142 0-0.63 0.102-1.221 0.306-1.773 0.204-0.558 0.495-1.041 0.873-1.449 0.384-0.414 0.849-0.741 1.395-0.981 0.552-0.24 1.173-0.36 1.863-0.36zm0.045 1.593c-0.648 0-1.155 0.183-1.521 0.549s-0.6 0.885-0.702 1.557h4.176c0-0.288-0.039-0.558-0.117-0.81-0.078-0.258-0.198-0.483-0.36-0.675s-0.366-0.342-0.612-0.45c-0.246-0.114-0.534-0.171-0.864-0.171zm5.7542 7.785v-9.234h1.305c0.228 0 0.387 0.042 0.477 0.126s0.15 0.228 0.18 0.432l0.135 1.116c0.33-0.57 0.717-1.02 1.161-1.35s0.942-0.495 1.494-0.495c0.456 0 0.834 0.105 1.134 0.315l-0.288 1.665c-0.018 0.108-0.057 0.186-0.117 0.234-0.06 0.042-0.141 0.063-0.243 0.063-0.09 0-0.213-0.021-0.369-0.063s-0.363-0.063-0.621-0.063c-0.462 0-0.858 0.129-1.188 0.387-0.33 0.252-0.609 0.624-0.837 1.116v5.751h-2.223zm13.846 0c-0.288 0-0.477-0.135-0.567-0.405l-0.18-0.891c-0.192 0.216-0.393 0.411-0.603 0.585s-0.438 0.324-0.684 0.45c-0.24 0.126-0.501 0.222-0.783 0.288-0.276 0.072-0.576 0.108-0.9 0.108-0.504 0-0.966-0.105-1.386-0.315s-0.783-0.513-1.089-0.909c-0.3-0.402-0.534-0.897-0.702-1.485-0.162-0.588-0.243-1.26-0.243-2.016 0-0.684 0.093-1.32 0.279-1.908s0.453-1.098 0.801-1.53 0.765-0.768 1.251-1.008c0.486-0.246 1.032-0.369 1.638-0.369 0.516 0 0.957 0.084 1.323 0.252 0.366 0.162 0.693 0.381 0.981 0.657v-4.878h2.223v13.374h-1.359zm-2.961-1.629c0.462 0 0.855-0.096 1.179-0.288s0.63-0.465 0.918-0.819v-4.14c-0.252-0.306-0.528-0.522-0.828-0.648-0.294-0.126-0.612-0.189-0.954-0.189-0.336 0-0.642 0.063-0.918 0.189-0.27 0.126-0.501 0.318-0.693 0.576-0.186 0.252-0.33 0.576-0.432 0.972-0.102 0.39-0.153 0.852-0.153 1.386 0 0.54 0.042 0.999 0.126 1.377 0.09 0.372 0.216 0.678 0.378 0.918 0.162 0.234 0.36 0.405 0.594 0.513 0.234 0.102 0.495 0.153 0.783 0.153zm6.7287 1.629v-9.234h1.305c0.228 0 0.387 0.042 0.477 0.126s0.15 0.228 0.18 0.432l0.135 1.116c0.33-0.57 0.717-1.02 1.161-1.35s0.942-0.495 1.494-0.495c0.456 0 0.834 0.105 1.134 0.315l-0.288 1.665c-0.018 0.108-0.057 0.186-0.117 0.234-0.06 0.042-0.141 0.063-0.243 0.063-0.09 0-0.213-0.021-0.369-0.063s-0.363-0.063-0.621-0.063c-0.462 0-0.858 0.129-1.188 0.387-0.33 0.252-0.609 0.624-0.837 1.116v5.751h-2.223zm14.32 0h-0.999c-0.21 0-0.375-0.03-0.495-0.09-0.12-0.066-0.21-0.195-0.27-0.387l-0.198-0.657c-0.234 0.21-0.465 0.396-0.693 0.558-0.222 0.156-0.453 0.288-0.693 0.396s-0.495 0.189-0.765 0.243-0.57 0.081-0.9 0.081c-0.39 0-0.75-0.051-1.08-0.153-0.33-0.108-0.615-0.267-0.855-0.477-0.234-0.21-0.417-0.471-0.549-0.783s-0.198-0.675-0.198-1.089c0-0.348 0.09-0.69 0.27-1.026 0.186-0.342 0.492-0.648 0.918-0.918 0.426-0.276 0.993-0.504 1.701-0.684s1.587-0.282 2.637-0.306v-0.54c0-0.618-0.132-1.074-0.396-1.368-0.258-0.3-0.636-0.45-1.134-0.45-0.36 0-0.66 0.042-0.9 0.126s-0.45 0.18-0.63 0.288c-0.174 0.102-0.336 0.195-0.486 0.279s-0.315 0.126-0.495 0.126c-0.15 0-0.279-0.039-0.387-0.117s-0.195-0.174-0.261-0.288l-0.405-0.711c1.062-0.972 2.343-1.458 3.843-1.458 0.54 0 1.02 0.09 1.44 0.27 0.426 0.174 0.786 0.42 1.08 0.738 0.294 0.312 0.516 0.687 0.666 1.125 0.156 0.438 0.234 0.918 0.234 1.44v5.832zm-4.32-1.386c0.228 0 0.438-0.021 0.63-0.063s0.372-0.105 0.54-0.189c0.174-0.084 0.339-0.186 0.495-0.306 0.162-0.126 0.324-0.273 0.486-0.441v-1.557c-0.648 0.03-1.191 0.087-1.629 0.171-0.432 0.078-0.78 0.18-1.044 0.306s-0.453 0.273-0.567 0.441c-0.108 0.168-0.162 0.351-0.162 0.549 0 0.39 0.114 0.669 0.342 0.837 0.234 0.168 0.537 0.252 0.909 0.252zm6.902 1.386v-7.56l-0.801-0.126c-0.174-0.03-0.315-0.09-0.423-0.18-0.102-0.09-0.153-0.216-0.153-0.378v-0.909h1.377v-0.684c0-0.528 0.078-1.002 0.234-1.422 0.162-0.42 0.39-0.777 0.684-1.071 0.3-0.294 0.663-0.519 1.089-0.675s0.906-0.234 1.44-0.234c0.426 0 0.822 0.057 1.188 0.171l-0.045 1.116c-0.012 0.174-0.093 0.282-0.243 0.324s-0.324 0.063-0.522 0.063c-0.264 0-0.501 0.03-0.711 0.09-0.204 0.054-0.378 0.153-0.522 0.297-0.144 0.138-0.255 0.324-0.333 0.558-0.072 0.228-0.108 0.513-0.108 0.855v0.612h2.403v1.584h-2.331v7.569h-2.223zm8.947 0.144c-0.798 0-1.413-0.225-1.845-0.675-0.432-0.456-0.648-1.083-0.648-1.881v-5.157h-0.936c-0.12 0-0.225-0.039-0.315-0.117-0.084-0.078-0.126-0.195-0.126-0.351v-0.882l1.485-0.243 0.468-2.52c0.024-0.12 0.078-0.213 0.162-0.279 0.09-0.066 0.201-0.099 0.333-0.099h1.152v2.907h2.43v1.584h-2.43v5.004c0 0.288 0.072 0.513 0.216 0.675s0.336 0.243 0.576 0.243c0.138 0 0.252-0.015 0.342-0.045 0.096-0.036 0.177-0.072 0.243-0.108 0.072-0.036 0.135-0.069 0.189-0.099 0.054-0.036 0.108-0.054 0.162-0.054 0.066 0 0.12 0.018 0.162 0.054 0.042 0.03 0.087 0.078 0.135 0.144l0.666 1.08c-0.324 0.27-0.696 0.474-1.116 0.612s-0.855 0.207-1.305 0.207zm10.442 0c-0.798 0-1.413-0.225-1.845-0.675-0.432-0.456-0.648-1.083-0.648-1.881v-5.157h-0.936c-0.12 0-0.225-0.039-0.315-0.117-0.084-0.078-0.126-0.195-0.126-0.351v-0.882l1.485-0.243 0.468-2.52c0.024-0.12 0.078-0.213 0.162-0.279 0.09-0.066 0.201-0.099 0.333-0.099h1.152v2.907h2.43v1.584h-2.43v5.004c0 0.288 0.072 0.513 0.216 0.675s0.336 0.243 0.576 0.243c0.138 0 0.252-0.015 0.342-0.045 0.096-0.036 0.177-0.072 0.243-0.108 0.072-0.036 0.135-0.069 0.189-0.099 0.054-0.036 0.108-0.054 0.162-0.054 0.066 0 0.12 0.018 0.162 0.054 0.042 0.03 0.087 0.078 0.135 0.144l0.666 1.08c-0.324 0.27-0.696 0.474-1.116 0.612s-0.855 0.207-1.305 0.207zm7.87-9.522c0.69 0 1.314 0.111 1.872 0.333 0.564 0.222 1.044 0.537 1.44 0.945s0.702 0.906 0.918 1.494 0.324 1.245 0.324 1.971c0 0.732-0.108 1.392-0.324 1.98s-0.522 1.089-0.918 1.503-0.876 0.732-1.44 0.954c-0.558 0.222-1.182 0.333-1.872 0.333s-1.317-0.111-1.881-0.333-1.047-0.54-1.449-0.954c-0.396-0.414-0.705-0.915-0.927-1.503-0.216-0.588-0.324-1.248-0.324-1.98 0-0.726 0.108-1.383 0.324-1.971 0.222-0.588 0.531-1.086 0.927-1.494 0.402-0.408 0.885-0.723 1.449-0.945s1.191-0.333 1.881-0.333zm0 7.803c0.768 0 1.335-0.258 1.701-0.774 0.372-0.516 0.558-1.272 0.558-2.268s-0.186-1.755-0.558-2.277c-0.366-0.522-0.933-0.783-1.701-0.783-0.78 0-1.356 0.264-1.728 0.792-0.372 0.522-0.558 1.278-0.558 2.268s0.186 1.746 0.558 2.268c0.372 0.516 0.948 0.774 1.728 0.774zm-140.55 28.113c-0.066 0.156-0.153 0.273-0.261 0.351-0.102 0.084-0.261 0.126-0.477 0.126h-1.656l1.728-3.699-3.735-8.55h1.944c0.18 0 0.318 0.042 0.414 0.126s0.168 0.18 0.216 0.288l1.971 4.788c0.066 0.156 0.123 0.318 0.171 0.486s0.09 0.336 0.126 0.504c0.048-0.174 0.099-0.342 0.153-0.504 0.06-0.162 0.123-0.327 0.189-0.495l1.854-4.779c0.048-0.12 0.126-0.219 0.234-0.297 0.114-0.078 0.24-0.117 0.378-0.117h1.782l-5.031 11.772zm9.9648-11.916c0.69 0 1.314 0.111 1.872 0.333 0.564 0.222 1.044 0.537 1.44 0.945s0.702 0.906 0.918 1.494 0.324 1.245 0.324 1.971c0 0.732-0.108 1.392-0.324 1.98s-0.522 1.089-0.918 1.503-0.876 0.732-1.44 0.954c-0.558 0.222-1.182 0.333-1.872 0.333s-1.317-0.111-1.881-0.333-1.047-0.54-1.449-0.954c-0.396-0.414-0.705-0.915-0.927-1.503-0.21597-0.588-0.32397-1.248-0.32397-1.98 0-0.726 0.108-1.383 0.32397-1.971 0.222-0.588 0.531-1.086 0.927-1.494 0.402-0.408 0.885-0.723 1.449-0.945s1.191-0.333 1.881-0.333zm0 7.803c0.768 0 1.335-0.258 1.701-0.774 0.372-0.516 0.558-1.272 0.558-2.268s-0.186-1.755-0.558-2.277c-0.366-0.522-0.933-0.783-1.701-0.783-0.78 0-1.356 0.264-1.728 0.792-0.372 0.522-0.558 1.278-0.558 2.268s0.186 1.746 0.558 2.268c0.372 0.516 0.948 0.774 1.728 0.774zm8.3225-7.659v5.868c0 0.564 0.129 1.002 0.387 1.314 0.264 0.306 0.657 0.459 1.179 0.459 0.384 0 0.744-0.084 1.08-0.252 0.336-0.174 0.654-0.411 0.954-0.711v-6.678h2.223v9.234h-1.359c-0.288 0-0.477-0.135-0.567-0.405l-0.153-0.738c-0.192 0.192-0.39 0.369-0.594 0.531-0.204 0.156-0.423 0.291-0.657 0.405-0.228 0.108-0.477 0.192-0.747 0.252-0.264 0.066-0.549 0.099-0.855 0.099-0.504 0-0.951-0.084-1.341-0.252-0.384-0.174-0.708-0.417-0.972-0.729s-0.465-0.681-0.603-1.107c-0.132-0.432-0.198-0.906-0.198-1.422v-5.868h2.223zm8.1965 9.234v-9.234h1.305c0.228 0 0.387 0.042 0.477 0.126s0.15 0.228 0.18 0.432l0.135 1.116c0.33-0.57 0.717-1.02 1.161-1.35s0.942-0.495 1.494-0.495c0.456 0 0.834 0.105 1.134 0.315l-0.288 1.665c-0.018 0.108-0.057 0.186-0.117 0.234-0.06 0.042-0.141 0.063-0.243 0.063-0.09 0-0.213-0.021-0.369-0.063s-0.363-0.063-0.621-0.063c-0.462 0-0.858 0.129-1.188 0.387-0.33 0.252-0.609 0.624-0.837 1.116v5.751h-2.223zm10.855 0v-13.374h2.223v5.274c0.366-0.39 0.78-0.699 1.242-0.927 0.462-0.234 1.002-0.351 1.62-0.351 0.504 0 0.963 0.105 1.377 0.315 0.42 0.204 0.78 0.504 1.08 0.9 0.306 0.396 0.54 0.885 0.702 1.467 0.168 0.582 0.252 1.251 0.252 2.007 0 0.69-0.093 1.329-0.279 1.917s-0.453 1.098-0.801 1.53c-0.342 0.432-0.759 0.771-1.251 1.017-0.486 0.24-1.032 0.36-1.638 0.36-0.282 0-0.54-0.03-0.774-0.09-0.234-0.054-0.447-0.132-0.639-0.234s-0.372-0.225-0.54-0.369c-0.162-0.15-0.318-0.315-0.468-0.495l-0.099 0.621c-0.036 0.156-0.099 0.267-0.189 0.333-0.084 0.066-0.201 0.099-0.351 0.099h-1.467zm4.32-7.65c-0.462 0-0.858 0.099-1.188 0.297-0.324 0.192-0.627 0.465-0.909 0.819v4.14c0.252 0.312 0.525 0.531 0.819 0.657 0.3 0.12 0.624 0.18 0.972 0.18 0.336 0 0.639-0.063 0.909-0.189s0.498-0.318 0.684-0.576c0.192-0.258 0.339-0.582 0.441-0.972 0.102-0.396 0.153-0.861 0.153-1.395 0-0.54-0.045-0.996-0.135-1.368-0.084-0.378-0.207-0.684-0.369-0.918s-0.36-0.405-0.594-0.513c-0.228-0.108-0.489-0.162-0.783-0.162zm13.155 7.65h-0.999c-0.21 0-0.375-0.03-0.495-0.09-0.12-0.066-0.21-0.195-0.27-0.387l-0.198-0.657c-0.234 0.21-0.465 0.396-0.693 0.558-0.222 0.156-0.453 0.288-0.693 0.396s-0.495 0.189-0.765 0.243-0.57 0.081-0.9 0.081c-0.39 0-0.75-0.051-1.08-0.153-0.33-0.108-0.615-0.267-0.855-0.477-0.234-0.21-0.417-0.471-0.549-0.783s-0.198-0.675-0.198-1.089c0-0.348 0.09-0.69 0.27-1.026 0.186-0.342 0.492-0.648 0.918-0.918 0.426-0.276 0.993-0.504 1.701-0.684s1.587-0.282 2.637-0.306v-0.54c0-0.618-0.132-1.074-0.396-1.368-0.258-0.3-0.636-0.45-1.134-0.45-0.36 0-0.66 0.042-0.9 0.126s-0.45 0.18-0.63 0.288c-0.174 0.102-0.336 0.195-0.486 0.279s-0.315 0.126-0.495 0.126c-0.15 0-0.279-0.039-0.387-0.117s-0.195-0.174-0.261-0.288l-0.405-0.711c1.062-0.972 2.343-1.458 3.843-1.458 0.54 0 1.02 0.09 1.44 0.27 0.426 0.174 0.786 0.42 1.08 0.738 0.294 0.312 0.516 0.687 0.666 1.125 0.156 0.438 0.234 0.918 0.234 1.44v5.832zm-4.32-1.386c0.228 0 0.438-0.021 0.63-0.063s0.372-0.105 0.54-0.189c0.174-0.084 0.339-0.186 0.495-0.306 0.162-0.126 0.324-0.273 0.486-0.441v-1.557c-0.648 0.03-1.191 0.087-1.629 0.171-0.432 0.078-0.78 0.18-1.044 0.306s-0.453 0.273-0.567 0.441c-0.108 0.168-0.162 0.351-0.162 0.549 0 0.39 0.114 0.669 0.342 0.837 0.234 0.168 0.537 0.252 0.909 0.252zm6.5059 1.386v-9.234h1.359c0.288 0 0.477 0.135 0.567 0.405l0.153 0.729c0.186-0.192 0.381-0.366 0.585-0.522 0.21-0.156 0.429-0.291 0.657-0.405 0.234-0.114 0.483-0.201 0.747-0.261s0.552-0.09 0.864-0.09c0.504 0 0.951 0.087 1.341 0.261 0.39 0.168 0.714 0.408 0.972 0.72 0.264 0.306 0.462 0.675 0.594 1.107 0.138 0.426 0.207 0.897 0.207 1.413v5.877h-2.223v-5.877c0-0.564-0.132-0.999-0.396-1.305-0.258-0.312-0.648-0.468-1.17-0.468-0.384 0-0.744 0.087-1.08 0.261s-0.654 0.411-0.954 0.711v6.678h-2.223zm12.48-13.374v7.659h0.414c0.15 0 0.267-0.021 0.351-0.063s0.174-0.12 0.27-0.234l2.295-2.835c0.102-0.12 0.21-0.213 0.324-0.279 0.114-0.072 0.264-0.108 0.45-0.108h2.034l-2.871 3.429c-0.102 0.126-0.207 0.243-0.315 0.351-0.108 0.102-0.225 0.192-0.351 0.27 0.126 0.09 0.237 0.195 0.333 0.315s0.192 0.249 0.288 0.387l3.078 4.482h-2.007c-0.174 0-0.321-0.03-0.441-0.09s-0.228-0.162-0.324-0.306l-2.349-3.501c-0.09-0.138-0.18-0.228-0.27-0.27s-0.225-0.063-0.405-0.063h-0.504v4.23h-2.223v-13.374h2.223zm18.398 13.374h-0.999c-0.21 0-0.375-0.03-0.495-0.09-0.12-0.066-0.21-0.195-0.27-0.387l-0.198-0.657c-0.234 0.21-0.465 0.396-0.693 0.558-0.222 0.156-0.453 0.288-0.693 0.396s-0.495 0.189-0.765 0.243-0.57 0.081-0.9 0.081c-0.39 0-0.75-0.051-1.08-0.153-0.33-0.108-0.615-0.267-0.855-0.477-0.234-0.21-0.417-0.471-0.549-0.783s-0.198-0.675-0.198-1.089c0-0.348 0.09-0.69 0.27-1.026 0.186-0.342 0.492-0.648 0.918-0.918 0.426-0.276 0.993-0.504 1.701-0.684s1.587-0.282 2.637-0.306v-0.54c0-0.618-0.132-1.074-0.396-1.368-0.258-0.3-0.636-0.45-1.134-0.45-0.36 0-0.66 0.042-0.9 0.126s-0.45 0.18-0.63 0.288c-0.174 0.102-0.336 0.195-0.486 0.279s-0.315 0.126-0.495 0.126c-0.15 0-0.279-0.039-0.387-0.117s-0.195-0.174-0.261-0.288l-0.405-0.711c1.062-0.972 2.343-1.458 3.843-1.458 0.54 0 1.02 0.09 1.44 0.27 0.426 0.174 0.786 0.42 1.08 0.738 0.294 0.312 0.516 0.687 0.666 1.125 0.156 0.438 0.234 0.918 0.234 1.44v5.832zm-4.32-1.386c0.228 0 0.438-0.021 0.63-0.063s0.372-0.105 0.54-0.189c0.174-0.084 0.339-0.186 0.495-0.306 0.162-0.126 0.324-0.273 0.486-0.441v-1.557c-0.648 0.03-1.191 0.087-1.629 0.171-0.432 0.078-0.78 0.18-1.044 0.306s-0.453 0.273-0.567 0.441c-0.108 0.168-0.162 0.351-0.162 0.549 0 0.39 0.114 0.669 0.342 0.837 0.234 0.168 0.537 0.252 0.909 0.252zm12.995-5.895c-0.066 0.084-0.132 0.15-0.198 0.198-0.06 0.048-0.15 0.072-0.27 0.072-0.114 0-0.225-0.033-0.333-0.099-0.108-0.072-0.2372-0.15-0.3872-0.234-0.15-0.09-0.33-0.168-0.54-0.234-0.204-0.072-0.459-0.108-0.765-0.108-0.39 0-0.732 0.072-1.026 0.216-0.294 0.138-0.54 0.339-0.738 0.603-0.192 0.264-0.336 0.585-0.432 0.963-0.096 0.372-0.144 0.795-0.144 1.269 0 0.492 0.051 0.93 0.153 1.314 0.108 0.384 0.261 0.708 0.459 0.972 0.198 0.258 0.438 0.456 0.72 0.594 0.282 0.132 0.6 0.198 0.954 0.198s0.639-0.042 0.855-0.126c0.222-0.09 0.408-0.186 0.558-0.288 0.1502-0.108 0.2792-0.204 0.3872-0.288 0.114-0.09 0.24-0.135 0.378-0.135 0.18 0 0.315 0.069 0.405 0.207l0.639 0.81c-0.246 0.288-0.513 0.531-0.801 0.729-0.288 0.192-0.588 0.348-0.9002 0.468-0.306 0.114-0.624 0.195-0.954 0.243s-0.657 0.072-0.981 0.072c-0.57 0-1.107-0.105-1.611-0.315-0.504-0.216-0.945-0.528-1.323-0.936-0.372-0.408-0.669-0.906-0.891-1.494-0.216-0.594-0.324-1.269-0.324-2.025 0-0.678 0.096-1.305 0.288-1.881 0.198-0.582 0.486-1.083 0.864-1.503 0.378-0.426 0.846-0.759 1.404-0.999s1.2-0.36 1.926-0.36c0.69 0 1.293 0.111 1.8092 0.333 0.522 0.222 0.99 0.54 1.404 0.954l-0.585 0.81zm8.578 0c-0.066 0.084-0.132 0.15-0.198 0.198-0.06 0.048-0.15 0.072-0.27 0.072-0.114 0-0.225-0.033-0.333-0.099-0.108-0.072-0.237-0.15-0.387-0.234-0.15-0.09-0.33-0.168-0.54-0.234-0.204-0.072-0.459-0.108-0.765-0.108-0.39 0-0.732 0.072-1.026 0.216-0.294 0.138-0.54 0.339-0.738 0.603-0.192 0.264-0.336 0.585-0.432 0.963-0.096 0.372-0.144 0.795-0.144 1.269 0 0.492 0.051 0.93 0.153 1.314 0.108 0.384 0.261 0.708 0.459 0.972 0.198 0.258 0.438 0.456 0.72 0.594 0.282 0.132 0.6 0.198 0.954 0.198s0.639-0.042 0.855-0.126c0.222-0.09 0.408-0.186 0.558-0.288 0.15-0.108 0.279-0.204 0.387-0.288 0.114-0.09 0.24-0.135 0.378-0.135 0.18 0 0.315 0.069 0.405 0.207l0.639 0.81c-0.246 0.288-0.513 0.531-0.801 0.729-0.288 0.192-0.588 0.348-0.9 0.468-0.306 0.114-0.624 0.195-0.954 0.243s-0.657 0.072-0.981 0.072c-0.57 0-1.107-0.105-1.611-0.315-0.504-0.216-0.945-0.528-1.323-0.936-0.372-0.408-0.669-0.906-0.891-1.494-0.216-0.594-0.324-1.269-0.324-2.025 0-0.678 0.096-1.305 0.288-1.881 0.198-0.582 0.486-1.083 0.864-1.503 0.378-0.426 0.846-0.759 1.404-0.999s1.2-0.36 1.926-0.36c0.69 0 1.293 0.111 1.809 0.333 0.522 0.222 0.99 0.54 1.404 0.954l-0.585 0.81zm6.031-2.097c0.69 0 1.314 0.111 1.872 0.333 0.564 0.222 1.044 0.537 1.44 0.945s0.702 0.906 0.918 1.494 0.324 1.245 0.324 1.971c0 0.732-0.108 1.392-0.324 1.98s-0.522 1.089-0.918 1.503-0.876 0.732-1.44 0.954c-0.558 0.222-1.182 0.333-1.872 0.333s-1.317-0.111-1.881-0.333-1.047-0.54-1.449-0.954c-0.396-0.414-0.705-0.915-0.927-1.503-0.216-0.588-0.324-1.248-0.324-1.98 0-0.726 0.108-1.383 0.324-1.971 0.222-0.588 0.531-1.086 0.927-1.494 0.402-0.408 0.885-0.723 1.449-0.945s1.191-0.333 1.881-0.333zm0 7.803c0.768 0 1.335-0.258 1.701-0.774 0.372-0.516 0.558-1.272 0.558-2.268s-0.186-1.755-0.558-2.277c-0.366-0.522-0.933-0.783-1.701-0.783-0.78 0-1.356 0.264-1.728 0.792-0.372 0.522-0.558 1.278-0.558 2.268s0.186 1.746 0.558 2.268c0.372 0.516 0.948 0.774 1.728 0.774zm8.323-7.659v5.868c0 0.564 0.129 1.002 0.387 1.314 0.264 0.306 0.657 0.459 1.179 0.459 0.384 0 0.744-0.084 1.08-0.252 0.336-0.174 0.654-0.411 0.954-0.711v-6.678h2.223v9.234h-1.359c-0.288 0-0.477-0.135-0.567-0.405l-0.153-0.738c-0.192 0.192-0.39 0.369-0.594 0.531-0.204 0.156-0.423 0.291-0.657 0.405-0.228 0.108-0.477 0.192-0.747 0.252-0.264 0.066-0.549 0.099-0.855 0.099-0.504 0-0.951-0.084-1.341-0.252-0.384-0.174-0.708-0.417-0.972-0.729s-0.465-0.681-0.603-1.107c-0.132-0.432-0.198-0.906-0.198-1.422v-5.868h2.223zm8.196 9.234v-9.234h1.359c0.288 0 0.477 0.135 0.567 0.405l0.153 0.729c0.186-0.192 0.381-0.366 0.585-0.522 0.21-0.156 0.429-0.291 0.657-0.405 0.234-0.114 0.483-0.201 0.747-0.261s0.552-0.09 0.864-0.09c0.504 0 0.951 0.087 1.341 0.261 0.39 0.168 0.714 0.408 0.972 0.72 0.264 0.306 0.462 0.675 0.594 1.107 0.138 0.426 0.207 0.897 0.207 1.413v5.877h-2.223v-5.877c0-0.564-0.132-0.999-0.396-1.305-0.258-0.312-0.648-0.468-1.17-0.468-0.384 0-0.744 0.087-1.08 0.261s-0.654 0.411-0.954 0.711v6.678h-2.223zm13.264 0.144c-0.798 0-1.413-0.225-1.846-0.675-0.431-0.456-0.647-1.083-0.647-1.881v-5.157h-0.936c-0.12 0-0.225-0.039-0.315-0.117-0.084-0.078-0.126-0.195-0.126-0.351v-0.882l1.485-0.243 0.468-2.52c0.024-0.12 0.078-0.213 0.162-0.279 0.09-0.066 0.201-0.099 0.333-0.099h1.152v2.907h2.43v1.584h-2.43v5.004c0 0.288 0.072 0.513 0.216 0.675s0.336 0.243 0.576 0.243c0.138 0 0.252-0.015 0.341-0.045 0.097-0.036 0.178-0.072 0.244-0.108 0.072-0.036 0.135-0.069 0.189-0.099 0.054-0.036 0.108-0.054 0.162-0.054 0.066 0 0.12 0.018 0.162 0.054 0.042 0.03 0.087 0.078 0.135 0.144l0.666 1.08c-0.324 0.27-0.696 0.474-1.116 0.612s-0.855 0.207-1.305 0.207zm3.072-11.979c0.204-0.18 0.426-0.351 0.666-0.513 0.246-0.162 0.51-0.303 0.792-0.423s0.588-0.213 0.918-0.279c0.33-0.072 0.687-0.108 1.071-0.108 0.522 0 0.996 0.072 1.422 0.216 0.432 0.144 0.801 0.351 1.107 0.621 0.306 0.264 0.543 0.585 0.711 0.963s0.252 0.801 0.252 1.269c0 0.456-0.066 0.852-0.198 1.188-0.132 0.33-0.3 0.618-0.504 0.864-0.198 0.246-0.414 0.459-0.648 0.639s-0.456 0.351-0.666 0.513c-0.21 0.156-0.393 0.312-0.549 0.468-0.15 0.15-0.24 0.321-0.27 0.513l-0.207 1.314h-1.521l-0.153-1.467c-6e-3 -0.03-9e-3 -0.054-9e-3 -0.072v-0.081c0-0.264 0.066-0.492 0.198-0.684 0.132-0.198 0.297-0.381 0.495-0.549 0.198-0.174 0.411-0.342 0.639-0.504s0.441-0.336 0.639-0.522c0.198-0.192 0.363-0.408 0.495-0.648s0.198-0.522 0.198-0.846c0-0.216-0.042-0.408-0.126-0.576-0.078-0.174-0.189-0.321-0.333-0.441-0.144-0.126-0.318-0.222-0.522-0.288-0.198-0.066-0.414-0.099-0.648-0.099-0.342 0-0.633 0.039-0.873 0.117-0.234 0.072-0.435 0.156-0.603 0.252-0.162 0.09-0.3 0.174-0.414 0.252-0.114 0.072-0.216 0.108-0.306 0.108-0.216 0-0.372-0.09-0.468-0.27l-0.585-0.927zm1.701 10.611c0-0.186 0.033-0.363 0.099-0.531 0.072-0.168 0.168-0.312 0.288-0.432 0.126-0.12 0.273-0.216 0.441-0.288s0.348-0.108 0.54-0.108c0.186 0 0.363 0.036 0.531 0.108s0.312 0.168 0.432 0.288 0.216 0.264 0.288 0.432 0.108 0.345 0.108 0.531c0 0.192-0.036 0.372-0.108 0.54-0.072 0.162-0.168 0.303-0.288 0.423s-0.264 0.213-0.432 0.279c-0.168 0.072-0.345 0.108-0.531 0.108-0.192 0-0.372-0.036-0.54-0.108-0.168-0.066-0.315-0.159-0.441-0.279-0.12-0.12-0.216-0.261-0.288-0.423-0.066-0.168-0.099-0.348-0.099-0.54zm8.603-6.309v-1.647c0-0.12 6e-3 -0.237 0.018-0.351 0.018-0.114 0.045-0.222 0.081-0.324-0.066 0.084-0.144 0.159-0.234 0.225s-0.186 0.132-0.288 0.198l-1.422 0.828-0.531-0.9 1.431-0.828c0.108-0.066 0.213-0.12 0.315-0.162 0.108-0.042 0.219-0.072 0.333-0.09-0.114-0.012-0.225-0.042-0.333-0.09-0.102-0.048-0.207-0.105-0.315-0.171l-1.431-0.837 0.522-0.9 1.431 0.846c0.102 0.066 0.198 0.135 0.288 0.207 0.096 0.066 0.177 0.141 0.243 0.225-0.042-0.102-0.072-0.21-0.09-0.324-0.012-0.114-0.018-0.231-0.018-0.351v-1.665h1.062v1.647c0 0.126-9e-3 0.249-0.027 0.369-0.012 0.114-0.039 0.222-0.081 0.324 0.066-0.084 0.144-0.159 0.234-0.225 0.09-0.072 0.189-0.141 0.297-0.207l1.422-0.828 0.531 0.9-1.431 0.819c-0.108 0.066-0.216 0.123-0.324 0.171-0.102 0.042-0.21 0.072-0.324 0.09 0.204 0.036 0.42 0.12 0.648 0.252l1.431 0.837-0.522 0.9-1.431-0.837c-0.108-0.066-0.207-0.132-0.297-0.198s-0.171-0.141-0.243-0.225c0.078 0.192 0.117 0.414 0.117 0.666v1.656h-1.062z" fill="#333D47"/>
<path d="m134 169h-39" stroke="#333D47" stroke-dasharray="3 3"/>
<circle cx="219" cy="166" r="81" fill="#CBF4F0"/>
<path d="m194.58 147.6c0 0.659-0.208 1.205-0.624 1.638-0.416 0.416-1.118 0.624-2.106 0.624h-11.7l-1.716 9.776c1.942-0.416 3.736-0.624 5.382-0.624 1.942 0 3.649 0.286 5.122 0.858 1.491 0.572 2.739 1.361 3.744 2.366 1.006 1.005 1.76 2.193 2.262 3.562 0.52 1.369 0.78 2.86 0.78 4.472 0 1.976-0.346 3.761-1.04 5.356-0.693 1.595-1.646 2.964-2.86 4.108-1.196 1.127-2.608 1.993-4.238 2.6-1.629 0.607-3.388 0.91-5.278 0.91-1.092 0-2.14-0.113-3.146-0.338-1.005-0.208-1.941-0.494-2.808-0.858-0.866-0.364-1.672-0.78-2.418-1.248-0.745-0.468-1.404-0.962-1.976-1.482l1.404-1.976c0.312-0.451 0.728-0.676 1.248-0.676 0.33 0 0.711 0.139 1.144 0.416 0.451 0.26 0.988 0.555 1.612 0.884s1.352 0.633 2.184 0.91c0.85 0.26 1.855 0.39 3.016 0.39 1.3 0 2.47-0.208 3.51-0.624s1.924-1.005 2.652-1.768c0.746-0.78 1.318-1.707 1.716-2.782 0.399-1.075 0.598-2.279 0.598-3.614 0-1.161-0.173-2.21-0.52-3.146-0.329-0.936-0.84-1.733-1.534-2.392-0.676-0.659-1.525-1.17-2.548-1.534-1.022-0.364-2.218-0.546-3.588-0.546-0.936 0-1.906 0.078-2.912 0.234-1.005 0.156-2.045 0.407-3.12 0.754l-2.912-0.858 3.016-17.42h17.654v2.028zm20.103-2.444c1.577 0 3.05 0.234 4.42 0.702 1.369 0.468 2.548 1.153 3.536 2.054 1.005 0.884 1.794 1.967 2.366 3.25s0.858 2.739 0.858 4.368c0 1.387-0.208 2.669-0.624 3.848s-0.98 2.314-1.69 3.406c-0.711 1.075-1.534 2.123-2.47 3.146-0.919 1.005-1.898 2.037-2.938 3.094l-9.802 10.036c0.693-0.191 1.395-0.338 2.106-0.442 0.71-0.121 1.395-0.182 2.054-0.182h12.48c0.502 0 0.901 0.147 1.196 0.442 0.294 0.295 0.442 0.676 0.442 1.144v2.808h-24.856v-1.586c0-0.329 0.06-0.667 0.182-1.014 0.138-0.347 0.355-0.667 0.65-0.962l11.934-11.986c0.988-1.005 1.889-1.967 2.704-2.886 0.814-0.936 1.508-1.872 2.08-2.808 0.589-0.936 1.04-1.881 1.352-2.834 0.312-0.971 0.468-2.002 0.468-3.094s-0.174-2.045-0.52-2.86c-0.347-0.832-0.824-1.517-1.43-2.054-0.607-0.537-1.318-0.936-2.132-1.196-0.815-0.277-1.69-0.416-2.626-0.416s-1.803 0.139-2.6 0.416c-0.798 0.277-1.508 0.667-2.132 1.17-0.607 0.485-1.127 1.066-1.56 1.742-0.416 0.676-0.711 1.421-0.884 2.236-0.139 0.503-0.347 0.867-0.624 1.092-0.278 0.225-0.642 0.338-1.092 0.338h-0.286c-0.087-0.017-0.191-0.035-0.312-0.052l-2.418-0.416c0.242-1.699 0.71-3.198 1.404-4.498 0.693-1.317 1.568-2.418 2.626-3.302 1.074-0.884 2.296-1.551 3.666-2.002 1.386-0.468 2.877-0.702 4.472-0.702zm32.66 9.412c0 1.456-0.226 2.765-0.676 3.926-0.451 1.144-1.058 2.115-1.82 2.912-0.746 0.78-1.621 1.378-2.626 1.794-1.006 0.416-2.054 0.624-3.146 0.624-1.179 0-2.271-0.208-3.276-0.624-0.988-0.416-1.855-1.014-2.6-1.794-0.746-0.797-1.326-1.768-1.742-2.912-0.416-1.161-0.624-2.47-0.624-3.926 0-1.491 0.208-2.817 0.624-3.978s0.996-2.141 1.742-2.938c0.745-0.797 1.612-1.404 2.6-1.82 1.005-0.416 2.097-0.624 3.276-0.624 1.161 0 2.244 0.208 3.25 0.624 1.022 0.416 1.898 1.023 2.626 1.82 0.745 0.797 1.326 1.777 1.742 2.938 0.433 1.161 0.65 2.487 0.65 3.978zm-3.614 0c0-1.144-0.122-2.115-0.364-2.912-0.243-0.797-0.581-1.447-1.014-1.95-0.416-0.52-0.91-0.893-1.482-1.118-0.555-0.225-1.153-0.338-1.794-0.338-0.642 0-1.248 0.113-1.82 0.338-0.555 0.225-1.04 0.598-1.456 1.118-0.416 0.503-0.746 1.153-0.988 1.95-0.226 0.797-0.338 1.768-0.338 2.912 0 1.127 0.112 2.089 0.338 2.886 0.242 0.78 0.572 1.421 0.988 1.924 0.416 0.485 0.901 0.841 1.456 1.066 0.572 0.208 1.178 0.312 1.82 0.312 0.641 0 1.239-0.104 1.794-0.312 0.572-0.225 1.066-0.581 1.482-1.066 0.433-0.503 0.771-1.144 1.014-1.924 0.242-0.797 0.364-1.759 0.364-2.886zm16.64-8.06c0.225-0.295 0.459-0.52 0.702-0.676 0.26-0.173 0.598-0.26 1.014-0.26h3.328l-27.222 36.504c-0.174 0.225-0.382 0.407-0.624 0.546-0.243 0.139-0.529 0.208-0.858 0.208h-3.432l27.092-36.322zm7.566 27.534c0 1.456-0.226 2.756-0.676 3.9-0.451 1.144-1.058 2.115-1.82 2.912-0.746 0.78-1.621 1.378-2.626 1.794-0.988 0.416-2.028 0.624-3.12 0.624-1.179 0-2.271-0.208-3.276-0.624-0.988-0.416-1.855-1.014-2.6-1.794-0.746-0.797-1.326-1.768-1.742-2.912s-0.624-2.444-0.624-3.9c0-1.491 0.208-2.817 0.624-3.978 0.416-1.179 0.996-2.167 1.742-2.964 0.745-0.797 1.612-1.404 2.6-1.82 1.005-0.416 2.097-0.624 3.276-0.624 1.161 0 2.244 0.208 3.25 0.624 1.005 0.416 1.88 1.023 2.626 1.82 0.745 0.797 1.326 1.785 1.742 2.964 0.416 1.161 0.624 2.487 0.624 3.978zm-3.588 0c0-1.144-0.122-2.115-0.364-2.912-0.243-0.815-0.581-1.473-1.014-1.976-0.416-0.503-0.91-0.867-1.482-1.092-0.555-0.225-1.153-0.338-1.794-0.338-0.642 0-1.248 0.113-1.82 0.338-0.555 0.225-1.04 0.589-1.456 1.092s-0.746 1.161-0.988 1.976c-0.226 0.797-0.338 1.768-0.338 2.912 0 1.127 0.112 2.08 0.338 2.86 0.242 0.78 0.572 1.421 0.988 1.924 0.416 0.485 0.901 0.841 1.456 1.066 0.572 0.208 1.178 0.312 1.82 0.312 0.641 0 1.239-0.104 1.794-0.312 0.572-0.225 1.066-0.581 1.482-1.066 0.433-0.503 0.771-1.144 1.014-1.924 0.242-0.78 0.364-1.733 0.364-2.86z" fill="#333D47"/>
<path d="m0.064 151.54h1.24c0.13867 0 0.25067 0.035 0.336 0.104s0.14933 0.157 0.192 0.264l3.24 8.088c0.07467 0.181 0.14133 0.379 0.2 0.592 0.064 0.213 0.12533 0.435 0.184 0.664 0.048-0.229 0.09867-0.451 0.152-0.664 0.05867-0.213 0.12533-0.411 0.2-0.592l3.224-8.088c0.03733-0.091 0.10133-0.173 0.192-0.248 0.09067-0.08 0.20267-0.12 0.336-0.12h1.248l-4.672 11.464h-1.4l-4.672-11.464zm14.265 3.232c0.4854 0 0.9334 0.083 1.344 0.248 0.4107 0.16 0.7654 0.395 1.064 0.704 0.2987 0.304 0.5307 0.683 0.696 1.136 0.1707 0.448 0.256 0.96 0.256 1.536 0 0.224-0.024 0.373-0.072 0.448s-0.1386 0.112-0.272 0.112h-5.392c0.0107 0.512 0.08 0.957 0.208 1.336s0.304 0.696 0.528 0.952c0.224 0.251 0.4907 0.44 0.8 0.568 0.3094 0.123 0.656 0.184 1.04 0.184 0.3574 0 0.664-0.04 0.92-0.12 0.2614-0.085 0.4854-0.176 0.672-0.272 0.1867-0.096 0.3414-0.184 0.464-0.264 0.128-0.085 0.2374-0.128 0.328-0.128 0.1174 0 0.208 0.045 0.272 0.136l0.4 0.52c-0.176 0.213-0.3866 0.4-0.632 0.56-0.2453 0.155-0.5093 0.283-0.792 0.384-0.2773 0.101-0.5653 0.176-0.864 0.224-0.2986 0.053-0.5946 0.08-0.888 0.08-0.56 0-1.0773-0.093-1.552-0.28-0.4693-0.192-0.8773-0.469-1.224-0.832-0.3413-0.368-0.608-0.821-0.8-1.36s-0.288-1.157-0.288-1.856c0-0.565 0.0854-1.093 0.256-1.584 0.176-0.491 0.4267-0.915 0.752-1.272 0.3254-0.363 0.7227-0.645 1.192-0.848 0.4694-0.208 0.9974-0.312 1.584-0.312zm0.032 1.048c-0.688 0-1.2293 0.2-1.624 0.6-0.3946 0.395-0.64 0.944-0.736 1.648h4.408c0-0.331-0.0453-0.632-0.136-0.904-0.0906-0.277-0.224-0.515-0.4-0.712-0.176-0.203-0.392-0.357-0.648-0.464-0.2506-0.112-0.5386-0.168-0.864-0.168zm5.1507 7.184v-8.104h0.816c0.1546 0 0.2613 0.029 0.32 0.088 0.0586 0.059 0.0986 0.16 0.12 0.304l0.096 1.264c0.2773-0.565 0.6186-1.005 1.024-1.32 0.4106-0.32 0.8906-0.48 1.44-0.48 0.224 0 0.4266 0.027 0.608 0.08 0.1813 0.048 0.3493 0.117 0.504 0.208l-0.184 1.064c-0.0374 0.133-0.12 0.2-0.248 0.2-0.0747 0-0.1894-0.024-0.344-0.072-0.1547-0.053-0.3707-0.08-0.648-0.08-0.496 0-0.912 0.144-1.248 0.432-0.3307 0.288-0.608 0.707-0.832 1.256v5.16h-1.424zm8.8291 2.392c-0.048 0.107-0.1094 0.192-0.184 0.256-0.0694 0.064-0.1787 0.096-0.328 0.096h-1.056l1.48-3.216-3.344-7.632h1.232c0.1226 0 0.2186 0.032 0.288 0.096 0.0693 0.059 0.12 0.125 0.152 0.2l2.168 5.104c0.048 0.117 0.088 0.235 0.12 0.352 0.0373 0.117 0.0693 0.237 0.096 0.36 0.0373-0.123 0.0746-0.243 0.112-0.36 0.0373-0.117 0.08-0.237 0.128-0.36l2.104-5.096c0.032-0.085 0.0853-0.155 0.16-0.208 0.08-0.059 0.1653-0.088 0.256-0.088h1.136l-4.52 10.496zm-25.589 9.824v11.784h-1.424v-11.784h1.424zm4.0938 3.68v8.104h-1.424v-8.104h1.424zm0.32-2.544c0 0.139-0.02933 0.269-0.088 0.392-0.05333 0.117-0.128 0.224-0.224 0.32-0.09067 0.091-0.19733 0.163-0.32 0.216s-0.25333 0.08-0.392 0.08-0.26933-0.027-0.392-0.08c-0.11733-0.053-0.224-0.125-0.32-0.216-0.09067-0.096-0.16267-0.203-0.216-0.32-0.05333-0.123-0.08-0.253-0.08-0.392s0.02667-0.269 0.08-0.392c0.05333-0.128 0.12533-0.237 0.216-0.328 0.096-0.096 0.20267-0.171 0.32-0.224 0.12267-0.053 0.25333-0.08 0.392-0.08s0.26933 0.027 0.392 0.08 0.22933 0.128 0.32 0.224c0.096 0.091 0.17067 0.2 0.224 0.328 0.05867 0.123 0.088 0.253 0.088 0.392zm3.6698-1.136v6.936h0.368c0.1067 0 0.1947-0.013 0.264-0.04 0.0693-0.032 0.1467-0.093 0.232-0.184l2.56-2.744c0.08-0.085 0.16-0.155 0.24-0.208s0.1867-0.08 0.32-0.08h1.296l-2.984 3.176c-0.0747 0.091-0.1493 0.171-0.224 0.24-0.0693 0.069-0.1493 0.131-0.24 0.184 0.096 0.064 0.1813 0.139 0.256 0.224 0.08 0.08 0.1547 0.173 0.224 0.28l3.168 4h-1.28c-0.1173 0-0.2187-0.021-0.304-0.064-0.08-0.048-0.1573-0.12-0.232-0.216l-2.664-3.32c-0.08-0.112-0.16-0.184-0.24-0.216-0.08-0.037-0.2-0.056-0.36-0.056h-0.4v3.872h-1.432v-11.784h1.432zm9.6343 3.552c0.4853 0 0.9333 0.083 1.344 0.248 0.4106 0.16 0.7653 0.395 1.064 0.704 0.2986 0.304 0.5306 0.683 0.696 1.136 0.1706 0.448 0.256 0.96 0.256 1.536 0 0.224-0.024 0.373-0.072 0.448s-0.1387 0.112-0.272 0.112h-5.392c0.0106 0.512 0.08 0.957 0.208 1.336s0.304 0.696 0.528 0.952c0.224 0.251 0.4906 0.44 0.8 0.568 0.3093 0.123 0.656 0.184 1.04 0.184 0.3573 0 0.664-0.04 0.92-0.12 0.2613-0.085 0.4853-0.176 0.672-0.272 0.1866-0.096 0.3413-0.184 0.464-0.264 0.128-0.085 0.2373-0.128 0.328-0.128 0.1173 0 0.208 0.045 0.272 0.136l0.4 0.52c-0.176 0.213-0.3867 0.4-0.632 0.56-0.2454 0.155-0.5094 0.283-0.792 0.384-0.2774 0.101-0.5654 0.176-0.864 0.224-0.2987 0.053-0.5947 0.08-0.888 0.08-0.56 0-1.0774-0.093-1.552-0.28-0.4694-0.192-0.8774-0.469-1.224-0.832-0.3414-0.368-0.608-0.821-0.8-1.36s-0.288-1.157-0.288-1.856c0-0.565 0.0853-1.093 0.256-1.584 0.176-0.491 0.4266-0.915 0.752-1.272 0.3253-0.363 0.7226-0.645 1.192-0.848 0.4693-0.208 0.9973-0.312 1.584-0.312zm0.0319 1.048c-0.6879 0-1.2293 0.2-1.6239 0.6-0.3947 0.395-0.64 0.944-0.736 1.648h4.408c0-0.331-0.0454-0.632-0.136-0.904-0.0907-0.277-0.224-0.515-0.4-0.712-0.176-0.203-0.392-0.357-0.648-0.464-0.2507-0.112-0.5387-0.168-0.8641-0.168zm6.7347-4.6v11.784h-1.424v-11.784h1.424zm4.8857 14.176c-0.048 0.107-0.1093 0.192-0.184 0.256-0.0693 0.064-0.1786 0.096-0.328 0.096h-1.056l1.48-3.216-3.344-7.632h1.232c0.1227 0 0.2187 0.032 0.288 0.096 0.0694 0.059 0.12 0.125 0.152 0.2l2.168 5.104c0.048 0.117 0.088 0.235 0.12 0.352 0.0374 0.117 0.0694 0.237 0.096 0.36 0.0374-0.123 0.0747-0.243 0.112-0.36 0.0374-0.117 0.08-0.237 0.128-0.36l2.104-5.096c0.032-0.085 0.0854-0.155 0.16-0.208 0.08-0.059 0.1654-0.088 0.256-0.088h1.136l-4.52 10.496z" fill="#333D47"/>
<path d="m95 290h106" stroke="#333D47" stroke-dasharray="3 3"/>
<rect x="195" y="263" width="48" height="48" rx="24" fill="#FCDE02"/>
<path d="m211.92 294.14c-0.642 0-1.23-0.084-1.764-0.252-0.534-0.174-0.993-0.42-1.377-0.738s-0.681-0.702-0.891-1.152c-0.21-0.456-0.315-0.966-0.315-1.53 0-0.828 0.216-1.509 0.648-2.043 0.432-0.54 1.05-0.924 1.854-1.152-0.678-0.252-1.191-0.627-1.539-1.125-0.342-0.504-0.513-1.104-0.513-1.8 0-0.474 0.093-0.918 0.279-1.332s0.45-0.774 0.792-1.08 0.75-0.546 1.224-0.72c0.48-0.174 1.014-0.261 1.602-0.261 0.582 0 1.113 0.087 1.593 0.261s0.891 0.414 1.233 0.72 0.606 0.666 0.792 1.08 0.279 0.858 0.279 1.332c0 0.696-0.174 1.296-0.522 1.8-0.348 0.498-0.858 0.873-1.53 1.125 0.804 0.228 1.422 0.612 1.854 1.152 0.432 0.534 0.648 1.215 0.648 2.043 0 0.564-0.108 1.074-0.324 1.53-0.21 0.45-0.507 0.834-0.891 1.152-0.378 0.318-0.834 0.564-1.368 0.738-0.534 0.168-1.122 0.252-1.764 0.252zm0-1.278c0.42 0 0.795-0.057 1.125-0.171 0.336-0.12 0.618-0.285 0.846-0.495 0.234-0.216 0.411-0.471 0.531-0.765 0.126-0.3 0.189-0.63 0.189-0.99 0-0.444-0.075-0.822-0.225-1.134-0.144-0.318-0.342-0.576-0.594-0.774-0.246-0.198-0.531-0.342-0.855-0.432-0.324-0.096-0.663-0.144-1.017-0.144s-0.693 0.048-1.017 0.144c-0.324 0.09-0.612 0.234-0.864 0.432-0.246 0.198-0.444 0.456-0.594 0.774-0.144 0.312-0.216 0.69-0.216 1.134 0 0.36 0.06 0.69 0.18 0.99 0.126 0.294 0.303 0.549 0.531 0.765 0.234 0.21 0.516 0.375 0.846 0.495 0.336 0.114 0.714 0.171 1.134 0.171zm0-6.192c0.42 0 0.777-0.063 1.071-0.189 0.3-0.132 0.543-0.303 0.729-0.513 0.186-0.216 0.321-0.462 0.405-0.738s0.126-0.561 0.126-0.855c0-0.3-0.051-0.582-0.153-0.846-0.096-0.264-0.243-0.495-0.441-0.693-0.192-0.198-0.435-0.354-0.729-0.468-0.288-0.114-0.624-0.171-1.008-0.171s-0.723 0.057-1.017 0.171c-0.288 0.114-0.531 0.27-0.729 0.468-0.192 0.198-0.339 0.429-0.441 0.693-0.096 0.264-0.144 0.546-0.144 0.846 0 0.294 0.042 0.579 0.126 0.855s0.219 0.522 0.405 0.738c0.186 0.21 0.426 0.381 0.72 0.513 0.3 0.126 0.66 0.189 1.08 0.189zm11.594-2.457c0 0.504-0.078 0.957-0.234 1.359-0.156 0.396-0.366 0.732-0.63 1.008-0.258 0.27-0.561 0.477-0.909 0.621s-0.711 0.216-1.089 0.216c-0.408 0-0.786-0.072-1.134-0.216-0.342-0.144-0.642-0.351-0.9-0.621-0.258-0.276-0.459-0.612-0.603-1.008-0.144-0.402-0.216-0.855-0.216-1.359 0-0.516 0.072-0.975 0.216-1.377s0.345-0.741 0.603-1.017 0.558-0.486 0.9-0.63c0.348-0.144 0.726-0.216 1.134-0.216 0.402 0 0.777 0.072 1.125 0.216 0.354 0.144 0.657 0.354 0.909 0.63 0.258 0.276 0.459 0.615 0.603 1.017 0.15 0.402 0.225 0.861 0.225 1.377zm-1.251 0c0-0.396-0.042-0.732-0.126-1.008s-0.201-0.501-0.351-0.675c-0.144-0.18-0.315-0.309-0.513-0.387-0.192-0.078-0.399-0.117-0.621-0.117s-0.432 0.039-0.63 0.117c-0.192 0.078-0.36 0.207-0.504 0.387-0.144 0.174-0.258 0.399-0.342 0.675-0.078 0.276-0.117 0.612-0.117 1.008 0 0.39 0.039 0.723 0.117 0.999 0.084 0.27 0.198 0.492 0.342 0.666 0.144 0.168 0.312 0.291 0.504 0.369 0.198 0.072 0.408 0.108 0.63 0.108s0.429-0.036 0.621-0.108c0.198-0.078 0.369-0.201 0.513-0.369 0.15-0.174 0.267-0.396 0.351-0.666 0.084-0.276 0.126-0.609 0.126-0.999zm5.76-2.79c0.078-0.102 0.159-0.18 0.243-0.234 0.09-0.06 0.207-0.09 0.351-0.09h1.152l-9.423 12.636c-0.06 0.078-0.132 0.141-0.216 0.189s-0.183 0.072-0.297 0.072h-1.188l9.378-12.573zm2.619 9.531c0 0.504-0.078 0.954-0.234 1.35s-0.366 0.732-0.63 1.008c-0.258 0.27-0.561 0.477-0.909 0.621-0.342 0.144-0.702 0.216-1.08 0.216-0.408 0-0.786-0.072-1.134-0.216-0.342-0.144-0.642-0.351-0.9-0.621-0.258-0.276-0.459-0.612-0.603-1.008s-0.216-0.846-0.216-1.35c0-0.516 0.072-0.975 0.216-1.377 0.144-0.408 0.345-0.75 0.603-1.026s0.558-0.486 0.9-0.63c0.348-0.144 0.726-0.216 1.134-0.216 0.402 0 0.777 0.072 1.125 0.216s0.651 0.354 0.909 0.63 0.459 0.618 0.603 1.026c0.144 0.402 0.216 0.861 0.216 1.377zm-1.242 0c0-0.396-0.042-0.732-0.126-1.008-0.084-0.282-0.201-0.51-0.351-0.684-0.144-0.174-0.315-0.3-0.513-0.378-0.192-0.078-0.399-0.117-0.621-0.117s-0.432 0.039-0.63 0.117c-0.192 0.078-0.36 0.204-0.504 0.378s-0.258 0.402-0.342 0.684c-0.078 0.276-0.117 0.612-0.117 1.008 0 0.39 0.039 0.72 0.117 0.99 0.084 0.27 0.198 0.492 0.342 0.666 0.144 0.168 0.312 0.291 0.504 0.369 0.198 0.072 0.408 0.108 0.63 0.108s0.429-0.036 0.621-0.108c0.198-0.078 0.369-0.201 0.513-0.369 0.15-0.174 0.267-0.396 0.351-0.666s0.126-0.6 0.126-0.99z" fill="#333D47"/>
<path d="m7.264 274.33c-0.048 0.08-0.09867 0.141-0.152 0.184-0.05333 0.037-0.12267 0.056-0.208 0.056-0.09067 0-0.19733-0.045-0.32-0.136-0.11733-0.091-0.26933-0.189-0.456-0.296-0.18133-0.112-0.40267-0.213-0.664-0.304-0.256-0.091-0.568-0.136-0.936-0.136-0.34667 0-0.65333 0.048-0.92 0.144-0.26667 0.091-0.49067 0.216-0.672 0.376-0.176 0.16-0.30933 0.349-0.4 0.568-0.09067 0.213-0.136 0.445-0.136 0.696 0 0.32 0.07733 0.587 0.232 0.8 0.16 0.208 0.368 0.387 0.624 0.536 0.26133 0.149 0.55467 0.28 0.88 0.392 0.33067 0.107 0.66667 0.219 1.008 0.336 0.34667 0.117 0.68267 0.251 1.008 0.4 0.33067 0.144 0.624 0.328 0.88 0.552 0.26133 0.224 0.46933 0.499 0.624 0.824 0.16 0.325 0.24 0.725 0.24 1.2 0 0.501-0.08533 0.973-0.256 1.416-0.17067 0.437-0.42133 0.819-0.752 1.144-0.32533 0.325-0.728 0.581-1.208 0.768-0.47467 0.187-1.016 0.28-1.624 0.28-0.74133 0-1.4187-0.133-2.032-0.4-0.608-0.272-1.128-0.637-1.56-1.096l0.448-0.736c0.042667-0.059 0.09333-0.107 0.152-0.144 0.064-0.043 0.13333-0.064 0.208-0.064 0.112 0 0.24 0.061 0.384 0.184 0.144 0.117 0.32267 0.248 0.536 0.392 0.21867 0.144 0.48 0.277 0.784 0.4 0.30933 0.117 0.68533 0.176 1.128 0.176 0.368 0 0.696-0.051 0.984-0.152s0.53067-0.243 0.728-0.424c0.20267-0.187 0.35733-0.408 0.464-0.664s0.16-0.541 0.16-0.856c0-0.347-0.08-0.629-0.24-0.848-0.15467-0.224-0.36-0.411-0.616-0.56s-0.54933-0.275-0.88-0.376c-0.32533-0.107-0.66133-0.213-1.008-0.32-0.34133-0.112-0.67733-0.24-1.008-0.384-0.32533-0.144-0.616-0.331-0.872-0.56s-0.464-0.515-0.624-0.856c-0.15467-0.347-0.232-0.773-0.232-1.28 0-0.405 0.07733-0.797 0.232-1.176 0.16-0.379 0.38933-0.715 0.688-1.008s0.66667-0.528 1.104-0.704c0.44267-0.176 0.94933-0.264 1.52-0.264 0.64 0 1.224 0.101 1.752 0.304s0.98933 0.496 1.384 0.88l-0.376 0.736zm5.6684 1.44c0.592 0 1.1253 0.099 1.6 0.296 0.48 0.197 0.8853 0.477 1.216 0.84 0.336 0.363 0.592 0.803 0.768 1.32 0.1813 0.512 0.272 1.085 0.272 1.72 0 0.64-0.0907 1.216-0.272 1.728-0.176 0.512-0.432 0.949-0.768 1.312-0.3307 0.363-0.736 0.643-1.216 0.84-0.4747 0.192-1.008 0.288-1.6 0.288s-1.128-0.096-1.608-0.288c-0.4747-0.197-0.88-0.477-1.216-0.84-0.33602-0.363-0.59469-0.8-0.77602-1.312-0.18134-0.512-0.272-1.088-0.272-1.728 0-0.635 0.09066-1.208 0.272-1.72 0.18133-0.517 0.44-0.957 0.77602-1.32 0.336-0.363 0.7413-0.643 1.216-0.84 0.48-0.197 1.016-0.296 1.608-0.296zm0 7.232c0.8 0 1.3973-0.267 1.792-0.8 0.3946-0.539 0.592-1.288 0.592-2.248 0-0.965-0.1974-1.717-0.592-2.256-0.3947-0.539-0.992-0.808-1.792-0.808-0.4054 0-0.7574 0.069-1.056 0.208-0.2987 0.139-0.5494 0.339-0.752 0.6-0.1974 0.261-0.3467 0.584-0.448 0.968-0.096 0.379-0.144 0.808-0.144 1.288s0.048 0.909 0.144 1.288c0.1013 0.379 0.2506 0.699 0.448 0.96 0.2026 0.256 0.4533 0.453 0.752 0.592 0.2986 0.139 0.6506 0.208 1.056 0.208zm5.6106 1v-8.104h0.848c0.2027 0 0.3307 0.099 0.384 0.296l0.104 0.832c0.2987-0.368 0.632-0.669 1-0.904 0.3733-0.235 0.8053-0.352 1.296-0.352 0.5493 0 0.992 0.152 1.328 0.456 0.3413 0.304 0.5867 0.715 0.736 1.232 0.112-0.293 0.2587-0.547 0.44-0.76 0.1867-0.213 0.3947-0.389 0.624-0.528s0.472-0.24 0.728-0.304c0.2613-0.064 0.5253-0.096 0.792-0.096 0.4267 0 0.8053 0.069 1.136 0.208 0.336 0.133 0.6187 0.331 0.848 0.592 0.2347 0.261 0.4133 0.584 0.536 0.968 0.1227 0.379 0.184 0.813 0.184 1.304v5.16h-1.424v-5.16c0-0.635-0.1387-1.115-0.416-1.44-0.2773-0.331-0.68-0.496-1.208-0.496-0.2347 0-0.4587 0.043-0.672 0.128-0.208 0.08-0.392 0.2-0.552 0.36s-0.288 0.363-0.384 0.608c-0.0907 0.24-0.136 0.52-0.136 0.84v5.16h-1.424v-5.16c0-0.651-0.1307-1.136-0.392-1.456s-0.6427-0.48-1.144-0.48c-0.352 0-0.68 0.096-0.984 0.288-0.2987 0.187-0.5733 0.443-0.824 0.768v6.04h-1.424zm16.349-8.232c0.4854 0 0.9334 0.083 1.344 0.248 0.4107 0.16 0.7654 0.395 1.064 0.704 0.2987 0.304 0.5307 0.683 0.696 1.136 0.1707 0.448 0.256 0.96 0.256 1.536 0 0.224-0.024 0.373-0.072 0.448s-0.1386 0.112-0.272 0.112h-5.392c0.0107 0.512 0.08 0.957 0.208 1.336s0.304 0.696 0.528 0.952c0.224 0.251 0.4907 0.44 0.8 0.568 0.3094 0.123 0.656 0.184 1.04 0.184 0.3574 0 0.664-0.04 0.92-0.12 0.2614-0.085 0.4854-0.176 0.672-0.272 0.1867-0.096 0.3414-0.184 0.464-0.264 0.128-0.085 0.2374-0.128 0.328-0.128 0.1174 0 0.208 0.045 0.272 0.136l0.4 0.52c-0.176 0.213-0.3866 0.4-0.632 0.56-0.2453 0.155-0.5093 0.283-0.792 0.384-0.2773 0.101-0.5653 0.176-0.864 0.224-0.2986 0.053-0.5946 0.08-0.888 0.08-0.56 0-1.0773-0.093-1.552-0.28-0.4693-0.192-0.8773-0.469-1.224-0.832-0.3413-0.368-0.608-0.821-0.8-1.36s-0.288-1.157-0.288-1.856c0-0.565 0.0854-1.093 0.256-1.584 0.176-0.491 0.4267-0.915 0.752-1.272 0.3254-0.363 0.7227-0.645 1.192-0.848 0.4694-0.208 0.9974-0.312 1.584-0.312zm0.032 1.048c-0.688 0-1.2293 0.2-1.624 0.6-0.3946 0.395-0.64 0.944-0.736 1.648h4.408c0-0.331-0.0453-0.632-0.136-0.904-0.0906-0.277-0.224-0.515-0.4-0.712-0.176-0.203-0.392-0.357-0.648-0.464-0.2506-0.112-0.5386-0.168-0.864-0.168zm4.0947-0.92h1.12c0.1173 0 0.2133 0.029 0.288 0.088 0.0746 0.059 0.1253 0.128 0.152 0.208l1.552 5.216c0.0426 0.192 0.0826 0.379 0.12 0.56 0.0373 0.176 0.0693 0.355 0.096 0.536 0.0426-0.181 0.0906-0.36 0.144-0.536 0.0533-0.181 0.1093-0.368 0.168-0.56l1.712-5.248c0.0266-0.08 0.072-0.147 0.136-0.2 0.0693-0.053 0.1546-0.08 0.256-0.08h0.616c0.1066 0 0.1946 0.027 0.264 0.08 0.0693 0.053 0.1173 0.12 0.144 0.2l1.672 5.248c0.0586 0.187 0.1093 0.371 0.152 0.552 0.048 0.181 0.0933 0.36 0.136 0.536 0.0266-0.176 0.0613-0.36 0.104-0.552 0.0426-0.192 0.088-0.371 0.136-0.536l1.584-5.216c0.0266-0.085 0.0773-0.155 0.152-0.208 0.0746-0.059 0.1626-0.088 0.264-0.088h1.072l-2.624 8.104h-1.128c-0.1387 0-0.2347-0.091-0.288-0.272l-1.792-5.496c-0.0427-0.123-0.0774-0.245-0.104-0.368-0.0267-0.128-0.0534-0.253-0.08-0.376-0.0267 0.123-0.0534 0.248-0.08 0.376-0.0267 0.128-0.0614 0.253-0.104 0.376l-1.816 5.488c-0.0587 0.181-0.168 0.272-0.328 0.272h-1.072l-2.624-8.104zm13.306 8.104v-11.784h1.424v4.768c0.3466-0.368 0.7306-0.661 1.152-0.88 0.4213-0.224 0.9066-0.336 1.456-0.336 0.4426 0 0.832 0.075 1.168 0.224 0.3413 0.144 0.624 0.352 0.848 0.624 0.2293 0.267 0.4026 0.589 0.52 0.968 0.1173 0.379 0.176 0.797 0.176 1.256v5.16h-1.424v-5.16c0-0.613-0.1414-1.088-0.424-1.424-0.2774-0.341-0.704-0.512-1.28-0.512-0.4214 0-0.816 0.101-1.184 0.304-0.3627 0.203-0.6987 0.477-1.008 0.824v5.968h-1.424zm14.843 0h-0.632c-0.1387 0-0.2507-0.021-0.336-0.064-0.0854-0.043-0.1414-0.133-0.168-0.272l-0.16-0.752c-0.2134 0.192-0.4214 0.365-0.624 0.52-0.2027 0.149-0.416 0.277-0.64 0.384-0.224 0.101-0.464 0.179-0.72 0.232-0.2507 0.053-0.5307 0.08-0.84 0.08-0.3147 0-0.6107-0.043-0.888-0.128-0.272-0.091-0.5094-0.224-0.712-0.4-0.2027-0.176-0.3654-0.397-0.488-0.664-0.1174-0.272-0.176-0.592-0.176-0.96 0-0.32 0.088-0.627 0.264-0.92 0.176-0.299 0.4586-0.563 0.848-0.792 0.3946-0.229 0.9093-0.416 1.544-0.56 0.6346-0.149 1.4106-0.235 2.328-0.256v-0.632c0-0.629-0.136-1.104-0.408-1.424-0.2667-0.325-0.664-0.488-1.192-0.488-0.3467 0-0.64 0.045-0.88 0.136-0.2347 0.085-0.44 0.184-0.616 0.296-0.1707 0.107-0.32 0.205-0.448 0.296-0.1227 0.085-0.2454 0.128-0.368 0.128-0.096 0-0.1814-0.024-0.256-0.072-0.0694-0.053-0.1254-0.117-0.168-0.192l-0.256-0.456c0.448-0.432 0.9306-0.755 1.448-0.968 0.5173-0.213 1.0906-0.32 1.72-0.32 0.4533 0 0.856 0.075 1.208 0.224s0.648 0.357 0.888 0.624 0.4213 0.589 0.544 0.968c0.1226 0.379 0.184 0.795 0.184 1.248v5.184zm-3.696-0.872c0.2506 0 0.48-0.024 0.688-0.072 0.208-0.053 0.4026-0.125 0.584-0.216 0.1866-0.096 0.3626-0.211 0.528-0.344 0.1706-0.133 0.336-0.285 0.496-0.456v-1.688c-0.656 0.021-1.2134 0.075-1.672 0.16-0.4587 0.08-0.832 0.187-1.12 0.32s-0.4987 0.291-0.632 0.472c-0.128 0.181-0.192 0.384-0.192 0.608 0 0.213 0.0346 0.397 0.104 0.552 0.0693 0.155 0.1626 0.283 0.28 0.384 0.1173 0.096 0.256 0.168 0.416 0.216 0.16 0.043 0.3333 0.064 0.52 0.064zm8.3094 1c-0.64 0-1.1334-0.179-1.48-0.536-0.3414-0.357-0.512-0.872-0.512-1.544v-4.96h-0.976c-0.0854 0-0.1574-0.024-0.216-0.072-0.0587-0.053-0.088-0.133-0.088-0.24v-0.568l1.328-0.168 0.328-2.504c0.0106-0.08 0.0453-0.144 0.1039-0.192 0.0587-0.053 0.1334-0.08 0.2241-0.08h0.72v2.792h2.32v1.032h-2.32v4.864c0 0.341 0.0826 0.595 0.248 0.76 0.1653 0.165 0.3786 0.248 0.64 0.248 0.1493 0 0.2773-0.019 0.384-0.056 0.112-0.043 0.208-0.088 0.288-0.136s0.1466-0.091 0.2-0.128c0.0586-0.043 0.1093-0.064 0.152-0.064 0.0746 0 0.1413 0.045 0.2 0.136l0.416 0.68c-0.2454 0.229-0.5414 0.411-0.888 0.544-0.3467 0.128-0.704 0.192-1.072 0.192zm-69.028 12.088v11.784h-1.424v-11.784h1.424zm4.0938 3.68v8.104h-1.424v-8.104h1.424zm0.32-2.544c0 0.139-0.02933 0.269-0.088 0.392-0.05333 0.117-0.128 0.224-0.224 0.32-0.09067 0.091-0.19733 0.163-0.32 0.216s-0.25333 0.08-0.392 0.08-0.26933-0.027-0.392-0.08c-0.11733-0.053-0.224-0.125-0.32-0.216-0.09067-0.096-0.16267-0.203-0.216-0.32-0.05333-0.123-0.08-0.253-0.08-0.392s0.02667-0.269 0.08-0.392c0.05333-0.128 0.12533-0.237 0.216-0.328 0.096-0.096 0.20267-0.171 0.32-0.224 0.12267-0.053 0.25333-0.08 0.392-0.08s0.26933 0.027 0.392 0.08 0.22933 0.128 0.32 0.224c0.096 0.091 0.17067 0.2 0.224 0.328 0.05867 0.123 0.088 0.253 0.088 0.392zm3.6698-1.136v6.936h0.368c0.1067 0 0.1947-0.013 0.264-0.04 0.0693-0.032 0.1467-0.093 0.232-0.184l2.56-2.744c0.08-0.085 0.16-0.155 0.24-0.208s0.1867-0.08 0.32-0.08h1.296l-2.984 3.176c-0.0747 0.091-0.1493 0.171-0.224 0.24-0.0693 0.069-0.1493 0.131-0.24 0.184 0.096 0.064 0.1813 0.139 0.256 0.224 0.08 0.08 0.1547 0.173 0.224 0.28l3.168 4h-1.28c-0.1173 0-0.2187-0.021-0.304-0.064-0.08-0.048-0.1573-0.12-0.232-0.216l-2.664-3.32c-0.08-0.112-0.16-0.184-0.24-0.216-0.08-0.037-0.2-0.056-0.36-0.056h-0.4v3.872h-1.432v-11.784h1.432zm9.6343 3.552c0.4853 0 0.9333 0.083 1.344 0.248 0.4106 0.16 0.7653 0.395 1.064 0.704 0.2986 0.304 0.5306 0.683 0.696 1.136 0.1706 0.448 0.256 0.96 0.256 1.536 0 0.224-0.024 0.373-0.072 0.448s-0.1387 0.112-0.272 0.112h-5.392c0.0106 0.512 0.08 0.957 0.208 1.336s0.304 0.696 0.528 0.952c0.224 0.251 0.4906 0.44 0.8 0.568 0.3093 0.123 0.656 0.184 1.04 0.184 0.3573 0 0.664-0.04 0.92-0.12 0.2613-0.085 0.4853-0.176 0.672-0.272 0.1866-0.096 0.3413-0.184 0.464-0.264 0.128-0.085 0.2373-0.128 0.328-0.128 0.1173 0 0.208 0.045 0.272 0.136l0.4 0.52c-0.176 0.213-0.3867 0.4-0.632 0.56-0.2454 0.155-0.5094 0.283-0.792 0.384-0.2774 0.101-0.5654 0.176-0.864 0.224-0.2987 0.053-0.5947 0.08-0.888 0.08-0.56 0-1.0774-0.093-1.552-0.28-0.4694-0.192-0.8774-0.469-1.224-0.832-0.3414-0.368-0.608-0.821-0.8-1.36s-0.288-1.157-0.288-1.856c0-0.565 0.0853-1.093 0.256-1.584 0.176-0.491 0.4266-0.915 0.752-1.272 0.3253-0.363 0.7226-0.645 1.192-0.848 0.4693-0.208 0.9973-0.312 1.584-0.312zm0.0319 1.048c-0.6879 0-1.2293 0.2-1.6239 0.6-0.3947 0.395-0.64 0.944-0.736 1.648h4.408c0-0.331-0.0454-0.632-0.136-0.904-0.0907-0.277-0.224-0.515-0.4-0.712-0.176-0.203-0.392-0.357-0.648-0.464-0.2507-0.112-0.5387-0.168-0.8641-0.168zm6.7347-4.6v11.784h-1.424v-11.784h1.424zm4.8857 14.176c-0.048 0.107-0.1093 0.192-0.184 0.256-0.0693 0.064-0.1786 0.096-0.328 0.096h-1.056l1.48-3.216-3.344-7.632h1.232c0.1227 0 0.2187 0.032 0.288 0.096 0.0694 0.059 0.12 0.125 0.152 0.2l2.168 5.104c0.048 0.117 0.088 0.235 0.12 0.352 0.0374 0.117 0.0694 0.237 0.096 0.36 0.0374-0.123 0.0747-0.243 0.112-0.36 0.0374-0.117 0.08-0.237 0.128-0.36l2.104-5.096c0.032-0.085 0.0854-0.155 0.16-0.208 0.08-0.059 0.1654-0.088 0.256-0.088h1.136l-4.52 10.496z" fill="#333D47"/>
<path d="m95 362h101.5" stroke="#333D47" stroke-dasharray="3 3"/>
<rect x="192" y="334" width="54" height="54" rx="27" fill="#F79714"/>
<path d="m204.07 366.78h2.772v-8.793c0-0.264 9e-3 -0.531 0.027-0.801l-2.304 1.971c-0.06 0.048-0.12 0.084-0.18 0.108-0.06 0.018-0.117 0.027-0.171 0.027-0.09 0-0.171-0.018-0.243-0.054-0.072-0.042-0.126-0.09-0.162-0.144l-0.504-0.693 3.834-3.321h1.305v11.7h2.538v1.224h-6.912v-1.224zm17.759-5.22c0 1.128-0.123 2.106-0.369 2.934-0.24 0.822-0.57 1.503-0.99 2.043s-0.918 0.942-1.494 1.206c-0.57 0.264-1.182 0.396-1.836 0.396-0.66 0-1.275-0.132-1.845-0.396-0.564-0.264-1.056-0.666-1.476-1.206s-0.75-1.221-0.99-2.043c-0.24-0.828-0.36-1.806-0.36-2.934s0.12-2.106 0.36-2.934 0.57-1.512 0.99-2.052c0.42-0.546 0.912-0.951 1.476-1.215 0.57-0.264 1.185-0.396 1.845-0.396 0.654 0 1.266 0.132 1.836 0.396 0.576 0.264 1.074 0.669 1.494 1.215 0.42 0.54 0.75 1.224 0.99 2.052 0.246 0.828 0.369 1.806 0.369 2.934zm-1.665 0c0-0.984-0.084-1.809-0.252-2.475-0.162-0.672-0.384-1.212-0.666-1.62-0.276-0.408-0.597-0.699-0.963-0.873-0.366-0.18-0.747-0.27-1.143-0.27s-0.777 0.09-1.143 0.27c-0.366 0.174-0.687 0.465-0.963 0.873s-0.498 0.948-0.666 1.62c-0.162 0.666-0.243 1.491-0.243 2.475s0.081 1.809 0.243 2.475c0.168 0.666 0.39 1.203 0.666 1.611s0.597 0.702 0.963 0.882c0.366 0.174 0.747 0.261 1.143 0.261s0.777-0.087 1.143-0.261c0.366-0.18 0.687-0.474 0.963-0.882 0.282-0.408 0.504-0.945 0.666-1.611 0.168-0.666 0.252-1.491 0.252-2.475zm8.569-3.339c0 0.504-0.078 0.957-0.234 1.359-0.156 0.396-0.366 0.732-0.63 1.008-0.258 0.27-0.561 0.477-0.909 0.621s-0.711 0.216-1.089 0.216c-0.408 0-0.786-0.072-1.134-0.216-0.342-0.144-0.642-0.351-0.9-0.621-0.258-0.276-0.459-0.612-0.603-1.008-0.144-0.402-0.216-0.855-0.216-1.359 0-0.516 0.072-0.975 0.216-1.377s0.345-0.741 0.603-1.017 0.558-0.486 0.9-0.63c0.348-0.144 0.726-0.216 1.134-0.216 0.402 0 0.777 0.072 1.125 0.216 0.354 0.144 0.657 0.354 0.909 0.63 0.258 0.276 0.459 0.615 0.603 1.017 0.15 0.402 0.225 0.861 0.225 1.377zm-1.251 0c0-0.396-0.042-0.732-0.126-1.008s-0.201-0.501-0.351-0.675c-0.144-0.18-0.315-0.309-0.513-0.387-0.192-0.078-0.399-0.117-0.621-0.117s-0.432 0.039-0.63 0.117c-0.192 0.078-0.36 0.207-0.504 0.387-0.144 0.174-0.258 0.399-0.342 0.675-0.078 0.276-0.117 0.612-0.117 1.008 0 0.39 0.039 0.723 0.117 0.999 0.084 0.27 0.198 0.492 0.342 0.666 0.144 0.168 0.312 0.291 0.504 0.369 0.198 0.072 0.408 0.108 0.63 0.108s0.429-0.036 0.621-0.108c0.198-0.078 0.369-0.201 0.513-0.369 0.15-0.174 0.267-0.396 0.351-0.666 0.084-0.276 0.126-0.609 0.126-0.999zm5.76-2.79c0.078-0.102 0.159-0.18 0.243-0.234 0.09-0.06 0.207-0.09 0.351-0.09h1.152l-9.423 12.636c-0.06 0.078-0.132 0.141-0.216 0.189s-0.183 0.072-0.297 0.072h-1.188l9.378-12.573zm2.619 9.531c0 0.504-0.078 0.954-0.234 1.35s-0.366 0.732-0.63 1.008c-0.258 0.27-0.561 0.477-0.909 0.621-0.342 0.144-0.702 0.216-1.08 0.216-0.408 0-0.786-0.072-1.134-0.216-0.342-0.144-0.642-0.351-0.9-0.621-0.258-0.276-0.459-0.612-0.603-1.008s-0.216-0.846-0.216-1.35c0-0.516 0.072-0.975 0.216-1.377 0.144-0.408 0.345-0.75 0.603-1.026s0.558-0.486 0.9-0.63c0.348-0.144 0.726-0.216 1.134-0.216 0.402 0 0.777 0.072 1.125 0.216s0.651 0.354 0.909 0.63 0.459 0.618 0.603 1.026c0.144 0.402 0.216 0.861 0.216 1.377zm-1.242 0c0-0.396-0.042-0.732-0.126-1.008-0.084-0.282-0.201-0.51-0.351-0.684-0.144-0.174-0.315-0.3-0.513-0.378-0.192-0.078-0.399-0.117-0.621-0.117s-0.432 0.039-0.63 0.117c-0.192 0.078-0.36 0.204-0.504 0.378s-0.258 0.402-0.342 0.684c-0.078 0.276-0.117 0.612-0.117 1.008 0 0.39 0.039 0.72 0.117 0.99 0.084 0.27 0.198 0.492 0.342 0.666 0.144 0.168 0.312 0.291 0.504 0.369 0.198 0.072 0.408 0.108 0.63 0.108s0.429-0.036 0.621-0.108c0.198-0.078 0.369-0.201 0.513-0.369 0.15-0.174 0.267-0.396 0.351-0.666s0.126-0.6 0.126-0.99z" fill="#333D47"/>
<path d="m7.264 346.33c-0.048 0.08-0.09867 0.141-0.152 0.184-0.05333 0.037-0.12267 0.056-0.208 0.056-0.09067 0-0.19733-0.045-0.32-0.136-0.11733-0.091-0.26933-0.189-0.456-0.296-0.18133-0.112-0.40267-0.213-0.664-0.304-0.256-0.091-0.568-0.136-0.936-0.136-0.34667 0-0.65333 0.048-0.92 0.144-0.26667 0.091-0.49067 0.216-0.672 0.376-0.176 0.16-0.30933 0.349-0.4 0.568-0.09067 0.213-0.136 0.445-0.136 0.696 0 0.32 0.07733 0.587 0.232 0.8 0.16 0.208 0.368 0.387 0.624 0.536 0.26133 0.149 0.55467 0.28 0.88 0.392 0.33067 0.107 0.66667 0.219 1.008 0.336 0.34667 0.117 0.68267 0.251 1.008 0.4 0.33067 0.144 0.624 0.328 0.88 0.552 0.26133 0.224 0.46933 0.499 0.624 0.824 0.16 0.325 0.24 0.725 0.24 1.2 0 0.501-0.08533 0.973-0.256 1.416-0.17067 0.437-0.42133 0.819-0.752 1.144-0.32533 0.325-0.728 0.581-1.208 0.768-0.47467 0.187-1.016 0.28-1.624 0.28-0.74133 0-1.4187-0.133-2.032-0.4-0.608-0.272-1.128-0.637-1.56-1.096l0.448-0.736c0.042667-0.059 0.09333-0.107 0.152-0.144 0.064-0.043 0.13333-0.064 0.208-0.064 0.112 0 0.24 0.061 0.384 0.184 0.144 0.117 0.32267 0.248 0.536 0.392 0.21867 0.144 0.48 0.277 0.784 0.4 0.30933 0.117 0.68533 0.176 1.128 0.176 0.368 0 0.696-0.051 0.984-0.152s0.53067-0.243 0.728-0.424c0.20267-0.187 0.35733-0.408 0.464-0.664s0.16-0.541 0.16-0.856c0-0.347-0.08-0.629-0.24-0.848-0.15467-0.224-0.36-0.411-0.616-0.56s-0.54933-0.275-0.88-0.376c-0.32533-0.107-0.66133-0.213-1.008-0.32-0.34133-0.112-0.67733-0.24-1.008-0.384-0.32533-0.144-0.616-0.331-0.872-0.56s-0.464-0.515-0.624-0.856c-0.15467-0.347-0.232-0.773-0.232-1.28 0-0.405 0.07733-0.797 0.232-1.176 0.16-0.379 0.38933-0.715 0.688-1.008s0.66667-0.528 1.104-0.704c0.44267-0.176 0.94933-0.264 1.52-0.264 0.64 0 1.224 0.101 1.752 0.304s0.98933 0.496 1.384 0.88l-0.376 0.736zm5.6684 1.44c0.592 0 1.1253 0.099 1.6 0.296 0.48 0.197 0.8853 0.477 1.216 0.84 0.336 0.363 0.592 0.803 0.768 1.32 0.1813 0.512 0.272 1.085 0.272 1.72 0 0.64-0.0907 1.216-0.272 1.728-0.176 0.512-0.432 0.949-0.768 1.312-0.3307 0.363-0.736 0.643-1.216 0.84-0.4747 0.192-1.008 0.288-1.6 0.288s-1.128-0.096-1.608-0.288c-0.4747-0.197-0.88-0.477-1.216-0.84-0.33602-0.363-0.59469-0.8-0.77602-1.312-0.18134-0.512-0.272-1.088-0.272-1.728 0-0.635 0.09066-1.208 0.272-1.72 0.18133-0.517 0.44-0.957 0.77602-1.32 0.336-0.363 0.7413-0.643 1.216-0.84 0.48-0.197 1.016-0.296 1.608-0.296zm0 7.232c0.8 0 1.3973-0.267 1.792-0.8 0.3946-0.539 0.592-1.288 0.592-2.248 0-0.965-0.1974-1.717-0.592-2.256-0.3947-0.539-0.992-0.808-1.792-0.808-0.4054 0-0.7574 0.069-1.056 0.208-0.2987 0.139-0.5494 0.339-0.752 0.6-0.1974 0.261-0.3467 0.584-0.448 0.968-0.096 0.379-0.144 0.808-0.144 1.288s0.048 0.909 0.144 1.288c0.1013 0.379 0.2506 0.699 0.448 0.96 0.2026 0.256 0.4533 0.453 0.752 0.592 0.2986 0.139 0.6506 0.208 1.056 0.208zm5.6106 1v-8.104h0.848c0.2027 0 0.3307 0.099 0.384 0.296l0.104 0.832c0.2987-0.368 0.632-0.669 1-0.904 0.3733-0.235 0.8053-0.352 1.296-0.352 0.5493 0 0.992 0.152 1.328 0.456 0.3413 0.304 0.5867 0.715 0.736 1.232 0.112-0.293 0.2587-0.547 0.44-0.76 0.1867-0.213 0.3947-0.389 0.624-0.528s0.472-0.24 0.728-0.304c0.2613-0.064 0.5253-0.096 0.792-0.096 0.4267 0 0.8053 0.069 1.136 0.208 0.336 0.133 0.6187 0.331 0.848 0.592 0.2347 0.261 0.4133 0.584 0.536 0.968 0.1227 0.379 0.184 0.813 0.184 1.304v5.16h-1.424v-5.16c0-0.635-0.1387-1.115-0.416-1.44-0.2773-0.331-0.68-0.496-1.208-0.496-0.2347 0-0.4587 0.043-0.672 0.128-0.208 0.08-0.392 0.2-0.552 0.36s-0.288 0.363-0.384 0.608c-0.0907 0.24-0.136 0.52-0.136 0.84v5.16h-1.424v-5.16c0-0.651-0.1307-1.136-0.392-1.456s-0.6427-0.48-1.144-0.48c-0.352 0-0.68 0.096-0.984 0.288-0.2987 0.187-0.5733 0.443-0.824 0.768v6.04h-1.424zm16.349-8.232c0.4854 0 0.9334 0.083 1.344 0.248 0.4107 0.16 0.7654 0.395 1.064 0.704 0.2987 0.304 0.5307 0.683 0.696 1.136 0.1707 0.448 0.256 0.96 0.256 1.536 0 0.224-0.024 0.373-0.072 0.448s-0.1386 0.112-0.272 0.112h-5.392c0.0107 0.512 0.08 0.957 0.208 1.336s0.304 0.696 0.528 0.952c0.224 0.251 0.4907 0.44 0.8 0.568 0.3094 0.123 0.656 0.184 1.04 0.184 0.3574 0 0.664-0.04 0.92-0.12 0.2614-0.085 0.4854-0.176 0.672-0.272 0.1867-0.096 0.3414-0.184 0.464-0.264 0.128-0.085 0.2374-0.128 0.328-0.128 0.1174 0 0.208 0.045 0.272 0.136l0.4 0.52c-0.176 0.213-0.3866 0.4-0.632 0.56-0.2453 0.155-0.5093 0.283-0.792 0.384-0.2773 0.101-0.5653 0.176-0.864 0.224-0.2986 0.053-0.5946 0.08-0.888 0.08-0.56 0-1.0773-0.093-1.552-0.28-0.4693-0.192-0.8773-0.469-1.224-0.832-0.3413-0.368-0.608-0.821-0.8-1.36s-0.288-1.157-0.288-1.856c0-0.565 0.0854-1.093 0.256-1.584 0.176-0.491 0.4267-0.915 0.752-1.272 0.3254-0.363 0.7227-0.645 1.192-0.848 0.4694-0.208 0.9974-0.312 1.584-0.312zm0.032 1.048c-0.688 0-1.2293 0.2-1.624 0.6-0.3946 0.395-0.64 0.944-0.736 1.648h4.408c0-0.331-0.0453-0.632-0.136-0.904-0.0906-0.277-0.224-0.515-0.4-0.712-0.176-0.203-0.392-0.357-0.648-0.464-0.2506-0.112-0.5386-0.168-0.864-0.168zm4.0947-0.92h1.12c0.1173 0 0.2133 0.029 0.288 0.088 0.0746 0.059 0.1253 0.128 0.152 0.208l1.552 5.216c0.0426 0.192 0.0826 0.379 0.12 0.56 0.0373 0.176 0.0693 0.355 0.096 0.536 0.0426-0.181 0.0906-0.36 0.144-0.536 0.0533-0.181 0.1093-0.368 0.168-0.56l1.712-5.248c0.0266-0.08 0.072-0.147 0.136-0.2 0.0693-0.053 0.1546-0.08 0.256-0.08h0.616c0.1066 0 0.1946 0.027 0.264 0.08 0.0693 0.053 0.1173 0.12 0.144 0.2l1.672 5.248c0.0586 0.187 0.1093 0.371 0.152 0.552 0.048 0.181 0.0933 0.36 0.136 0.536 0.0266-0.176 0.0613-0.36 0.104-0.552 0.0426-0.192 0.088-0.371 0.136-0.536l1.584-5.216c0.0266-0.085 0.0773-0.155 0.152-0.208 0.0746-0.059 0.1626-0.088 0.264-0.088h1.072l-2.624 8.104h-1.128c-0.1387 0-0.2347-0.091-0.288-0.272l-1.792-5.496c-0.0427-0.123-0.0774-0.245-0.104-0.368-0.0267-0.128-0.0534-0.253-0.08-0.376-0.0267 0.123-0.0534 0.248-0.08 0.376-0.0267 0.128-0.0614 0.253-0.104 0.376l-1.816 5.488c-0.0587 0.181-0.168 0.272-0.328 0.272h-1.072l-2.624-8.104zm13.306 8.104v-11.784h1.424v4.768c0.3466-0.368 0.7306-0.661 1.152-0.88 0.4213-0.224 0.9066-0.336 1.456-0.336 0.4426 0 0.832 0.075 1.168 0.224 0.3413 0.144 0.624 0.352 0.848 0.624 0.2293 0.267 0.4026 0.589 0.52 0.968 0.1173 0.379 0.176 0.797 0.176 1.256v5.16h-1.424v-5.16c0-0.613-0.1414-1.088-0.424-1.424-0.2774-0.341-0.704-0.512-1.28-0.512-0.4214 0-0.816 0.101-1.184 0.304-0.3627 0.203-0.6987 0.477-1.008 0.824v5.968h-1.424zm14.843 0h-0.632c-0.1387 0-0.2507-0.021-0.336-0.064-0.0854-0.043-0.1414-0.133-0.168-0.272l-0.16-0.752c-0.2134 0.192-0.4214 0.365-0.624 0.52-0.2027 0.149-0.416 0.277-0.64 0.384-0.224 0.101-0.464 0.179-0.72 0.232-0.2507 0.053-0.5307 0.08-0.84 0.08-0.3147 0-0.6107-0.043-0.888-0.128-0.272-0.091-0.5094-0.224-0.712-0.4-0.2027-0.176-0.3654-0.397-0.488-0.664-0.1174-0.272-0.176-0.592-0.176-0.96 0-0.32 0.088-0.627 0.264-0.92 0.176-0.299 0.4586-0.563 0.848-0.792 0.3946-0.229 0.9093-0.416 1.544-0.56 0.6346-0.149 1.4106-0.235 2.328-0.256v-0.632c0-0.629-0.136-1.104-0.408-1.424-0.2667-0.325-0.664-0.488-1.192-0.488-0.3467 0-0.64 0.045-0.88 0.136-0.2347 0.085-0.44 0.184-0.616 0.296-0.1707 0.107-0.32 0.205-0.448 0.296-0.1227 0.085-0.2454 0.128-0.368 0.128-0.096 0-0.1814-0.024-0.256-0.072-0.0694-0.053-0.1254-0.117-0.168-0.192l-0.256-0.456c0.448-0.432 0.9306-0.755 1.448-0.968 0.5173-0.213 1.0906-0.32 1.72-0.32 0.4533 0 0.856 0.075 1.208 0.224s0.648 0.357 0.888 0.624 0.4213 0.589 0.544 0.968c0.1226 0.379 0.184 0.795 0.184 1.248v5.184zm-3.696-0.872c0.2506 0 0.48-0.024 0.688-0.072 0.208-0.053 0.4026-0.125 0.584-0.216 0.1866-0.096 0.3626-0.211 0.528-0.344 0.1706-0.133 0.336-0.285 0.496-0.456v-1.688c-0.656 0.021-1.2134 0.075-1.672 0.16-0.4587 0.08-0.832 0.187-1.12 0.32s-0.4987 0.291-0.632 0.472c-0.128 0.181-0.192 0.384-0.192 0.608 0 0.213 0.0346 0.397 0.104 0.552 0.0693 0.155 0.1626 0.283 0.28 0.384 0.1173 0.096 0.256 0.168 0.416 0.216 0.16 0.043 0.3333 0.064 0.52 0.064zm8.3094 1c-0.64 0-1.1334-0.179-1.48-0.536-0.3414-0.357-0.512-0.872-0.512-1.544v-4.96h-0.976c-0.0854 0-0.1574-0.024-0.216-0.072-0.0587-0.053-0.088-0.133-0.088-0.24v-0.568l1.328-0.168 0.328-2.504c0.0106-0.08 0.0453-0.144 0.1039-0.192 0.0587-0.053 0.1334-0.08 0.2241-0.08h0.72v2.792h2.32v1.032h-2.32v4.864c0 0.341 0.0826 0.595 0.248 0.76 0.1653 0.165 0.3786 0.248 0.64 0.248 0.1493 0 0.2773-0.019 0.384-0.056 0.112-0.043 0.208-0.088 0.288-0.136s0.1466-0.091 0.2-0.128c0.0586-0.043 0.1093-0.064 0.152-0.064 0.0746 0 0.1413 0.045 0.2 0.136l0.416 0.68c-0.2454 0.229-0.5414 0.411-0.888 0.544-0.3467 0.128-0.704 0.192-1.072 0.192zm-69.38 15.768v5.168c0 0.613 0.14133 1.088 0.424 1.424s0.70933 0.504 1.28 0.504c0.416 0 0.808-0.099 1.176-0.296s0.70667-0.472 1.016-0.824v-5.976h1.424v8.104h-0.848c-0.20267 0-0.33067-0.099-0.384-0.296l-0.112-0.872c-0.352 0.389-0.74667 0.704-1.184 0.944-0.43733 0.235-0.93867 0.352-1.504 0.352-0.44267 0-0.83467-0.072-1.176-0.216-0.336-0.149-0.61867-0.357-0.848-0.624s-0.40267-0.589-0.52-0.968c-0.112-0.379-0.168-0.797-0.168-1.256v-5.168h1.424zm7.6586 8.104v-8.104h0.848c0.2027 0 0.3307 0.099 0.384 0.296l0.112 0.88c0.352-0.389 0.744-0.704 1.176-0.944 0.4374-0.24 0.9414-0.36 1.512-0.36 0.4427 0 0.832 0.075 1.168 0.224 0.3414 0.144 0.624 0.352 0.848 0.624 0.2294 0.267 0.4027 0.589 0.52 0.968 0.1174 0.379 0.176 0.797 0.176 1.256v5.16h-1.424v-5.16c0-0.613-0.1413-1.088-0.424-1.424-0.2773-0.341-0.704-0.512-1.28-0.512-0.4213 0-0.816 0.101-1.184 0.304-0.3626 0.203-0.6986 0.477-1.008 0.824v5.968h-1.424zm10.475-11.784v11.784h-1.424v-11.784h1.424zm4.0937 3.68v8.104h-1.424v-8.104h1.424zm0.32-2.544c0 0.139-0.0293 0.269-0.088 0.392-0.0533 0.117-0.128 0.224-0.224 0.32-0.0907 0.091-0.1973 0.163-0.32 0.216s-0.2533 0.08-0.392 0.08-0.2693-0.027-0.392-0.08c-0.1173-0.053-0.224-0.125-0.32-0.216-0.0907-0.096-0.1627-0.203-0.216-0.32-0.0533-0.123-0.08-0.253-0.08-0.392s0.0267-0.269 0.08-0.392c0.0533-0.128 0.1253-0.237 0.216-0.328 0.096-0.096 0.2027-0.171 0.32-0.224 0.1227-0.053 0.2533-0.08 0.392-0.08s0.2693 0.027 0.392 0.08 0.2293 0.128 0.32 0.224c0.096 0.091 0.1707 0.2 0.224 0.328 0.0587 0.123 0.088 0.253 0.088 0.392zm3.6698-1.136v6.936h0.368c0.1066 0 0.1946-0.013 0.264-0.04 0.0693-0.032 0.1466-0.093 0.232-0.184l2.56-2.744c0.08-0.085 0.16-0.155 0.24-0.208s0.1866-0.08 0.32-0.08h1.296l-2.984 3.176c-0.0747 0.091-0.1494 0.171-0.224 0.24-0.0694 0.069-0.1494 0.131-0.24 0.184 0.096 0.064 0.1813 0.139 0.256 0.224 0.08 0.08 0.1546 0.173 0.224 0.28l3.168 4h-1.28c-0.1174 0-0.2187-0.021-0.304-0.064-0.08-0.048-0.1574-0.12-0.232-0.216l-2.664-3.32c-0.08-0.112-0.16-0.184-0.24-0.216-0.08-0.037-0.2-0.056-0.36-0.056h-0.4v3.872h-1.432v-11.784h1.432zm9.6342 3.552c0.4853 0 0.9333 0.083 1.344 0.248 0.4107 0.16 0.7653 0.395 1.064 0.704 0.2987 0.304 0.5307 0.683 0.696 1.136 0.1707 0.448 0.256 0.96 0.256 1.536 0 0.224-0.024 0.373-0.072 0.448s-0.1387 0.112-0.272 0.112h-5.392c0.0107 0.512 0.08 0.957 0.208 1.336s0.304 0.696 0.528 0.952c0.224 0.251 0.4907 0.44 0.8 0.568 0.3093 0.123 0.656 0.184 1.04 0.184 0.3573 0 0.664-0.04 0.92-0.12 0.2613-0.085 0.4853-0.176 0.672-0.272s0.3413-0.184 0.464-0.264c0.128-0.085 0.2373-0.128 0.328-0.128 0.1173 0 0.208 0.045 0.272 0.136l0.4 0.52c-0.176 0.213-0.3867 0.4-0.632 0.56-0.2453 0.155-0.5093 0.283-0.792 0.384-0.2773 0.101-0.5653 0.176-0.864 0.224-0.2987 0.053-0.5947 0.08-0.888 0.08-0.56 0-1.0773-0.093-1.552-0.28-0.4693-0.192-0.8773-0.469-1.224-0.832-0.3413-0.368-0.608-0.821-0.8-1.36s-0.288-1.157-0.288-1.856c0-0.565 0.0853-1.093 0.256-1.584 0.176-0.491 0.4267-0.915 0.752-1.272 0.3253-0.363 0.7227-0.645 1.192-0.848 0.4693-0.208 0.9973-0.312 1.584-0.312zm0.032 1.048c-0.688 0-1.2293 0.2-1.624 0.6-0.3947 0.395-0.64 0.944-0.736 1.648h4.408c0-0.331-0.0453-0.632-0.136-0.904-0.0907-0.277-0.224-0.515-0.4-0.712-0.176-0.203-0.392-0.357-0.648-0.464-0.2507-0.112-0.5387-0.168-0.864-0.168zm6.7346-4.6v11.784h-1.424v-11.784h1.424zm4.8858 14.176c-0.048 0.107-0.1094 0.192-0.184 0.256-0.0694 0.064-0.1787 0.096-0.328 0.096h-1.056l1.48-3.216-3.344-7.632h1.232c0.1226 0 0.2186 0.032 0.288 0.096 0.0693 0.059 0.12 0.125 0.152 0.2l2.168 5.104c0.048 0.117 0.088 0.235 0.12 0.352 0.0373 0.117 0.0693 0.237 0.096 0.36 0.0373-0.123 0.0746-0.243 0.112-0.36 0.0373-0.117 0.08-0.237 0.128-0.36l2.104-5.096c0.032-0.085 0.0853-0.155 0.16-0.208 0.08-0.059 0.1653-0.088 0.256-0.088h1.136l-4.52 10.496z" fill="#333D47"/>
<path d="m95 441h100" stroke="#333D47" stroke-dasharray="3 3"/>
<rect x="189" y="407" width="60" height="60" rx="30" fill="#F79714"/>
<path d="m204.07 442.78h2.772v-8.793c0-0.264 9e-3 -0.531 0.027-0.801l-2.304 1.971c-0.06 0.048-0.12 0.084-0.18 0.108-0.06 0.018-0.117 0.027-0.171 0.027-0.09 0-0.171-0.018-0.243-0.054-0.072-0.042-0.126-0.09-0.162-0.144l-0.504-0.693 3.834-3.321h1.305v11.7h2.538v1.224h-6.912v-1.224zm16.661-10.971c0 0.228-0.072 0.417-0.216 0.567-0.144 0.144-0.387 0.216-0.729 0.216h-4.05l-0.594 3.384c0.672-0.144 1.293-0.216 1.863-0.216 0.672 0 1.263 0.099 1.773 0.297 0.516 0.198 0.948 0.471 1.296 0.819s0.609 0.759 0.783 1.233c0.18 0.474 0.27 0.99 0.27 1.548 0 0.684-0.12 1.302-0.36 1.854s-0.57 1.026-0.99 1.422c-0.414 0.39-0.903 0.69-1.467 0.9s-1.173 0.315-1.827 0.315c-0.378 0-0.741-0.039-1.089-0.117-0.348-0.072-0.672-0.171-0.972-0.297s-0.579-0.27-0.837-0.432-0.486-0.333-0.684-0.513l0.486-0.684c0.108-0.156 0.252-0.234 0.432-0.234 0.114 0 0.246 0.048 0.396 0.144 0.156 0.09 0.342 0.192 0.558 0.306s0.468 0.219 0.756 0.315c0.294 0.09 0.642 0.135 1.044 0.135 0.45 0 0.855-0.072 1.215-0.216s0.666-0.348 0.918-0.612c0.258-0.27 0.456-0.591 0.594-0.963s0.207-0.789 0.207-1.251c0-0.402-0.06-0.765-0.18-1.089-0.114-0.324-0.291-0.6-0.531-0.828-0.234-0.228-0.528-0.405-0.882-0.531s-0.768-0.189-1.242-0.189c-0.324 0-0.66 0.027-1.008 0.081s-0.708 0.141-1.08 0.261l-1.008-0.297 1.044-6.03h6.111v0.702zm8.002 2.412c0 0.504-0.078 0.957-0.234 1.359-0.156 0.396-0.366 0.732-0.63 1.008-0.258 0.27-0.561 0.477-0.909 0.621s-0.711 0.216-1.089 0.216c-0.408 0-0.786-0.072-1.134-0.216-0.342-0.144-0.642-0.351-0.9-0.621-0.258-0.276-0.459-0.612-0.603-1.008-0.144-0.402-0.216-0.855-0.216-1.359 0-0.516 0.072-0.975 0.216-1.377s0.345-0.741 0.603-1.017 0.558-0.486 0.9-0.63c0.348-0.144 0.726-0.216 1.134-0.216 0.402 0 0.777 0.072 1.125 0.216 0.354 0.144 0.657 0.354 0.909 0.63 0.258 0.276 0.459 0.615 0.603 1.017 0.15 0.402 0.225 0.861 0.225 1.377zm-1.251 0c0-0.396-0.042-0.732-0.126-1.008s-0.201-0.501-0.351-0.675c-0.144-0.18-0.315-0.309-0.513-0.387-0.192-0.078-0.399-0.117-0.621-0.117s-0.432 0.039-0.63 0.117c-0.192 0.078-0.36 0.207-0.504 0.387-0.144 0.174-0.258 0.399-0.342 0.675-0.078 0.276-0.117 0.612-0.117 1.008 0 0.39 0.039 0.723 0.117 0.999 0.084 0.27 0.198 0.492 0.342 0.666 0.144 0.168 0.312 0.291 0.504 0.369 0.198 0.072 0.408 0.108 0.63 0.108s0.429-0.036 0.621-0.108c0.198-0.078 0.369-0.201 0.513-0.369 0.15-0.174 0.267-0.396 0.351-0.666 0.084-0.276 0.126-0.609 0.126-0.999zm5.76-2.79c0.078-0.102 0.159-0.18 0.243-0.234 0.09-0.06 0.207-0.09 0.351-0.09h1.152l-9.423 12.636c-0.06 0.078-0.132 0.141-0.216 0.189s-0.183 0.072-0.297 0.072h-1.188l9.378-12.573zm2.619 9.531c0 0.504-0.078 0.954-0.234 1.35s-0.366 0.732-0.63 1.008c-0.258 0.27-0.561 0.477-0.909 0.621-0.342 0.144-0.702 0.216-1.08 0.216-0.408 0-0.786-0.072-1.134-0.216-0.342-0.144-0.642-0.351-0.9-0.621-0.258-0.276-0.459-0.612-0.603-1.008s-0.216-0.846-0.216-1.35c0-0.516 0.072-0.975 0.216-1.377 0.144-0.408 0.345-0.75 0.603-1.026s0.558-0.486 0.9-0.63c0.348-0.144 0.726-0.216 1.134-0.216 0.402 0 0.777 0.072 1.125 0.216s0.651 0.354 0.909 0.63 0.459 0.618 0.603 1.026c0.144 0.402 0.216 0.861 0.216 1.377zm-1.242 0c0-0.396-0.042-0.732-0.126-1.008-0.084-0.282-0.201-0.51-0.351-0.684-0.144-0.174-0.315-0.3-0.513-0.378-0.192-0.078-0.399-0.117-0.621-0.117s-0.432 0.039-0.63 0.117c-0.192 0.078-0.36 0.204-0.504 0.378s-0.258 0.402-0.342 0.684c-0.078 0.276-0.117 0.612-0.117 1.008 0 0.39 0.039 0.72 0.117 0.99 0.084 0.27 0.198 0.492 0.342 0.666 0.144 0.168 0.312 0.291 0.504 0.369 0.198 0.072 0.408 0.108 0.63 0.108s0.429-0.036 0.621-0.108c0.198-0.078 0.369-0.201 0.513-0.369 0.15-0.174 0.267-0.396 0.351-0.666s0.126-0.6 0.126-0.99z" fill="#333D47"/>
<path d="m0.064 423.54h1.24c0.13867 0 0.25067 0.035 0.336 0.104s0.14933 0.157 0.192 0.264l3.24 8.088c0.07467 0.181 0.14133 0.379 0.2 0.592 0.064 0.213 0.12533 0.435 0.184 0.664 0.048-0.229 0.09867-0.451 0.152-0.664 0.05867-0.213 0.12533-0.411 0.2-0.592l3.224-8.088c0.03733-0.091 0.10133-0.173 0.192-0.248 0.09067-0.08 0.20267-0.12 0.336-0.12h1.248l-4.672 11.464h-1.4l-4.672-11.464zm14.265 3.232c0.4854 0 0.9334 0.083 1.344 0.248 0.4107 0.16 0.7654 0.395 1.064 0.704 0.2987 0.304 0.5307 0.683 0.696 1.136 0.1707 0.448 0.256 0.96 0.256 1.536 0 0.224-0.024 0.373-0.072 0.448s-0.1386 0.112-0.272 0.112h-5.392c0.0107 0.512 0.08 0.957 0.208 1.336s0.304 0.696 0.528 0.952c0.224 0.251 0.4907 0.44 0.8 0.568 0.3094 0.123 0.656 0.184 1.04 0.184 0.3574 0 0.664-0.04 0.92-0.12 0.2614-0.085 0.4854-0.176 0.672-0.272 0.1867-0.096 0.3414-0.184 0.464-0.264 0.128-0.085 0.2374-0.128 0.328-0.128 0.1174 0 0.208 0.045 0.272 0.136l0.4 0.52c-0.176 0.213-0.3866 0.4-0.632 0.56-0.2453 0.155-0.5093 0.283-0.792 0.384-0.2773 0.101-0.5653 0.176-0.864 0.224-0.2986 0.053-0.5946 0.08-0.888 0.08-0.56 0-1.0773-0.093-1.552-0.28-0.4693-0.192-0.8773-0.469-1.224-0.832-0.3413-0.368-0.608-0.821-0.8-1.36s-0.288-1.157-0.288-1.856c0-0.565 0.0854-1.093 0.256-1.584 0.176-0.491 0.4267-0.915 0.752-1.272 0.3254-0.363 0.7227-0.645 1.192-0.848 0.4694-0.208 0.9974-0.312 1.584-0.312zm0.032 1.048c-0.688 0-1.2293 0.2-1.624 0.6-0.3946 0.395-0.64 0.944-0.736 1.648h4.408c0-0.331-0.0453-0.632-0.136-0.904-0.0906-0.277-0.224-0.515-0.4-0.712-0.176-0.203-0.392-0.357-0.648-0.464-0.2506-0.112-0.5386-0.168-0.864-0.168zm5.1507 7.184v-8.104h0.816c0.1546 0 0.2613 0.029 0.32 0.088 0.0586 0.059 0.0986 0.16 0.12 0.304l0.096 1.264c0.2773-0.565 0.6186-1.005 1.024-1.32 0.4106-0.32 0.8906-0.48 1.44-0.48 0.224 0 0.4266 0.027 0.608 0.08 0.1813 0.048 0.3493 0.117 0.504 0.208l-0.184 1.064c-0.0374 0.133-0.12 0.2-0.248 0.2-0.0747 0-0.1894-0.024-0.344-0.072-0.1547-0.053-0.3707-0.08-0.648-0.08-0.496 0-0.912 0.144-1.248 0.432-0.3307 0.288-0.608 0.707-0.832 1.256v5.16h-1.424zm8.8291 2.392c-0.048 0.107-0.1094 0.192-0.184 0.256-0.0694 0.064-0.1787 0.096-0.328 0.096h-1.056l1.48-3.216-3.344-7.632h1.232c0.1226 0 0.2186 0.032 0.288 0.096 0.0693 0.059 0.12 0.125 0.152 0.2l2.168 5.104c0.048 0.117 0.088 0.235 0.12 0.352 0.0373 0.117 0.0693 0.237 0.096 0.36 0.0373-0.123 0.0746-0.243 0.112-0.36 0.0373-0.117 0.08-0.237 0.128-0.36l2.104-5.096c0.032-0.085 0.0853-0.155 0.16-0.208 0.08-0.059 0.1653-0.088 0.256-0.088h1.136l-4.52 10.496zm-25.941 13.504v5.168c0 0.613 0.14133 1.088 0.424 1.424s0.70933 0.504 1.28 0.504c0.416 0 0.808-0.099 1.176-0.296s0.70667-0.472 1.016-0.824v-5.976h1.424v8.104h-0.848c-0.20267 0-0.33067-0.099-0.384-0.296l-0.112-0.872c-0.352 0.389-0.74667 0.704-1.184 0.944-0.43733 0.235-0.93867 0.352-1.504 0.352-0.44267 0-0.83467-0.072-1.176-0.216-0.336-0.149-0.61867-0.357-0.848-0.624s-0.40267-0.589-0.52-0.968c-0.112-0.379-0.168-0.797-0.168-1.256v-5.168h1.424zm7.6586 8.104v-8.104h0.848c0.2027 0 0.3307 0.099 0.384 0.296l0.112 0.88c0.352-0.389 0.744-0.704 1.176-0.944 0.4374-0.24 0.9414-0.36 1.512-0.36 0.4427 0 0.832 0.075 1.168 0.224 0.3414 0.144 0.624 0.352 0.848 0.624 0.2294 0.267 0.4027 0.589 0.52 0.968 0.1174 0.379 0.176 0.797 0.176 1.256v5.16h-1.424v-5.16c0-0.613-0.1413-1.088-0.424-1.424-0.2773-0.341-0.704-0.512-1.28-0.512-0.4213 0-0.816 0.101-1.184 0.304-0.3626 0.203-0.6986 0.477-1.008 0.824v5.968h-1.424zm10.475-11.784v11.784h-1.424v-11.784h1.424zm4.0937 3.68v8.104h-1.424v-8.104h1.424zm0.32-2.544c0 0.139-0.0293 0.269-0.088 0.392-0.0533 0.117-0.128 0.224-0.224 0.32-0.0907 0.091-0.1973 0.163-0.32 0.216s-0.2533 0.08-0.392 0.08-0.2693-0.027-0.392-0.08c-0.1173-0.053-0.224-0.125-0.32-0.216-0.0907-0.096-0.1627-0.203-0.216-0.32-0.0533-0.123-0.08-0.253-0.08-0.392s0.0267-0.269 0.08-0.392c0.0533-0.128 0.1253-0.237 0.216-0.328 0.096-0.096 0.2027-0.171 0.32-0.224 0.1227-0.053 0.2533-0.08 0.392-0.08s0.2693 0.027 0.392 0.08 0.2293 0.128 0.32 0.224c0.096 0.091 0.1707 0.2 0.224 0.328 0.0587 0.123 0.088 0.253 0.088 0.392zm3.6698-1.136v6.936h0.368c0.1066 0 0.1946-0.013 0.264-0.04 0.0693-0.032 0.1466-0.093 0.232-0.184l2.56-2.744c0.08-0.085 0.16-0.155 0.24-0.208s0.1866-0.08 0.32-0.08h1.296l-2.984 3.176c-0.0747 0.091-0.1494 0.171-0.224 0.24-0.0694 0.069-0.1494 0.131-0.24 0.184 0.096 0.064 0.1813 0.139 0.256 0.224 0.08 0.08 0.1546 0.173 0.224 0.28l3.168 4h-1.28c-0.1174 0-0.2187-0.021-0.304-0.064-0.08-0.048-0.1574-0.12-0.232-0.216l-2.664-3.32c-0.08-0.112-0.16-0.184-0.24-0.216-0.08-0.037-0.2-0.056-0.36-0.056h-0.4v3.872h-1.432v-11.784h1.432zm9.6342 3.552c0.4853 0 0.9333 0.083 1.344 0.248 0.4107 0.16 0.7653 0.395 1.064 0.704 0.2987 0.304 0.5307 0.683 0.696 1.136 0.1707 0.448 0.256 0.96 0.256 1.536 0 0.224-0.024 0.373-0.072 0.448s-0.1387 0.112-0.272 0.112h-5.392c0.0107 0.512 0.08 0.957 0.208 1.336s0.304 0.696 0.528 0.952c0.224 0.251 0.4907 0.44 0.8 0.568 0.3093 0.123 0.656 0.184 1.04 0.184 0.3573 0 0.664-0.04 0.92-0.12 0.2613-0.085 0.4853-0.176 0.672-0.272s0.3413-0.184 0.464-0.264c0.128-0.085 0.2373-0.128 0.328-0.128 0.1173 0 0.208 0.045 0.272 0.136l0.4 0.52c-0.176 0.213-0.3867 0.4-0.632 0.56-0.2453 0.155-0.5093 0.283-0.792 0.384-0.2773 0.101-0.5653 0.176-0.864 0.224-0.2987 0.053-0.5947 0.08-0.888 0.08-0.56 0-1.0773-0.093-1.552-0.28-0.4693-0.192-0.8773-0.469-1.224-0.832-0.3413-0.368-0.608-0.821-0.8-1.36s-0.288-1.157-0.288-1.856c0-0.565 0.0853-1.093 0.256-1.584 0.176-0.491 0.4267-0.915 0.752-1.272 0.3253-0.363 0.7227-0.645 1.192-0.848 0.4693-0.208 0.9973-0.312 1.584-0.312zm0.032 1.048c-0.688 0-1.2293 0.2-1.624 0.6-0.3947 0.395-0.64 0.944-0.736 1.648h4.408c0-0.331-0.0453-0.632-0.136-0.904-0.0907-0.277-0.224-0.515-0.4-0.712-0.176-0.203-0.392-0.357-0.648-0.464-0.2507-0.112-0.5387-0.168-0.864-0.168zm6.7346-4.6v11.784h-1.424v-11.784h1.424zm4.8858 14.176c-0.048 0.107-0.1094 0.192-0.184 0.256-0.0694 0.064-0.1787 0.096-0.328 0.096h-1.056l1.48-3.216-3.344-7.632h1.232c0.1226 0 0.2186 0.032 0.288 0.096 0.0693 0.059 0.12 0.125 0.152 0.2l2.168 5.104c0.048 0.117 0.088 0.235 0.12 0.352 0.0373 0.117 0.0693 0.237 0.096 0.36 0.0373-0.123 0.0746-0.243 0.112-0.36 0.0373-0.117 0.08-0.237 0.128-0.36l2.104-5.096c0.032-0.085 0.0853-0.155 0.16-0.208 0.08-0.059 0.1653-0.088 0.256-0.088h1.136l-4.52 10.496z" fill="#333D47"/>
<path d="m93 517h102" stroke="#333D47" stroke-dasharray="3 3"/>
<rect x="189" y="483" width="60" height="60" rx="30" fill="#DAD9D7"/>
<path d="m204.07 518.78h2.772v-8.793c0-0.264 9e-3 -0.531 0.027-0.801l-2.304 1.971c-0.06 0.048-0.12 0.084-0.18 0.108-0.06 0.018-0.117 0.027-0.171 0.027-0.09 0-0.171-0.018-0.243-0.054-0.072-0.042-0.126-0.09-0.162-0.144l-0.504-0.693 3.834-3.321h1.305v11.7h2.538v1.224h-6.912v-1.224zm16.661-10.971c0 0.228-0.072 0.417-0.216 0.567-0.144 0.144-0.387 0.216-0.729 0.216h-4.05l-0.594 3.384c0.672-0.144 1.293-0.216 1.863-0.216 0.672 0 1.263 0.099 1.773 0.297 0.516 0.198 0.948 0.471 1.296 0.819s0.609 0.759 0.783 1.233c0.18 0.474 0.27 0.99 0.27 1.548 0 0.684-0.12 1.302-0.36 1.854s-0.57 1.026-0.99 1.422c-0.414 0.39-0.903 0.69-1.467 0.9s-1.173 0.315-1.827 0.315c-0.378 0-0.741-0.039-1.089-0.117-0.348-0.072-0.672-0.171-0.972-0.297s-0.579-0.27-0.837-0.432-0.486-0.333-0.684-0.513l0.486-0.684c0.108-0.156 0.252-0.234 0.432-0.234 0.114 0 0.246 0.048 0.396 0.144 0.156 0.09 0.342 0.192 0.558 0.306s0.468 0.219 0.756 0.315c0.294 0.09 0.642 0.135 1.044 0.135 0.45 0 0.855-0.072 1.215-0.216s0.666-0.348 0.918-0.612c0.258-0.27 0.456-0.591 0.594-0.963s0.207-0.789 0.207-1.251c0-0.402-0.06-0.765-0.18-1.089-0.114-0.324-0.291-0.6-0.531-0.828-0.234-0.228-0.528-0.405-0.882-0.531s-0.768-0.189-1.242-0.189c-0.324 0-0.66 0.027-1.008 0.081s-0.708 0.141-1.08 0.261l-1.008-0.297 1.044-6.03h6.111v0.702zm8.002 2.412c0 0.504-0.078 0.957-0.234 1.359-0.156 0.396-0.366 0.732-0.63 1.008-0.258 0.27-0.561 0.477-0.909 0.621s-0.711 0.216-1.089 0.216c-0.408 0-0.786-0.072-1.134-0.216-0.342-0.144-0.642-0.351-0.9-0.621-0.258-0.276-0.459-0.612-0.603-1.008-0.144-0.402-0.216-0.855-0.216-1.359 0-0.516 0.072-0.975 0.216-1.377s0.345-0.741 0.603-1.017 0.558-0.486 0.9-0.63c0.348-0.144 0.726-0.216 1.134-0.216 0.402 0 0.777 0.072 1.125 0.216 0.354 0.144 0.657 0.354 0.909 0.63 0.258 0.276 0.459 0.615 0.603 1.017 0.15 0.402 0.225 0.861 0.225 1.377zm-1.251 0c0-0.396-0.042-0.732-0.126-1.008s-0.201-0.501-0.351-0.675c-0.144-0.18-0.315-0.309-0.513-0.387-0.192-0.078-0.399-0.117-0.621-0.117s-0.432 0.039-0.63 0.117c-0.192 0.078-0.36 0.207-0.504 0.387-0.144 0.174-0.258 0.399-0.342 0.675-0.078 0.276-0.117 0.612-0.117 1.008 0 0.39 0.039 0.723 0.117 0.999 0.084 0.27 0.198 0.492 0.342 0.666 0.144 0.168 0.312 0.291 0.504 0.369 0.198 0.072 0.408 0.108 0.63 0.108s0.429-0.036 0.621-0.108c0.198-0.078 0.369-0.201 0.513-0.369 0.15-0.174 0.267-0.396 0.351-0.666 0.084-0.276 0.126-0.609 0.126-0.999zm5.76-2.79c0.078-0.102 0.159-0.18 0.243-0.234 0.09-0.06 0.207-0.09 0.351-0.09h1.152l-9.423 12.636c-0.06 0.078-0.132 0.141-0.216 0.189s-0.183 0.072-0.297 0.072h-1.188l9.378-12.573zm2.619 9.531c0 0.504-0.078 0.954-0.234 1.35s-0.366 0.732-0.63 1.008c-0.258 0.27-0.561 0.477-0.909 0.621-0.342 0.144-0.702 0.216-1.08 0.216-0.408 0-0.786-0.072-1.134-0.216-0.342-0.144-0.642-0.351-0.9-0.621-0.258-0.276-0.459-0.612-0.603-1.008s-0.216-0.846-0.216-1.35c0-0.516 0.072-0.975 0.216-1.377 0.144-0.408 0.345-0.75 0.603-1.026s0.558-0.486 0.9-0.63c0.348-0.144 0.726-0.216 1.134-0.216 0.402 0 0.777 0.072 1.125 0.216s0.651 0.354 0.909 0.63 0.459 0.618 0.603 1.026c0.144 0.402 0.216 0.861 0.216 1.377zm-1.242 0c0-0.396-0.042-0.732-0.126-1.008-0.084-0.282-0.201-0.51-0.351-0.684-0.144-0.174-0.315-0.3-0.513-0.378-0.192-0.078-0.399-0.117-0.621-0.117s-0.432 0.039-0.63 0.117c-0.192 0.078-0.36 0.204-0.504 0.378s-0.258 0.402-0.342 0.684c-0.078 0.276-0.117 0.612-0.117 1.008 0 0.39 0.039 0.72 0.117 0.99 0.084 0.27 0.198 0.492 0.342 0.666 0.144 0.168 0.312 0.291 0.504 0.369 0.198 0.072 0.408 0.108 0.63 0.108s0.429-0.036 0.621-0.108c0.198-0.078 0.369-0.201 0.513-0.369 0.15-0.174 0.267-0.396 0.351-0.666s0.126-0.6 0.126-0.99z" fill="#333D47"/>
<path d="m11.328 505.27c0 0.859-0.136 1.64-0.408 2.344s-0.656 1.307-1.152 1.808-1.0907 0.891-1.784 1.168c-0.69333 0.272-1.4613 0.408-2.304 0.408h-4.288v-11.464h4.288c0.84267 0 1.6107 0.139 2.304 0.416 0.69333 0.272 1.288 0.661 1.784 1.168 0.496 0.501 0.88 1.104 1.152 1.808s0.408 1.485 0.408 2.344zm-1.592 0c0-0.704-0.096-1.333-0.288-1.888s-0.464-1.024-0.816-1.408-0.77867-0.677-1.28-0.88-1.0587-0.304-1.672-0.304h-2.728v8.952h2.728c0.61333 0 1.1707-0.101 1.672-0.304s0.928-0.493 1.28-0.872c0.352-0.384 0.624-0.853 0.816-1.408s0.288-1.184 0.288-1.888zm6.7589-2.504c0.592 0 1.1253 0.099 1.6 0.296 0.48 0.197 0.8853 0.477 1.216 0.84 0.336 0.363 0.592 0.803 0.768 1.32 0.1813 0.512 0.272 1.085 0.272 1.72 0 0.64-0.0907 1.216-0.272 1.728-0.176 0.512-0.432 0.949-0.768 1.312-0.3307 0.363-0.736 0.643-1.216 0.84-0.4747 0.192-1.008 0.288-1.6 0.288s-1.128-0.096-1.608-0.288c-0.4747-0.197-0.88-0.477-1.216-0.84s-0.5947-0.8-0.776-1.312c-0.1814-0.512-0.272-1.088-0.272-1.728 0-0.635 0.0906-1.208 0.272-1.72 0.1813-0.517 0.44-0.957 0.776-1.32s0.7413-0.643 1.216-0.84c0.48-0.197 1.016-0.296 1.608-0.296zm0 7.232c0.8 0 1.3973-0.267 1.792-0.8 0.3946-0.539 0.592-1.288 0.592-2.248 0-0.965-0.1974-1.717-0.592-2.256-0.3947-0.539-0.992-0.808-1.792-0.808-0.4054 0-0.7574 0.069-1.056 0.208-0.2987 0.139-0.5494 0.339-0.752 0.6-0.1974 0.261-0.3467 0.584-0.448 0.968-0.096 0.379-0.144 0.808-0.144 1.288s0.048 0.909 0.144 1.288c0.1013 0.379 0.2506 0.699 0.448 0.96 0.2026 0.256 0.4533 0.453 0.752 0.592 0.2986 0.139 0.6506 0.208 1.056 0.208zm5.6106 1v-8.104h0.848c0.2027 0 0.3307 0.099 0.384 0.296l0.112 0.88c0.352-0.389 0.744-0.704 1.176-0.944 0.4373-0.24 0.9413-0.36 1.512-0.36 0.4427 0 0.832 0.075 1.168 0.224 0.3413 0.144 0.624 0.352 0.848 0.624 0.2293 0.267 0.4027 0.589 0.52 0.968s0.176 0.797 0.176 1.256v5.16h-1.424v-5.16c0-0.613-0.1413-1.088-0.424-1.424-0.2773-0.341-0.704-0.512-1.28-0.512-0.4213 0-0.816 0.101-1.184 0.304-0.3627 0.203-0.6987 0.477-1.008 0.824v5.968h-1.424zm9.3125-12.064c0.1547 0.256 0.2667 0.512 0.336 0.768s0.104 0.512 0.104 0.768c0 0.485-0.12 0.949-0.36 1.392-0.2347 0.437-0.5627 0.84-0.984 1.208l-0.44-0.272c-0.0427-0.027-0.072-0.056-0.088-0.088-0.0107-0.032-0.016-0.064-0.016-0.096 0-0.075 0.0267-0.139 0.08-0.192 0.0853-0.101 0.168-0.211 0.248-0.328 0.08-0.123 0.152-0.248 0.216-0.376 0.064-0.133 0.1147-0.272 0.152-0.416s0.056-0.296 0.056-0.456c0-0.171-0.0267-0.347-0.08-0.528-0.048-0.181-0.1333-0.373-0.256-0.576-0.0373-0.059-0.056-0.117-0.056-0.176 0-0.128 0.072-0.221 0.216-0.28l0.872-0.352zm4.8466 12.192c-0.64 0-1.1333-0.179-1.48-0.536-0.3413-0.357-0.512-0.872-0.512-1.544v-4.96h-0.976c-0.0853 0-0.1573-0.024-0.216-0.072-0.0586-0.053-0.088-0.133-0.088-0.24v-0.568l1.328-0.168 0.328-2.504c0.0107-0.08 0.0454-0.144 0.104-0.192 0.0587-0.053 0.1334-0.08 0.224-0.08h0.72v2.792h2.32v1.032h-2.32v4.864c0 0.341 0.0827 0.595 0.248 0.76 0.1654 0.165 0.3787 0.248 0.64 0.248 0.1494 0 0.2774-0.019 0.384-0.056 0.112-0.043 0.208-0.088 0.288-0.136s0.1467-0.091 0.2-0.128c0.0587-0.043 0.1094-0.064 0.152-0.064 0.0747 0 0.1414 0.045 0.2 0.136l0.416 0.68c-0.2453 0.229-0.5413 0.411-0.888 0.544-0.3466 0.128-0.704 0.192-1.072 0.192zm-33.617 12.088v6.936h0.368c0.10667 0 0.19467-0.013 0.264-0.04 0.06933-0.032 0.14667-0.093 0.232-0.184l2.56-2.744c0.08-0.085 0.16-0.155 0.24-0.208s0.18667-0.08 0.32-0.08h1.296l-2.984 3.176c-0.07467 0.091-0.14933 0.171-0.224 0.24-0.06933 0.069-0.14933 0.131-0.24 0.184 0.096 0.064 0.18133 0.139 0.256 0.224 0.08 0.08 0.15467 0.173 0.224 0.28l3.168 4h-1.28c-0.11733 0-0.21867-0.021-0.304-0.064-0.08-0.048-0.15733-0.12-0.232-0.216l-2.664-3.32c-0.08-0.112-0.16-0.184-0.24-0.216-0.08-0.037-0.2-0.056-0.36-0.056h-0.4v3.872h-1.432v-11.784h1.432zm6.9106 11.784v-8.104h0.84797c0.2027 0 0.3307 0.099 0.384 0.296l0.112 0.88c0.352-0.389 0.744-0.704 1.176-0.944 0.4374-0.24 0.9414-0.36 1.512-0.36 0.4427 0 0.832 0.075 1.168 0.224 0.3414 0.144 0.624 0.352 0.848 0.624 0.2294 0.267 0.4027 0.589 0.52 0.968 0.1174 0.379 0.176 0.797 0.176 1.256v5.16h-1.424v-5.16c0-0.613-0.1413-1.088-0.424-1.424-0.2773-0.341-0.704-0.512-1.28-0.512-0.4213 0-0.816 0.101-1.184 0.304-0.3626 0.203-0.6986 0.477-1.008 0.824v5.968h-1.424zm12.171-8.232c0.592 0 1.1253 0.099 1.6 0.296 0.48 0.197 0.8853 0.477 1.216 0.84 0.336 0.363 0.592 0.803 0.768 1.32 0.1813 0.512 0.272 1.085 0.272 1.72 0 0.64-0.0907 1.216-0.272 1.728-0.176 0.512-0.432 0.949-0.768 1.312-0.3307 0.363-0.736 0.643-1.216 0.84-0.4747 0.192-1.008 0.288-1.6 0.288s-1.128-0.096-1.608-0.288c-0.4747-0.197-0.88-0.477-1.216-0.84s-0.5947-0.8-0.776-1.312c-0.1814-0.512-0.272-1.088-0.272-1.728 0-0.635 0.0906-1.208 0.272-1.72 0.1813-0.517 0.44-0.957 0.776-1.32s0.7413-0.643 1.216-0.84c0.48-0.197 1.016-0.296 1.608-0.296zm0 7.232c0.8 0 1.3973-0.267 1.792-0.8 0.3946-0.539 0.592-1.288 0.592-2.248 0-0.965-0.1974-1.717-0.592-2.256-0.3947-0.539-0.992-0.808-1.792-0.808-0.4054 0-0.7574 0.069-1.056 0.208-0.2987 0.139-0.5494 0.339-0.752 0.6-0.1974 0.261-0.3467 0.584-0.448 0.968-0.096 0.379-0.144 0.808-0.144 1.288s0.048 0.909 0.144 1.288c0.1013 0.379 0.2506 0.699 0.448 0.96 0.2026 0.256 0.4533 0.453 0.752 0.592 0.2986 0.139 0.6506 0.208 1.056 0.208zm4.5546-7.104h1.12c0.1173 0 0.2133 0.029 0.288 0.088 0.0746 0.059 0.1253 0.128 0.152 0.208l1.552 5.216c0.0426 0.192 0.0826 0.379 0.12 0.56 0.0373 0.176 0.0693 0.355 0.096 0.536 0.0426-0.181 0.0906-0.36 0.144-0.536 0.0533-0.181 0.1093-0.368 0.168-0.56l1.712-5.248c0.0266-0.08 0.072-0.147 0.136-0.2 0.0693-0.053 0.1546-0.08 0.256-0.08h0.616c0.1066 0 0.1946 0.027 0.264 0.08 0.0693 0.053 0.1173 0.12 0.144 0.2l1.672 5.248c0.0586 0.187 0.1093 0.371 0.152 0.552 0.048 0.181 0.0933 0.36 0.136 0.536 0.0266-0.176 0.0613-0.36 0.104-0.552 0.0426-0.192 0.088-0.371 0.136-0.536l1.584-5.216c0.0266-0.085 0.0773-0.155 0.152-0.208 0.0746-0.059 0.1626-0.088 0.264-0.088h1.072l-2.624 8.104h-1.128c-0.1387 0-0.2347-0.091-0.288-0.272l-1.792-5.496c-0.0427-0.123-0.0774-0.245-0.104-0.368-0.0267-0.128-0.0534-0.253-0.08-0.376-0.0267 0.123-0.0534 0.248-0.08 0.376-0.0267 0.128-0.0614 0.253-0.104 0.376l-1.816 5.488c-0.0587 0.181-0.168 0.272-0.328 0.272h-1.072l-2.624-8.104z" fill="#333D47"/>
</svg>
