<?xml version="1.0" encoding="UTF-8"?>
<svg viewBox="0 0 151 151" xmlns="http://www.w3.org/2000/svg">
<path d="m46.258 107.11-3.8237-3.221c-2.0557 2.461-3.5294 5.353-4.3113 8.463-0.7818 3.109-0.8516 6.355-0.204 9.495l-7.8094 25.418 4.7794 1.469 5.9687-19.423c0.438 0.716 0.9144 1.407 1.4272 2.071v16.618h5v-17.5c-1e-4 -0.588-0.2075-1.158-0.5856-1.608-5.4372-6.471-5.6222-15.632-0.4413-21.782z" fill="#333D47"/>
<path d="m76.25 43c2.0711 0 3.75-1.6789 3.75-3.75s-1.6789-3.75-3.75-3.75-3.75 1.6789-3.75 3.75 1.6789 3.75 3.75 3.75z" fill="#333D47"/>
<path d="m65 53c-0.6628-7e-4 -1.2983-0.2644-1.7669-0.7331-0.4687-0.4686-0.7324-1.1041-0.7331-1.7669h-5c0 1.9891 0.7902 3.8968 2.1967 5.3033s3.3142 2.1967 5.3033 2.1967 3.8968-0.7902 5.3033-2.1967 2.1967-3.3142 2.1967-5.3033h-5c-7e-4 0.6628-0.2644 1.2983-0.7331 1.7669-0.4686 0.4687-1.1041 0.7324-1.7669 0.7331z" fill="#333D47"/>
<path d="m107.5 130.5h5v10h-5v-10z" fill="#333D47"/>
<path d="m97.5 130.5h5v10h-5v-10z" fill="#333D47"/>
<path d="m87.5 130.5h5v10h-5v-10z" fill="#333D47"/>
<path d="m117.5 130.5h5v10h-5v-10z" fill="#333D47"/>
<path d="m127.5 130.5h5v10h-5v-10z" fill="#333D47"/>
<path d="m107.5 115.5h5v10h-5v-10z" fill="#333D47"/>
<path d="m97.5 115.5h5v10h-5v-10z" fill="#333D47"/>
<path d="m87.5 115.5h5v10h-5v-10z" fill="#333D47"/>
<path d="m117.5 115.5h5v10h-5v-10z" fill="#333D47"/>
<path d="m127.5 115.5h5v10h-5v-10z" fill="#333D47"/>
<path d="m142.5 95.5h-10.817l-10.349-25.479c-0.402-1.0035-1.024-1.9039-1.82-2.6342-0.797-0.7303-1.748-1.2719-2.783-1.5845-1.154-0.3536-2.38-0.4032-3.559-0.144-1.18 0.2592-2.272 0.8183-3.172 1.6234-0.899-0.8052-1.992-1.3642-3.171-1.6231-1.179-0.2588-2.406-0.2087-3.56 0.1456-0.261 0.0789-0.518 0.1728-0.769 0.2812v-33.085c0-3.2428-0.901-6.4217-2.6026-9.1822-1.7015-2.7605-4.1363-4.9942-7.033-6.4519-2.1107-4.9868-5.6398-9.2438-10.149-12.242-4.5093-2.9984-9.7999-4.6062-15.215-4.6237h-5c-6.0782-0.020302-11.988 1.9927-16.791 5.7188l3.0553 3.9578c3.9285-3.0477 8.7634-4.6939 13.735-4.6766h5c4.5753 0.01424 9.0386 1.4164 12.8 4.0211 3.7615 2.6048 6.6442 6.2895 8.2671 10.567 0.9521 2.5289 1.4375 5.2095 1.4328 7.9116v5h-1.0572l-6.5-11.25c-0.1813-0.3138-0.4287-0.5844-0.7249-0.7931-0.2963-0.2086-0.6344-0.3504-0.9909-0.4155s-0.7228-0.0519-1.0737 0.0387-0.6779 0.2564-0.9583 0.4858l-5.6594 4.6304c-7.8491 6.4225-17.219 8.3709-28.065 10.627-1.625 0.3382-3.286 0.6835-4.9688 1.051v-9.3741c2e-4 -5.3496 1.9064-10.524 5.3766-14.596l-3.8053-3.2456c-4.242 4.9767-6.5723 11.302-6.5728 17.841v8.8497c-1.9054 1.1004-3.3944 2.7987-4.2362 4.8316-0.8417 2.0329-0.9891 4.2867-0.4194 6.4119 0.5698 2.1252 1.8249 4.003 3.5706 5.3422 1.7458 1.3392 3.8847 2.0649 6.085 2.0646h1.1443c1.8687 5.9788 5.9238 11.033 11.356 14.152v8.3475c-8e-4 0.6628-0.2644 1.2983-0.7331 1.767-0.4687 0.4686-1.1041 0.7323-1.7669 0.733h-10c-0.1332 0-0.2663 0-0.3991 0.0078-1.162 0.0296-2.3166 0.1941-3.4406 0.49l1.275 4.8344c0.7585-0.1993 1.5378-0.3089 2.3218-0.3266 0.0297 0 0.0688-0.0025 0.0988-0.0043 0.0475-0.0025 0.0959 0 0.1441 0h3.3168c1.7937 4.1081 4.733 7.6124 8.4663 10.094 3.9258 2.574 8.5225 3.9351 13.217 3.9138v-5c-5.5066 0-12.223-2.4375-16.078-9.0088h1.0779c1.9884-0.0023 3.8947-0.7932 5.3007-2.1992 1.406-1.4061 2.1969-3.3124 2.1993-5.3008v-6.144c4.8836 1.5253 10.116 1.5253 15 0v6.144c0.0022 1.9884 0.7931 3.8948 2.1991 5.3008 1.4061 1.4061 3.3124 2.197 5.3009 2.1992h1.0737c-1.165 1.9887-2.7013 3.7351-4.5253 5.1441l3.0559 3.9575c3.0779-2.4002 5.5108-5.5278 7.08-9.1016h3.3157v-5h-10c-0.6629-7e-4 -1.2983-0.2644-1.767-0.733-0.4687-0.4687-0.7323-1.1042-0.733-1.767v-8.3534c2.6793-1.5561 5.0494-3.5921 6.9915-6.0063 1.283 2.4597 3.1355 4.577 5.4031 6.1752 2.2675 1.5982 4.8844 2.631 7.6322 3.0123l-9.2097 22.672h-10.817c-1.792-1e-4 -3.5248 0.6414-4.8847 1.8084-1.3599 1.1669-2.257 2.7827-2.5289 4.5537-0.272 1.771 0.0992 3.581 1.0464 5.102s2.4077 2.653 4.1172 3.191l3.9484 31.585c0.3055 2.417 1.4816 4.64 3.3081 6.253 1.8265 1.612 4.178 2.503 6.6144 2.507h41.758c2.437-3e-3 4.789-0.895 6.615-2.507 1.827-1.613 3.003-3.836 3.308-6.253l0.73-5.838-4.962-0.621-0.729 5.839c-0.153 1.208-0.741 2.32-1.654 3.126-0.913 0.807-2.089 1.252-3.308 1.254h-41.758c-1.2182-2e-3 -2.394-0.447-3.3073-1.253-0.9133-0.807-1.5013-1.918-1.654-3.127l-3.8278-30.62h59.336l-2.153 17.225 4.962 0.62 2.273-18.189c1.711-0.536 3.173-1.668 4.121-3.19 0.948-1.521 1.32-3.332 1.048-5.104s-1.17-3.3882-2.531-4.5553-3.095-1.8081-4.888-1.8068zm-102.5-45c-0.929 0.0012-1.8399-0.2568-2.6303-0.745s-1.4289-1.1873-1.8437-2.0185-0.5895-1.7617-0.5045-2.6867c0.0851-0.9251 0.4265-1.8081 0.986-2.5498 0.2907 0.2196 0.6262 0.3725 0.9827 0.4477 0.3564 0.0752 0.7251 0.071 1.0798-0.0124 0.6458-0.1506 1.2895-0.2973 1.9312-0.44v5.5047c0 0.8341 0.0441 1.6688 0.1269 2.5h-0.1281zm45-2.5c9e-3 3.0586-0.6913 6.0777-2.046 8.82-0.0115 0.0238-0.0225 0.0472-0.0334 0.0713-1.9542 3.9094-5.1248 7.0787-9.035 9.0312-2.71 1.3432-5.6893 2.0545-8.7139 2.0804-3.0245 0.0259-6.0155-0.6342-8.7482-1.9308-2.7326-1.2966-5.1357-3.1959-7.0285-5.5551-1.8929-2.3591-3.2262-5.1167-3.8997-8.0654-0.329-1.461-0.4952-2.954-0.4953-4.4516v-6.5756l0.9884-0.206c1.4019-0.2915 2.7941-0.5812 4.1741-0.8793 0.2739 0.9182 0.8892 1.6966 1.7194 2.175 0.8302 0.4785 1.8122 0.6208 2.7441 0.3975 0.9318-0.2233 1.7427-0.7951 2.2659-1.5978 0.5232-0.8028 0.719-1.7755 0.5471-2.7182 6.7441-1.8387 13.088-4.3859 18.763-9.0312l3.3829-2.7685 5.415 9.3741v11.83zm5-10c1.326 0 2.5978 0.5268 3.5355 1.4645s1.4645 2.2094 1.4645 3.5355-0.5268 2.5979-1.4645 3.5355c-0.9377 0.9377-2.2095 1.4645-3.5355 1.4645v-10zm7.5 29.753c-2.3636-0.4727-4.5385-1.6228-6.2598-3.3101-1.7212-1.6874-2.9144-3.839-3.434-6.1927 0.7601-1.681 1.329-3.442 1.6963-5.25h0.4975c1.4198 2e-4 2.8233-0.3026 4.1167-0.8883s2.4468-1.4407 3.3833-2.5079v18.149zm0-31.356c-0.7174-0.814-1.5616-1.5066-2.5-2.051v-6.3453c0-0.8962-0.0463-1.7862-0.1313-2.6694 1.7119 2.1893 2.6386 4.8903 2.6313 7.6694v3.3963zm16 34.476c0.258-0.1797 0.553-0.2984 0.863-0.3471 0.31-0.0488 0.627-0.0262 0.927 0.0659 0.319 0.0987 0.611 0.268 0.855 0.4952 0.245 0.2272 0.435 0.5065 0.557 0.8173l9.584 23.596h-5.116l-8.505-21.811c-0.196-0.4953-0.22-1.0419-0.068-1.5524 0.151-0.5106 0.469-0.9557 0.903-1.2642zm-3.5 9.745 5.803 14.882h-11.606l5.803-14.882zm-6.7-8.7156c0.121-0.3107 0.312-0.5901 0.556-0.8173s0.537-0.3965 0.856-0.4952c0.3-0.092 0.617-0.1143 0.927-0.0653s0.605 0.168 0.862 0.3481c0.434 0.3085 0.752 0.7536 0.903 1.2641 0.152 0.5105 0.127 1.057-0.068 1.5522l-8.5053 21.811h-5.1163l9.5856-23.598zm39.2 33.598h-65c-0.6631 0-1.299-0.263-1.7678-0.732-0.4689-0.469-0.7322-1.105-0.7322-1.768s0.2633-1.299 0.7322-1.768c0.4688-0.469 1.1047-0.732 1.7678-0.732h65c0.663 0 1.299 0.263 1.768 0.732s0.732 1.105 0.732 1.768-0.263 1.299-0.732 1.768-1.105 0.732-1.768 0.732z" fill="#333D47"/>
<path d="m25 113v-3.821l5.4375-5.343c1.2705-1.249 2.0758-2.894 2.282-4.6637 0.2062-1.7694-0.1989-3.556-1.1482-5.0632 0.6078-1.1059 0.9272-2.3472 0.9287-3.6091v-30c-0.0022-1.9884-0.7931-3.8948-2.1992-5.3008-1.406-1.4061-3.3124-2.197-5.3008-2.1992h-17.5c-1.9884 0.0022-3.8948 0.7931-5.3008 2.1992-1.406 1.406-2.1969 3.3124-2.1992 5.3008v30c3.6264e-4 1.3178 0.34762 2.6123 1.0069 3.7534-0.6605 1.1381-1.0079 2.4307-1.0069 3.7466v15c-2.6268e-4 1.054 0.22232 2.097 0.65316 3.059 0.43084 0.963 1.0602 1.823 1.8468 2.525v29.416h5v-12.5h12.188v-0.358l2.8681 13.382 4.8888-1.048-6.02-28.088c1.0921-0.67 1.9942-1.61 2.6202-2.728 0.6259-1.118 0.9549-2.378 0.9554-3.66zm2.7706-14.717c-5e-4 0.3701-0.0749 0.7363-0.2186 1.0773-0.1438 0.341-0.354 0.6496-0.6186 0.9086l-1.9334 1.9v-4.169c0.9108 0.0013 1.8141-0.1651 2.6647-0.491 0.0711 0.2519 0.1068 0.5124 0.1059 0.7741zm-5.2706-40.283h2.5c0.6628 7e-4 1.2983 0.2644 1.7669 0.7331 0.4687 0.4686 0.7324 1.1041 0.7331 1.7669v30c-0.0081 0.6605-0.2741 1.2917-0.7412 1.7588s-1.0983 0.7331-1.7588 0.7412h-1.9159c-0.1838-0.2053-0.3788-0.4003-0.5841-0.5841v-34.416zm-17.5 2.5c7.5e-4 -0.6628 0.26438-1.2983 0.73306-1.7669 0.46868-0.4687 1.1041-0.7324 1.7669-0.7331h7.5v32.5h-7.5c-0.8381-1e-4 -1.6702 0.1408-2.4616 0.4169-0.02444-0.1377-0.0373-0.2771-0.03844-0.4169v-30zm2.5 70v-10h9.0494l2.1431 10h-11.192zm12.5-17.5c-7e-4 0.663-0.2644 1.298-0.7331 1.767-0.4686 0.469-1.1041 0.732-1.7669 0.733h-10c-0.66281-1e-3 -1.2983-0.264-1.7669-0.733s-0.73231-1.104-0.73306-1.767v-15c7.5e-4 -0.6628 0.26438-1.2983 0.73306-1.767 0.46868-0.4686 1.1041-0.7323 1.7669-0.733h10c0.6628 7e-4 1.2983 0.2644 1.7669 0.733 0.4687 0.4687 0.7324 1.1042 0.7331 1.767v15z" fill="#333D47"/>
</svg>
