<?xml version="1.0" encoding="UTF-8"?>
<svg fill="none" viewBox="0 0 422 422" xmlns="http://www.w3.org/2000/svg">
<circle cx="204" cy="210" r="136" fill="#F0F0F2"/>
<circle cx="204" cy="210" r="182" stroke="#DAD9D7" stroke-dasharray="4 4" stroke-width="2"/>
<path d="m132.07 126.01c-1.601 0-3.136 0.636-4.267 1.768-1.132 1.131-1.768 2.666-1.768 4.267v156.9c0 1.601 0.636 3.136 1.768 4.268 1.131 1.131 2.666 1.767 4.267 1.767h75.021v-168.97h-75.021zm60.345 87.501h-51.293c-0.801 0-1.568-0.318-2.134-0.883-0.566-0.566-0.884-1.334-0.884-2.134s0.318-1.568 0.884-2.133c0.566-0.566 1.333-0.884 2.134-0.884h51.293c0.801 0 1.568 0.318 2.134 0.884 0.566 0.565 0.884 1.333 0.884 2.133s-0.318 1.568-0.884 2.134c-0.566 0.565-1.333 0.883-2.134 0.883zm0-27.155h-51.293c-0.801 0-1.568-0.318-2.134-0.884s-0.884-1.333-0.884-2.133c0-0.801 0.318-1.568 0.884-2.134s1.333-0.884 2.134-0.884h51.293c0.801 0 1.568 0.318 2.134 0.884s0.884 1.333 0.884 2.134c0 0.8-0.318 1.567-0.884 2.133s-1.333 0.884-2.134 0.884zm0-27.156h-51.293c-0.801 0-1.568-0.318-2.134-0.883-0.566-0.566-0.884-1.334-0.884-2.134s0.318-1.568 0.884-2.134c0.566-0.565 1.333-0.883 2.134-0.883h51.293c0.801 0 1.568 0.318 2.134 0.883 0.566 0.566 0.884 1.334 0.884 2.134s-0.318 1.568-0.884 2.134c-0.566 0.565-1.333 0.883-2.134 0.883z" fill="#5754EA"/>
<path d="m225.07 159.73 1.414-1.414-1.414 1.414c0.941 0.941 2.217 1.469 3.548 1.469h51.293c1.331 0 2.607-0.528 3.548-1.469s1.47-2.217 1.47-3.548-0.529-2.607-1.47-3.548-2.217-1.469-3.548-1.469h-51.293c-1.331 0-2.607 0.528-3.548 1.469s-1.47 2.217-1.47 3.548 0.529 2.607 1.47 3.548zm66.746-30.539 1.414-1.414-1.414 1.414c0.757 0.757 1.182 1.783 1.182 2.853v156.9c0 1.07-0.425 2.097-1.182 2.853-0.756 0.757-1.783 1.182-2.853 1.182h-73.432v-164.97h73.432c1.07 0 2.096 0.425 2.853 1.182zm-63.198 86.319h51.293c1.331 0 2.607-0.528 3.548-1.469s1.47-2.217 1.47-3.548-0.529-2.607-1.47-3.548-2.217-1.469-3.548-1.469h-51.293c-1.331 0-2.607 0.528-3.548 1.469s-1.47 2.217-1.47 3.548 0.529 2.607 1.47 3.548 2.217 1.469 3.548 1.469zm0-27.155h51.293c1.331 0 2.607-0.529 3.548-1.47s1.47-2.217 1.47-3.547c0-1.331-0.529-2.607-1.47-3.548s-2.217-1.47-3.548-1.47h-51.293c-1.331 0-2.607 0.529-3.548 1.47s-1.47 2.217-1.47 3.548c0 1.33 0.529 2.606 1.47 3.547s2.217 1.47 3.548 1.47z" fill="#CBF4F0" stroke="#5754EA" stroke-width="4"/>
<rect x="225" y="153" width="58" height="8" rx="4" fill="#5754EA"/>
<rect x="225" y="180" width="58" height="8" rx="4" fill="#5754EA"/>
<rect x="225" y="207" width="59" height="8" rx="4" fill="#5754EA"/>
<path d="m321 235.67 10 5.773v-11.547l-10 5.774zm93.254 6.015 0.707-0.707-0.707 0.707zm7.015 57.312v-2.14h-2v2.14h2zm0-6.419v-4.278h-2v4.278h2zm0-8.557v-4.279h-2v4.279h2zm0-8.558v-4.279h-2v4.279h2zm0-8.558v-4.279h-2v4.279h2zm0-8.557v-2.14h-2v2.14h2zm0-2.14c0-0.708-0.035-1.412-0.103-2.111l-1.991 0.196c0.063 0.634 0.094 1.273 0.094 1.915h2zm-0.927-6.252c-0.41-1.35-0.951-2.657-1.616-3.901l-1.764 0.943c0.603 1.128 1.094 2.314 1.466 3.538l1.914-0.58zm-3.962-7.412c-0.445-0.542-0.919-1.065-1.419-1.566l-1.414 1.414c0.454 0.455 0.883 0.929 1.287 1.421l1.546-1.269zm-1.419-1.566c-0.501-0.5-1.024-0.974-1.566-1.419l-1.269 1.546c0.492 0.404 0.966 0.833 1.421 1.287l1.414-1.414zm-5.077-3.765c-1.244-0.665-2.551-1.206-3.901-1.616l-0.581 1.914c1.225 0.372 2.41 0.863 3.539 1.466l0.943-1.764zm-8.042-2.44c-0.699-0.068-1.403-0.103-2.111-0.103v2c0.642 0 1.281 0.031 1.915 0.094l0.196-1.991zm-2.111-0.103h-1.969v2h1.969v-2zm-5.905 0h-3.937v2h3.937v-2zm-7.873 0h-3.937v2h3.937v-2zm-7.873 0h-3.937v2h3.937v-2zm-7.873 0h-3.937v2h3.937v-2zm-7.873 0h-3.937v2h3.937v-2zm-7.873 0h-3.937v2h3.937v-2zm-7.874 0h-3.936v2h3.936v-2zm-7.873 0h-3.936v2h3.936v-2zm-7.873 0h-3.936v2h3.936v-2z" fill="#5754EA"/>
<path d="m321 176.33 10-5.774v11.547l-10-5.773zm93.254-6.016 0.707 0.707-0.707-0.707zm7.015-57.311v2.139h-2v-2.139h2zm0 6.418v4.279h-2v-4.279h2zm0 8.558v4.279h-2v-4.279h2zm0 8.558v4.278h-2v-4.278h2zm0 8.557v4.279h-2v-4.279h2zm0 8.558v2.139h-2v-2.139h2zm0 2.139c0 0.708-0.035 1.413-0.103 2.112l-1.991-0.196c0.063-0.634 0.094-1.273 0.094-1.916h2zm-0.927 6.253c-0.41 1.35-0.951 2.656-1.616 3.901l-1.764-0.943c0.603-1.129 1.094-2.314 1.466-3.539l1.914 0.581zm-3.962 7.411c-0.445 0.543-0.919 1.066-1.419 1.566l-1.414-1.414c0.454-0.454 0.883-0.928 1.287-1.421l1.546 1.269zm-1.419 1.566c-0.501 0.501-1.024 0.975-1.566 1.42l-1.269-1.546c0.492-0.404 0.966-0.834 1.421-1.288l1.414 1.414zm-5.077 3.766c-1.244 0.665-2.551 1.206-3.901 1.615l-0.581-1.913c1.225-0.372 2.41-0.863 3.539-1.466l0.943 1.764zm-8.042 2.439c-0.699 0.069-1.403 0.104-2.111 0.104v-2c0.642 0 1.281-0.032 1.915-0.094l0.196 1.99zm-2.111 0.104h-1.969v-2h1.969v2zm-5.905 0h-3.937v-2h3.937v2zm-7.873 0h-3.937v-2h3.937v2zm-7.873 0h-3.937v-2h3.937v2zm-7.873 0h-3.937v-2h3.937v2zm-7.873 0h-3.937v-2h3.937v2zm-7.873 0h-3.937v-2h3.937v2zm-7.874 0h-3.936v-2h3.936v2zm-7.873 0h-3.936v-2h3.936v2zm-7.873 0h-3.936v-2h3.936v2z" fill="#5754EA"/>
<path d="m173.33 321-5.774 10h11.547l-5.773-10zm0 78.731h1-1zm-63.327 19.538c-0.552 0-1 0.448-1 1 0 0.553 0.448 1 1 1v-2zm62.327-89.269v69.731h2v-69.731h-2zm0 69.731c0 5.182-2.059 10.151-5.723 13.816l1.414 1.414c4.04-4.039 6.309-9.518 6.309-15.23h-2zm-5.723 13.816c-3.664 3.664-8.634 5.722-13.816 5.722v2c5.713 0 11.191-2.269 15.23-6.308l-1.414-1.414zm-13.816 5.722h-42.788v2h42.788v-2z" fill="#5754EA"/>
<path d="m173.33 100.27-5.774-10h11.547l-5.773 10zm0-78.731h1-1zm-63.327-19.538c-0.552 0-1-0.44772-1-1 0-0.55228 0.448-1 1-1v2zm62.327 89.269v-69.731h2v69.731h-2zm0-69.731c0-5.1819-2.059-10.152-5.723-13.816l1.414-1.4142c4.04 4.0393 6.309 9.5177 6.309 15.23h-2zm-5.723-13.816c-3.664-3.6642-8.634-5.7227-13.816-5.7227v-2c5.713 0 11.191 2.2692 15.23 6.3085l-1.414 1.4142zm-13.816-5.7227h-42.788v-2h42.788v2z" fill="#5754EA"/>
<path d="m247.68 321 5.773 10h-11.547l5.774-10zm6.016 93.254-0.708 0.707 0.708-0.707zm57.311 5.016c0.552 0 1 0.447 1 1 0 0.552-0.448 1-1 1v-2zm0 2h-2.14v-2h2.14v2zm-6.418 0h-4.279v-2h4.279v2zm-8.558 0h-4.279v-2h4.279v2zm-8.558 0h-4.279v-2h4.279v2zm-8.557 0h-4.279v-2h4.279v2zm-8.558 0h-2.14v-2h2.14v2zm-2.14 0c-0.708 0-1.412-0.035-2.111-0.104l0.196-1.99c0.634 0.062 1.273 0.094 1.915 0.094v2zm-6.252-0.928c-1.35-0.409-2.657-0.95-3.901-1.615l0.943-1.764c1.129 0.603 2.314 1.094 3.539 1.465l-0.581 1.914zm-7.412-3.961c-0.542-0.446-1.065-0.919-1.566-1.42l1.415-1.414c0.454 0.454 0.928 0.884 1.42 1.288l-1.269 1.546zm-1.566-1.42c-0.5-0.5-0.974-1.023-1.419-1.566l1.546-1.269c0.404 0.493 0.833 0.967 1.288 1.421l-1.415 1.414zm-3.765-5.077c-0.665-1.244-1.206-2.55-1.616-3.9l1.914-0.581c0.372 1.225 0.863 2.41 1.466 3.539l-1.764 0.942zm-2.439-8.042c-0.069-0.698-0.104-1.403-0.104-2.111h2c0 0.643 0.032 1.282 0.094 1.915l-1.99 0.196zm-0.104-2.111v-1.968h2v1.968h-2zm0-5.905v-3.936h2v3.936h-2zm0-7.873v-3.936h2v3.936h-2zm0-7.873v-3.936h2v3.936h-2zm0-7.873v-3.936h2v3.936h-2zm0-7.873v-3.936h2v3.936h-2zm0-7.873v-3.936h2v3.936h-2zm0-7.873v-3.937h2v3.937h-2zm0-7.873v-3.937h2v3.937h-2zm0-7.873v-3.937h2v3.937h-2z" fill="#5754EA"/>
<path d="m247.68 100.27 5.773-9.9998h-11.547l5.774 9.9998zm6.016-93.253-0.708-0.70711 0.708 0.70711zm57.311-5.0156c0.552 0 1-0.44771 1-1 0-0.55228-0.448-1-1-1v2zm0-2-2.14 2.2613e-7v2h2.14v-2zm-6.418 6.7841e-7 -4.279 4.5228e-7v2h4.279v-2zm-8.558 9.0456e-7 -4.279 4.5228e-7v2h4.279v-2zm-8.558 9.0455e-7 -4.279 4.5228e-7v2l4.279-1e-5v-2zm-8.557 9.0456e-7 -4.279 4.5228e-7v2h4.279v-2zm-8.558 9.0455e-7 -2.14 2.2614e-7v2h2.14v-2zm-2.14 2.2614e-7c-0.708 7.484e-8 -1.412 0.034867-2.111 0.10365l0.196 1.9904c0.634-0.06239 1.273-0.09402 1.915-0.09402v-2zm-6.252 0.92741c-1.35 0.40956-2.657 0.95079-3.901 1.6158l0.943 1.7639c1.129-0.60326 2.314-1.0942 3.539-1.4658l-0.581-1.9139zm-7.412 3.9615c-0.542 0.44536-1.065 0.91885-1.566 1.4195l1.415 1.4142c0.454-0.45423 0.928-0.88376 1.42-1.2877l-1.269-1.546zm-1.566 1.4195c-0.5 0.50067-0.974 1.0235-1.419 1.5661l1.546 1.2688c0.404-0.49222 0.833-0.96649 1.288-1.4207l-1.415-1.4142zm-3.765 5.0768c-0.665 1.2442-1.206 2.5508-1.616 3.9008l1.914 0.5807c0.372-1.2247 0.863-2.4101 1.466-3.5388l-1.764-0.9427zm-2.439 8.042c-0.069 0.6986-0.104 1.4031-0.104 2.1112h2c0-0.6424 0.032-1.2815 0.094-1.9152l-1.99-0.196zm-0.104 2.1112v1.9682h2v-1.9682h-2zm0 5.9048v3.9365h2v-3.9365h-2zm0 7.873v3.9366h2v-3.9366h-2zm0 7.8731v3.9366h2v-3.9366h-2zm0 7.8731v3.9365h2v-3.9365h-2zm0 7.8731v3.9365h2v-3.9365h-2zm0 7.8731v3.9365h2v-3.9365h-2zm0 7.873v3.9366h2v-3.9366h-2zm0 7.8731v3.9365h2v-3.9365h-2zm0 7.8731v3.9365h2v-3.9365h-2z" fill="#5754EA"/>
<path d="m100.27 235.67-10 5.773v-11.547l10 5.774zm-78.731 0v-1 1zm-19.538 63.327c0 0.552-0.44772 1-1 1-0.55229 0-1-0.448-1-1h2zm89.269-62.327h-69.731v-2h69.731v2zm-69.731 0c-5.182 0-10.152 2.058-13.816 5.722l-1.4142-1.414c4.0392-4.039 9.5176-6.308 15.23-6.308v2zm-13.816 5.722c-3.6642 3.665-5.7227 8.634-5.7227 13.816h-2c2.07e-7 -5.712 2.2692-11.191 6.3085-15.23l1.4142 1.414zm-5.7227 13.816v42.789h-2l1.547e-6 -42.789h2z" fill="#5754EA"/>
<path d="m100.27 176.33-10-5.774v11.547l10-5.773zm-78.731 0v1-1zm-19.538-63.327c0-0.552-0.44772-1-1-1-0.55229 0-1 0.448-1 1h2zm89.269 62.327h-69.731v2h69.731v-2zm-69.731 0c-5.182 0-10.152-2.059-13.816-5.723l-1.4142 1.414c4.0392 4.04 9.5176 6.309 15.23 6.309v-2zm-13.816-5.723c-3.6642-3.664-5.7227-8.634-5.7227-13.816h-2c2.07e-7 5.713 2.2692 11.191 6.3085 15.23l1.4142-1.414zm-5.7227-13.816v-42.788h-2l1.547e-6 42.788h2z" fill="#5754EA"/>
</svg>
