<?xml version="1.0" encoding="UTF-8"?>
<svg fill="none" viewBox="0 0 65 24" xmlns="http://www.w3.org/2000/svg">
<g clip-path="url(#a)">
<path d="m53.066 0c-4.3885 0-8.2031 2.3762-10.279 5.9066 1.0465 1.7822 1.6541 3.8699 1.6541 6.0764 0 2.2235-0.6076 4.2942-1.6541 6.0764 2.0761 3.5474 5.9076 5.9236 10.279 5.9236 6.5827 0 11.933-5.3635 11.933-12 0-6.6195-5.3505-11.983-11.933-11.983z" fill="#26358C"/>
<path d="m42.788 5.9066c-2.0761-3.5304-5.9076-5.9066-10.296-5.9066-4.3884 0-8.203 2.3762-10.279 5.9066 1.0465 1.7822 1.6541 3.8699 1.6541 6.0764 0 2.2235-0.6076 4.2942-1.6541 6.0764 2.0761 3.5474 5.9075 5.9236 10.279 5.9236 4.3885 0 8.2031-2.3762 10.279-5.9236-1.0465-1.7822-1.6541-3.8699-1.6541-6.0764 0.0168-2.2065 0.6245-4.2772 1.671-6.0764z" fill="#0068B3"/>
<path d="m22.212 5.9066c-2.0761-3.5304-5.9075-5.9066-10.279-5.9066-6.5996 0-11.933 5.3635-11.933 12 0 6.6195 5.3337 12 11.933 12 4.3884 0 8.203-2.3762 10.279-5.9236-1.0465-1.7822-1.6541-3.8699-1.6541-6.0764 0.0169-2.2235 0.6076-4.2942 1.6541-6.0934z" fill="#36BCEE"/>
<path d="m22.213 18.076c1.0465-1.7822 1.6541-3.8699 1.6541-6.0764 0-2.2235-0.6076-4.2942-1.6541-6.0764-1.0465 1.7822-1.6541 3.8699-1.6541 6.0764 0.0169 2.2235 0.6076 4.2942 1.6541 6.0764z" fill="#005C9E"/>
<path d="m22.213 18.076c-1.0802-1.8331-1.6541-3.9378-1.6541-6.0764 0-2.1386 0.5739-4.2433 1.6541-6.0764 1.0802 1.8331 1.6541 3.9378 1.6541 6.0764 0 2.1386-0.5739 4.2433-1.6541 6.0764zm0-12.153c-1.0802 1.8331-1.6541 3.9378-1.6541 6.0764 0 2.1386 0.5739 4.2433 1.6541 6.0764 1.0802-1.8331 1.6541-3.9378 1.6541-6.0764 0-2.1386-0.5739-4.2433-1.6541-6.0764z" fill="#005C9E"/>
<path d="m42.789 18.076c1.0465-1.7822 1.6541-3.8529 1.6541-6.0764 0-2.2235-0.6076-4.2942-1.6541-6.0764-1.0465 1.7822-1.6541 3.8699-1.6541 6.0764 0 2.2235 0.6076 4.2942 1.6541 6.0764z" fill="#002F60"/>
<path d="m16.423 7.8077h-3.477v10.693h-2.3968v-10.693h-3.3926v-2.1895h9.2664v2.1895z" fill="#fff"/>
<path d="m48.914 5.6182h4.4897c1.7048 0.01698 2.1605 0.03395 2.7681 0.22066 1.2828 0.39038 2.1942 1.5276 2.1942 2.9364 0 0.56011-0.1181 1.256-0.4894 1.7482-0.4051 0.5262-0.9115 0.7977-1.6035 0.9335 1.4178 0.2546 2.6499 1.4088 2.6499 3.3946 0 1.4767-0.6582 2.7836-2.1942 3.3438-0.8102 0.2885-1.4516 0.3055-2.9031 0.3055h-4.9117v-12.883zm2.363 1.9689v3.208h0.7427c0.6751 0 1.1646 0 1.4515-0.017 0.5908 0 1.1984-0.017 1.6373-0.2546 0.5063-0.2546 0.8439-0.74682 0.8439-1.3409 0-0.49222-0.2532-0.98444-0.7427-1.273-0.5063-0.28855-0.7595-0.30552-2.498-0.32249h-1.4347zm0 5.024v3.8189h2.2786c1.4178 0 1.7892 0 2.4137-0.4413 0.3207-0.2376 0.5738-0.7298 0.5738-1.3408 0-0.2886-0.0506-0.645-0.2363-0.9675-0.5738-1.0354-1.9241-1.0523-2.7343-1.0523l-2.2955-0.017z" fill="#fff"/>
<path d="m33.724 10.863-1.3165-0.2885c-1.1478-0.2207-2.3462-0.4413-2.3462-1.5276 0-0.98444 1.114-1.5615 2.3968-1.5615 1.9242 0 2.7681 1.1372 3.2238 1.7992l1.8904-1.5106c-0.9114-1.2051-2.3292-2.4272-4.9792-2.4272-2.9875 0-5.0298 1.5615-5.0298 3.9887 0 2.1217 1.5697 2.9024 2.1436 3.1231 0.3882 0.1697 0.7933 0.2546 1.6034 0.4583l1.536 0.3225c1.1478 0.2715 1.1815 0.2885 1.4853 0.3903 0.3882 0.1698 0.9621 0.4583 0.9621 1.273 0 0.4413-0.1688 1.0863-1.0802 1.4597-0.4557 0.1867-0.9115 0.2207-1.3672 0.2207-2.5487 0-3.5277-1.3239-3.8821-1.8501l-1.9579 1.4767c0.962 1.4766 2.3461 2.0198 3.1732 2.2744 0.7764 0.2206 1.5697 0.2885 2.2617 0.2885 2.7006 0 5.4012-1.1711 5.4012-4.1075 0.0169-2.7327-2.3968-3.4455-4.1184-3.802z" fill="#fff"/>
</g>
<defs>
<clipPath id="a">
<rect width="65" height="24" fill="#fff"/>
</clipPath>
</defs>
</svg>
